<?xml version="1.0" encoding="utf-8"?>
<!DOCTYPE svg PUBLIC "-//W3C//DTD SVG 1.1//EN" "http://www.w3.org/Graphics/SVG/1.1/DTD/svg11.dtd">
<svg version="1.1" id="Layer_1" xmlns="http://www.w3.org/2000/svg" xmlns:xlink="http://www.w3.org/1999/xlink" x="0px" y="0px"
	 width="160px" height="71px" viewBox="0 0 160 71" enable-background="new 0 0 160 71" xml:space="preserve">
<polygon fill="#FFFFFF" points="0,0 31,0 31,31 11,31 11,7 5,7 5,31 0,31 "/>
<polyline fill="#FFFFFF" points="43,0 43,31 74,31 74,25 56,25 56,0 "/>
<polyline fill="#FFFFFF" points="62,0 62,20 74,20 74,0 "/>
<polyline fill="#FFFFFF" points="86.094,0 117,0 117,31 109,31 109,27 92,27 92,22 108,22 108,17 92,17 92,12 108,12 108,7 86,7 "/>
<polyline fill="#FFFFFF" points="129.031,0 129.031,0 160,0 160,31 151,7 144,7 135,31 129,31 "/>
<polygon fill="#FFFFFF" points="143,27 152,27 153,31 142,31 "/>
<polygon fill="#FFFFFF" points="147.5,13 144,23 151,23 "/>
<g>
	<path fill="#FFFFFF" d="M-0.028,42.55h1.596V56h-1.596V42.55z"/>
	<path fill="#FFFFFF" d="M5.957,42.55H7.97l7.789,11.17h0.038V42.55h1.596V56h-2.014L7.59,44.83H7.552V56H5.957V42.55z"/>
	<path fill="#FFFFFF" d="M30.807,44.032h-4.445V56h-1.596V44.032h-4.445V42.55h10.486V44.032z"/>
	<path fill="#FFFFFF" d="M33.734,42.55h8.454v1.482H35.33v4.217h6.402v1.482H35.33v4.787h7.2V56h-8.795V42.55z"/>
	<path fill="#FFFFFF" d="M46.046,42.55h3.438c2.603,0,5.357,0.38,5.357,3.705c0,1.957-1.272,3.229-3.362,3.553L55.297,56h-1.957
		l-3.647-6.041h-2.052V56h-1.596V42.55z M47.642,48.477h1.425c1.767,0,4.065,0,4.065-2.223c0-1.938-1.691-2.223-3.249-2.223h-2.242
		V48.477z"/>
	<path fill="#FFFFFF" d="M58.7,42.55h2.014l7.789,11.17h0.038V42.55h1.596V56h-2.014l-7.789-11.17h-0.038V56H58.7V42.55z"/>
	<path fill="#FFFFFF" d="M78.896,42.55h1.501L86.115,56h-1.862l-1.368-3.306h-6.725L74.774,56h-1.805L78.896,42.55z M79.618,44.602
		H79.58l-2.792,6.611h5.49L79.618,44.602z"/>
	<path fill="#FFFFFF" d="M96.224,44.032h-4.445V56h-1.596V44.032h-4.445V42.55h10.486V44.032z"/>
	<path fill="#FFFFFF" d="M99.151,42.55h1.596V56h-1.596V42.55z"/>
	<path fill="#FFFFFF" d="M104.357,49.275c0-4.065,2.944-7.067,7.029-7.067s7.029,3.001,7.029,7.067s-2.944,7.067-7.029,7.067
		S104.357,53.34,104.357,49.275z M116.705,49.275c0-3.097-2.166-5.585-5.319-5.585c-3.154,0-5.319,2.488-5.319,5.585
		s2.166,5.585,5.319,5.585C114.539,54.86,116.705,52.372,116.705,49.275z"/>
	<path fill="#FFFFFF" d="M122.027,42.55h2.014l7.789,11.17h0.038V42.55h1.596V56h-2.014l-7.789-11.17h-0.038V56h-1.596V42.55z"/>
	<path fill="#FFFFFF" d="M142.223,42.55h1.501L149.442,56h-1.862l-1.368-3.306h-6.725L138.101,56h-1.805L142.223,42.55z
		 M142.945,44.602h-0.038l-2.792,6.611h5.49L142.945,44.602z"/>
	<path fill="#FFFFFF" d="M152.274,42.55h1.596v11.968h6.155V56h-7.751V42.55z"/>
</g>
<g>
	<path fill="#FFFFFF" d="M4.725,69.923v0.879H0.002v-7.998h1.025v7.119H4.725z"/>
	<path fill="#FFFFFF" d="M8.081,70.802H7.079v-7.998h1.002V70.802z"/>
	<path fill="#FFFFFF" d="M16.675,62.804l-2.694,7.998h-0.968l-2.695-7.998h1.049l2.229,6.598l2.208-6.598H16.675z"/>
	<path fill="#FFFFFF" d="M24.092,69.923v0.879h-5.174v-7.998h5.063v0.879H19.92v2.543h3.223v0.814H19.92v2.883H24.092z"/>
	<path fill="#FFFFFF" d="M36.066,69.923v0.879h-5.174v-7.998h5.063v0.879h-4.061v2.543h3.223v0.814h-3.223v2.883H36.066z"/>
	<path fill="#FFFFFF" d="M44.063,62.804l-2.694,7.998h-0.968l-2.695-7.998h1.049l2.229,6.598l2.208-6.598H44.063z"/>
	<path fill="#FFFFFF" d="M51.48,69.923v0.879h-5.174v-7.998h5.063v0.879h-4.061v2.543h3.223v0.814h-3.223v2.883H51.48z"/>
	<path fill="#FFFFFF" d="M59.969,70.802h-0.973l-4.137-6.973l0.012,0.527c0.012,0.199,0.018,0.367,0.018,0.504v5.941h-0.809v-7.998
		h1.254l3.867,6.518l-0.012-0.557c-0.008-0.218-0.012-0.412-0.012-0.58v-5.382h0.791V70.802z"/>
	<path fill="#FFFFFF" d="M65.581,70.802h-1.002v-7.119h-2.291v-0.879h5.59v0.879h-2.297V70.802z"/>
	<path fill="#FFFFFF" d="M69.313,68.687l0.902-0.205c0.363,1.09,1.15,1.635,2.361,1.635c0.633,0,1.109-0.134,1.43-0.403
		s0.48-0.628,0.48-1.079c0-0.341-0.122-0.616-0.366-0.823c-0.244-0.208-0.526-0.351-0.846-0.429l-1.6-0.395
		c-0.414-0.105-0.753-0.234-1.017-0.384c-0.264-0.151-0.487-0.383-0.671-0.695c-0.184-0.313-0.275-0.671-0.275-1.074
		c0-0.669,0.252-1.202,0.756-1.599s1.15-0.596,1.939-0.596c1.453,0,2.408,0.658,2.865,1.975l-0.908,0.27
		c-0.105-0.469-0.354-0.823-0.744-1.063s-0.807-0.36-1.248-0.36c-0.438,0-0.827,0.116-1.169,0.347
		c-0.342,0.232-0.513,0.56-0.513,0.983c0,0.592,0.433,0.993,1.299,1.201l1.496,0.351c1.367,0.328,2.051,1.065,2.051,2.209
		c0,0.691-0.257,1.267-0.771,1.726s-1.237,0.688-2.171,0.688C70.938,70.966,69.844,70.206,69.313,68.687z"/>
	<path fill="#FFFFFF" d="M87.81,70.802h-1.023l-0.805-2.338h-2.968l-0.715,2.338h-0.838l2.599-7.998h1.133L87.81,70.802z
		 M85.769,67.714L84.53,63.87l-1.237,3.844H85.769z"/>
	<path fill="#FFFFFF" d="M89.172,68.687l0.902-0.205c0.363,1.09,1.15,1.635,2.361,1.635c0.633,0,1.109-0.134,1.43-0.403
		s0.48-0.628,0.48-1.079c0-0.341-0.122-0.616-0.366-0.823c-0.244-0.208-0.526-0.351-0.846-0.429l-1.6-0.395
		c-0.414-0.105-0.753-0.234-1.017-0.384c-0.264-0.151-0.487-0.383-0.671-0.695c-0.184-0.313-0.275-0.671-0.275-1.074
		c0-0.669,0.252-1.202,0.756-1.599s1.15-0.596,1.939-0.596c1.453,0,2.408,0.658,2.865,1.975l-0.908,0.27
		c-0.105-0.469-0.354-0.823-0.744-1.063s-0.807-0.36-1.248-0.36c-0.438,0-0.827,0.116-1.169,0.347
		c-0.342,0.232-0.513,0.56-0.513,0.983c0,0.592,0.433,0.993,1.299,1.201l1.496,0.351c1.367,0.328,2.051,1.065,2.051,2.209
		c0,0.691-0.257,1.267-0.771,1.726s-1.237,0.688-2.171,0.688C90.797,70.966,89.704,70.206,89.172,68.687z"/>
	<path fill="#FFFFFF" d="M97.204,68.687l0.902-0.205c0.363,1.09,1.15,1.635,2.361,1.635c0.633,0,1.109-0.134,1.43-0.403
		s0.48-0.628,0.48-1.079c0-0.341-0.122-0.616-0.366-0.823c-0.244-0.208-0.526-0.351-0.846-0.429l-1.6-0.395
		c-0.414-0.105-0.753-0.234-1.017-0.384c-0.264-0.151-0.487-0.383-0.671-0.695c-0.184-0.313-0.275-0.671-0.275-1.074
		c0-0.669,0.252-1.202,0.756-1.599s1.15-0.596,1.939-0.596c1.453,0,2.408,0.658,2.865,1.975l-0.908,0.27
		c-0.105-0.469-0.354-0.823-0.744-1.063s-0.807-0.36-1.248-0.36c-0.438,0-0.827,0.116-1.169,0.347
		c-0.342,0.232-0.513,0.56-0.513,0.983c0,0.592,0.433,0.993,1.299,1.201l1.496,0.351c1.367,0.328,2.051,1.065,2.051,2.209
		c0,0.691-0.257,1.267-0.771,1.726s-1.237,0.688-2.171,0.688C98.829,70.966,97.735,70.206,97.204,68.687z"/>
	<path fill="#FFFFFF" d="M108.875,70.966c-1.027,0-1.828-0.399-2.402-1.199c-0.574-0.799-0.861-1.779-0.861-2.94
		c0-1.212,0.301-2.212,0.902-3.002s1.398-1.185,2.391-1.185c0.988,0,1.781,0.388,2.379,1.164s0.896,1.754,0.896,2.935
		c0,1.134-0.29,2.122-0.87,2.964C110.729,70.545,109.918,70.966,108.875,70.966z M108.898,70.151c0.699,0,1.246-0.318,1.641-0.956
		c0.395-0.637,0.592-1.458,0.592-2.463c0-1.032-0.204-1.835-0.612-2.41s-0.95-0.862-1.626-0.862c-0.684,0-1.227,0.311-1.629,0.933
		s-0.604,1.435-0.604,2.439c0,0.981,0.203,1.78,0.609,2.396S108.219,70.151,108.898,70.151z"/>
	<path fill="#FFFFFF" d="M119.679,68.112l0.914,0.205c-0.438,1.766-1.426,2.648-2.965,2.648c-1.012,0-1.806-0.408-2.382-1.226
		c-0.576-0.817-0.864-1.821-0.864-3.014c0-1.231,0.301-2.22,0.902-2.967s1.408-1.12,2.42-1.12c1.5,0,2.463,0.857,2.889,2.572
		l-0.943,0.188c-0.344-1.273-0.994-1.91-1.951-1.91c-0.707,0-1.255,0.296-1.644,0.888s-0.583,1.423-0.583,2.493
		c0,0.98,0.199,1.767,0.598,2.358s0.926,0.888,1.582,0.888C118.671,70.116,119.347,69.448,119.679,68.112z"/>
	<path fill="#FFFFFF" d="M124.037,70.802h-1.002v-7.998h1.002V70.802z"/>
	<path fill="#FFFFFF" d="M132.621,70.802h-1.023l-0.805-2.338h-2.968l-0.715,2.338h-0.838l2.599-7.998h1.133L132.621,70.802z
		 M130.581,67.714l-1.239-3.844l-1.237,3.844H130.581z"/>
	<path fill="#FFFFFF" d="M136.462,70.802h-1.002v-7.119h-2.291v-0.879h5.59v0.879h-2.297V70.802z"/>
	<path fill="#FFFFFF" d="M142.074,70.802h-1.002v-7.998h1.002V70.802z"/>
	<path fill="#FFFFFF" d="M148.032,70.966c-1.027,0-1.828-0.399-2.402-1.199c-0.574-0.799-0.861-1.779-0.861-2.94
		c0-1.212,0.301-2.212,0.902-3.002s1.398-1.185,2.391-1.185c0.988,0,1.781,0.388,2.379,1.164s0.896,1.754,0.896,2.935
		c0,1.134-0.29,2.122-0.87,2.964C149.887,70.545,149.075,70.966,148.032,70.966z M148.056,70.151c0.699,0,1.246-0.318,1.641-0.956
		c0.395-0.637,0.592-1.458,0.592-2.463c0-1.032-0.204-1.835-0.612-2.41s-0.95-0.862-1.626-0.862c-0.684,0-1.227,0.311-1.629,0.933
		s-0.604,1.435-0.604,2.439c0,0.981,0.203,1.78,0.609,2.396S147.376,70.151,148.056,70.151z"/>
	<path fill="#FFFFFF" d="M159.931,70.802h-0.973l-4.137-6.973l0.012,0.527c0.012,0.199,0.018,0.367,0.018,0.504v5.941h-0.809v-7.998
		h1.254l3.867,6.518l-0.012-0.557c-0.008-0.218-0.012-0.412-0.012-0.58v-5.382h0.791V70.802z"/>
</g>
</svg>
