<?xml version="1.0" encoding="utf-8"?>
<!DOCTYPE svg PUBLIC "-//W3C//DTD SVG 1.1//EN" "http://www.w3.org/Graphics/SVG/1.1/DTD/svg11.dtd">
<svg version="1.1" id="Layer_1" xmlns="http://www.w3.org/2000/svg" xmlns:xlink="http://www.w3.org/1999/xlink" x="0px" y="0px"
	 width="100%" height="100%" viewBox="0 0 538 37" enable-background="new 0 0 538 37" xml:space="preserve">
<g>
	<path fill="#FFFFFF" d="M99.007,5.546h3.012l11.274,26.492h-2.849l-3.175-7.659H93.756l-3.175,7.659h-2.849L99.007,5.546z
		 M106.333,22.159l-5.739-13.727h-0.163l-5.739,13.727H106.333z"/>
	<path fill="#FFFFFF" d="M131.16,5.546h2.605v26.492h-2.605V5.546z"/>
	<path fill="#FFFFFF" d="M162.131,32.63c-1.058,0-2.103-0.154-3.134-0.462c-1.031-0.308-1.994-0.764-2.89-1.369
		s-1.689-1.351-2.381-2.239s-1.201-1.911-1.526-3.071l2.442-0.925c0.245,0.839,0.604,1.616,1.079,2.331
		c0.475,0.716,1.038,1.332,1.689,1.85c0.651,0.518,1.384,0.919,2.198,1.203c0.814,0.284,1.682,0.425,2.604,0.425
		c0.896,0,1.75-0.117,2.564-0.352c0.814-0.234,1.526-0.579,2.137-1.036c0.61-0.456,1.092-1.011,1.445-1.665
		c0.352-0.653,0.529-1.388,0.529-2.202c0-1.406-0.57-2.547-1.709-3.422s-2.795-1.659-4.965-2.35l-1.832-0.592
		c-0.869-0.271-1.723-0.598-2.564-0.98c-0.841-0.382-1.594-0.844-2.259-1.387c-0.665-0.542-1.201-1.19-1.608-1.942
		c-0.407-0.752-0.61-1.634-0.61-2.646c0-0.913,0.21-1.789,0.631-2.627c0.42-0.838,1.011-1.566,1.771-2.183
		c0.759-0.616,1.668-1.11,2.727-1.48c1.058-0.37,2.211-0.555,3.459-0.555c1.329,0,2.496,0.179,3.5,0.537
		c1.003,0.358,1.865,0.802,2.584,1.332c0.719,0.531,1.289,1.104,1.709,1.72c0.42,0.617,0.726,1.184,0.916,1.702l-2.442,0.925
		c-0.136-0.444-0.36-0.894-0.671-1.35c-0.313-0.457-0.727-0.882-1.241-1.277c-0.516-0.394-1.126-0.715-1.832-0.962
		c-0.706-0.246-1.533-0.37-2.483-0.37c-0.814,0-1.581,0.111-2.299,0.333c-0.719,0.222-1.357,0.537-1.913,0.944
		c-0.557,0.407-0.991,0.894-1.302,1.461c-0.313,0.567-0.468,1.184-0.468,1.85c0,0.642,0.143,1.202,0.427,1.683
		c0.285,0.481,0.685,0.913,1.201,1.295c0.515,0.383,1.125,0.728,1.832,1.036c0.705,0.309,1.479,0.599,2.32,0.87l1.873,0.629
		c1.084,0.346,2.109,0.74,3.073,1.184c0.963,0.444,1.797,0.968,2.503,1.572c0.705,0.605,1.268,1.314,1.689,2.128
		c0.42,0.814,0.631,1.751,0.631,2.812c0,1.332-0.285,2.479-0.854,3.441s-1.303,1.751-2.198,2.368
		c-0.896,0.617-1.907,1.073-3.032,1.369C164.322,32.482,163.216,32.63,162.131,32.63z"/>
	<path fill="#FFFFFF" d="M190.581,5.546h2.605v24.235h13.187v2.257h-15.792V5.546z"/>
	<path fill="#FFFFFF" d="M227.414,7.803v9.879h12.536v2.22h-12.536v9.879h13.838v2.257h-16.443V5.546h16.443v2.257H227.414z"/>
	<path fill="#FFFFFF" d="M284.718,32.038V5.546h9.442c1.248,0,2.422,0.185,3.521,0.555c1.099,0.37,2.056,0.895,2.87,1.573
		c0.814,0.679,1.458,1.493,1.933,2.442c0.475,0.95,0.712,2.004,0.712,3.164c0,1.16-0.238,2.214-0.712,3.163
		c-0.475,0.95-1.119,1.764-1.933,2.442c-0.814,0.679-1.771,1.202-2.87,1.572c-1.099,0.37-2.272,0.555-3.521,0.555h-6.837v11.026
		H284.718z M294.283,18.755c0.896,0,1.723-0.142,2.483-0.425c0.759-0.283,1.417-0.672,1.974-1.166
		c0.556-0.493,0.997-1.073,1.323-1.739c0.325-0.666,0.488-1.381,0.488-2.146s-0.163-1.486-0.488-2.165
		c-0.326-0.678-0.767-1.258-1.323-1.739c-0.557-0.481-1.215-0.863-1.974-1.147c-0.76-0.283-1.587-0.425-2.483-0.425h-6.959v10.952
		H294.283z"/>
	<path fill="#FFFFFF" d="M321.633,5.546h2.605v24.235h13.186v2.257h-15.791V5.546z"/>
	<path fill="#FFFFFF" d="M364.531,5.546h3.012l11.273,26.492h-2.849l-3.175-7.659h-13.512l-3.176,7.659h-2.848L364.531,5.546z
		 M371.857,22.159l-5.739-13.727h-0.163l-5.738,13.727H371.857z"/>
	<path fill="#FFFFFF" d="M396.684,5.546h3.379l15.832,22.348h0.162l-0.162-5.106V5.546h2.604v26.492h-2.687L399.289,8.691h-0.164
		l0.164,5.106v18.241h-2.605V5.546z"/>
	<path fill="#FFFFFF" d="M439.012,5.546h3.378l15.832,22.348h0.163l-0.163-5.106V5.546h2.604v26.492h-2.686L441.616,8.691h-0.163
		l0.163,5.106v18.241h-2.604V5.546z"/>
	<path fill="#FFFFFF" d="M483.943,7.803v9.879h12.535v2.22h-12.535v9.879h13.838v2.257h-16.443V5.546h16.443v2.257H483.943z"/>
	<path fill="#FFFFFF" d="M517.439,5.546h9.646c1.222,0,2.367,0.191,3.438,0.574c1.072,0.383,2.008,0.913,2.809,1.591
		c0.801,0.679,1.432,1.493,1.893,2.442c0.461,0.95,0.692,1.993,0.692,3.127c0,0.938-0.183,1.819-0.55,2.646
		c-0.366,0.827-0.869,1.56-1.506,2.201c-0.638,0.642-1.391,1.19-2.259,1.646c-0.868,0.457-1.805,0.784-2.808,0.98l-0.082,0.111
		l8.303,11.026v0.148h-2.971l-8.222-11.026h-5.779v11.026h-2.604V5.546z M526.719,18.792c0.868,0,1.695-0.135,2.482-0.407
		s1.486-0.647,2.096-1.129c0.611-0.481,1.092-1.06,1.445-1.739c0.353-0.678,0.529-1.424,0.529-2.238
		c0-0.765-0.163-1.486-0.488-2.165c-0.326-0.678-0.768-1.258-1.322-1.739c-0.557-0.481-1.215-0.863-1.975-1.147
		c-0.76-0.283-1.588-0.425-2.482-0.425h-6.96v10.989H526.719z"/>
</g>
<g>
	<path fill="#FFFFFF" d="M18.5,35C9.402,35,2,27.598,2,18.5S9.402,2,18.5,2c1.993,0,3.892,0.378,5.659,1.032
		c0.638-0.489,1.305-0.939,2.002-1.349C23.828,0.61,21.238,0,18.5,0C8.283,0,0,8.283,0,18.5S8.283,37,18.5,37
		c2.738,0,5.328-0.61,7.662-1.684c-0.697-0.409-1.365-0.859-2.002-1.349C22.392,34.622,20.493,35,18.5,35z"/>
	<path fill="none" d="M25.252,3.461c0.632-0.453,1.285-0.878,1.972-1.25c-0.348-0.188-0.703-0.362-1.063-0.528
		c-0.697,0.409-1.365,0.859-2.002,1.349C24.527,3.168,24.897,3.3,25.252,3.461z"/>
	<path fill="#FFFFFF" d="M25.252,33.539c-0.355,0.161-0.726,0.293-1.093,0.429c0.638,0.489,1.305,0.939,2.002,1.349
		c0.36-0.166,0.715-0.341,1.063-0.528C26.537,34.417,25.885,33.991,25.252,33.539z"/>
	<path fill="#FFFFFF" d="M27.244,4.533c0.639-0.401,1.305-0.762,1.999-1.075c-0.642-0.459-1.319-0.869-2.018-1.246
		c-0.688,0.372-1.34,0.797-1.972,1.25C25.942,3.774,26.607,4.133,27.244,4.533z"/>
	<path fill="#FFFFFF" d="M27.244,32.467c-0.637,0.4-1.302,0.758-1.992,1.071c0.632,0.453,1.285,0.878,1.972,1.25
		c0.699-0.377,1.376-0.787,2.018-1.246C28.549,33.229,27.883,32.869,27.244,32.467z"/>
	<path fill="#FFFFFF" d="M29.243,3.458c-0.694,0.313-1.36,0.673-1.999,1.075c0.311,0.195,0.613,0.402,0.909,0.617
		c0.639-0.377,1.302-0.715,1.996-0.998C29.854,3.912,29.552,3.68,29.243,3.458z"/>
	<path fill="none" d="M27.244,32.467c0.639,0.401,1.305,0.762,1.999,1.075c0.31-0.222,0.611-0.454,0.906-0.693
		c-0.693-0.283-1.356-0.621-1.996-0.998C27.857,32.065,27.555,32.272,27.244,32.467z"/>
	<path fill="#FFFFFF" d="M30.149,4.151c-0.694,0.283-1.356,0.621-1.996,0.998c3.053,2.211,5.322,5.437,6.305,9.178
		c0.241-1.105,0.575-2.175,0.995-3.202C34.26,8.396,32.433,6.007,30.149,4.151z"/>
	<path fill="none" d="M36.004,12.526c-0.164-0.477-0.351-0.942-0.551-1.4c-0.42,1.027-0.753,2.097-0.995,3.202
		C34.809,15.661,35,17.058,35,18.5C35,16.407,35.364,14.402,36.004,12.526z"/>
	<path fill="#FFFFFF" d="M28.153,31.851c0.639,0.377,1.302,0.715,1.996,0.998c2.667-2.167,4.719-5.059,5.855-8.375
		C35.364,22.598,35,20.593,35,18.5C35,23.992,32.293,28.852,28.153,31.851z"/>
	<path fill="#FFFFFF" d="M36.004,12.526C35.364,14.402,35,16.407,35,18.5s0.364,4.098,1.004,5.974C36.646,22.6,37,20.593,37,18.5
		S36.646,14.4,36.004,12.526z"/>
	<path fill="#FFFFFF" d="M53.5,0c-2.739,0-5.329,0.609-7.663,1.683c0.697,0.409,1.364,0.859,2.003,1.348
		C49.606,2.376,51.506,2,53.5,2C62.598,2,70,9.402,70,18.5S62.598,35,53.5,35c-1.994,0-3.894-0.376-5.66-1.031
		c-0.639,0.489-1.306,0.939-2.003,1.348C48.171,36.391,50.761,37,53.5,37C63.717,37,72,28.717,72,18.5S63.717,0,53.5,0z"/>
	<path fill="#FFFFFF" d="M46.746,3.46c0.355-0.161,0.726-0.293,1.094-0.43c-0.639-0.489-1.306-0.939-2.003-1.348
		c-0.36,0.166-0.716,0.341-1.063,0.528C45.461,2.583,46.114,3.008,46.746,3.46z"/>
	<path fill="none" d="M46.746,33.54c-0.632,0.453-1.285,0.878-1.973,1.249c0.348,0.188,0.703,0.363,1.063,0.528
		c0.697-0.409,1.364-0.859,2.003-1.348C47.472,33.833,47.102,33.701,46.746,33.54z"/>
	<path fill="#FFFFFF" d="M44.756,32.467c-0.64,0.402-1.306,0.763-2,1.075c0.641,0.459,1.319,0.87,2.017,1.246
		c0.688-0.371,1.34-0.796,1.973-1.249C46.057,33.227,45.392,32.868,44.756,32.467z"/>
	<path fill="#FFFFFF" d="M44.756,4.533c0.636-0.401,1.3-0.759,1.99-1.072c-0.632-0.453-1.285-0.878-1.973-1.249
		c-0.698,0.376-1.376,0.787-2.017,1.246C43.451,3.77,44.117,4.131,44.756,4.533z"/>
	<path fill="#FFFFFF" d="M42.756,33.542c0.694-0.312,1.36-0.673,2-1.075c-0.309-0.194-0.601-0.411-0.896-0.625
		c-0.643,0.38-1.31,0.721-2.008,1.006C42.147,33.088,42.447,33.321,42.756,33.542z"/>
	<path fill="#FFFFFF" d="M37.548,22.646c-0.243,1.119-0.58,2.202-1.006,3.24c1.191,2.731,3.028,5.109,5.31,6.963
		c0.698-0.285,1.366-0.626,2.008-1.006C40.806,29.625,38.526,26.402,37.548,22.646z"/>
	<path fill="#FFFFFF" d="M44.756,4.533c-0.64-0.402-1.306-0.763-2-1.075c-0.309,0.222-0.609,0.455-0.904,0.694
		c0.698,0.285,1.366,0.626,2.008,1.006C44.155,4.944,44.448,4.727,44.756,4.533z"/>
	<path fill="#FFFFFF" d="M36.542,11.115c0.426,1.038,0.763,2.121,1.006,3.24c0.978-3.756,3.258-6.979,6.312-9.197
		c-0.643-0.38-1.31-0.721-2.008-1.006C39.571,6.005,37.734,8.384,36.542,11.115z"/>
	<path fill="#FFFFFF" d="M37.548,14.354c-0.243-1.119-0.58-2.202-1.006-3.24c-0.203,0.465-0.375,0.946-0.541,1.43
		C36.639,14.416,37,16.414,37,18.5C37,17.066,37.203,15.682,37.548,14.354z"/>
	<path fill="none" d="M36.002,24.456c0.166,0.484,0.338,0.964,0.541,1.43c0.426-1.038,0.763-2.121,1.006-3.24
		C37.203,21.318,37,19.934,37,18.5C37,20.586,36.639,22.584,36.002,24.456z"/>
	<path fill="#FFFFFF" d="M36.002,12.544C35.363,14.415,35,16.413,35,18.5s0.363,4.085,1.002,5.956C36.639,22.584,37,20.586,37,18.5
		S36.639,14.416,36.002,12.544z"/>
	<path fill="#FFFFFF" d="M36,0c-2.739,0-5.33,0.611-7.669,1.679c0.696,0.408,1.362,0.857,2,1.345C32.102,2.374,34.006,2,36,2
		c3.213,0,6.205,0.938,8.744,2.533c0.639-0.401,1.305-0.762,1.999-1.075C43.712,1.29,40.01,0,36,0z"/>
	<path fill="#FFFFFF" d="M36,35c-1.994,0-3.898-0.374-5.669-1.024c-0.638,0.488-1.304,0.938-2,1.345C30.67,36.389,33.261,37,36,37
		c4.01,0,7.712-1.29,10.743-3.458c-0.694-0.313-1.36-0.673-1.999-1.075C42.205,34.063,39.213,35,36,35z"/>
	<path fill="#FFFFFF" d="M44.744,32.467c0.639,0.401,1.305,0.762,1.999,1.075c0.31-0.222,0.611-0.454,0.906-0.693
		c-0.693-0.283-1.356-0.621-1.996-0.998C45.357,32.065,45.055,32.272,44.744,32.467z"/>
	<path fill="none" d="M46.743,3.458c-0.694,0.313-1.36,0.673-1.999,1.075c0.311,0.195,0.613,0.402,0.909,0.617
		c0.639-0.377,1.302-0.715,1.996-0.998C47.354,3.912,47.052,3.68,46.743,3.458z"/>
	<path fill="#FFFFFF" d="M54.5,18.5c0-5.797-2.677-10.958-6.851-14.349c-0.694,0.283-1.356,0.621-1.996,0.998
		C49.793,8.148,52.5,13.008,52.5,18.5s-2.707,10.352-6.847,13.351c0.639,0.377,1.302,0.715,1.996,0.998
		C51.823,29.458,54.5,24.297,54.5,18.5z"/>
	<path fill="#FFFFFF" d="M28.331,35.321c0.696-0.408,1.362-0.857,2-1.345c-0.365-0.134-0.723-0.284-1.076-0.443
		c-0.636,0.456-1.292,0.884-1.984,1.257C27.618,34.977,27.971,35.156,28.331,35.321z"/>
	<path fill="#FFFFFF" d="M30.331,3.024c-0.638-0.488-1.304-0.938-2-1.345c-0.36,0.165-0.713,0.344-1.061,0.531
		c0.692,0.374,1.349,0.802,1.984,1.257C29.608,3.309,29.966,3.159,30.331,3.024z"/>
	<path fill="#FFFFFF" d="M29.255,3.467c-0.636-0.456-1.292-0.884-1.984-1.257c-0.697,0.374-1.366,0.794-2.007,1.251
		c0.694,0.313,1.36,0.674,1.999,1.076C27.899,4.138,28.564,3.778,29.255,3.467z"/>
	<path fill="#FFFFFF" d="M27.271,34.79c0.692-0.374,1.349-0.802,1.984-1.257c-0.691-0.311-1.355-0.67-1.993-1.07
		c-0.639,0.402-1.305,0.763-1.999,1.076C25.904,33.996,26.573,34.416,27.271,34.79z"/>
	<path fill="#FFFFFF" d="M27.262,4.537c-0.639-0.402-1.305-0.763-1.999-1.076c-0.31,0.221-0.612,0.453-0.907,0.692
		c0.693,0.284,1.356,0.623,1.996,1C26.648,4.938,26.951,4.732,27.262,4.537z"/>
	<path fill="#FFFFFF" d="M25.264,33.539c0.694-0.313,1.36-0.674,1.999-1.076c-0.311-0.195-0.614-0.401-0.91-0.616
		c-0.639,0.377-1.302,0.716-1.996,1C24.652,33.086,24.954,33.318,25.264,33.539z"/>
	<path fill="#FFFFFF" d="M19.5,18.5c0-5.494,2.708-10.353,6.852-13.347c-0.639-0.377-1.302-0.716-1.996-1
		C20.178,7.54,17.5,12.701,17.5,18.5s2.678,10.96,6.856,14.347c0.693-0.284,1.356-0.623,1.996-1
		C22.208,28.853,19.5,23.994,19.5,18.5z"/>
</g>
</svg>
