<svg width="54" height="52" viewBox="0 0 54 52" fill="none" xmlns="http://www.w3.org/2000/svg">
<path d="M0.5 0.5V48.6667C0.5 49.4181 0.798511 50.1388 1.32986 50.6701C1.86122 51.2015 2.58189 51.5 3.33333 51.5H51.5V45.8333H6.16667V0.5H0.5Z" fill="#D9D9D9"/>
<path d="M0.5 0.5V48.6667C0.5 49.4181 0.798511 50.1388 1.32986 50.6701C1.86122 51.2015 2.58189 51.5 3.33333 51.5H51.5V45.8333H6.16667V0.5H0.5Z" fill="#23D7BC"/>
<path d="M35.3302 33.6697C35.5931 33.9331 35.9054 34.142 36.2491 34.2846C36.5928 34.4271 36.9613 34.5005 37.3334 34.5005C37.7055 34.5005 38.074 34.4271 38.4177 34.2846C38.7614 34.142 39.0737 33.9331 39.3366 33.6697L53.5033 19.5031L49.4969 15.4967L37.3334 27.6602L30.8366 21.1634C30.5737 20.9001 30.2614 20.6911 29.9177 20.5486C29.574 20.406 29.2055 20.3327 28.8334 20.3327C28.4613 20.3327 28.0928 20.406 27.7491 20.5486C27.4054 20.6911 27.0931 20.9001 26.8302 21.1634L12.6636 35.3301L16.6699 39.3364L28.8334 27.1729L35.3302 33.6697Z" fill="#D9D9D9"/>
<path d="M35.3302 33.6697C35.5931 33.9331 35.9054 34.142 36.2491 34.2846C36.5928 34.4271 36.9613 34.5005 37.3334 34.5005C37.7055 34.5005 38.074 34.4271 38.4177 34.2846C38.7614 34.142 39.0737 33.9331 39.3366 33.6697L53.5033 19.5031L49.4969 15.4967L37.3334 27.6602L30.8366 21.1634C30.5737 20.9001 30.2614 20.6911 29.9177 20.5486C29.574 20.406 29.2055 20.3327 28.8334 20.3327C28.4613 20.3327 28.0928 20.406 27.7491 20.5486C27.4054 20.6911 27.0931 20.9001 26.8302 21.1634L12.6636 35.3301L16.6699 39.3364L28.8334 27.1729L35.3302 33.6697Z" fill="#23D7BC"/>
</svg>
