<svg viewBox="0 0 72 55" fill="none" xmlns="http://www.w3.org/2000/svg">
<g clip-path="url(#clip0_8303_13529)">
<path d="M27.2284 25.0806H19.293V21.3932L27.1048 11.4414H30.5691V22.3482H33.1822V25.0806H30.5691V28.8182H27.2284V25.0806ZM22.0525 22.3436H27.2238V15.6725H27.1735L22.0525 22.2659V22.3391V22.3436Z" fill="#0A2540"/>
<path d="M34.3828 20.2416C34.3828 14.7493 37.2202 11.2676 41.5906 11.2676C45.961 11.2676 48.748 14.7265 48.748 20.2416C48.748 25.7567 46.0342 29.2156 41.5677 29.2156C37.1012 29.2156 34.3874 25.7064 34.3874 20.2416H34.3828ZM45.183 20.2416C45.183 16.6045 44.1305 14.1736 41.5906 14.1736C39.0507 14.1736 37.9478 16.5816 37.9478 20.2416C37.9478 23.9015 39.0278 26.3095 41.5906 26.3095C44.1534 26.3095 45.183 23.929 45.183 20.2416Z" fill="#0A2540"/>
<path d="M50.3203 23.2526H53.3407V20.1455H54.3658V23.2526H57.3862V24.2487H54.3658V27.3558H53.3407V24.2487H50.3203V23.2526Z" fill="#0A2540"/>
<path d="M22.7088 37.3303L20.1094 33.2773H20.8553L23.052 36.7545H23.0703L25.2852 33.2773H26.0083L23.3906 37.3485V40.4648H22.7042V37.3257L22.7088 37.3303Z" fill="#0A2540"/>
<path d="M26.7272 33.2773H31.6194V33.8713H27.4V36.453H31.267V37.0378H27.4V39.8433H31.7292V40.4648H26.7227V33.2773H26.7272Z" fill="#0A2540"/>
<path d="M34.9488 33.2773H35.7131L38.4543 40.4648H37.7313L36.8938 38.203H33.7636L32.9169 40.4648H32.2305L34.9488 33.2773ZM36.6924 37.6501L35.7039 34.9634C35.5529 34.5613 35.3424 33.917 35.3424 33.917H35.3241C35.3241 33.917 35.1319 34.5293 34.9717 34.9634L33.9649 37.6501H36.6924Z" fill="#0A2540"/>
<path d="M39.1797 33.2773H42.3923C43.692 33.2773 44.4379 34.0221 44.4379 35.2193C44.4379 36.1057 44.0535 36.686 43.2298 36.9464V36.9784C43.9757 37.2297 44.2183 37.7735 44.2686 38.8884C44.319 40.0444 44.4517 40.3368 44.5798 40.4282V40.4693H43.8567C43.6966 40.3597 43.6554 40.0855 43.5959 38.861C43.5364 37.6136 43.1016 37.2617 42.0536 37.2617H39.857V40.4693H39.1843V33.2819L39.1797 33.2773ZM42.1589 36.686C43.2069 36.686 43.7423 36.1742 43.7423 35.2787C43.7423 34.3831 43.3396 33.8713 42.2504 33.8713H39.8524V36.686H42.1589Z" fill="#0A2540"/>
<path d="M45.1211 38.1348H45.7938C45.8625 39.3502 46.6908 40.0356 48.0408 40.0356C49.098 40.0356 49.8851 39.501 49.8851 38.5278C49.8851 37.5545 49.2124 37.2712 47.6701 36.9605C46.3384 36.7001 45.4048 36.298 45.4048 35.0414C45.4048 33.8946 46.3704 33.1406 47.812 33.1406C49.4137 33.1406 50.2192 34.0042 50.3473 35.2425H49.6929C49.5739 34.2281 48.8463 33.7026 47.8212 33.7026C46.7228 33.7026 46.0593 34.2235 46.0593 35.0186C46.0593 35.873 46.7228 36.1335 48.0134 36.3757C49.4137 36.6452 50.5715 36.9879 50.5715 38.4958C50.5715 39.7706 49.5419 40.5976 48.0362 40.5976C46.1416 40.5976 45.208 39.533 45.1257 38.1348H45.1211Z" fill="#0A2540"/>
<path d="M52.0316 46.6104C52.0316 46.6104 50.3063 47.5653 49.9539 49.1371C49.5146 51.1019 50.1141 52.5732 50.1141 52.5732C50.1141 52.5732 51.7844 51.2938 52.2283 50.1926C52.8507 48.6482 52.0316 46.6104 52.0316 46.6104Z" fill="#0A2540"/>
<path d="M55.8938 44.0244C55.8938 44.0244 54.3882 45.2398 54.3195 46.8162C54.228 48.7856 55.0609 50.1061 55.0609 50.1061C55.0609 50.1061 56.4567 48.5891 56.6947 47.4513C57.0333 45.8567 55.8938 44.029 55.8938 44.029V44.0244Z" fill="#0A2540"/>
<path d="M58.7803 40.8574C58.7803 40.8574 57.5355 42.283 57.7369 43.8183C57.984 45.7328 59.0091 46.866 59.0091 46.866C59.0091 46.866 60.0983 45.1617 60.1349 44.0239C60.1852 42.4247 58.7803 40.8574 58.7803 40.8574Z" fill="#0A2540"/>
<path d="M61.0901 37.248C61.0901 37.248 60.1336 38.8381 60.5867 40.282C61.1541 42.0869 62.3394 43.0099 62.3394 43.0099C62.3394 43.0099 63.0991 41.1822 62.9389 40.0764C62.7193 38.5274 61.0901 37.248 61.0901 37.248Z" fill="#0A2540"/>
<path d="M62.7074 33.3145C62.7074 33.3145 62.0529 35.0096 62.7394 36.3302C63.5952 37.9751 64.8949 38.665 64.8949 38.665C64.8949 38.665 65.3159 36.7688 64.9772 35.7316C64.4967 34.274 62.7119 33.319 62.7119 33.319L62.7074 33.3145Z" fill="#0A2540"/>
<path d="M63.6395 29.1696C63.6395 29.1696 63.2963 30.9196 64.1841 32.0711C65.2915 33.515 66.6599 33.9582 66.6599 33.9582C66.6599 33.9582 66.7423 32.0574 66.2389 31.1115C65.5295 29.7865 63.6395 29.165 63.6395 29.165V29.1696Z" fill="#0A2540"/>
<path d="M63.8478 24.9062C63.8478 24.9062 63.8157 26.6517 64.8683 27.6158C66.1817 28.8221 67.5775 29.014 67.5775 29.014C67.5775 29.014 67.335 27.168 66.6851 26.341C65.7744 25.1804 63.8478 24.9062 63.8478 24.9062Z" fill="#0A2540"/>
<path d="M63.3125 20.5434C63.3125 20.5434 63.5825 22.234 64.7586 22.9833C66.2322 23.9246 67.6143 23.8743 67.6143 23.8743C67.6143 23.8743 67.0651 22.1335 66.2963 21.4435C65.2208 20.4794 63.3125 20.5388 63.3125 20.5388V20.5434Z" fill="#0A2540"/>
<path d="M62.0117 16.2711C62.0117 16.2711 62.5563 17.8567 63.824 18.3821C65.4074 19.0401 66.73 18.7568 66.73 18.7568C66.73 18.7568 65.9016 17.1713 65.0459 16.6367C63.8423 15.8873 62.0117 16.2711 62.0117 16.2711Z" fill="#0A2540"/>
<path d="M59.9688 12.2954C59.9688 12.2954 60.765 13.7347 62.0785 14.0226C63.7168 14.3881 64.9478 13.8901 64.9478 13.8901C64.9478 13.8901 63.8815 12.4965 62.9617 12.1309C61.6712 11.6146 59.9688 12.2954 59.9688 12.2954Z" fill="#0A2540"/>
<path d="M57.2468 8.74975C57.2468 8.74975 58.2627 10.0017 59.5761 10.0611C61.219 10.1342 62.322 9.44428 62.322 9.44428C62.322 9.44428 61.0543 8.28369 60.1024 8.08264C58.7707 7.80392 57.2422 8.74975 57.2422 8.74975H57.2468Z" fill="#0A2540"/>
<path d="M19.9732 46.6104C19.9732 46.6104 21.6985 47.5653 22.0509 49.1371C22.4902 51.1019 21.8907 52.5732 21.8907 52.5732C21.8907 52.5732 20.2203 51.2938 19.7764 50.1926C19.154 48.6482 19.9732 46.6104 19.9732 46.6104Z" fill="#0A2540"/>
<path d="M16.1124 44.0244C16.1124 44.0244 17.6135 45.2398 17.6867 46.8162C17.7782 48.7856 16.9453 50.1061 16.9453 50.1061C16.9453 50.1061 15.5495 48.5891 15.3115 47.4513C14.9775 45.8567 16.1124 44.029 16.1124 44.029V44.0244Z" fill="#0A2540"/>
<path d="M13.2238 40.8574C13.2238 40.8574 14.4686 42.283 14.2672 43.8183C14.0201 45.7328 12.9904 46.866 12.9904 46.866C12.9904 46.866 11.9012 45.1617 11.8646 44.0239C11.8143 42.4247 13.2192 40.8574 13.2192 40.8574H13.2238Z" fill="#0A2540"/>
<path d="M10.9101 37.248C10.9101 37.248 11.8666 38.8381 11.4135 40.282C10.846 42.0869 9.66075 43.0099 9.66075 43.0099C9.66075 43.0099 8.90107 41.1822 9.06125 40.0764C9.28091 38.5274 10.9101 37.248 10.9101 37.248Z" fill="#0A2540"/>
<path d="M9.29551 33.3145C9.29551 33.3145 9.94993 35.0096 9.26347 36.3302C8.40769 37.9751 7.11258 38.665 7.11258 38.665C7.11258 38.665 6.69156 36.7688 7.03021 35.7316C7.51073 34.274 9.29551 33.319 9.29551 33.319V33.3145Z" fill="#0A2540"/>
<path d="M8.36135 29.1696C8.36135 29.1696 8.7 30.9196 7.81676 32.0711C6.70928 33.515 5.34095 33.9582 5.34095 33.9582C5.34095 33.9582 5.25857 32.0574 5.76197 31.1115C6.47131 29.7865 8.36135 29.165 8.36135 29.165V29.1696Z" fill="#0A2540"/>
<path d="M8.15552 24.9062C8.15552 24.9062 8.18756 26.6517 7.13499 27.6158C5.82157 28.8221 4.42578 29.014 4.42578 29.014C4.42578 29.014 4.66833 27.168 5.31817 26.341C6.22887 25.1804 8.1601 24.9062 8.1601 24.9062H8.15552Z" fill="#0A2540"/>
<path d="M8.69241 20.5434C8.69241 20.5434 8.42698 22.234 7.24628 22.9833C5.77269 23.9246 4.39062 23.8743 4.39062 23.8743C4.39062 23.8743 4.93979 22.1335 5.70862 21.4435C6.78407 20.4794 8.69241 20.5388 8.69241 20.5388V20.5434Z" fill="#0A2540"/>
<path d="M9.98777 16.2711C9.98777 16.2711 9.44318 17.8567 8.17552 18.3821C6.5921 19.0401 5.26953 18.7568 5.26953 18.7568C5.26953 18.7568 6.09785 17.1713 6.95363 16.6367C8.15722 15.8873 9.98777 16.2711 9.98777 16.2711Z" fill="#0A2540"/>
<path d="M12.0299 12.2954C12.0299 12.2954 11.2336 13.7347 9.92016 14.0226C8.28182 14.3881 7.05078 13.8901 7.05078 13.8901C7.05078 13.8901 8.12165 12.4965 9.03693 12.1309C10.3275 11.6146 12.0299 12.2954 12.0299 12.2954Z" fill="#0A2540"/>
<path d="M14.7549 8.74975C14.7549 8.74975 13.7389 10.0017 12.4255 10.0611C10.778 10.1342 9.67969 9.44428 9.67969 9.44428C9.67969 9.44428 10.9473 8.28369 11.8992 8.08264C13.2309 7.80392 14.7595 8.74975 14.7595 8.74975H14.7549Z" fill="#0A2540"/>
<path d="M56.9473 54.5021C56.9473 54.5021 55.2174 55.384 53.7347 54.8083C51.8904 54.0863 51.0117 52.7887 51.0117 52.7887C51.0117 52.7887 52.9796 52.1307 54.1236 52.3729C55.73 52.7156 56.9473 54.5067 56.9473 54.5067V54.5021Z" fill="#0A2540"/>
<path d="M61.9632 50.783C61.9632 50.783 60.4439 51.9299 58.9154 51.6238C57.0116 51.24 55.9453 50.1342 55.9453 50.1342C55.9453 50.1342 57.7347 49.1609 58.8788 49.2066C60.4851 49.266 61.9632 50.783 61.9632 50.783Z" fill="#0A2540"/>
<path d="M65.7844 46.3321C65.7844 46.3321 64.5122 47.6983 62.9883 47.6617C61.0845 47.616 59.8672 46.7296 59.8672 46.7296C59.8672 46.7296 61.4277 45.4868 62.5398 45.336C64.1003 45.1212 65.789 46.3367 65.789 46.3367L65.7844 46.3321Z" fill="#0A2540"/>
<path d="M68.7794 41.3332C68.7794 41.3332 67.7863 42.8639 66.3081 43.0878C64.4639 43.3665 63.1367 42.7177 63.1367 42.7177C63.1367 42.7177 64.4318 41.2555 65.4752 40.9174C66.9443 40.4422 68.7794 41.3286 68.7794 41.3286V41.3332Z" fill="#0A2540"/>
<path d="M70.818 35.9416C70.818 35.9416 70.1178 37.5911 68.7311 38.0572C66.9967 38.6375 65.6055 38.2399 65.6055 38.2399C65.6055 38.2399 66.6031 36.6087 67.555 36.1061C68.8959 35.3979 70.818 35.9416 70.818 35.9416Z" fill="#0A2540"/>
<path d="M71.9054 30.3353C71.9054 30.3353 71.5118 32.0442 70.2533 32.7341C68.679 33.5931 67.2695 33.4424 67.2695 33.4424C67.2695 33.4424 67.956 31.6969 68.7889 31.0481C69.9604 30.1388 71.9054 30.3353 71.9054 30.3353Z" fill="#0A2540"/>
<path d="M71.9995 24.624C71.9995 24.624 71.9126 26.3421 70.8142 27.2194C69.4413 28.3114 68.0547 28.4074 68.0547 28.4074C68.0547 28.4074 68.4162 26.6071 69.1118 25.8394C70.0866 24.7611 71.9995 24.624 71.9995 24.624Z" fill="#0A2540"/>
<path d="M71.1161 18.8805C71.1161 18.8805 71.3266 20.5529 70.4113 21.5855C69.2718 22.8741 67.9492 23.2031 67.9492 23.2031C67.9492 23.2031 67.995 21.4028 68.535 20.5437C69.2947 19.3375 71.1161 18.876 71.1161 18.876V18.8805Z" fill="#0A2540"/>
<path d="M69.259 13.3467C69.259 13.3467 69.7441 14.9276 69.0393 16.0791C68.1607 17.5184 66.9388 18.0576 66.9388 18.0576C66.9388 18.0576 66.6733 16.3167 67.0486 15.3937C67.5749 14.1006 69.2544 13.3467 69.2544 13.3467H69.259Z" fill="#0A2540"/>
<path d="M66.4472 8.25195C66.4472 8.25195 67.184 9.69127 66.7035 10.925C66.0994 12.4648 65.0148 13.1913 65.0148 13.1913C65.0148 13.1913 64.4611 11.5555 64.667 10.6005C64.9553 9.26176 66.4472 8.25195 66.4472 8.25195Z" fill="#0A2540"/>
<path d="M62.7922 3.75098C62.7922 3.75098 63.7487 5.01666 63.4924 6.28691C63.1721 7.87244 62.2477 8.76344 62.2477 8.76344C62.2477 8.76344 61.4376 7.27843 61.4697 6.32346C61.52 4.98467 62.7877 3.75098 62.7877 3.75098H62.7922Z" fill="#0A2540"/>
<path d="M58.4526 0C58.4526 0 59.5921 1.06006 59.5601 2.33031C59.5235 3.91584 58.7821 4.93022 58.7821 4.93022C58.7821 4.93022 57.7433 3.63255 57.6197 2.70499C57.4367 1.40276 58.4526 0 58.4526 0Z" fill="#0A2540"/>
<path d="M15.0515 54.5021C15.0515 54.5021 16.7813 55.384 18.2595 54.8083C20.1083 54.0863 20.9824 52.7887 20.9824 52.7887C20.9824 52.7887 19.0146 52.1307 17.8705 52.3729C16.2642 52.7156 15.0469 54.5067 15.0469 54.5067L15.0515 54.5021Z" fill="#0A2540"/>
<path d="M10.0352 50.783C10.0352 50.783 11.5545 51.9299 13.083 51.6238C14.9868 51.24 16.0531 50.1342 16.0531 50.1342C16.0531 50.1342 14.2637 49.1609 13.1196 49.2066C11.5133 49.266 10.0352 50.783 10.0352 50.783Z" fill="#0A2540"/>
<path d="M6.21551 46.3321C6.21551 46.3321 7.48774 47.6983 9.01167 47.6617C10.9154 47.616 12.1328 46.7296 12.1328 46.7296C12.1328 46.7296 10.5722 45.4868 9.46016 45.336C7.89962 45.1212 6.21094 46.3367 6.21094 46.3367L6.21551 46.3321Z" fill="#0A2540"/>
<path d="M3.22266 41.3332C3.22266 41.3332 4.21573 42.8639 5.69389 43.0878C7.53817 43.3665 8.86532 42.7177 8.86532 42.7177C8.86532 42.7177 7.57478 41.2555 6.52679 40.9174C5.0532 40.4422 3.22266 41.3286 3.22266 41.3286V41.3332Z" fill="#0A2540"/>
<path d="M1.17578 35.9416C1.17578 35.9416 1.87597 37.5911 3.26261 38.0572C4.99705 38.6375 6.38826 38.2399 6.38826 38.2399C6.38826 38.2399 5.39062 36.6087 4.43873 36.1061C3.09786 35.3979 1.17578 35.9416 1.17578 35.9416Z" fill="#0A2540"/>
<path d="M0.0898438 30.3353C0.0898438 30.3353 0.483411 32.0442 1.74191 32.7341C3.31618 33.5931 4.7257 33.4424 4.7257 33.4424C4.7257 33.4424 4.03925 31.6969 3.20635 31.0481C2.0348 30.1388 0.0898438 30.3353 0.0898438 30.3353Z" fill="#0A2540"/>
<path d="M0 24.624C0 24.624 0.0869509 26.3421 1.18528 27.2194C2.55819 28.3114 3.94483 28.4074 3.94483 28.4074C3.94483 28.4074 3.5833 26.6071 2.88769 25.8394C1.91292 24.7611 0 24.624 0 24.624Z" fill="#0A2540"/>
<path d="M0.879347 18.8805C0.879347 18.8805 0.673411 20.5529 1.58411 21.5855C2.72362 22.8741 4.04619 23.2031 4.04619 23.2031C4.04619 23.2031 4.00043 21.4028 3.46042 20.5437C2.70532 19.3375 0.879347 18.876 0.879347 18.876V18.8805Z" fill="#0A2540"/>
<path d="M2.73697 13.3467C2.73697 13.3467 2.25188 14.9276 2.95664 16.0791C3.8353 17.5184 5.05262 18.0576 5.05262 18.0576C5.05262 18.0576 5.31805 16.3167 4.94278 15.3937C4.4165 14.1006 2.73697 13.3467 2.73697 13.3467Z" fill="#0A2540"/>
<path d="M5.5518 8.25195C5.5518 8.25195 4.81501 9.69127 5.29553 10.925C5.89961 12.4648 6.9842 13.1913 6.9842 13.1913C6.9842 13.1913 7.53795 11.5555 7.33201 10.6005C7.0437 9.26176 5.5518 8.25195 5.5518 8.25195Z" fill="#0A2540"/>
<path d="M9.20866 3.75098C9.20866 3.75098 8.25219 5.01666 8.50847 6.28691C8.82882 7.87244 9.75324 8.76344 9.75324 8.76344C9.75324 8.76344 10.5633 7.27843 10.5312 6.32346C10.4809 4.98467 9.21323 3.75098 9.21323 3.75098H9.20866Z" fill="#0A2540"/>
<path d="M13.5417 0C13.5417 0 12.4022 1.06006 12.4343 2.33031C12.4709 3.91584 13.2122 4.93022 13.2122 4.93022C13.2122 4.93022 14.2511 3.63255 14.3746 2.70499C14.5577 1.40276 13.5417 0 13.5417 0Z" fill="#0A2540"/>
</g>
<defs>
<clipPath id="clip0_8303_13529">
<rect width="72" height="55" fill="white"/>
</clipPath>
</defs>
</svg>
