<svg width="42" height="68" viewBox="0 0 42 68" fill="none" xmlns="http://www.w3.org/2000/svg">
<path fill-rule="evenodd" clip-rule="evenodd" d="M27.5486 32.0595C27.3225 31.9003 27.1047 31.7496 26.8786 31.5905C27.0461 31.2723 27.2387 30.9708 27.3643 30.6442C28.1097 28.7348 27.8166 26.9846 26.4348 25.4856C25.8988 24.9077 25.1954 24.4723 24.5505 23.9866C23.6042 23.2747 22.6328 22.588 21.6781 21.893C20.7235 21.2063 19.7772 20.5279 18.8309 19.8329C18.0772 19.2802 17.2983 18.7526 16.6619 18.0659C15.523 16.8348 14.7693 15.4028 14.4678 13.7531C14.3422 13.0747 14.2668 12.3797 14.2836 11.693C14.3422 9.81711 14.9786 8.12549 16.0924 6.60973C17.4323 4.78411 18.7471 2.95013 20.0786 1.12451C20.3131 0.797911 20.556 0.47131 20.7905 0.144709C20.8909 -0.00602955 20.9998 -0.0562758 21.1589 0.0777142C21.3097 0.20333 21.4772 0.312197 21.586 0.39594C21.452 0.806285 21.2678 1.19151 21.1924 1.5851C20.9914 2.72402 21.4018 3.6452 22.323 4.32352C23.6126 5.28658 24.9274 6.23288 26.2338 7.17918C27.4816 8.08362 28.7461 8.97968 29.9939 9.90086C30.8816 10.5457 31.786 11.1738 32.5983 11.9023C34.0555 13.192 34.9097 14.8417 35.2614 16.7427C35.6717 18.9787 35.2865 21.0974 34.0806 23.0319C33.5698 23.8526 32.9668 24.6146 32.4057 25.4018C31.6855 26.3984 30.9569 27.3949 30.2368 28.3915C29.3742 29.5723 28.5284 30.7614 27.6658 31.9506C27.6407 31.9841 27.6072 32.0176 27.5737 32.0678L27.5486 32.0595Z" fill="#0A2540"/>
<path fill-rule="evenodd" clip-rule="evenodd" d="M21.0534 40.8441C20.7602 40.6264 20.4755 40.4337 20.2159 40.2411C20.2997 39.9648 20.4169 39.7052 20.442 39.4456C20.5006 38.8175 20.2327 38.3318 19.7218 37.9633C17.9716 36.6988 16.2297 35.4342 14.4795 34.1613C13.977 33.7929 13.4662 33.4411 13.0056 33.0224C12.1095 32.2101 11.5149 31.2052 11.247 30.0076C11.1213 29.4717 11.0627 28.9525 11.0711 28.4081C11.0878 27.1687 11.4731 26.0466 12.1849 25.0416C12.9218 23.9948 13.6923 22.9648 14.446 21.9264C14.7977 21.449 15.141 20.9717 15.4928 20.4692C15.7859 20.6786 16.0706 20.8796 16.347 21.0806C16.28 21.315 16.1795 21.5244 16.1376 21.7421C16.0204 22.4037 16.2716 22.9229 16.7992 23.3081C18.0051 24.1958 19.211 25.0668 20.4253 25.9461C21.2962 26.5909 22.2006 27.2022 23.0632 27.8722C24.7548 29.1786 25.5588 30.9205 25.4918 33.0559C25.4415 34.3623 24.9642 35.5012 24.1937 36.548C23.4484 37.5446 22.7282 38.5663 21.9997 39.5712C21.6982 39.9899 21.3883 40.4086 21.0701 40.8441H21.0534Z" fill="#0A2540"/>
<path fill-rule="evenodd" clip-rule="evenodd" d="M24.6548 59.7622C24.906 59.8794 25.1656 59.9967 25.4085 60.1223C26.5055 60.6666 27.2425 61.504 27.4267 62.7351C27.6193 63.9996 27.4351 65.1804 26.5306 66.1602C25.9109 66.8385 25.1154 67.207 24.2444 67.4415C23.4907 67.6341 22.7287 67.7262 21.9499 67.7262C19.5548 67.7262 17.1681 67.7262 14.773 67.7262C14.5385 67.7262 14.4799 67.6592 14.4799 67.4331C14.4799 62.5676 14.4799 57.7021 14.4799 52.8366C14.4799 52.7612 14.4548 52.6775 14.4799 52.6105C14.505 52.5435 14.572 52.4597 14.639 52.4513C14.7814 52.4262 14.9321 52.443 15.0829 52.443H21.5311C22.3937 52.443 23.2395 52.5351 24.0435 52.8449C25.3499 53.3558 26.2794 54.2267 26.539 55.6587C26.7484 56.873 26.539 58.0119 25.6346 58.9247C25.3331 59.2262 24.973 59.4691 24.6213 59.7454L24.6548 59.7622ZM17.7543 61.4036V64.5439C17.7543 64.8538 17.6789 64.8622 18.0725 64.8622C19.2617 64.8622 20.4508 64.8789 21.6316 64.8538C22.0922 64.8454 22.5612 64.7868 23.005 64.6779C23.7085 64.5105 24.1356 63.9996 24.1942 63.3464C24.2696 62.5425 23.9848 61.973 23.2479 61.6967C22.8208 61.5292 22.3351 61.4454 21.8745 61.4287C20.7691 61.3952 19.6637 61.4119 18.5582 61.4119H17.7627L17.7543 61.4036ZM17.7543 58.6316C19.0272 58.6316 20.275 58.6484 21.5228 58.6233C21.9331 58.6149 22.3267 58.4725 22.6952 58.2632C23.5661 57.7607 23.5829 56.2031 22.6533 55.7006C22.2262 55.4745 21.7824 55.374 21.3134 55.3656C20.1577 55.3489 19.0105 55.3656 17.8632 55.3656C17.8297 55.3656 17.7962 55.374 17.7627 55.3824V58.64L17.7543 58.6316Z" fill="#0A2540"/>
<path fill-rule="evenodd" clip-rule="evenodd" d="M39.1324 59.7532C39.2413 59.8035 39.3083 59.837 39.3837 59.8621C40.1792 60.2138 40.9246 60.6409 41.427 61.3862C41.7787 61.9055 41.9546 62.4917 41.9881 63.1197C42.0216 63.7813 41.9881 64.4429 41.7369 65.071C41.3433 66.0508 40.6147 66.704 39.6684 67.1227C38.6718 67.5665 37.6167 67.7256 36.528 67.7256C34.1162 67.7256 31.7044 67.7256 29.2842 67.734C29.0832 67.734 29.0078 67.6838 29.0078 67.466C29.0162 62.5335 29.0162 57.601 29.0078 52.6685C29.0078 52.4927 29.0664 52.4508 29.2255 52.4508C31.6541 52.4508 34.0743 52.434 36.4861 52.4592C37.5915 52.4759 38.6467 52.7271 39.5763 53.372C40.5645 54.067 41.0837 55.005 41.1255 56.2276C41.1758 57.4503 40.7906 58.4887 39.8108 59.2592C39.6014 59.4183 39.3753 59.5606 39.1157 59.7449L39.1324 59.7532ZM34.4847 61.403C33.8315 61.403 33.1783 61.403 32.5251 61.3946C32.2906 61.3946 32.2319 61.47 32.2403 61.6961C32.2487 62.6424 32.2403 63.5887 32.2403 64.535C32.2403 64.8532 32.2403 64.8532 32.5502 64.8532C33.7812 64.8532 35.0206 64.8616 36.2517 64.8532C36.7625 64.8532 37.2817 64.803 37.7674 64.5936C38.3955 64.3256 38.697 63.8316 38.7221 63.1616C38.7388 62.4833 38.429 61.9808 37.8093 61.6961C37.3654 61.4867 36.8881 61.4197 36.4108 61.4114C35.7743 61.403 35.1295 61.4114 34.493 61.4114L34.4847 61.403ZM34.2083 55.3567C33.6388 55.3567 33.0694 55.3651 32.4999 55.3567C32.2906 55.3567 32.2403 55.4237 32.2403 55.6163C32.2487 56.5291 32.2403 57.4335 32.2403 58.3463C32.2403 58.6646 32.2403 58.6729 32.5585 58.6729C33.6891 58.6729 34.8113 58.6897 35.9418 58.6311C36.3354 58.6143 36.7541 58.472 37.1226 58.3045C37.6585 58.0532 37.8679 57.5592 37.8679 56.9897C37.8679 56.4202 37.6418 55.9764 37.131 55.6833C36.729 55.4572 36.2851 55.3734 35.8329 55.3567C35.2886 55.3399 34.7526 55.3567 34.2083 55.3567Z" fill="#0A2540"/>
<path fill-rule="evenodd" clip-rule="evenodd" d="M10.0995 59.7452C10.3675 59.8709 10.5936 59.963 10.8113 60.0719C11.7492 60.5408 12.5113 61.2024 12.796 62.2492C13.131 63.4635 13.0557 64.6526 12.3606 65.7329C11.8162 66.5704 10.9956 67.031 10.066 67.3408C9.14482 67.6423 8.19014 67.7344 7.23546 67.7344C4.91576 67.7344 2.60443 67.7344 0.284729 67.7344C0.0502463 67.7344 0 67.6507 0 67.4329C0.00837438 62.5255 0.00837438 57.6098 0 52.7108C0 52.5182 0.0502463 52.4512 0.251231 52.4512C2.62118 52.4595 4.98275 52.4512 7.3527 52.4595C8.42462 52.4679 9.45467 52.6773 10.3842 53.2635C11.498 53.9669 12.0842 54.9719 12.1177 56.3118C12.1512 57.7521 11.5483 58.8241 10.3424 59.5861C10.2754 59.628 10.2084 59.6783 10.0995 59.7452ZM5.46009 61.4034C4.79014 61.4034 4.12019 61.4034 3.45024 61.4034C3.28276 61.4034 3.20739 61.4369 3.21576 61.6295C3.22413 62.6428 3.21576 63.6561 3.21576 64.6694C3.21576 64.8034 3.24926 64.8536 3.38325 64.8536C4.66453 64.8536 5.93743 64.8704 7.21871 64.8452C7.69605 64.8285 8.17339 64.7531 8.63398 64.6275C9.27043 64.46 9.63053 63.9408 9.6724 63.2039C9.7059 62.5842 9.47142 62.0398 8.85171 61.73C8.3995 61.5039 7.91378 61.4285 7.4197 61.4118C6.7665 61.395 6.10492 61.4118 5.46009 61.4118V61.4034ZM3.23251 58.665C4.22069 58.665 5.18374 58.6733 6.13842 58.665C6.71625 58.665 7.30246 58.6482 7.84679 58.4305C8.48324 58.1792 8.84334 57.6852 8.83497 57.0152C8.82659 56.3871 8.61723 55.8679 7.90541 55.5999C7.54531 55.4659 7.15172 55.3822 6.7665 55.3738C5.66945 55.3487 4.58078 55.3738 3.48374 55.3571C3.29113 55.3571 3.22413 55.4157 3.22413 55.6167C3.23251 56.5797 3.22413 57.5344 3.22413 58.4975C3.22413 58.5561 3.23251 58.6147 3.23251 58.6817V58.665Z" fill="#0A2540"/>
<path fill-rule="evenodd" clip-rule="evenodd" d="M7.03906 45.5086C7.29867 44.6712 7.54153 43.8672 7.79276 43.0466C7.79276 43.0298 7.80113 43.0214 7.80113 43.0047C7.92954 42.6083 8.20031 42.4241 8.61345 42.452C8.77256 42.4603 8.9233 42.4687 9.09078 42.4687C17.2558 42.4687 25.4208 42.4687 33.5942 42.4687C33.8371 42.4687 33.9711 42.519 34.0381 42.7702C34.2977 43.6746 34.574 44.5791 34.8587 45.5086C34.7666 45.517 34.6829 45.5254 34.6075 45.5254C32.4637 45.5254 30.3198 45.5254 28.176 45.5254C27.9834 45.5254 27.9164 45.5924 27.8661 45.7599C27.4893 47.016 27.0873 48.2805 26.7188 49.5451C26.6602 49.7461 26.5597 49.8214 26.342 49.8214C22.7494 49.8131 19.1568 49.8131 15.5558 49.8214C15.3381 49.8214 15.2543 49.7461 15.1957 49.5534C14.8105 48.2722 14.4085 46.9993 14.0233 45.718C13.9898 45.5756 13.9312 45.5254 13.7637 45.5254C11.5696 45.5254 9.38389 45.5254 7.19818 45.5254C7.1563 45.5254 7.12281 45.5254 7.04744 45.517L7.03906 45.5086Z" fill="#0A2540"/>
</svg>
