<svg width="32" height="32" viewBox="0 0 32 32" fill="none" xmlns="http://www.w3.org/2000/svg">
<path d="M26.6665 8.00008H22.6665V5.33341C22.6665 3.86275 21.4705 2.66675 19.9998 2.66675H11.9998C10.5292 2.66675 9.33317 3.86275 9.33317 5.33341V8.00008H5.33317C3.8625 8.00008 2.6665 9.19608 2.6665 10.6667V25.3334C2.6665 26.8041 3.8625 28.0001 5.33317 28.0001H26.6665C28.1372 28.0001 29.3332 26.8041 29.3332 25.3334V10.6667C29.3332 9.19608 28.1372 8.00008 26.6665 8.00008ZM19.9998 5.33341V8.00008H11.9998V5.33341H19.9998ZM5.33317 10.6667H26.6665V16.0001H22.6665V13.3334H19.9998V16.0001H11.9998V13.3334H9.33317V16.0001H5.33317V10.6667ZM5.33317 25.3334V18.6667H9.33317V21.3334H11.9998V18.6667H19.9998V21.3334H22.6665V18.6667H26.6678V25.3334H5.33317Z" fill="#BCBCCB"/>
</svg>
