<svg width="32" height="32" viewBox="0 0 32 32" fill="none" xmlns="http://www.w3.org/2000/svg">
<path d="M2.74639 19.5733C2.83827 19.9099 3.05847 20.1971 3.35973 20.3733L5.90639 21.8533V24.7866C5.90639 25.1402 6.04687 25.4794 6.29692 25.7294C6.54697 25.9795 6.8861 26.1199 7.23973 26.1199H10.1731L11.6531 28.6666C11.7694 28.8681 11.9365 29.0357 12.1376 29.1526C12.3388 29.2696 12.567 29.3319 12.7997 29.3333C13.039 29.3332 13.2739 29.2687 13.4797 29.1466L16.0131 27.6799L18.5597 29.1466C18.7111 29.2353 18.8785 29.2933 19.0523 29.3172C19.2262 29.341 19.403 29.3304 19.5727 29.2858C19.7424 29.2412 19.9016 29.1635 20.0413 29.0573C20.1809 28.951 20.2982 28.8183 20.3864 28.6666L21.8531 26.1199H24.7864C25.14 26.1199 25.4792 25.9795 25.7292 25.7294C25.9793 25.4794 26.1197 25.1402 26.1197 24.7866V21.8533L28.6664 20.3733C28.9714 20.1974 29.1944 19.908 29.2868 19.5683C29.3792 19.2286 29.3336 18.8661 29.1597 18.5599L27.6797 15.9999L29.1597 13.4533C29.3336 13.1471 29.3792 12.7846 29.2868 12.4449C29.1944 12.1052 28.9714 11.8158 28.6664 11.6399L26.1197 10.1733V7.23994C26.1197 6.88632 25.9793 6.54718 25.7292 6.29713C25.4792 6.04708 25.14 5.90661 24.7864 5.90661H21.8531L20.3864 3.35994C20.2071 3.05591 19.9147 2.83535 19.5731 2.74661C19.4037 2.70109 19.227 2.68944 19.0531 2.71232C18.8792 2.7352 18.7116 2.79216 18.5597 2.87994L15.9997 4.34661L13.4664 2.87994C13.1618 2.70499 12.8006 2.65727 12.461 2.74714C12.1215 2.83702 11.8312 3.05723 11.6531 3.35994L10.1731 5.90661H7.23973C6.8861 5.90661 6.54697 6.04708 6.29692 6.29713C6.04687 6.54718 5.90639 6.88632 5.90639 7.23994V10.1733L3.37306 11.6399C3.22028 11.727 3.08624 11.8435 2.97866 11.9826C2.87108 12.1218 2.79209 12.2808 2.74623 12.4506C2.70038 12.6204 2.68856 12.7976 2.71148 12.9719C2.73439 13.1463 2.79157 13.3144 2.87973 13.4666L4.34639 15.9999L2.87973 18.5466C2.79017 18.7002 2.73224 18.8702 2.70935 19.0465C2.68645 19.2228 2.69904 19.4019 2.74639 19.5733ZM7.03973 15.3466L5.85306 13.3333L7.91973 12.1333C8.11876 12.0153 8.28366 11.8475 8.39821 11.6464C8.51276 11.4454 8.57302 11.218 8.57306 10.9866V8.57327H10.9464C11.1813 8.57421 11.4124 8.51304 11.6161 8.39597C11.8198 8.2789 11.9889 8.11008 12.1064 7.90661L13.3331 5.85327L15.3864 7.03994C15.5891 7.15696 15.819 7.21857 16.0531 7.21857C16.2871 7.21857 16.517 7.15696 16.7197 7.03994L18.7864 5.85327L19.9997 7.90661C20.1172 8.11008 20.2864 8.2789 20.4901 8.39597C20.6938 8.51304 20.9248 8.57421 21.1597 8.57327H23.5197V10.9466C23.5211 11.1793 23.5834 11.4076 23.7004 11.6087C23.8173 11.8099 23.9849 11.9769 24.1864 12.0933L26.2397 13.2933L25.0531 15.3466C24.936 15.5493 24.8744 15.7792 24.8744 16.0133C24.8744 16.2473 24.936 16.4772 25.0531 16.6799L26.2397 18.7333L24.1864 19.9333C23.9849 20.0496 23.8173 20.2167 23.7004 20.4178C23.5834 20.619 23.5211 20.8473 23.5197 21.0799V23.4533H21.0797C20.847 23.4547 20.6188 23.517 20.4176 23.6339C20.2165 23.7509 20.0494 23.9184 19.9331 24.1199L18.7464 26.1733L16.6797 24.9866C16.477 24.8696 16.2471 24.808 16.0131 24.808C15.779 24.808 15.5491 24.8696 15.3464 24.9866L13.3331 26.1733L12.1464 24.1199C12.0289 23.9165 11.8598 23.7476 11.6561 23.6306C11.4524 23.5135 11.2213 23.4523 10.9864 23.4533H8.57306V21.0799C8.56184 20.86 8.4963 20.6462 8.38229 20.4577C8.26828 20.2693 8.10936 20.112 7.91973 19.9999L5.85306 18.7999L7.03973 16.7466C7.16952 16.5362 7.23826 16.2938 7.23826 16.0466C7.23826 15.7994 7.16952 15.557 7.03973 15.3466Z" fill="#BCBCCB"/>
</svg>
