<svg width="32" height="32" viewBox="0 0 32 32" fill="none" xmlns="http://www.w3.org/2000/svg">
<path d="M2.6665 26.6667H29.3332V29.3334H2.6665V26.6667ZM5.33317 4.00008V22.6667C5.33317 23.0204 5.47365 23.3595 5.7237 23.6096C5.97374 23.8596 6.31288 24.0001 6.6665 24.0001H13.3332C13.6868 24.0001 14.0259 23.8596 14.276 23.6096C14.526 23.3595 14.6665 23.0204 14.6665 22.6667V4.00008C14.6665 3.64646 14.526 3.30732 14.276 3.05727C14.0259 2.80722 13.6868 2.66675 13.3332 2.66675H6.6665C6.31288 2.66675 5.97374 2.80722 5.7237 3.05727C5.47365 3.30732 5.33317 3.64646 5.33317 4.00008ZM7.99984 5.33341H11.9998V21.3334H7.99984V5.33341ZM17.3332 22.6667C17.3332 23.0204 17.4736 23.3595 17.7237 23.6096C17.9737 23.8596 18.3129 24.0001 18.6665 24.0001H25.3332C25.6868 24.0001 26.0259 23.8596 26.276 23.6096C26.526 23.3595 26.6665 23.0204 26.6665 22.6667V9.33342C26.6665 8.97979 26.526 8.64065 26.276 8.39061C26.0259 8.14056 25.6868 8.00008 25.3332 8.00008H18.6665C18.3129 8.00008 17.9737 8.14056 17.7237 8.39061C17.4736 8.64065 17.3332 8.97979 17.3332 9.33342V22.6667ZM19.9998 10.6667H23.9998V21.3334H19.9998V10.6667Z" fill="#BCBCCB"/>
</svg>
