<svg width="32" height="32" viewBox="0 0 32 32" fill="none" xmlns="http://www.w3.org/2000/svg">
<path d="M10.6665 16C13.7065 16 15.9998 13.7066 15.9998 10.6666C15.9998 7.62665 13.7065 5.33332 10.6665 5.33332C7.6265 5.33332 5.33317 7.62665 5.33317 10.6666C5.33317 13.7066 7.6265 16 10.6665 16ZM10.6665 7.99998C12.2372 7.99998 13.3332 9.09598 13.3332 10.6666C13.3332 12.2373 12.2372 13.3333 10.6665 13.3333C9.09584 13.3333 7.99984 12.2373 7.99984 10.6666C7.99984 9.09598 9.09584 7.99998 10.6665 7.99998ZM11.9998 17.3333H9.33317C5.65717 17.3333 2.6665 20.324 2.6665 24V25.3333H5.33317V24C5.33317 21.7946 7.12784 20 9.33317 20H11.9998C14.2052 20 15.9998 21.7946 15.9998 24V25.3333H18.6665V24C18.6665 20.324 15.6758 17.3333 11.9998 17.3333ZM24.4852 3.51465L22.5998 5.39998C24.3612 7.16398 25.3332 9.50798 25.3332 12C25.3332 14.492 24.3612 16.836 22.5998 18.6L24.4852 20.4853C26.7518 18.2173 27.9998 15.204 27.9998 12C27.9998 8.79598 26.7518 5.78265 24.4852 3.51465Z" fill="#BCBCCB"/>
<path d="M20.7131 7.28548L18.8278 9.17348C19.5838 9.92681 19.9998 10.9308 19.9998 12.0001C19.9998 13.0695 19.5838 14.0735 18.8278 14.8268L20.7131 16.7148C21.9718 15.4561 22.6665 13.7828 22.6665 12.0001C22.6665 10.2175 21.9718 8.54415 20.7131 7.28548Z" fill="#BCBCCB"/>
</svg>
