<svg version="1.1" xmlns="http://www.w3.org/2000/svg" viewBox="0 0 22 22">
<path fill="#557EBF" d="M21.561,11.25c0-0.78-0.07-1.53-0.201-2.25H11v4.26h5.92c-0.26,1.37-1.04,2.53-2.21,3.311v2.77h3.569	C20.359,17.42,21.561,14.6,21.561,11.25z"/>
<path fill="#36A852" d="M11,22c2.971,0,5.46-0.98,7.279-2.66l-3.569-2.77c-0.979,0.66-2.229,1.06-3.71,1.06 c-2.86,0-5.29-1.93-6.16-4.53H1.18v2.84C2.99,19.529,6.7,22,11,22z"/>
<path fill="#F9BC15" d="M4.84,13.09C4.62,12.43,4.49,11.73,4.49,11c0-0.73,0.13-1.43,0.35-2.09V6.07H1.18C0.43,7.55,0,9.22,0,11 c0,1.779,0.43,3.45,1.18,4.93l2.85-2.22L4.84,13.09z"/>
<path fill="#EA4535" d="M11,4.38c1.62,0,3.061,0.56,4.21,1.64l3.149-3.15C16.45,1.09,13.971,0,11,0C6.7,0,2.99,2.47,1.18,6.07 l3.66,2.84C5.71,6.31,8.14,4.38,11,4.38z"/>
<path fill="none" d="M0,0h22v22H0V0z"/>
</svg>
