<svg width="32" height="32" viewBox="0 0 32 32" fill="none" xmlns="http://www.w3.org/2000/svg">
<g clip-path="url(#clip0_6549_25629)">
<g clip-path="url(#clip1_6549_25629)">
<g clip-path="url(#clip2_6549_25629)">
<path fill-rule="evenodd" clip-rule="evenodd" d="M18.9122 15.5819C18.8117 15.5112 18.715 15.4442 18.6145 15.3735C18.6889 15.232 18.7745 15.098 18.8303 14.9529C19.1616 14.1043 19.0313 13.3264 18.4172 12.6602C18.179 12.4034 17.8663 12.2098 17.5798 11.9939C17.1592 11.6776 16.7274 11.3724 16.3031 11.0635C15.8788 10.7583 15.4583 10.4568 15.0377 10.1479C14.7027 9.90221 14.3566 9.66773 14.0737 9.36253C13.5675 8.8154 13.2325 8.17895 13.0985 7.44573C13.0427 7.14425 13.0092 6.83533 13.0167 6.53013C13.0427 5.69641 13.3256 4.94458 13.8206 4.27091C14.4161 3.45952 15.0005 2.64442 15.5922 1.83303C15.6965 1.68788 15.8044 1.54272 15.9086 1.39757C15.9533 1.33057 16.0017 1.30824 16.0724 1.36779C16.1394 1.42362 16.2138 1.47201 16.2622 1.50923C16.2026 1.6916 16.1208 1.86281 16.0873 2.03774C15.9979 2.54393 16.1803 2.95334 16.5897 3.25482C17.1629 3.68284 17.7472 4.10342 18.3279 4.524C18.8824 4.92597 19.4445 5.32422 19.999 5.73363C20.3935 6.02022 20.7955 6.29937 21.1565 6.62318C21.8042 7.19636 22.1838 7.92958 22.3401 8.77446C22.5225 9.76822 22.3513 10.7099 21.8153 11.5696C21.5883 11.9344 21.3203 12.2731 21.0709 12.623C20.7509 13.0659 20.427 13.5088 20.107 13.9517C19.7236 14.4765 19.3477 15.005 18.9643 15.5335C18.9532 15.5484 18.9383 15.5633 18.9234 15.5856L18.9122 15.5819Z" fill="#BCBCCB"/>
<path fill-rule="evenodd" clip-rule="evenodd" d="M16.0238 19.4862C15.8936 19.3894 15.767 19.3038 15.6516 19.2182C15.6888 19.0953 15.741 18.98 15.7521 18.8646C15.7782 18.5854 15.6591 18.3696 15.432 18.2058C14.6541 17.6438 13.88 17.0818 13.1021 16.516C12.8788 16.3523 12.6517 16.196 12.447 16.0099C12.0488 15.6488 11.7845 15.2022 11.6654 14.67C11.6096 14.4318 11.5835 14.201 11.5873 13.9591C11.5947 13.4082 11.7659 12.9095 12.0823 12.4628C12.4098 11.9976 12.7522 11.5398 13.0872 11.0783C13.2435 10.8661 13.3961 10.654 13.5524 10.4307C13.6827 10.5237 13.8093 10.613 13.9321 10.7024C13.9023 10.8066 13.8576 10.8996 13.839 10.9964C13.7869 11.2904 13.8986 11.5212 14.1331 11.6924C14.669 12.0869 15.205 12.474 15.7447 12.8648C16.1318 13.1514 16.5337 13.4231 16.9171 13.7209C17.6689 14.3015 18.0262 15.0756 17.9964 16.0247C17.9741 16.6054 17.762 17.1116 17.4195 17.5768C17.0883 18.0197 16.7682 18.4738 16.4444 18.9204C16.3104 19.1065 16.1727 19.2926 16.0313 19.4862H16.0238Z" fill="#BCBCCB"/>
<path fill-rule="evenodd" clip-rule="evenodd" d="M17.6248 27.8941C17.7364 27.9462 17.8518 27.9983 17.9598 28.0541C18.4473 28.2961 18.7749 28.6682 18.8567 29.2154C18.9424 29.7774 18.8605 30.3022 18.4585 30.7376C18.1831 31.0391 17.8295 31.2029 17.4424 31.3071C17.1074 31.3927 16.7687 31.4337 16.4226 31.4337C15.3581 31.4337 14.2974 31.4337 13.2329 31.4337C13.1287 31.4337 13.1026 31.4039 13.1026 31.3034C13.1026 29.1409 13.1026 26.9785 13.1026 24.816C13.1026 24.7825 13.0915 24.7453 13.1026 24.7155C13.1138 24.6858 13.1436 24.6485 13.1733 24.6448C13.2366 24.6337 13.3036 24.6411 13.3706 24.6411H16.2365C16.6199 24.6411 16.9958 24.682 17.3531 24.8198C17.9337 25.0468 18.3468 25.4339 18.4622 26.0703C18.5553 26.61 18.4622 27.1162 18.0603 27.5219C17.9263 27.6559 17.7662 27.7638 17.6099 27.8866L17.6248 27.8941ZM14.5579 28.6236V30.0193C14.5579 30.157 14.5244 30.1607 14.6993 30.1607C15.2278 30.1607 15.7564 30.1682 16.2812 30.157C16.4859 30.1533 16.6943 30.1272 16.8916 30.0789C17.2042 30.0044 17.394 29.7774 17.4201 29.4871C17.4536 29.1298 17.327 28.8767 16.9995 28.7538C16.8097 28.6794 16.5938 28.6422 16.3891 28.6347C15.8978 28.6199 15.4065 28.6273 14.9152 28.6273H14.5616L14.5579 28.6236ZM14.5579 27.3916C15.1236 27.3916 15.6782 27.3991 16.2328 27.3879C16.4152 27.3842 16.5901 27.3209 16.7538 27.2279C17.1409 27.0045 17.1484 26.3123 16.7352 26.0889C16.5454 25.9884 16.3482 25.9438 16.1397 25.9401C15.6261 25.9326 15.1162 25.9401 14.6063 25.9401C14.5914 25.9401 14.5765 25.9438 14.5616 25.9475V27.3953L14.5579 27.3916Z" fill="#BCBCCB"/>
<path fill-rule="evenodd" clip-rule="evenodd" d="M24.0594 27.8903C24.1078 27.9126 24.1376 27.9275 24.1711 27.9387C24.5246 28.095 24.8559 28.2848 25.0792 28.6161C25.2355 28.8468 25.3137 29.1074 25.3286 29.3865C25.3435 29.6806 25.3286 29.9746 25.2169 30.2537C25.042 30.6892 24.7182 30.9795 24.2976 31.1656C23.8547 31.3629 23.3857 31.4336 22.9019 31.4336C21.83 31.4336 20.758 31.4336 19.6824 31.4373C19.5931 31.4373 19.5596 31.415 19.5596 31.3182C19.5633 29.126 19.5633 26.9338 19.5596 24.7415C19.5596 24.6634 19.5856 24.6448 19.6563 24.6448C20.7357 24.6448 21.8113 24.6373 22.8833 24.6485C23.3746 24.6559 23.8435 24.7676 24.2567 25.0542C24.6959 25.3631 24.9266 25.78 24.9452 26.3234C24.9676 26.8668 24.7963 27.3283 24.3609 27.6707C24.2678 27.7414 24.1673 27.8047 24.052 27.8866L24.0594 27.8903ZM21.9937 28.6235C21.7034 28.6235 21.4131 28.6235 21.1228 28.6198C21.0186 28.6198 20.9925 28.6533 20.9962 28.7538C21 29.1744 20.9962 29.595 20.9962 30.0155C20.9962 30.157 20.9962 30.157 21.134 30.157C21.6811 30.157 22.2319 30.1607 22.7791 30.157C23.0061 30.157 23.2369 30.1346 23.4527 30.0416C23.7319 29.9225 23.8659 29.7029 23.877 29.4051C23.8845 29.1037 23.7468 28.8803 23.4713 28.7538C23.2741 28.6607 23.0619 28.631 22.8498 28.6272C22.5669 28.6235 22.2803 28.6272 21.9974 28.6272L21.9937 28.6235ZM21.8709 25.9363C21.6178 25.9363 21.3647 25.94 21.1116 25.9363C21.0186 25.9363 20.9962 25.9661 20.9962 26.0517C21 26.4574 20.9962 26.8593 20.9962 27.265C20.9962 27.4064 20.9962 27.4102 21.1377 27.4102C21.6401 27.4102 22.1389 27.4176 22.6413 27.3916C22.8163 27.3841 23.0024 27.3208 23.1661 27.2464C23.4043 27.1347 23.4974 26.9152 23.4974 26.6621C23.4974 26.409 23.3969 26.2117 23.1699 26.0814C22.9912 25.9809 22.7939 25.9437 22.593 25.9363C22.351 25.9288 22.1128 25.9363 21.8709 25.9363Z" fill="#BCBCCB"/>
<path fill-rule="evenodd" clip-rule="evenodd" d="M11.1557 27.8866C11.2748 27.9424 11.3753 27.9834 11.472 28.0317C11.8889 28.2402 12.2276 28.5342 12.3541 28.9994C12.503 29.5391 12.4695 30.0676 12.1606 30.5478C11.9187 30.92 11.5539 31.1247 11.1408 31.2624C10.7314 31.3964 10.3071 31.4373 9.88275 31.4373C8.85177 31.4373 7.82452 31.4373 6.79354 31.4373C6.68932 31.4373 6.66699 31.4001 6.66699 31.3033C6.67071 29.1223 6.67071 26.9375 6.66699 24.7602C6.66699 24.6746 6.68932 24.6448 6.77865 24.6448C7.83196 24.6485 8.88155 24.6448 9.93486 24.6485C10.4113 24.6522 10.8691 24.7453 11.2822 25.0058C11.7772 25.3184 12.0378 25.7651 12.0526 26.3606C12.0675 27.0008 11.7996 27.4772 11.2636 27.8159C11.2338 27.8345 11.204 27.8568 11.1557 27.8866ZM9.0937 28.6235C8.79595 28.6235 8.49819 28.6235 8.20043 28.6235C8.12599 28.6235 8.0925 28.6384 8.09622 28.724C8.09994 29.1744 8.09622 29.6247 8.09622 30.0751C8.09622 30.1346 8.11111 30.157 8.17066 30.157C8.74012 30.157 9.30585 30.1644 9.87531 30.1533C10.0875 30.1458 10.2996 30.1123 10.5043 30.0565C10.7872 29.982 10.9472 29.7513 10.9658 29.4238C10.9807 29.1483 10.8765 28.9064 10.6011 28.7687C10.4001 28.6682 10.1842 28.6347 9.96464 28.6273C9.67432 28.6198 9.38029 28.6273 9.0937 28.6273V28.6235ZM8.10366 27.4065C8.54285 27.4065 8.97088 27.4102 9.39518 27.4065C9.65199 27.4065 9.91253 27.399 10.1545 27.3022C10.4373 27.1906 10.5974 26.971 10.5936 26.6732C10.5899 26.3941 10.4969 26.1633 10.1805 26.0442C10.0205 25.9847 9.84553 25.9475 9.67432 25.9437C9.18675 25.9326 8.7029 25.9437 8.21532 25.9363C8.12972 25.9363 8.09994 25.9623 8.09994 26.0517C8.10366 26.4797 8.09994 26.904 8.09994 27.332C8.09994 27.3581 8.10366 27.3841 8.10366 27.4139V27.4065Z" fill="#BCBCCB"/>
<path fill-rule="evenodd" clip-rule="evenodd" d="M9.79688 21.5594C9.91226 21.1872 10.0202 20.8299 10.1319 20.4652C10.1319 20.4577 10.1356 20.454 10.1356 20.4466C10.1926 20.2704 10.313 20.1885 10.4966 20.2009C10.5673 20.2047 10.6343 20.2084 10.7088 20.2084C14.3376 20.2084 17.9665 20.2084 21.5992 20.2084C21.7071 20.2084 21.7666 20.2307 21.7964 20.3424C21.9118 20.7443 22.0346 21.1463 22.1612 21.5594C22.1202 21.5632 22.083 21.5669 22.0495 21.5669C21.0967 21.5669 20.1439 21.5669 19.1911 21.5669C19.1055 21.5669 19.0757 21.5967 19.0534 21.6711C18.8859 22.2294 18.7072 22.7914 18.5434 23.3534C18.5174 23.4427 18.4727 23.4762 18.376 23.4762C16.7792 23.4725 15.1825 23.4725 13.5821 23.4762C13.4853 23.4762 13.4481 23.4427 13.422 23.3571C13.2508 22.7877 13.0722 22.2219 12.901 21.6525C12.8861 21.5892 12.86 21.5669 12.7856 21.5669C11.8104 21.5669 10.839 21.5669 9.86759 21.5669C9.84898 21.5669 9.83409 21.5669 9.8006 21.5632L9.79688 21.5594Z" fill="#BCBCCB"/>
</g>
</g>
</g>
<defs>
<clipPath id="clip0_6549_25629">
<rect width="32" height="32" fill="white"/>
</clipPath>
<clipPath id="clip1_6549_25629">
<rect width="126.413" height="121.467" fill="white" transform="translate(-50.667 -48)"/>
</clipPath>
<clipPath id="clip2_6549_25629">
<rect width="72.16" height="109.053" fill="white" transform="translate(-20 -26.6667)"/>
</clipPath>
</defs>
</svg>
