<svg width="32" height="32" viewBox="0 0 32 32" fill="none" xmlns="http://www.w3.org/2000/svg">
<path d="M28.5841 6.78531C28.3863 6.68147 28.1656 6.62888 27.9422 6.63238C27.7189 6.63587 27.4999 6.69533 27.3055 6.80531C26.3935 7.32397 25.4988 7.57464 24.5681 7.57464C21.8548 7.57464 19.2988 5.40264 16.9388 3.05464C16.4388 2.55731 15.5215 2.55731 15.0215 3.05464C12.7895 5.27864 10.1308 7.55064 7.3468 7.55064C6.4268 7.55064 5.54546 7.30531 4.65613 6.80264C4.2588 6.58131 3.7788 6.57464 3.37613 6.78664C2.97346 6.99864 2.70813 7.40131 2.67213 7.85464C2.65746 8.02664 1.41346 25.0173 15.5828 29.2426C15.7065 29.2799 15.835 29.2987 15.9641 29.2986H16.0001C16.1295 29.2986 16.2561 29.28 16.3801 29.244C30.5895 25.0173 29.3068 8.02264 29.2921 7.85197C29.2731 7.62906 29.1983 7.41451 29.0745 7.22811C28.9508 7.0417 28.7822 6.88943 28.5841 6.78531ZM15.9815 26.5746C6.67613 23.568 5.4028 14.0253 5.29613 9.93864C5.96946 10.1253 6.6548 10.2173 7.34546 10.2173C10.6681 10.2173 13.5455 8.12797 15.9801 5.83997C18.5041 8.22397 21.2908 10.2413 24.5695 10.2413C25.2761 10.2413 25.9788 10.1426 26.6695 9.94797C26.5708 14.0346 25.3081 23.5706 15.9815 26.5746Z" fill="#BCBCCB"/>
</svg>
