<svg viewBox="0 0 32 32" xmlns="http://www.w3.org/2000/svg">
<path fill="none" stroke="currentColor" stroke-width="3" stroke-miterlimit="10" d="M30,30.5H6.406c-3.875,0-3.875-7,0-7H30"/>
<path fill="none" stroke="currentColor" stroke-width="3" stroke-miterlimit="10" d="M3.5,26.875V4c0-1.5,1-2.5,2.5-2.5h20
	c1.5,0,2.5,1,2.5,2.5v18"/>
<path fill="currentColor" d="M15.999,19.223l5.956-5.848c0.367-0.354,0.658-0.777,0.858-1.246s0.302-0.973,0.302-1.482
	s-0.102-1.014-0.302-1.482s-0.491-0.893-0.858-1.245c-0.74-0.731-1.738-1.141-2.779-1.141c-1.04,0-2.038,0.409-2.778,1.141
	l-0.398,0.388l-0.398-0.39c-0.74-0.73-1.738-1.14-2.778-1.14c-1.04,0-2.038,0.409-2.778,1.14C9.678,8.27,9.386,8.693,9.187,9.162
	s-0.302,0.974-0.302,1.482c0,0.51,0.103,1.014,0.302,1.482s0.492,0.893,0.859,1.246L15.999,19.223z"/>
</svg>
