<svg viewBox="0 0 32 32" xmlns="http://www.w3.org/2000/svg">
<path fill="currentColor" d="M0.058,20.271c0.11,0.405,0.375,0.75,0.737,0.961l3.059,1.779v3.524c0,0.425,0.169,0.831,0.469,1.132
	s0.708,0.47,1.133,0.47H8.98l1.778,3.059c0.14,0.242,0.34,0.443,0.582,0.584s0.516,0.216,0.795,0.218
	c0.288-0.001,0.57-0.078,0.817-0.225l3.044-1.763l3.06,1.763c0.182,0.106,0.383,0.176,0.592,0.205
	c0.209,0.028,0.42,0.016,0.624-0.039c0.205-0.053,0.396-0.146,0.563-0.274c0.168-0.127,0.31-0.286,0.415-0.469l1.763-3.059h3.524
	c0.425,0,0.831-0.169,1.131-0.47c0.302-0.301,0.47-0.707,0.47-1.132v-3.524l3.06-1.779c0.366-0.211,0.635-0.559,0.746-0.967
	c0.11-0.408,0.057-0.843-0.152-1.211l-1.778-3.076l1.778-3.06c0.209-0.368,0.263-0.803,0.152-1.211
	c-0.111-0.408-0.38-0.755-0.746-0.967l-3.06-1.762V5.453c0-0.424-0.168-0.832-0.47-1.133c-0.3-0.3-0.706-0.469-1.131-0.469h-3.524
	l-1.763-3.06c-0.216-0.366-0.567-0.63-0.977-0.737C20.071,0,19.857-0.014,19.648,0.014c-0.209,0.027-0.41,0.096-0.592,0.201
	L15.98,1.977l-3.043-1.762c-0.366-0.21-0.799-0.268-1.208-0.16c-0.408,0.108-0.757,0.373-0.971,0.736L8.98,3.851H5.456
	c-0.425,0-0.833,0.168-1.133,0.469c-0.3,0.301-0.469,0.708-0.469,1.133v3.524l-3.043,1.762c-0.184,0.105-0.344,0.245-0.474,0.412
	c-0.129,0.167-0.224,0.358-0.279,0.563s-0.069,0.417-0.042,0.626c0.028,0.21,0.096,0.412,0.203,0.595l1.761,3.043l-1.761,3.061
	c-0.108,0.184-0.177,0.388-0.205,0.601C-0.014,19.85,0.001,20.065,0.058,20.271z M4.991,15.176l-1.454-2.469l2.534-1.471
	c0.244-0.146,0.446-0.351,0.586-0.598c0.14-0.247,0.214-0.525,0.214-0.809V6.87h2.911c0.288,0.001,0.571-0.073,0.821-0.217
	c0.25-0.144,0.457-0.351,0.601-0.6l1.504-2.517l2.518,1.455c0.249,0.143,0.531,0.219,0.817,0.219c0.287,0,0.569-0.076,0.817-0.219
	l2.537-1.455l1.486,2.517c0.144,0.25,0.353,0.457,0.602,0.6c0.249,0.144,0.533,0.219,0.822,0.217h2.893V9.78
	c0.002,0.285,0.078,0.565,0.221,0.813c0.144,0.247,0.35,0.451,0.598,0.594l2.518,1.471l-1.456,2.518
	c-0.144,0.249-0.218,0.531-0.218,0.817c0,0.287,0.074,0.569,0.218,0.818l1.456,2.518l-2.518,1.473
	c-0.248,0.142-0.454,0.347-0.598,0.594c-0.143,0.246-0.219,0.527-0.221,0.812v2.91H22.21c-0.284,0.002-0.566,0.079-0.813,0.222
	c-0.247,0.143-0.452,0.349-0.594,0.597l-1.456,2.518l-2.535-1.455c-0.248-0.144-0.53-0.219-0.817-0.219s-0.568,0.075-0.817,0.219
	l-2.469,1.455l-1.455-2.518c-0.145-0.25-0.352-0.458-0.602-0.602c-0.25-0.143-0.534-0.219-0.821-0.217H6.872v-2.91
	c-0.014-0.27-0.095-0.532-0.234-0.764c-0.14-0.23-0.334-0.425-0.567-0.562l-2.534-1.471l1.454-2.52
	c0.16-0.257,0.244-0.554,0.244-0.857C5.235,15.731,5.151,15.434,4.991,15.176z"/>
</svg>
