<svg width="28" height="46" viewBox="0 0 28 46" fill="none" xmlns="http://www.w3.org/2000/svg">
<path fill-rule="evenodd" clip-rule="evenodd" d="M18.3683 21.373C18.2176 21.2669 18.0724 21.1664 17.9217 21.0603C18.0333 20.8482 18.1618 20.6472 18.2455 20.4295C18.7424 19.1566 18.547 17.9897 17.6258 16.9904C17.2685 16.6052 16.7995 16.3148 16.3696 15.991C15.7388 15.5165 15.0912 15.0587 14.4547 14.5953C13.8182 14.1375 13.1874 13.6853 12.5565 13.2219C12.054 12.8534 11.5348 12.5017 11.1105 12.0439C10.3513 11.2232 9.84879 10.2685 9.64781 9.16871C9.56406 8.7165 9.51382 8.25311 9.52498 7.79532C9.56406 6.54474 9.98836 5.41699 10.7309 4.40649C11.6242 3.18941 12.5007 1.96675 13.3884 0.749674C13.5447 0.53194 13.7066 0.314207 13.8629 0.0964728C13.9299 -0.0040197 14.0025 -0.0375172 14.1086 0.0518095C14.209 0.135553 14.3207 0.208131 14.3933 0.26396C14.304 0.537523 14.1811 0.794337 14.1309 1.05673C13.9969 1.81601 14.2705 2.43013 14.8846 2.88235C15.7444 3.52438 16.6209 4.15525 17.4918 4.78612C18.3237 5.38908 19.1667 5.98645 19.9985 6.60057C20.5903 7.03046 21.1933 7.44917 21.7348 7.93489C22.7063 8.79466 23.2757 9.89449 23.5102 11.1618C23.7838 12.6525 23.5269 14.0649 22.723 15.3546C22.3824 15.9017 21.9805 16.4098 21.6064 16.9346C21.1263 17.5989 20.6406 18.2633 20.1604 18.9277C19.5854 19.7148 19.0215 20.5076 18.4465 21.3004C18.4297 21.3227 18.4074 21.3451 18.3851 21.3786L18.3683 21.373Z" fill="#CA9D6B"/>
<path fill-rule="evenodd" clip-rule="evenodd" d="M14.0362 27.2295C13.8408 27.0843 13.651 26.9559 13.4779 26.8275C13.5338 26.6433 13.6119 26.4702 13.6287 26.2971C13.6677 25.8784 13.4891 25.5546 13.1485 25.309C11.9817 24.4659 10.8205 23.6229 9.65363 22.7743C9.31866 22.5287 8.9781 22.2942 8.67104 22.015C8.07366 21.4735 7.67728 20.8035 7.49862 20.0052C7.41488 19.6479 7.3758 19.3017 7.38138 18.9388C7.39255 18.1126 7.64936 17.3645 8.12391 16.6945C8.61521 15.9966 9.12884 15.3099 9.6313 14.6177C9.86578 14.2994 10.0947 13.9812 10.3292 13.6462C10.5246 13.7858 10.7144 13.9198 10.8986 14.0538C10.854 14.2101 10.787 14.3497 10.759 14.4948C10.6809 14.9359 10.8484 15.282 11.2001 15.5388C12.004 16.1306 12.808 16.7113 13.6175 17.2975C14.1981 17.7274 14.8011 18.1349 15.3761 18.5815C16.5039 19.4525 17.0398 20.6137 16.9952 22.0374C16.9617 22.9083 16.6434 23.6676 16.1298 24.3654C15.6329 25.0298 15.1528 25.7109 14.6671 26.3809C14.4661 26.66 14.2595 26.9392 14.0474 27.2295H14.0362Z" fill="#CA9D6B"/>
<path fill-rule="evenodd" clip-rule="evenodd" d="M16.4352 39.8414C16.6027 39.9195 16.7758 39.9977 16.9377 40.0814C17.669 40.4443 18.1603 41.0026 18.2832 41.8233C18.4116 42.6663 18.2887 43.4535 17.6858 44.1067C17.2727 44.5589 16.7423 44.8046 16.1617 44.9609C15.6592 45.0893 15.1511 45.1507 14.6319 45.1507C13.0352 45.1507 11.4441 45.1507 9.84738 45.1507C9.69105 45.1507 9.65198 45.1061 9.65198 44.9553C9.65198 41.7116 9.65198 38.468 9.65198 35.2243C9.65198 35.174 9.63523 35.1182 9.65198 35.0736C9.66872 35.0289 9.71339 34.9731 9.75805 34.9675C9.85296 34.9507 9.95345 34.9619 10.0539 34.9619H14.3528C14.9278 34.9619 15.4917 35.0233 16.0277 35.2299C16.8986 35.5704 17.5183 36.1511 17.6914 37.1057C17.8309 37.9153 17.6914 38.6745 17.0884 39.2831C16.8874 39.4841 16.6474 39.646 16.4129 39.8302L16.4352 39.8414ZM11.8349 40.9356V43.0292C11.8349 43.2358 11.7846 43.2414 12.047 43.2414C12.8398 43.2414 13.6326 43.2525 14.4198 43.2358C14.7268 43.2302 15.0395 43.1911 15.3354 43.1185C15.8043 43.0069 16.0891 42.6663 16.1282 42.2309C16.1784 41.6949 15.9886 41.3153 15.4973 41.131C15.2126 41.0194 14.8888 40.9635 14.5817 40.9524C13.8447 40.93 13.1078 40.9412 12.3709 40.9412H11.8405L11.8349 40.9356ZM11.8349 39.0877C12.6835 39.0877 13.5154 39.0988 14.3472 39.0821C14.6208 39.0765 14.8832 38.9816 15.1288 38.842C15.7094 38.5071 15.7206 37.4686 15.1009 37.1337C14.8162 36.9829 14.5203 36.9159 14.2076 36.9103C13.4372 36.8992 12.6723 36.9103 11.9075 36.9103C11.8851 36.9103 11.8628 36.9159 11.8405 36.9215V39.0933L11.8349 39.0877Z" fill="#CA9D6B"/>
<path fill-rule="evenodd" clip-rule="evenodd" d="M26.0896 39.8356C26.1622 39.8691 26.2068 39.8914 26.2571 39.9082C26.7875 40.1426 27.2843 40.4274 27.6193 40.9242C27.8538 41.2704 27.971 41.6612 27.9934 42.0799C28.0157 42.521 27.9934 42.962 27.8259 43.3807C27.5635 44.0339 27.0778 44.4694 26.4469 44.7485C25.7825 45.0444 25.0791 45.1505 24.3533 45.1505C22.7454 45.1505 21.1375 45.1505 19.5241 45.1561C19.3901 45.1561 19.3398 45.1226 19.3398 44.9774C19.3454 41.6891 19.3454 38.4008 19.3398 35.1124C19.3398 34.9952 19.3789 34.9673 19.485 34.9673C21.104 34.9673 22.7175 34.9561 24.3254 34.9729C25.0623 34.984 25.7658 35.1515 26.3855 35.5814C27.0443 36.0448 27.3904 36.6701 27.4183 37.4852C27.4518 38.3003 27.195 38.9926 26.5418 39.5062C26.4022 39.6123 26.2515 39.7072 26.0784 39.83L26.0896 39.8356ZM22.9911 40.9354C22.5556 40.9354 22.1201 40.9354 21.6847 40.9298C21.5283 40.9298 21.4893 40.9801 21.4948 41.1308C21.5004 41.7617 21.4948 42.3926 21.4948 43.0234C21.4948 43.2356 21.4948 43.2356 21.7014 43.2356C22.5221 43.2356 23.3484 43.2412 24.1691 43.2356C24.5096 43.2356 24.8558 43.2021 25.1796 43.0625C25.5983 42.8838 25.7993 42.5545 25.816 42.1078C25.8272 41.6556 25.6206 41.3206 25.2075 41.1308C24.9116 40.9912 24.5934 40.9466 24.2751 40.941C23.8508 40.9354 23.421 40.941 22.9967 40.941L22.9911 40.9354ZM22.8068 36.9045C22.4272 36.9045 22.0476 36.9101 21.6679 36.9045C21.5283 36.9045 21.4948 36.9492 21.4948 37.0776C21.5004 37.6862 21.4948 38.2891 21.4948 38.8976C21.4948 39.1098 21.4948 39.1154 21.707 39.1154C22.4607 39.1154 23.2088 39.1265 23.9625 39.0875C24.2249 39.0763 24.504 38.9814 24.7497 38.8697C25.107 38.7022 25.2466 38.3729 25.2466 37.9932C25.2466 37.6136 25.0958 37.3177 24.7553 37.1223C24.4873 36.9715 24.1914 36.9157 23.8899 36.9045C23.527 36.8934 23.1697 36.9045 22.8068 36.9045Z" fill="#CA9D6B"/>
<path fill-rule="evenodd" clip-rule="evenodd" d="M6.733 39.83C6.91165 39.9137 7.06239 39.9752 7.20755 40.0477C7.83283 40.3604 8.34088 40.8014 8.5307 41.4993C8.75401 42.3088 8.70377 43.1016 8.24039 43.8218C7.8775 44.3801 7.33037 44.6871 6.71067 44.8937C6.09655 45.0947 5.46009 45.1561 4.82364 45.1561C3.27717 45.1561 1.73629 45.1561 0.189819 45.1561C0.0334975 45.1561 0 45.1003 0 44.9551C0.00558292 41.6835 0.00558292 38.4064 0 35.1404C0 35.0119 0.0334975 34.9673 0.167488 34.9673C1.74745 34.9729 3.32184 34.9673 4.9018 34.9729C5.61641 34.9785 6.30311 35.118 6.92282 35.5088C7.66535 35.9778 8.05615 36.6477 8.07848 37.541C8.10081 38.5013 7.69884 39.2159 6.8949 39.7239C6.85024 39.7518 6.80558 39.7853 6.733 39.83ZM3.64006 40.9354C3.19343 40.9354 2.7468 40.9354 2.30016 40.9354C2.1885 40.9354 2.13826 40.9578 2.14384 41.0862C2.14942 41.7617 2.14384 42.4372 2.14384 43.1128C2.14384 43.2021 2.16617 43.2356 2.2555 43.2356C3.10968 43.2356 3.95829 43.2467 4.81247 43.23C5.1307 43.2188 5.44893 43.1686 5.75599 43.0848C6.18029 42.9732 6.42035 42.627 6.44827 42.1357C6.4706 41.7226 6.31428 41.3597 5.90114 41.1532C5.59967 41.0024 5.27586 40.9522 4.94646 40.941C4.511 40.9298 4.06995 40.941 3.64006 40.941V40.9354ZM2.15501 39.1098C2.81379 39.1098 3.45583 39.1154 4.09228 39.1098C4.4775 39.1098 4.8683 39.0986 5.23119 38.9535C5.6555 38.786 5.89556 38.4566 5.88998 38.01C5.8844 37.5913 5.74482 37.2451 5.27027 37.0665C5.03021 36.9771 4.76781 36.9213 4.511 36.9157C3.77963 36.899 3.05386 36.9157 2.32249 36.9046C2.19409 36.9046 2.14942 36.9436 2.14942 37.0776C2.15501 37.7197 2.14942 38.3561 2.14942 38.9981C2.14942 39.0372 2.15501 39.0763 2.15501 39.121V39.1098Z" fill="#CA9D6B"/>
<path fill-rule="evenodd" clip-rule="evenodd" d="M4.69531 30.3392C4.86838 29.7809 5.03029 29.2449 5.19778 28.6978C5.19778 28.6866 5.20336 28.681 5.20336 28.6699C5.28896 28.4056 5.46948 28.2828 5.7449 28.3014C5.85098 28.307 5.95147 28.3126 6.06313 28.3126C11.5065 28.3126 16.9498 28.3126 22.3987 28.3126C22.5606 28.3126 22.65 28.3461 22.6946 28.5135C22.8677 29.1165 23.0519 29.7195 23.2418 30.3392C23.1803 30.3447 23.1245 30.3503 23.0743 30.3503C21.645 30.3503 20.2158 30.3503 18.7866 30.3503C18.6582 30.3503 18.6135 30.395 18.58 30.5066C18.3288 31.3441 18.0608 32.1871 17.8152 33.0301C17.7761 33.1641 17.7091 33.2144 17.5639 33.2144C15.1689 33.2088 12.7738 33.2088 10.3731 33.2144C10.228 33.2144 10.1722 33.1641 10.1331 33.0357C9.87626 32.1815 9.60828 31.3329 9.35146 30.4787C9.32913 30.3838 9.29005 30.3503 9.17839 30.3503C7.71567 30.3503 6.25853 30.3503 4.80139 30.3503C4.77347 30.3503 4.75114 30.3503 4.7009 30.3447L4.69531 30.3392Z" fill="#CA9D6B"/>
</svg>
