<svg width="38" height="40" viewBox="0 0 38 40" fill="none" xmlns="http://www.w3.org/2000/svg">
<path d="M36.9893 9.8062C36.9571 9.46953 36.8398 9.14659 36.6484 8.86774C36.4571 8.5889 36.1979 8.36331 35.8953 8.2122L19.9493 0.212196C19.6719 0.0720786 19.3656 -0.00125364 19.0548 -0.00194815C18.744 -0.00264265 18.4374 0.0693202 18.1593 0.208197L2.10534 8.2082C1.51134 8.5082 1.10134 9.0822 1.01734 9.7422C0.99134 9.9362 -1.27266 29.2242 18.0993 39.7582C18.3971 39.9206 18.7315 40.0042 19.0707 40.0011C19.4099 39.9979 19.7426 39.9081 20.0373 39.7402C38.6513 29.2222 37.0653 10.5942 36.9893 9.8062ZM19.0353 35.6942C5.31534 27.6742 4.75534 14.9902 4.90934 11.2842L19.0513 4.2382L33.0473 11.2602C33.0573 15.0002 32.0853 27.7462 19.0353 35.6942Z" fill="#CA9D6B"/>
</svg>
