<svg width="41" height="40" viewBox="0 0 41 40" fill="none" xmlns="http://www.w3.org/2000/svg">
<path d="M39.8752 6.17796C39.5785 6.0222 39.2475 5.94333 38.9124 5.94857C38.5773 5.95381 38.2489 6.04299 37.9572 6.20796C36.5892 6.98596 35.2472 7.36196 33.8512 7.36196C29.7812 7.36196 25.9472 4.10396 22.4072 0.581961C21.6572 -0.164039 20.2812 -0.164039 19.5312 0.581961C16.1832 3.91796 12.1952 7.32596 8.01922 7.32596C6.63922 7.32596 5.31722 6.95796 3.98322 6.20396C3.38722 5.87196 2.66722 5.86196 2.06322 6.17996C1.45922 6.49796 1.06122 7.10196 1.00722 7.78196C0.985219 8.03996 -0.880781 33.526 20.3732 39.864C20.5587 39.9198 20.7515 39.9481 20.9452 39.948H20.9992C21.1932 39.948 21.3832 39.92 21.5692 39.866C42.8832 33.526 40.9592 8.03396 40.9372 7.77796C40.9087 7.44358 40.7964 7.12177 40.6108 6.84216C40.4252 6.56255 40.1723 6.33414 39.8752 6.17796ZM20.9712 35.862C7.01322 31.352 5.10322 17.038 4.94322 10.908C5.95322 11.188 6.98122 11.326 8.01722 11.326C13.0012 11.326 17.3172 8.19196 20.9692 4.75996C24.7552 8.33596 28.9352 11.362 33.8532 11.362C34.9132 11.362 35.9672 11.214 37.0032 10.922C36.8552 17.052 34.9612 31.356 20.9712 35.862Z" fill="#CA9D6B"/>
</svg>
