<svg width="100%" height="100%" viewBox="0 0 24 24" xmlns="http://www.w3.org/2000/svg">
  <path fill="currentColor" d="M21 7.99902C20.798 7.99902 16.15 8.02802 12 10.007C7.85 8.02802 3.202 7.99902 3 7.99902C2.73478 7.99902 2.48043 8.10438 2.29289 8.29192C2.10536 8.47945 2 8.73381 2 8.99902V18.882C2 19.0162 2.02701 19.149 2.0794 19.2725C2.1318 19.3961 2.20852 19.5078 2.305 19.601C2.5 19.789 2.785 19.906 3.034 19.881L3.161 19.88C3.844 19.88 7.457 19.978 11.577 21.905C11.593 21.913 11.611 21.91 11.627 21.916C11.746 21.965 11.871 21.999 12 21.999C12.129 21.999 12.254 21.965 12.374 21.916C12.39 21.91 12.408 21.913 12.424 21.905C16.544 19.977 20.157 19.88 20.84 19.88L20.967 19.881C21.205 19.906 21.5 19.789 21.696 19.601C21.89 19.412 22 19.152 22 18.882V8.99902C22 8.73381 21.8946 8.47945 21.7071 8.29192C21.5196 8.10438 21.2652 7.99902 21 7.99902ZM4 10.048C5.485 10.159 8.381 10.528 11 11.74V19.482C8 18.307 5.41 17.988 4 17.906V10.048ZM20 17.906C18.59 17.988 16 18.307 13 19.482V11.74C15.619 10.528 18.515 10.159 20 10.048V17.906Z" />
  <path fill="currentColor" d="M12 7.99902C13.6569 7.99902 15 6.65588 15 4.99902C15 3.34217 13.6569 1.99902 12 1.99902C10.3431 1.99902 9 3.34217 9 4.99902C9 6.65588 10.3431 7.99902 12 7.99902Z" />
</svg>
