<svg width="21" height="20" viewBox="0 0 21 20" fill="none" xmlns="http://www.w3.org/2000/svg">
<path d="M3.66675 16V19.766L9.94375 16H14.6667C15.7697 16 16.6667 15.103 16.6667 14V6C16.6667 4.897 15.7697 4 14.6667 4H2.66675C1.56375 4 0.666748 4.897 0.666748 6V14C0.666748 15.103 1.56375 16 2.66675 16H3.66675ZM2.66675 6H14.6667V14H9.38975L5.66675 16.234V14H2.66675V6Z" fill="#02013F"/>
<path d="M18.6667 0H6.66675C5.56375 0 4.66675 0.897 4.66675 2H16.6667C17.7697 2 18.6667 2.897 18.6667 4V12C19.7697 12 20.6667 11.103 20.6667 10V2C20.6667 0.897 19.7697 0 18.6667 0Z" fill="#02013F"/>
</svg>
