<svg width="21" height="16" viewBox="0 0 21 16" fill="none" xmlns="http://www.w3.org/2000/svg">
<path d="M18.6667 0H4.66675C3.56375 0 2.66675 0.897 2.66675 2V7H4.66675V4L11.0667 8.8C11.2399 8.92967 11.4504 8.99975 11.6667 8.99975C11.8831 8.99975 12.0936 8.92967 12.2667 8.8L18.6667 4V13H10.6667V15H18.6667C19.7697 15 20.6667 14.103 20.6667 13V2C20.6667 0.897 19.7697 0 18.6667 0ZM11.6667 6.75L5.33275 2H18.0007L11.6667 6.75Z" fill="#02013F"/>
<path d="M0.666748 8H7.66675V10H0.666748V8ZM2.66675 11H8.66675V13H2.66675V11ZM5.66675 14H9.66675V16H5.66675V14Z" fill="#02013F"/>
</svg>
