<svg width="20" height="19" viewBox="0 0 20 19" fill="none" xmlns="http://www.w3.org/2000/svg">
<path d="M15.3738 10.2932C15.2811 10.2003 15.1708 10.1265 15.0495 10.0762C14.9282 10.0259 14.7982 10 14.6668 10C14.5355 10 14.4055 10.0259 14.2841 10.0762C14.1628 10.1265 14.0526 10.2003 13.9598 10.2932L12.3658 11.8872C11.6268 11.6672 10.2478 11.1672 9.37384 10.2932C8.49984 9.4192 7.99984 8.0402 7.77984 7.3012L9.37384 5.7072C9.46678 5.61441 9.54052 5.50421 9.59083 5.38289C9.64114 5.26158 9.66704 5.13153 9.66704 5.0002C9.66704 4.86887 9.64114 4.73882 9.59083 4.61751C9.54052 4.49619 9.46678 4.38599 9.37384 4.2932L5.37384 0.293201C5.28105 0.200255 5.17085 0.126518 5.04953 0.0762068C4.92822 0.0258961 4.79817 0 4.66684 0C4.5355 0 4.40546 0.0258961 4.28414 0.0762068C4.16283 0.126518 4.05263 0.200255 3.95984 0.293201L1.24784 3.0052C0.867838 3.3852 0.653838 3.9072 0.661838 4.4402C0.684838 5.8642 1.06184 10.8102 4.95984 14.7082C8.85784 18.6062 13.8038 18.9822 15.2288 19.0062H15.2568C15.7848 19.0062 16.2838 18.7982 16.6618 18.4202L19.3738 15.7082C19.4668 15.6154 19.5405 15.5052 19.5908 15.3839C19.6411 15.2626 19.667 15.1325 19.667 15.0012C19.667 14.8699 19.6411 14.7398 19.5908 14.6185C19.5405 14.4972 19.4668 14.387 19.3738 14.2942L15.3738 10.2932ZM15.2468 17.0052C13.9988 16.9842 9.72884 16.6492 6.37384 13.2932C3.00784 9.9272 2.68184 5.6422 2.66184 4.4192L4.66684 2.4142L7.25284 5.0002L5.95984 6.2932C5.8423 6.41065 5.75588 6.55554 5.70839 6.71477C5.6609 6.874 5.65384 7.04256 5.68784 7.2052C5.71184 7.3202 6.29884 10.0472 7.95884 11.7072C9.61884 13.3672 12.3458 13.9542 12.4608 13.9782C12.6234 14.0132 12.7921 14.0067 12.9515 13.9593C13.1109 13.9119 13.2558 13.8252 13.3728 13.7072L14.6668 12.4142L17.2528 15.0002L15.2468 17.0052Z" fill="#02013F"/>
</svg>
