<svg width="18" height="18" viewBox="0 0 18 18" fill="none" xmlns="http://www.w3.org/2000/svg">
<path d="M8.42678 0C8.82823 0 9.22908 0 9.63052 0C9.96516 0.0523482 10.3022 0.0950692 10.635 0.159451C15.3796 1.07585 18.4949 5.31786 17.9351 10.1201C17.364 15.0197 12.7241 18.8351 7.30971 17.8417C7.03947 17.7924 6.77405 17.7154 6.45506 17.6389C7.39999 16.323 7.56791 14.7905 7.99825 13.3241C8.04821 13.3711 8.0783 13.3933 8.10238 13.4216C8.7229 14.1539 9.53783 14.4258 10.4653 14.3681C11.7906 14.2856 12.8608 13.693 13.6829 12.6562C14.5135 11.6087 14.88 10.3854 15.0347 9.0779C15.3332 6.55797 14.0236 4.34671 11.6745 3.43813C10.6429 3.0392 9.57395 2.94052 8.48035 3.06207C6.80173 3.2486 5.33197 3.88039 4.24017 5.19992C2.90463 6.81429 2.5116 8.62662 3.29524 10.6189C3.54562 11.2549 3.99281 11.7374 4.61634 12.0407C4.99191 12.2236 5.14659 12.1526 5.25192 11.7567C5.29586 11.5924 5.32474 11.4227 5.38072 11.2627C5.4698 11.01 5.39637 10.818 5.25372 10.5954C5.0521 10.2807 4.84084 9.93593 4.77283 9.57731C4.51463 8.21205 4.87154 6.98758 5.80263 5.95807C7.07017 4.5567 9.44334 4.14754 11.1226 5.0164C12.0061 5.4737 12.5743 6.19394 12.744 7.1693C12.8355 7.69519 12.8415 8.24755 12.8036 8.78246C12.7253 9.87576 12.4437 10.9161 11.7732 11.8138C11.4608 12.2326 11.0732 12.5606 10.561 12.7098C9.97479 12.8807 9.42348 12.8247 8.96124 12.3915C8.51466 11.9721 8.47313 11.4492 8.63383 10.8926C8.79453 10.3349 8.98231 9.7837 9.12375 9.22111C9.2381 8.76682 9.34945 8.30291 9.37593 7.83839C9.40482 7.33477 9.21583 6.87928 8.72531 6.6416C8.21613 6.3949 7.71597 6.47854 7.28865 6.82753C7.06957 7.00624 6.87275 7.2415 6.73974 7.49121C6.29857 8.31975 6.34311 9.185 6.60492 10.0611C6.65066 10.2145 6.6609 10.3968 6.62659 10.5527C6.4364 11.4131 6.2107 12.2657 6.02893 13.128C5.79601 14.2333 5.58656 15.344 5.38493 16.4554C5.3422 16.6913 5.37891 16.9416 5.37891 17.1804C5.29525 17.1804 5.27359 17.1865 5.25673 17.1792C5.19173 17.1528 5.12733 17.1257 5.06474 17.0938C2.5423 15.8061 0.923871 13.7959 0.248572 11.0425C0.134819 10.5785 0.0812525 10.0996 0 9.62726C0 9.22592 0 8.82518 0 8.42385C0.0264823 8.23792 0.0565758 8.0526 0.0794468 7.86607C0.520016 4.26668 3.20014 1.20581 6.71687 0.312284C7.27721 0.170282 7.85621 0.10229 8.42678 0Z" fill="#02013F"/>
</svg>
