<svg width="15" height="18" viewBox="0 0 15 18" fill="none" xmlns="http://www.w3.org/2000/svg">
<path d="M14.1369 4.21685C13.2776 4.02461 12.4994 3.55035 11.9158 2.8632C11.3323 2.17606 10.9739 1.31195 10.8928 0.396848V0H7.92839V12.3032C7.92656 12.8479 7.76158 13.3783 7.45663 13.8198C7.15169 14.2614 6.7221 14.5919 6.22825 14.765C5.7344 14.9381 5.20111 14.945 4.70331 14.7848C4.20551 14.6245 3.76823 14.3052 3.45292 13.8717C3.13271 13.4309 2.95509 12.8949 2.9458 12.3415C2.93651 11.788 3.09604 11.2458 3.40126 10.7936C3.70648 10.3413 4.14152 10.0025 4.6433 9.82619C5.14507 9.64992 5.68749 9.64538 6.1919 9.81322V6.66363C5.0671 6.50102 3.92182 6.71014 2.91627 7.26175C1.91072 7.81336 1.09518 8.67986 0.58373 9.74004C0.0722818 10.8002 -0.109497 12.0011 0.0638193 13.1746C0.237136 14.3482 0.756879 15.4357 1.55035 16.2852C2.30704 17.0948 3.27728 17.6503 4.33722 17.8808C5.39716 18.1112 6.49872 18.0061 7.50128 17.5789C8.50385 17.1516 9.36193 16.4217 9.96601 15.4822C10.5701 14.5427 10.8928 13.4362 10.8928 12.3041V6.01751C12.0909 6.9132 13.5273 7.39347 15 7.39073V4.31044C14.71 4.31081 14.4207 4.27944 14.1369 4.21685Z" fill="#02013F"/>
</svg>
