<svg width="37" height="41" viewBox="0 0 37 41" fill="none" xmlns="http://www.w3.org/2000/svg">
<path d="M32.668 0.0200195H6.66797C4.25597 0.0200195 0.667969 1.61802 0.667969 6.02002V34.02C0.667969 38.422 4.25597 40.02 6.66797 40.02H36.668V36.02H6.69197C5.76797 35.996 4.66797 35.63 4.66797 34.02C4.66797 33.818 4.68597 33.638 4.71597 33.474C4.93997 32.324 5.88197 32.04 6.68997 32.02H34.668C34.704 32.02 34.73 32.002 34.766 32H36.668V4.02002C36.668 1.81402 34.874 0.0200195 32.668 0.0200195ZM32.668 28.02H4.66797V6.02002C4.66797 4.40802 5.76797 4.04402 6.66797 4.02002H20.668V18.02L24.668 16.02L28.668 18.02V4.02002H32.668V28.02Z" fill="#D9D9D9"/>
<path d="M32.668 0.0200195H6.66797C4.25597 0.0200195 0.667969 1.61802 0.667969 6.02002V34.02C0.667969 38.422 4.25597 40.02 6.66797 40.02H36.668V36.02H6.69197C5.76797 35.996 4.66797 35.63 4.66797 34.02C4.66797 33.818 4.68597 33.638 4.71597 33.474C4.93997 32.324 5.88197 32.04 6.68997 32.02H34.668C34.704 32.02 34.73 32.002 34.766 32H36.668V4.02002C36.668 1.81402 34.874 0.0200195 32.668 0.0200195ZM32.668 28.02H4.66797V6.02002C4.66797 4.40802 5.76797 4.04402 6.66797 4.02002H20.668V18.02L24.668 16.02L28.668 18.02V4.02002H32.668V28.02Z" fill="#23D7BC"/>
</svg>
