<svg width="40" height="40" viewBox="0 0 40 40" fill="none" xmlns="http://www.w3.org/2000/svg">
<path d="M0.119102 25.36C0.256918 25.865 0.587217 26.2958 1.0391 26.56L4.8591 28.78V33.18C4.8591 33.7105 5.06982 34.2192 5.44489 34.5942C5.81996 34.9693 6.32867 35.18 6.8591 35.18H11.2591L13.4791 39C13.6536 39.3023 13.9042 39.5536 14.2059 39.7291C14.5077 39.9045 14.8501 39.9979 15.1991 40C15.5581 39.9999 15.9104 39.9032 16.2191 39.72L20.0191 37.52L23.8391 39.72C24.0662 39.8531 24.3173 39.94 24.578 39.9759C24.8388 40.0117 25.104 39.9957 25.3586 39.9288C25.6131 39.8619 25.852 39.7454 26.0614 39.5861C26.2708 39.4267 26.4468 39.2275 26.5791 39L28.7791 35.18H33.1791C33.7095 35.18 34.2182 34.9693 34.5933 34.5942C34.9684 34.2192 35.1791 33.7105 35.1791 33.18V28.78L38.9991 26.56C39.4566 26.2962 39.7911 25.8621 39.9297 25.3526C40.0684 24.843 39.9999 24.2993 39.7391 23.84L37.5191 20L39.7391 16.18C39.9999 15.7208 40.0684 15.1771 39.9297 14.6675C39.7911 14.1579 39.4566 13.7239 38.9991 13.46L35.1791 11.26V6.86003C35.1791 6.3296 34.9684 5.82089 34.5933 5.44582C34.2182 5.07075 33.7095 4.86003 33.1791 4.86003H28.7791L26.5791 1.04003C26.3102 0.583982 25.8715 0.253141 25.3591 0.120032C25.105 0.0517616 24.84 0.0342859 24.5792 0.0686052C24.3184 0.102925 24.0669 0.188365 23.8391 0.320032L19.9991 2.52003L16.1991 0.320032C15.7423 0.0576083 15.2004 -0.0139725 14.6911 0.120839C14.1818 0.255651 13.7463 0.585966 13.4791 1.04003L11.2591 4.86003H6.8591C6.32867 4.86003 5.81996 5.07075 5.44489 5.44582C5.06982 5.82089 4.8591 6.3296 4.8591 6.86003V11.26L1.0591 13.46C0.829927 13.5907 0.628866 13.7654 0.467497 13.9741C0.306129 14.1828 0.187641 14.4213 0.118859 14.676C0.0500766 14.9307 0.0323587 15.1965 0.0667253 15.458C0.101092 15.7196 0.186864 15.9718 0.319102 16.2L2.5191 20L0.319102 23.82C0.184773 24.0504 0.097878 24.3054 0.063531 24.5698C0.029184 24.8343 0.0480781 25.103 0.119102 25.36ZM6.5591 19.02L4.7791 16L7.8791 14.2C8.17766 14.023 8.42501 13.7714 8.59683 13.4698C8.76866 13.1682 8.85904 12.8271 8.8591 12.48V8.86003H12.4191C12.7715 8.86143 13.1181 8.76968 13.4236 8.59408C13.7292 8.41847 13.9829 8.16524 14.1591 7.86003L15.9991 4.78003L19.0791 6.56003C19.3831 6.73557 19.728 6.82798 20.0791 6.82798C20.4302 6.82798 20.7751 6.73557 21.0791 6.56003L24.1791 4.78003L25.9991 7.86003C26.1753 8.16524 26.429 8.41847 26.7346 8.59408C27.0401 8.76968 27.3867 8.86143 27.7391 8.86003H31.2791V12.42C31.2812 12.7691 31.3746 13.1115 31.5501 13.4132C31.7255 13.7149 31.9768 13.9655 32.2791 14.14L35.3591 15.94L33.5791 19.02C33.4036 19.3241 33.3112 19.669 33.3112 20.02C33.3112 20.3711 33.4036 20.716 33.5791 21.02L35.3591 24.1L32.2791 25.9C31.9768 26.0745 31.7255 26.3251 31.5501 26.6269C31.3746 26.9286 31.2812 27.271 31.2791 27.62V31.18H27.6191C27.2701 31.1821 26.9277 31.2756 26.6259 31.451C26.3242 31.6264 26.0736 31.8778 25.8991 32.18L24.1191 35.26L21.0191 33.48C20.7151 33.3045 20.3702 33.2121 20.0191 33.2121C19.668 33.2121 19.3231 33.3045 19.0191 33.48L15.9991 35.26L14.2191 32.18C14.0429 31.8748 13.7892 31.6216 13.4836 31.446C13.1781 31.2704 12.8315 31.1786 12.4791 31.18H8.8591V27.62C8.84227 27.2901 8.74396 26.9694 8.57295 26.6867C8.40193 26.404 8.16355 26.1681 7.8791 26L4.7791 24.2L6.5591 21.12C6.75379 20.8044 6.8569 20.4409 6.8569 20.07C6.8569 19.6992 6.75379 19.3357 6.5591 19.02Z" fill="#D9D9D9"/>
<path d="M0.119102 25.36C0.256918 25.865 0.587217 26.2958 1.0391 26.56L4.8591 28.78V33.18C4.8591 33.7105 5.06982 34.2192 5.44489 34.5942C5.81996 34.9693 6.32867 35.18 6.8591 35.18H11.2591L13.4791 39C13.6536 39.3023 13.9042 39.5536 14.2059 39.7291C14.5077 39.9045 14.8501 39.9979 15.1991 40C15.5581 39.9999 15.9104 39.9032 16.2191 39.72L20.0191 37.52L23.8391 39.72C24.0662 39.8531 24.3173 39.94 24.578 39.9759C24.8388 40.0117 25.104 39.9957 25.3586 39.9288C25.6131 39.8619 25.852 39.7454 26.0614 39.5861C26.2708 39.4267 26.4468 39.2275 26.5791 39L28.7791 35.18H33.1791C33.7095 35.18 34.2182 34.9693 34.5933 34.5942C34.9684 34.2192 35.1791 33.7105 35.1791 33.18V28.78L38.9991 26.56C39.4566 26.2962 39.7911 25.8621 39.9297 25.3526C40.0684 24.843 39.9999 24.2993 39.7391 23.84L37.5191 20L39.7391 16.18C39.9999 15.7208 40.0684 15.1771 39.9297 14.6675C39.7911 14.1579 39.4566 13.7239 38.9991 13.46L35.1791 11.26V6.86003C35.1791 6.3296 34.9684 5.82089 34.5933 5.44582C34.2182 5.07075 33.7095 4.86003 33.1791 4.86003H28.7791L26.5791 1.04003C26.3102 0.583982 25.8715 0.253141 25.3591 0.120032C25.105 0.0517616 24.84 0.0342859 24.5792 0.0686052C24.3184 0.102925 24.0669 0.188365 23.8391 0.320032L19.9991 2.52003L16.1991 0.320032C15.7423 0.0576083 15.2004 -0.0139725 14.6911 0.120839C14.1818 0.255651 13.7463 0.585966 13.4791 1.04003L11.2591 4.86003H6.8591C6.32867 4.86003 5.81996 5.07075 5.44489 5.44582C5.06982 5.82089 4.8591 6.3296 4.8591 6.86003V11.26L1.0591 13.46C0.829927 13.5907 0.628866 13.7654 0.467497 13.9741C0.306129 14.1828 0.187641 14.4213 0.118859 14.676C0.0500766 14.9307 0.0323587 15.1965 0.0667253 15.458C0.101092 15.7196 0.186864 15.9718 0.319102 16.2L2.5191 20L0.319102 23.82C0.184773 24.0504 0.097878 24.3054 0.063531 24.5698C0.029184 24.8343 0.0480781 25.103 0.119102 25.36ZM6.5591 19.02L4.7791 16L7.8791 14.2C8.17766 14.023 8.42501 13.7714 8.59683 13.4698C8.76866 13.1682 8.85904 12.8271 8.8591 12.48V8.86003H12.4191C12.7715 8.86143 13.1181 8.76968 13.4236 8.59408C13.7292 8.41847 13.9829 8.16524 14.1591 7.86003L15.9991 4.78003L19.0791 6.56003C19.3831 6.73557 19.728 6.82798 20.0791 6.82798C20.4302 6.82798 20.7751 6.73557 21.0791 6.56003L24.1791 4.78003L25.9991 7.86003C26.1753 8.16524 26.429 8.41847 26.7346 8.59408C27.0401 8.76968 27.3867 8.86143 27.7391 8.86003H31.2791V12.42C31.2812 12.7691 31.3746 13.1115 31.5501 13.4132C31.7255 13.7149 31.9768 13.9655 32.2791 14.14L35.3591 15.94L33.5791 19.02C33.4036 19.3241 33.3112 19.669 33.3112 20.02C33.3112 20.3711 33.4036 20.716 33.5791 21.02L35.3591 24.1L32.2791 25.9C31.9768 26.0745 31.7255 26.3251 31.5501 26.6269C31.3746 26.9286 31.2812 27.271 31.2791 27.62V31.18H27.6191C27.2701 31.1821 26.9277 31.2756 26.6259 31.451C26.3242 31.6264 26.0736 31.8778 25.8991 32.18L24.1191 35.26L21.0191 33.48C20.7151 33.3045 20.3702 33.2121 20.0191 33.2121C19.668 33.2121 19.3231 33.3045 19.0191 33.48L15.9991 35.26L14.2191 32.18C14.0429 31.8748 13.7892 31.6216 13.4836 31.446C13.1781 31.2704 12.8315 31.1786 12.4791 31.18H8.8591V27.62C8.84227 27.2901 8.74396 26.9694 8.57295 26.6867C8.40193 26.404 8.16355 26.1681 7.8791 26L4.7791 24.2L6.5591 21.12C6.75379 20.8044 6.8569 20.4409 6.8569 20.07C6.8569 19.6992 6.75379 19.3357 6.5591 19.02Z" fill="#23D7BC"/>
</svg>
