<svg width="33" height="40" viewBox="0 0 33 40" fill="none" xmlns="http://www.w3.org/2000/svg">
<path d="M16.332 40C24.284 40 32.332 37.252 32.332 32V8C32.332 2.748 24.284 0 16.332 0C8.38003 0 0.332031 2.748 0.332031 8V32C0.332031 37.252 8.38003 40 16.332 40ZM16.332 36C8.88803 36 4.33203 33.41 4.33203 32V29.464C7.41403 31.14 11.886 32 16.332 32C20.778 32 25.25 31.14 28.332 29.464V32C28.332 33.41 23.776 36 16.332 36ZM16.332 4C23.776 4 28.332 6.59 28.332 8C28.332 9.41 23.776 12 16.332 12C8.88803 12 4.33203 9.41 4.33203 8C4.33203 6.59 8.88803 4 16.332 4ZM4.33203 13.464C7.41403 15.14 11.886 16 16.332 16C20.778 16 25.25 15.14 28.332 13.464V16C28.332 17.41 23.776 20 16.332 20C8.88803 20 4.33203 17.41 4.33203 16V13.464ZM4.33203 21.464C7.41403 23.14 11.886 24 16.332 24C20.778 24 25.25 23.14 28.332 21.464V24C28.332 25.41 23.776 28 16.332 28C8.88803 28 4.33203 25.41 4.33203 24V21.464Z" fill="#D9D9D9"/>
<path d="M16.332 40C24.284 40 32.332 37.252 32.332 32V8C32.332 2.748 24.284 0 16.332 0C8.38003 0 0.332031 2.748 0.332031 8V32C0.332031 37.252 8.38003 40 16.332 40ZM16.332 36C8.88803 36 4.33203 33.41 4.33203 32V29.464C7.41403 31.14 11.886 32 16.332 32C20.778 32 25.25 31.14 28.332 29.464V32C28.332 33.41 23.776 36 16.332 36ZM16.332 4C23.776 4 28.332 6.59 28.332 8C28.332 9.41 23.776 12 16.332 12C8.88803 12 4.33203 9.41 4.33203 8C4.33203 6.59 8.88803 4 16.332 4ZM4.33203 13.464C7.41403 15.14 11.886 16 16.332 16C20.778 16 25.25 15.14 28.332 13.464V16C28.332 17.41 23.776 20 16.332 20C8.88803 20 4.33203 17.41 4.33203 16V13.464ZM4.33203 21.464C7.41403 23.14 11.886 24 16.332 24C20.778 24 25.25 23.14 28.332 21.464V24C28.332 25.41 23.776 28 16.332 28C8.88803 28 4.33203 25.41 4.33203 24V21.464Z" fill="#23D7BC"/>
</svg>
