<svg width="41" height="42" viewBox="0 0 41 42" fill="none" xmlns="http://www.w3.org/2000/svg">
<path d="M25.6672 23.918L29.64 23.7428C36.1714 23.4573 41.1454 17.9178 40.7284 11.3938C40.5262 8.22765 39.1015 5.30261 36.7171 3.15757C34.3327 1.01252 31.2738 -0.0959112 28.104 0.036718C21.5718 0.309756 16.5875 5.84099 16.9925 12.3649L18.0798 29.889C18.2714 32.9746 15.9143 35.5901 12.8248 35.7194C9.7304 35.8488 7.05208 33.4394 6.85469 30.3486C6.75604 28.804 7.29616 27.3762 8.24794 26.3182C9.19972 25.2602 10.5561 24.5758 12.0987 24.5083L16.0457 24.3282L15.665 18.078L11.6883 18.261C5.15747 18.5459 0.182969 24.086 0.59965 30.6103C1.01706 37.1459 6.68028 42.2406 13.2238 41.9671C16.4938 41.8306 19.3757 40.376 21.388 38.1391C23.4003 35.9023 24.5377 32.8972 24.3353 29.6389L23.248 12.1149C23.0566 9.02953 25.414 6.41374 28.503 6.2845C30.0022 6.22177 31.4487 6.74589 32.5764 7.76036C33.7041 8.77484 34.3778 10.1581 34.4734 11.6555C34.6704 14.7409 32.3177 17.3609 29.2294 17.4958L25.2805 17.6716L25.6672 23.9186L25.6672 23.918Z" fill="#D9D9D9"/>
<path d="M25.6672 23.918L29.64 23.7428C36.1714 23.4573 41.1454 17.9178 40.7284 11.3938C40.5262 8.22765 39.1015 5.30261 36.7171 3.15757C34.3327 1.01252 31.2738 -0.0959112 28.104 0.036718C21.5718 0.309756 16.5875 5.84099 16.9925 12.3649L18.0798 29.889C18.2714 32.9746 15.9143 35.5901 12.8248 35.7194C9.7304 35.8488 7.05208 33.4394 6.85469 30.3486C6.75604 28.804 7.29616 27.3762 8.24794 26.3182C9.19972 25.2602 10.5561 24.5758 12.0987 24.5083L16.0457 24.3282L15.665 18.078L11.6883 18.261C5.15747 18.5459 0.182969 24.086 0.59965 30.6103C1.01706 37.1459 6.68028 42.2406 13.2238 41.9671C16.4938 41.8306 19.3757 40.376 21.388 38.1391C23.4003 35.9023 24.5377 32.8972 24.3353 29.6389L23.248 12.1149C23.0566 9.02953 25.414 6.41374 28.503 6.2845C30.0022 6.22177 31.4487 6.74589 32.5764 7.76036C33.7041 8.77484 34.3778 10.1581 34.4734 11.6555C34.6704 14.7409 32.3177 17.3609 29.2294 17.4958L25.2805 17.6716L25.6672 23.9186L25.6672 23.918Z" fill="#23D7BC"/>
</svg>
