<svg width="21" height="20" viewBox="0 0 21 20" fill="none" xmlns="http://www.w3.org/2000/svg">
<path d="M19.5 0.5H12.5C11.7596 0.502508 11.0466 0.780565 10.5 1.28C9.95338 0.780565 9.24042 0.502508 8.5 0.5H1.5C1.23478 0.5 0.98043 0.605357 0.792893 0.792893C0.605357 0.98043 0.5 1.23478 0.5 1.5V16.5C0.5 16.7652 0.605357 17.0196 0.792893 17.2071C0.98043 17.3946 1.23478 17.5 1.5 17.5H7.258C7.784 17.5 8.3 17.714 8.672 18.086L9.793 19.207C9.802 19.216 9.814 19.219 9.823 19.228C9.909 19.307 10.005 19.377 10.117 19.424H10.119C10.363 19.525 10.637 19.525 10.881 19.424H10.883C10.995 19.377 11.091 19.307 11.177 19.228C11.186 19.219 11.198 19.216 11.207 19.207L12.328 18.086C12.7039 17.7123 13.2119 17.5017 13.742 17.5H19.5C19.7652 17.5 20.0196 17.3946 20.2071 17.2071C20.3946 17.0196 20.5 16.7652 20.5 16.5V1.5C20.5 1.23478 20.3946 0.98043 20.2071 0.792893C20.0196 0.605357 19.7652 0.5 19.5 0.5ZM7.258 15.5H2.5V2.5H8.5C9.052 2.5 9.5 2.949 9.5 3.5V16.189C8.83745 15.7422 8.0571 15.5024 7.258 15.5ZM18.5 15.5H13.742C12.943 15.5 12.158 15.746 11.5 16.189V3.5C11.5 2.949 11.948 2.5 12.5 2.5H18.5V15.5Z" fill="white"/>
</svg>
