<svg viewBox="0 0 41 40" fill="none" xmlns="http://www.w3.org/2000/svg">
<path d="M6.33398 32V39.532L18.888 32H28.334C30.54 32 32.334 30.206 32.334 28V12C32.334 9.794 30.54 8 28.334 8H4.33398C2.12798 8 0.333984 9.794 0.333984 12V28C0.333984 30.206 2.12798 32 4.33398 32H6.33398ZM4.33398 12H28.334V28H17.78L10.334 32.468V28H4.33398V12Z" fill="currentColor"/>
<path d="M36.334 0H12.334C10.128 0 8.33398 1.794 8.33398 4H32.334C34.54 4 36.334 5.794 36.334 8V24C38.54 24 40.334 22.206 40.334 20V4C40.334 1.794 38.54 0 36.334 0Z" fill="currentColor"/>
</svg>
