<svg width="28" height="29" viewBox="0 0 28 29" fill="none" xmlns="http://www.w3.org/2000/svg">
<path d="M12.0846 24.2498C14.6731 24.2493 17.1871 23.3828 19.2261 21.7882L25.6369 28.199L27.699 26.1369L21.2882 19.7261C22.8836 17.6868 23.7507 15.1724 23.7513 12.5832C23.7513 6.15046 18.5173 0.916504 12.0846 0.916504C5.65193 0.916504 0.417969 6.15046 0.417969 12.5832C0.417969 19.0159 5.65193 24.2498 12.0846 24.2498ZM12.0846 3.83317C16.9103 3.83317 20.8346 7.75755 20.8346 12.5832C20.8346 17.4088 16.9103 21.3332 12.0846 21.3332C7.25901 21.3332 3.33464 17.4088 3.33464 12.5832C3.33464 7.75755 7.25901 3.83317 12.0846 3.83317Z" fill="#506172"/>
</svg>
