<svg viewBox="0 0 21 20" xmlns="http://www.w3.org/2000/svg">
<path d="M20.334 17.0703L18.2118 14.9721C19.1063 13.5351 19.5535 11.8791 19.5535 10.0021C19.5514 4.69835 15.305 0.5 9.94268 0.5C4.58037 0.5 0.333984 4.80889 0.333984 10C0.333984 15.1911 4.58037 19.5 9.94268 19.5C12.0648 19.5 13.9655 18.8368 15.5286 17.6229L17.5389 19.5L20.3319 17.0703H20.334ZM10.0545 15.7438C6.81431 15.7438 4.13316 13.2035 4.13316 9.88946C4.13316 6.57541 6.70251 4.03513 10.0545 4.03513C13.4064 4.03513 15.9758 6.57541 15.9758 9.88946C15.9758 10.6632 15.864 11.3265 15.5286 12.0981L15.575 11.9876H9.94268L12.9592 14.97C11.953 15.4122 11.1725 15.7438 10.0545 15.7438Z" fill="currentColor" />
</svg>
