<?xml version="1.0" encoding="utf-8"?>
<!-- Generator: Adobe Illustrator 28.0.0, SVG Export Plug-In . SVG Version: 6.00 Build 0)  -->
<svg version="1.1" id="Layer_1" xmlns="http://www.w3.org/2000/svg" xmlns:xlink="http://www.w3.org/1999/xlink" x="0px" y="0px"
	 viewBox="0 0 244.3 238.5" style="enable-background:new 0 0 244.3 238.5;" xml:space="preserve">
<style type="text/css">
	.st0{fill:#FAF0B6;}
	.st1{fill:none;}
	.st2{enable-background:new    ;}
</style>
<g>
	<path class="st0" d="M144.1,39.5v0.3c3.4,1,6.7,2.1,10,3.5c9.7,4.2,18.5,10.1,26,17.7s13.4,16.3,17.5,26.1
		c4.2,10.1,6.4,20.9,6.3,31.9c0,11-2.2,21.7-6.5,31.8c-4.1,9.7-10.1,18.5-17.6,25.9c-7.5,7.5-16.3,13.4-26,17.5
		c-10.1,4.3-20.8,6.4-31.8,6.4h-0.3c-11.1,0-21.8-2.2-31.9-6.6c-9.7-4.2-18.5-10.1-26-17.7c-7.5-7.6-13.4-16.3-17.5-26.1
		c-4.2-10.1-6.4-20.9-6.3-31.9c0-11,2.2-21.7,6.5-31.8c4.1-9.7,10.1-18.4,17.6-25.9s16.3-13.4,26-17.5c3.1-1.3,6.3-2.4,9.6-3.4v-0.3
		c-34.5,9.7-59.9,41.3-60,78.9c-0.2,45.4,36.5,82.4,81.9,82.5c0.1,0,0.2,0,0.3,0c45.3,0,82.1-36.6,82.2-81.9
		C204.3,81.2,178.8,49.2,144.1,39.5z"/>
	<path class="st0" d="M38.4,117.9c1.3,1.3,1.8,2.5,1.4,2.8c-0.4,0.3-1.5-0.4-2.7-1.9c-1.1-1.5-1.3-2.7-1.3-2.7S37,116.7,38.4,117.9z
		"/>
	<path class="st0" d="M41,118.1c-1.3,1.2-1.7,2.4-1.3,2.6c0.4,0.3,1.5-0.3,2.6-1.8c1.1-1.4,1.2-2.6,1.2-2.6S42.3,116.9,41,118.1z"/>
	<path class="st0" d="M38.5,122.3c1.4,1.2,1.9,2.4,1.5,2.7c-0.4,0.3-1.6-0.3-2.8-1.8s-1.5-2.7-1.5-2.7S37,121.1,38.5,122.3z"/>
	<path class="st0" d="M41.1,122.3c-1.2,1.2-1.6,2.5-1.1,2.7s1.5-0.4,2.5-1.9s1.1-2.6,1.1-2.6S42.4,121.1,41.1,122.3z"/>
	<path class="st0" d="M38.8,126.7c1.5,1.1,2.1,2.3,1.6,2.6c-0.4,0.3-1.6-0.2-2.8-1.7c-1.3-1.4-1.6-2.6-1.6-2.6
		S37.3,125.5,38.8,126.7z"/>
	<path class="st0" d="M41.4,126.6c-1.2,1.3-1.4,2.5-1,2.7c0.5,0.2,1.5-0.5,2.4-2s1-2.7,1-2.7S42.6,125.2,41.4,126.6z"/>
	<path class="st0" d="M39.3,131c1.5,1,2.2,2.2,1.8,2.5s-1.6-0.2-2.9-1.5c-1.4-1.3-1.7-2.5-1.7-2.5S37.8,130,39.3,131z"/>
	<path class="st0" d="M41.9,130.8c-1.1,1.3-1.3,2.6-0.8,2.8s1.4-0.6,2.3-2.2c0.8-1.6,0.8-2.7,0.8-2.7S43.1,129.4,41.9,130.8z"/>
	<path class="st0" d="M40.1,135.3c1.6,0.9,2.3,2.1,1.9,2.4c-0.4,0.3-1.6-0.1-3-1.3c-1.4-1.3-1.9-2.4-1.9-2.4S38.5,134.3,40.1,135.3z
		"/>
	<path class="st0" d="M42.7,134.9c-1,1.4-1.2,2.7-0.7,2.8c0.5,0.2,1.4-0.6,2.1-2.3c0.7-1.6,0.7-2.8,0.7-2.8S43.7,133.5,42.7,134.9z"
		/>
	<path class="st0" d="M41.1,139.6c1.6,0.9,2.4,2,2,2.3c-0.4,0.4-1.6,0-3.1-1.2s-2-2.3-2-2.3S39.4,138.7,41.1,139.6z"/>
	<path class="st0" d="M43.6,139c-0.9,1.5-1,2.7-0.5,2.9c0.5,0.1,1.4-0.7,2-2.4c0.7-1.7,0.5-2.8,0.5-2.8S44.6,137.5,43.6,139z"/>
	<path class="st0" d="M42.3,143.8c1.7,0.8,2.5,1.8,2.1,2.2c-0.3,0.4-1.6,0.1-3.1-1s-2.1-2.2-2.1-2.2S40.6,143,42.3,143.8z"/>
	<path class="st0" d="M44.8,143.1c-0.9,1.5-0.9,2.8-0.4,2.9c0.5,0.1,1.3-0.8,1.9-2.5s0.4-2.8,0.4-2.8S45.7,141.6,44.8,143.1z"/>
	<path class="st0" d="M43.7,147.9c1.7,0.7,2.6,1.7,2.3,2.1c-0.3,0.4-1.6,0.2-3.2-0.9c-1.6-1-2.2-2.1-2.2-2.1S41.9,147.2,43.7,147.9z
		"/>
	<path class="st0" d="M46.2,147.1c-0.8,1.5-0.7,2.8-0.2,2.9c0.5,0.1,1.3-0.9,1.8-2.6c0.5-1.7,0.2-2.8,0.2-2.8S47,145.5,46.2,147.1z"
		/>
	<path class="st0" d="M45.3,152c1.7,0.6,2.7,1.6,2.4,2s-1.6,0.3-3.2-0.7c-1.7-0.9-2.3-1.9-2.3-1.9S43.5,151.3,45.3,152z"/>
	<path class="st0" d="M47.8,151c-0.7,1.6-0.6,2.9-0.1,2.9c0.5,0.1,1.2-0.9,1.6-2.7c0.4-1.7,0.1-2.9,0.1-2.9S48.5,149.4,47.8,151z"/>
	<path class="st0" d="M47.2,155.9c1.8,0.5,2.7,1.4,2.5,1.9c-0.3,0.4-1.6,0.3-3.3-0.5c-1.7-0.9-2.4-1.8-2.4-1.8
		S45.4,155.4,47.2,155.9z"/>
	<path class="st0" d="M49.6,154.9c-0.6,1.6-0.4,2.9,0.1,2.9s1.2-1,1.5-2.8s-0.1-2.9-0.1-2.9S50.2,153.2,49.6,154.9z"/>
	<path class="st0" d="M49.2,159.8c1.8,0.4,2.8,1.3,2.6,1.7c-0.3,0.4-1.5,0.4-3.3-0.4c-1.7-0.8-2.5-1.7-2.5-1.7
		S47.4,159.4,49.2,159.8z"/>
	<path class="st0" d="M51.6,158.6c-0.5,1.6-0.3,2.9,0.2,2.9s1.1-1,1.3-2.8s-0.2-2.8-0.2-2.8S52.1,156.9,51.6,158.6z"/>
	<path class="st0" d="M51.5,163.5c1.8,0.3,2.9,1.1,2.6,1.6s-1.5,0.5-3.3-0.2s-2.6-1.6-2.6-1.6S49.6,163.2,51.5,163.5z"/>
	<path class="st0" d="M53.8,162.2c-0.4,1.7-0.1,2.9,0.4,2.9s1.1-1.1,1.2-2.9s-0.4-2.8-0.4-2.8S54.2,160.5,53.8,162.2z"/>
	<path class="st0" d="M53.9,167.1c1.8,0.2,2.9,1,2.7,1.5s-1.5,0.6-3.3,0s-2.7-1.4-2.7-1.4S52,166.9,53.9,167.1z"/>
	<path class="st0" d="M56.1,165.7c-0.4,1.7,0,2.9,0.5,2.9c0.5-0.1,1-1.2,1-2.9c0-1.8-0.5-2.8-0.5-2.8S56.5,164,56.1,165.7z"/>
	<path class="st0" d="M56.5,170.6c1.8,0.1,3,0.8,2.8,1.3s-1.4,0.7-3.3,0.2c-1.8-0.5-2.8-1.3-2.8-1.3S54.7,170.5,56.5,170.6z"/>
	<path class="st0" d="M58.7,169.1c-0.3,1.7,0.2,2.9,0.7,2.8c0.5-0.1,0.9-1.2,0.9-3c-0.1-1.8-0.7-2.8-0.7-2.8S59,167.4,58.7,169.1z"
		/>
	<path class="st0" d="M59.4,174c1.8,0,3,0.7,2.9,1.2c-0.2,0.5-1.4,0.7-3.3,0.3c-1.9-0.4-2.8-1.1-2.8-1.1S57.5,174,59.4,174z"/>
	<path class="st0" d="M61.4,172.3c-0.2,1.7,0.3,2.9,0.8,2.8c0.5-0.1,0.9-1.3,0.7-3c-0.2-1.8-0.8-2.7-0.8-2.7S61.6,170.6,61.4,172.3z
		"/>
	<path class="st0" d="M62.3,177.2c1.8-0.1,3.1,0.5,2.9,1c-0.1,0.5-1.4,0.8-3.3,0.5c-1.9-0.3-2.9-1-2.9-1S60.5,177.2,62.3,177.2z"/>
	<path class="st0" d="M64.3,175.4c-0.1,1.7,0.5,2.9,1,2.7c0.5-0.1,0.8-1.3,0.6-3.1c-0.3-1.8-0.9-2.7-0.9-2.7S64.4,173.7,64.3,175.4z
		"/>
	<path class="st0" d="M65.5,180.2c1.8-0.2,3.1,0.4,3,0.9s-1.3,0.9-3.2,0.7c-1.9-0.2-2.9-0.8-2.9-0.8S63.6,180.4,65.5,180.2z"/>
	<path class="st0" d="M67.4,178.4c0,1.7,0.6,2.8,1.1,2.7c0.5-0.2,0.7-1.3,0.4-3.1c-0.4-1.8-1.1-2.6-1.1-2.6S67.4,176.6,67.4,178.4z"
		/>
	<path class="st0" d="M68.8,183.1c1.8-0.3,3.1,0.2,3,0.7s-1.3,0.9-3.2,0.8c-1.9-0.1-3-0.7-3-0.7S66.9,183.3,68.8,183.1z"/>
	<path class="st0" d="M70.6,181.1c0.1,1.7,0.8,2.8,1.2,2.6c0.5-0.2,0.7-1.4,0.2-3.1c-0.5-1.7-1.2-2.6-1.2-2.6S70.5,179.4,70.6,181.1
		z"/>
	<path class="st0" d="M72.2,185.8c1.8-0.3,3.1,0,3,0.5s-1.2,1-3.1,1s-3-0.5-3-0.5S70.4,186.1,72.2,185.8z"/>
	<path class="st0" d="M73.9,183.7c0.2,1.7,0.9,2.8,1.4,2.6s0.6-1.4,0.1-3.1c-0.5-1.7-1.4-2.5-1.4-2.5S73.7,182,73.9,183.7z"/>
	<path class="st0" d="M75.8,188.3c1.8-0.4,3.1-0.1,3.1,0.4s-1.2,1.1-3.1,1.2c-1.9,0.1-3-0.4-3-0.4S74,188.7,75.8,188.3z"/>
	<path class="st0" d="M77.4,186.2c0.3,1.7,1.1,2.7,1.5,2.5c0.5-0.2,0.5-1.4-0.1-3.1c-0.6-1.7-1.5-2.4-1.5-2.4S77.1,184.4,77.4,186.2
		z"/>
	<path class="st0" d="M79.5,190.6c1.8-0.5,3.1-0.3,3.1,0.2s-1.1,1.1-3,1.3s-3-0.2-3-0.2S77.7,191.2,79.5,190.6z"/>
	<path class="st0" d="M81,188.4c0.4,1.7,1.2,2.7,1.6,2.4s0.5-1.5-0.3-3.1c-0.7-1.6-1.6-2.4-1.6-2.4S80.6,186.7,81,188.4z"/>
	<path class="st0" d="M83.3,192.7c1.7-0.6,3.1-0.5,3.1,0.1c0,0.5-1.1,1.2-2.9,1.5c-1.9,0.3-3,0-3,0S81.6,193.4,83.3,192.7z"/>
	<path class="st0" d="M84.7,190.4c0.5,1.7,1.3,2.6,1.8,2.3c0.4-0.3,0.4-1.5-0.4-3.1s-1.7-2.3-1.7-2.3S84.2,188.7,84.7,190.4z"/>
	<path class="st0" d="M87.3,194.6c1.7-0.7,3-0.6,3.1-0.1s-1,1.2-2.9,1.6c-1.9,0.4-3,0.1-3,0.1S85.5,195.4,87.3,194.6z"/>
	<path class="st0" d="M88.5,192.3c0.5,1.6,1.5,2.5,1.9,2.2s0.3-1.5-0.6-3.1s-1.8-2.2-1.8-2.2S87.9,190.6,88.5,192.3z"/>
	<path class="st0" d="M91.3,196.3c1.7-0.8,3-0.8,3.1-0.3s-0.9,1.3-2.8,1.8c-1.8,0.5-3,0.3-3,0.3S89.6,197.2,91.3,196.3z"/>
	<path class="st0" d="M92.4,193.9c0.6,1.6,1.6,2.4,2,2.1c0.4-0.3,0.2-1.5-0.7-3c-1-1.5-2-2.1-2-2.1S91.7,192.3,92.4,193.9z"/>
	<path class="st0" d="M95.4,197.8c1.6-0.9,3-0.9,3.1-0.4s-0.9,1.3-2.7,1.9c-1.8,0.6-3,0.4-3,0.4S93.7,198.8,95.4,197.8z"/>
	<path class="st0" d="M96.4,195.4c0.7,1.6,1.7,2.3,2.1,2s0.1-1.5-0.9-3s-2.1-2-2.1-2S95.6,193.8,96.4,195.4z"/>
	<path class="st0" d="M99.6,199.1c1.6-1,2.9-1.1,3-0.6s-0.8,1.4-2.6,2.1c-1.8,0.7-3,0.6-3,0.6S98,200.1,99.6,199.1z"/>
	<path class="st0" d="M100.4,196.6c0.8,1.5,1.8,2.3,2.2,1.9c0.4-0.4,0.1-1.5-1.1-2.9c-1.1-1.4-2.2-1.9-2.2-1.9S99.6,195,100.4,196.6
		z"/>
	<path class="st0" d="M103.8,200.2c1.5-1,2.8-1.2,3-0.7s-0.7,1.4-2.5,2.2c-1.7,0.8-2.9,0.7-2.9,0.7S102.3,201.3,103.8,200.2z"/>
	<path class="st0" d="M104.5,197.6c0.9,1.5,2,2.2,2.3,1.8s0-1.5-1.2-2.9c-1.2-1.3-2.3-1.7-2.3-1.7S103.6,196.1,104.5,197.6z"/>
	<path class="st0" d="M108.1,201c1.4-1.1,2.8-1.4,3-0.9s-0.6,1.5-2.3,2.3c-1.7,0.9-2.9,0.9-2.9,0.9S106.6,202.2,108.1,201z"/>
	<path class="st0" d="M108.7,198.4c0.9,1.4,2.1,2,2.4,1.6s-0.1-1.5-1.4-2.8s-2.3-1.6-2.3-1.6S107.7,197,108.7,198.4z"/>
	<path class="st0" d="M112.4,201.6c1.4-1.2,2.7-1.5,2.9-1.1c0.2,0.5-0.6,1.5-2.2,2.4c-1.6,1-2.9,1-2.9,1S111,202.9,112.4,201.6z"/>
	<path class="st0" d="M112.9,199c1,1.4,2.2,1.9,2.5,1.5s-0.2-1.5-1.5-2.7s-2.4-1.5-2.4-1.5S111.8,197.6,112.9,199z"/>
	<path class="st0" d="M116.8,202c1.3-1.3,2.6-1.7,2.8-1.2c0.2,0.5-0.5,1.5-2.1,2.6c-1.6,1-2.8,1.2-2.8,1.2S115.4,203.3,116.8,202z"
		/>
	<path class="st0" d="M117.1,199.4c1.1,1.3,2.3,1.8,2.6,1.4c0.3-0.4-0.3-1.5-1.6-2.7c-1.4-1.1-2.5-1.4-2.5-1.4S116,198,117.1,199.4z
		"/>
	<path class="st0" d="M101,37.8c-0.9,1.6-2,2.4-2.3,2c-0.4-0.4,0-1.6,1.2-3.1s2.3-2,2.3-2S101.9,36.2,101,37.8z"/>
	<path class="st0" d="M101.5,40.4c-1.5-0.9-2.7-1-2.9-0.5c-0.1,0.5,0.7,1.4,2.4,2c1.7,0.7,2.8,0.5,2.8,0.5S103,41.4,101.5,40.4z"/>
	<path class="st0" d="M96.8,39c-0.8,1.7-1.8,2.5-2.2,2.1c-0.4-0.3-0.1-1.6,1-3.1s2.2-2.1,2.2-2.1S97.6,37.3,96.8,39z"/>
	<path class="st0" d="M97.4,41.6c-1.5-0.9-2.8-0.9-2.9-0.4s0.8,1.3,2.5,1.9c1.7,0.6,2.8,0.4,2.8,0.4S99,42.5,97.4,41.6z"/>
	<path class="st0" d="M92.7,40.5c-0.7,1.7-1.7,2.6-2.1,2.3s-0.2-1.6,0.9-3.2c1-1.6,2.1-2.2,2.1-2.2S93.4,38.7,92.7,40.5z"/>
	<path class="st0" d="M93.4,43c-1.5-0.8-2.8-0.7-2.9-0.2s0.9,1.3,2.6,1.8s2.8,0.2,2.8,0.2S95,43.8,93.4,43z"/>
	<path class="st0" d="M88.6,42.1c-0.6,1.7-1.6,2.7-2,2.4s-0.3-1.6,0.7-3.2c0.9-1.7,1.9-2.3,1.9-2.3S89.2,40.3,88.6,42.1z"/>
	<path class="st0" d="M89.5,44.6c-1.6-0.7-2.9-0.6-2.9-0.1c-0.1,0.5,0.9,1.2,2.7,1.6c1.7,0.4,2.9,0.1,2.9,0.1S91.1,45.3,89.5,44.6z"
		/>
	<path class="st0" d="M84.6,44c-0.5,1.8-1.4,2.7-1.9,2.5c-0.4-0.3-0.3-1.6,0.5-3.3c0.9-1.7,1.8-2.4,1.8-2.4S85.2,42.1,84.6,44z"/>
	<path class="st0" d="M85.7,46.4c-1.6-0.6-2.9-0.4-2.9,0.1s1,1.2,2.8,1.5s2.9-0.1,2.9-0.1S87.4,47,85.7,46.4z"/>
	<path class="st0" d="M80.8,46c-0.4,1.8-1.3,2.8-1.7,2.6c-0.4-0.3-0.4-1.5,0.4-3.3c0.8-1.7,1.7-2.5,1.7-2.5S81.2,44.2,80.8,46z"/>
	<path class="st0" d="M82,48.4c-1.6-0.5-2.9-0.3-2.9,0.2s1,1.1,2.8,1.3s2.8-0.2,2.8-0.2S83.6,48.9,82,48.4z"/>
	<path class="st0" d="M77,48.3c-0.3,1.8-1.1,2.9-1.6,2.6c-0.5-0.2-0.5-1.5,0.2-3.3s1.6-2.6,1.6-2.6S77.4,46.4,77,48.3z"/>
	<path class="st0" d="M78.3,50.6c-1.7-0.4-2.9-0.1-2.9,0.4s1.1,1.1,2.9,1.2c1.8,0.1,2.8-0.4,2.8-0.4S80,51,78.3,50.6z"/>
	<path class="st0" d="M73.4,50.7c-0.2,1.8-1,2.9-1.5,2.7s-0.6-1.5,0-3.3s1.4-2.7,1.4-2.7S73.6,48.8,73.4,50.7z"/>
	<path class="st0" d="M74.8,52.9c-1.7-0.4-2.9,0-2.9,0.5c0.1,0.5,1.2,1,2.9,1c1.8,0,2.8-0.5,2.8-0.5S76.6,53.3,74.8,52.9z"/>
	<path class="st0" d="M69.9,53.3c-0.1,1.8-0.8,3-1.3,2.8s-0.7-1.4-0.2-3.3c0.5-1.8,1.3-2.8,1.3-2.8S70.1,51.5,69.9,53.3z"/>
	<path class="st0" d="M71.5,55.5c-1.7-0.3-2.9,0.2-2.8,0.7s1.2,0.9,3,0.9c1.8-0.1,2.8-0.7,2.8-0.7S73.2,55.7,71.5,55.5z"/>
	<path class="st0" d="M66.6,56.1c0,1.8-0.7,3-1.2,2.9c-0.5-0.2-0.7-1.4-0.3-3.3c0.4-1.9,1.1-2.8,1.1-2.8S66.6,54.3,66.6,56.1z"/>
	<path class="st0" d="M68.2,58.2c-1.7-0.2-2.9,0.3-2.8,0.8s1.3,0.9,3,0.7c1.8-0.2,2.7-0.8,2.7-0.8S70,58.4,68.2,58.2z"/>
	<path class="st0" d="M63.4,59.1c0.1,1.8-0.5,3.1-1,2.9s-0.8-1.4-0.5-3.3c0.3-1.9,1-2.9,1-2.9S63.3,57.2,63.4,59.1z"/>
	<path class="st0" d="M65.1,61.1c-1.7-0.1-2.9,0.5-2.7,1c0.1,0.5,1.3,0.8,3.1,0.6c1.8-0.3,2.7-0.9,2.7-0.9S66.9,61.2,65.1,61.1z"/>
	<path class="st0" d="M60.3,62.3c0.2,1.8-0.4,3.1-0.9,3s-0.9-1.3-0.7-3.2c0.2-1.9,0.8-2.9,0.8-2.9S60.2,60.4,60.3,62.3z"/>
	<path class="st0" d="M62.2,64.1c-1.7,0-2.8,0.6-2.7,1.1c0.2,0.5,1.3,0.7,3.1,0.4c1.8-0.3,2.6-1.1,2.6-1.1S64,64.1,62.2,64.1z"/>
	<path class="st0" d="M57.5,65.6c0.3,1.8-0.2,3.1-0.7,3s-0.9-1.3-0.8-3.2c0.1-1.9,0.7-3,0.7-3S57.2,63.7,57.5,65.6z"/>
	<path class="st0" d="M59.4,67.3c-1.7,0.1-2.8,0.8-2.6,1.2c0.2,0.5,1.4,0.7,3.1,0.2c1.7-0.5,2.6-1.2,2.6-1.2S61.2,67.2,59.4,67.3z"
		/>
	<path class="st0" d="M54.8,69c0.3,1.8,0,3.1-0.5,3s-1-1.2-1-3.1s0.5-3,0.5-3S54.4,67.2,54.8,69z"/>
	<path class="st0" d="M56.8,70.7c-1.7,0.2-2.8,0.9-2.6,1.4s1.4,0.6,3.1,0.1c1.7-0.5,2.5-1.4,2.5-1.4S58.6,70.5,56.8,70.7z"/>
	<path class="st0" d="M52.3,72.6c0.4,1.8,0.1,3.1-0.4,3.1s-1.1-1.2-1.2-3.1s0.4-3,0.4-3S51.8,70.8,52.3,72.6z"/>
	<path class="st0" d="M54.4,74.2c-1.7,0.3-2.7,1.1-2.5,1.5c0.2,0.5,1.4,0.5,3.1-0.1c1.7-0.6,2.4-1.5,2.4-1.5S56.1,73.9,54.4,74.2z"
		/>
	<path class="st0" d="M50,76.3c0.5,1.8,0.3,3.1-0.2,3.1s-1.1-1.1-1.3-3s0.2-3,0.2-3S49.4,74.5,50,76.3z"/>
	<path class="st0" d="M52.2,77.7c-1.7,0.4-2.7,1.2-2.4,1.6s1.5,0.5,3.1-0.3c1.6-0.7,2.4-1.6,2.4-1.6S53.9,77.4,52.2,77.7z"/>
	<path class="st0" d="M47.8,80.1c0.6,1.7,0.5,3.1-0.1,3.1c-0.5,0-1.2-1.1-1.5-2.9c-0.3-1.9,0-3,0-3S47.2,78.3,47.8,80.1z"/>
	<path class="st0" d="M50.1,81.5c-1.7,0.5-2.6,1.3-2.3,1.8c0.3,0.4,1.5,0.4,3.1-0.4s2.3-1.7,2.3-1.7S51.8,81,50.1,81.5z"/>
	<path class="st0" d="M45.9,84c0.7,1.7,0.6,3,0.1,3.1s-1.2-1-1.6-2.9s-0.1-3-0.1-3S45.2,82.3,45.9,84z"/>
	<path class="st0" d="M48.3,85.3c-1.6,0.5-2.5,1.5-2.2,1.9s1.5,0.3,3.1-0.6s2.2-1.8,2.2-1.8S49.9,84.7,48.3,85.3z"/>
	<path class="st0" d="M44.2,88.1c0.8,1.7,0.8,3,0.3,3.1s-1.3-0.9-1.8-2.8c-0.5-1.8-0.3-3-0.3-3S43.4,86.4,44.2,88.1z"/>
	<path class="st0" d="M46.6,89.2c-1.6,0.6-2.4,1.6-2.1,2c0.3,0.4,1.5,0.2,3-0.7c1.5-1,2.1-2,2.1-2S48.3,88.5,46.6,89.2z"/>
	<path class="st0" d="M42.7,92.2c0.9,1.6,0.9,3,0.4,3.1s-1.3-0.9-1.9-2.7c-0.6-1.8-0.4-3-0.4-3S41.8,90.5,42.7,92.2z"/>
	<path class="st0" d="M45.2,93.1c-1.6,0.7-2.3,1.7-2,2.1s1.5,0.1,3-0.9s2-2.1,2-2.1S46.8,92.4,45.2,93.1z"/>
	<path class="st0" d="M41.4,96.4c1,1.6,1.1,2.9,0.6,3s-1.4-0.8-2.1-2.6c-0.7-1.8-0.6-3-0.6-3S40.4,94.8,41.4,96.4z"/>
	<path class="st0" d="M43.9,97.2C42.4,98,41.6,99,42,99.4c0.4,0.4,1.5,0.1,2.9-1.1c1.4-1.1,1.9-2.2,1.9-2.2S45.5,96.4,43.9,97.2z"/>
	<path class="st0" d="M40.4,100.6c1,1.5,1.2,2.8,0.7,3s-1.4-0.7-2.2-2.5s-0.7-2.9-0.7-2.9S39.3,99.1,40.4,100.6z"/>
	<path class="st0" d="M42.9,101.3c-1.5,0.9-2.2,2-1.8,2.3s1.5,0,2.9-1.2c1.3-1.2,1.7-2.3,1.7-2.3S44.5,100.4,42.9,101.3z"/>
	<path class="st0" d="M39.5,104.9c1.1,1.4,1.4,2.8,0.9,3s-1.5-0.6-2.3-2.3c-0.9-1.7-0.9-2.9-0.9-2.9S38.4,103.4,39.5,104.9z"/>
	<path class="st0" d="M42.1,105.5c-1.4,0.9-2,2.1-1.6,2.4s1.5-0.1,2.8-1.4s1.6-2.3,1.6-2.3S43.6,104.5,42.1,105.5z"/>
	<path class="st0" d="M38.9,109.2c1.2,1.4,1.5,2.7,1.1,2.9c-0.5,0.2-1.5-0.6-2.4-2.2c-1-1.6-1-2.9-1-2.9S37.7,107.8,38.9,109.2z"/>
	<path class="st0" d="M41.5,109.6c-1.4,1-1.9,2.2-1.5,2.5s1.5-0.2,2.7-1.5s1.5-2.4,1.5-2.4S43,108.6,41.5,109.6z"/>
	<path class="st0" d="M38.6,113.6c1.3,1.3,1.7,2.6,1.2,2.8c-0.5,0.2-1.5-0.5-2.6-2.1c-1-1.6-1.2-2.8-1.2-2.8S37.2,112.2,38.6,113.6z
		"/>
	<path class="st0" d="M41.2,113.9c-1.3,1.1-1.8,2.3-1.4,2.6c0.4,0.3,1.5-0.3,2.7-1.6c1.1-1.4,1.4-2.5,1.4-2.5S42.6,112.7,41.2,113.9
		z"/>
	<path class="st0" d="M205.3,117.9c-1.3,1.3-1.8,2.5-1.4,2.8s1.5-0.4,2.7-1.9c1.1-1.5,1.3-2.7,1.3-2.7S206.6,116.7,205.3,117.9z"/>
	<path class="st0" d="M202.6,118.1c1.3,1.2,1.7,2.4,1.3,2.6c-0.4,0.3-1.5-0.3-2.6-1.8c-1.1-1.4-1.2-2.6-1.2-2.6
		S201.3,116.9,202.6,118.1z"/>
	<path class="st0" d="M205.2,122.3c-1.4,1.2-1.9,2.4-1.5,2.7c0.4,0.3,1.6-0.3,2.8-1.8s1.5-2.7,1.5-2.7S206.6,121.1,205.2,122.3z"/>
	<path class="st0" d="M202.6,122.3c1.2,1.2,1.6,2.5,1.1,2.7s-1.5-0.4-2.5-1.9s-1.1-2.6-1.1-2.6S201.3,121.1,202.6,122.3z"/>
	<path class="st0" d="M204.9,126.7c-1.5,1.1-2.1,2.3-1.6,2.6c0.4,0.3,1.6-0.2,2.8-1.7c1.3-1.4,1.6-2.6,1.6-2.6
		S206.4,125.5,204.9,126.7z"/>
	<path class="st0" d="M202.3,126.6c1.2,1.3,1.4,2.5,1,2.7c-0.5,0.2-1.5-0.5-2.4-2s-1-2.7-1-2.7S201.1,125.2,202.3,126.6z"/>
	<path class="st0" d="M204.4,131c-1.5,1-2.2,2.2-1.8,2.5s1.6-0.2,2.9-1.5c1.4-1.3,1.7-2.5,1.7-2.5S205.9,130,204.4,131z"/>
	<path class="st0" d="M201.7,130.8c1.1,1.3,1.3,2.6,0.8,2.8s-1.4-0.6-2.3-2.2c-0.8-1.6-0.8-2.7-0.8-2.7S200.6,129.4,201.7,130.8z"/>
	<path class="st0" d="M203.6,135.3c-1.6,0.9-2.3,2.1-1.9,2.4c0.4,0.3,1.6-0.1,3-1.3c1.4-1.3,1.9-2.4,1.9-2.4
		S205.2,134.3,203.6,135.3z"/>
	<path class="st0" d="M201,134.9c1,1.4,1.2,2.7,0.7,2.8c-0.5,0.2-1.4-0.6-2.1-2.3s-0.7-2.8-0.7-2.8S200,133.5,201,134.9z"/>
	<path class="st0" d="M202.6,139.6c-1.6,0.9-2.4,2-2,2.3c0.4,0.4,1.6,0,3.1-1.2s2-2.3,2-2.3S204.3,138.7,202.6,139.6z"/>
	<path class="st0" d="M200,139c0.9,1.5,1,2.7,0.5,2.9c-0.5,0.1-1.4-0.7-2-2.4c-0.7-1.7-0.5-2.8-0.5-2.8S199.1,137.5,200,139z"/>
	<path class="st0" d="M201.4,143.8c-1.7,0.8-2.5,1.8-2.1,2.2c0.3,0.4,1.6,0.1,3.1-1s2.1-2.2,2.1-2.2S203.1,143,201.4,143.8z"/>
	<path class="st0" d="M198.9,143.1c0.9,1.5,0.9,2.8,0.4,2.9c-0.5,0.1-1.3-0.8-1.9-2.5s-0.4-2.8-0.4-2.8S198,141.6,198.9,143.1z"/>
	<path class="st0" d="M200,147.9c-1.7,0.7-2.6,1.7-2.3,2.1c0.3,0.4,1.6,0.2,3.2-0.9c1.6-1,2.2-2.1,2.2-2.1S201.7,147.2,200,147.9z"
		/>
	<path class="st0" d="M197.5,147.1c0.8,1.5,0.7,2.8,0.2,2.9c-0.5,0.1-1.3-0.9-1.8-2.6c-0.5-1.7-0.2-2.8-0.2-2.8
		S196.7,145.5,197.5,147.1z"/>
	<path class="st0" d="M198.4,152c-1.7,0.6-2.7,1.6-2.4,2s1.6,0.3,3.2-0.7c1.7-0.9,2.3-1.9,2.3-1.9S200.1,151.3,198.4,152z"/>
	<path class="st0" d="M195.9,151c0.7,1.6,0.6,2.9,0.1,2.9c-0.5,0.1-1.2-0.9-1.6-2.7c-0.4-1.7-0.1-2.9-0.1-2.9S195.2,149.4,195.9,151
		z"/>
	<path class="st0" d="M196.5,155.9c-1.8,0.5-2.7,1.4-2.5,1.9c0.3,0.4,1.6,0.3,3.3-0.5c1.7-0.9,2.4-1.8,2.4-1.8
		S198.3,155.4,196.5,155.9z"/>
	<path class="st0" d="M194.1,154.9c0.6,1.6,0.4,2.9-0.1,2.9s-1.2-1-1.5-2.8s0.1-2.9,0.1-2.9S193.5,153.2,194.1,154.9z"/>
	<path class="st0" d="M194.5,159.8c-1.8,0.4-2.8,1.3-2.6,1.7c0.3,0.4,1.5,0.4,3.3-0.4c1.7-0.8,2.5-1.7,2.5-1.7
		S196.3,159.4,194.5,159.8z"/>
	<path class="st0" d="M192.1,158.6c0.5,1.6,0.3,2.9-0.2,2.9s-1.1-1-1.3-2.8s0.2-2.8,0.2-2.8S191.5,156.9,192.1,158.6z"/>
	<path class="st0" d="M192.2,163.5c-1.8,0.3-2.9,1.1-2.6,1.6s1.5,0.5,3.3-0.2s2.6-1.6,2.6-1.6S194.1,163.2,192.2,163.5z"/>
	<path class="st0" d="M189.9,162.2c0.4,1.7,0.1,2.9-0.4,2.9s-1.1-1.1-1.2-2.9c-0.1-1.8,0.4-2.8,0.4-2.8S189.5,160.5,189.9,162.2z"/>
	<path class="st0" d="M189.8,167.1c-1.8,0.2-2.9,1-2.7,1.5s1.5,0.6,3.3,0s2.7-1.4,2.7-1.4S191.6,166.9,189.8,167.1z"/>
	<path class="st0" d="M187.5,165.7c0.4,1.7,0,2.9-0.5,2.9c-0.5-0.1-1-1.2-1-2.9c0-1.8,0.5-2.8,0.5-2.8S187.2,164,187.5,165.7z"/>
	<path class="st0" d="M187.1,170.6c-1.8,0.1-3,0.8-2.8,1.3s1.4,0.7,3.3,0.2c1.8-0.5,2.8-1.3,2.8-1.3S189,170.5,187.1,170.6z"/>
	<path class="st0" d="M185,169.1c0.3,1.7-0.2,2.9-0.7,2.8c-0.5-0.1-0.9-1.2-0.9-3c0.1-1.8,0.7-2.8,0.7-2.8S184.7,167.4,185,169.1z"
		/>
	<path class="st0" d="M184.3,174c-1.8,0-3,0.7-2.9,1.2c0.2,0.5,1.4,0.7,3.3,0.3c1.9-0.4,2.8-1.1,2.8-1.1S186.2,174,184.3,174z"/>
	<path class="st0" d="M182.3,172.3c0.2,1.7-0.3,2.9-0.8,2.8c-0.5-0.1-0.9-1.3-0.7-3c0.2-1.8,0.8-2.7,0.8-2.7
		S182.1,170.6,182.3,172.3z"/>
	<path class="st0" d="M181.3,177.2c-1.8-0.1-3.1,0.5-2.9,1c0.1,0.5,1.4,0.8,3.3,0.5c1.9-0.3,2.9-1,2.9-1S183.2,177.2,181.3,177.2z"
		/>
	<path class="st0" d="M179.4,175.4c0.1,1.7-0.5,2.9-1,2.7c-0.5-0.1-0.8-1.3-0.6-3.1c0.3-1.8,0.9-2.7,0.9-2.7
		S179.3,173.7,179.4,175.4z"/>
	<path class="st0" d="M178.2,180.2c-1.8-0.2-3.1,0.4-3,0.9s1.3,0.9,3.2,0.7s2.9-0.8,2.9-0.8S180.1,180.4,178.2,180.2z"/>
	<path class="st0" d="M176.3,178.4c0,1.7-0.6,2.8-1.1,2.7c-0.5-0.2-0.7-1.3-0.4-3.1c0.4-1.8,1.1-2.6,1.1-2.6
		S176.3,176.6,176.3,178.4z"/>
	<path class="st0" d="M174.9,183.1c-1.8-0.3-3.1,0.2-3,0.7s1.3,0.9,3.2,0.8c1.9-0.1,3-0.7,3-0.7S176.8,183.3,174.9,183.1z"/>
	<path class="st0" d="M173.1,181.1c-0.1,1.7-0.8,2.8-1.2,2.6c-0.5-0.2-0.7-1.4-0.2-3.1c0.5-1.7,1.2-2.6,1.2-2.6
		S173.2,179.4,173.1,181.1z"/>
	<path class="st0" d="M171.4,185.8c-1.8-0.3-3.1,0-3,0.5s1.2,1,3.1,1c1.9,0,3-0.5,3-0.5S173.3,186.1,171.4,185.8z"/>
	<path class="st0" d="M169.8,183.7c-0.2,1.7-0.9,2.8-1.4,2.6s-0.6-1.4-0.1-3.1c0.5-1.7,1.4-2.5,1.4-2.5S170,182,169.8,183.7z"/>
	<path class="st0" d="M167.9,188.3c-1.8-0.4-3.1-0.1-3.1,0.4s1.2,1.1,3.1,1.2c1.9,0.1,3-0.4,3-0.4S169.7,188.7,167.9,188.3z"/>
	<path class="st0" d="M166.3,186.2c-0.3,1.7-1.1,2.7-1.5,2.5c-0.5-0.2-0.5-1.4,0.1-3.1c0.6-1.7,1.5-2.4,1.5-2.4
		S166.6,184.4,166.3,186.2z"/>
	<path class="st0" d="M164.2,190.6c-1.8-0.5-3.1-0.3-3.1,0.2s1.1,1.1,3,1.3s3-0.2,3-0.2S166,191.2,164.2,190.6z"/>
	<path class="st0" d="M162.7,188.4c-0.4,1.7-1.2,2.7-1.6,2.4c-0.4-0.3-0.5-1.5,0.3-3.1c0.7-1.6,1.6-2.4,1.6-2.4
		S163.1,186.7,162.7,188.4z"/>
	<path class="st0" d="M160.3,192.7c-1.7-0.6-3.1-0.5-3.1,0.1c0,0.5,1.1,1.2,2.9,1.5c1.9,0.3,3,0,3,0S162.1,193.4,160.3,192.7z"/>
	<path class="st0" d="M159,190.4c-0.5,1.7-1.3,2.6-1.8,2.3c-0.4-0.3-0.4-1.5,0.4-3.1c0.8-1.6,1.7-2.3,1.7-2.3S159.5,188.7,159,190.4
		z"/>
	<path class="st0" d="M156.4,194.6c-1.7-0.7-3-0.6-3.1-0.1s1,1.2,2.9,1.6s3,0.1,3,0.1S158.1,195.4,156.4,194.6z"/>
	<path class="st0" d="M155.2,192.3c-0.5,1.6-1.5,2.5-1.9,2.2s-0.3-1.5,0.6-3.1c0.9-1.6,1.8-2.2,1.8-2.2S155.7,190.6,155.2,192.3z"/>
	<path class="st0" d="M152.4,196.3c-1.7-0.8-3-0.8-3.1-0.3s0.9,1.3,2.8,1.8c1.8,0.5,3,0.3,3,0.3S154.1,197.2,152.4,196.3z"/>
	<path class="st0" d="M151.3,193.9c-0.6,1.6-1.6,2.4-2,2.1c-0.4-0.3-0.2-1.5,0.7-3c1-1.5,2-2.1,2-2.1S151.9,192.3,151.3,193.9z"/>
	<path class="st0" d="M148.3,197.8c-1.6-0.9-3-0.9-3.1-0.4s0.9,1.3,2.7,1.9c1.8,0.6,3,0.4,3,0.4S149.9,198.8,148.3,197.8z"/>
	<path class="st0" d="M147.3,195.4c-0.7,1.6-1.7,2.3-2.1,2c-0.4-0.3-0.1-1.5,0.9-3s2.1-2,2.1-2S148,193.8,147.3,195.4z"/>
	<path class="st0" d="M144.1,199.1c-1.6-1-2.9-1.1-3-0.6s0.8,1.4,2.6,2.1c1.8,0.7,3,0.6,3,0.6S145.7,200.1,144.1,199.1z"/>
	<path class="st0" d="M143.3,196.6c-0.8,1.5-1.8,2.3-2.2,1.9c-0.4-0.4-0.1-1.5,1.1-2.9c1.1-1.4,2.2-1.9,2.2-1.9
		S144.1,195,143.3,196.6z"/>
	<path class="st0" d="M139.9,200.2c-1.5-1-2.8-1.2-3-0.7s0.7,1.4,2.5,2.2c1.7,0.8,2.9,0.7,2.9,0.7S141.4,201.3,139.9,200.2z"/>
	<path class="st0" d="M139.2,197.6c-0.9,1.5-2,2.2-2.3,1.8s0-1.5,1.2-2.9c1.2-1.3,2.3-1.7,2.3-1.7S140,196.1,139.2,197.6z"/>
	<path class="st0" d="M135.6,201c-1.4-1.1-2.8-1.4-3-0.9s0.6,1.5,2.3,2.3c1.7,0.9,2.9,0.9,2.9,0.9S137.1,202.2,135.6,201z"/>
	<path class="st0" d="M135,198.4c-0.9,1.4-2.1,2-2.4,1.6c-0.3-0.4,0.1-1.5,1.4-2.8c1.3-1.3,2.3-1.6,2.3-1.6S136,197,135,198.4z"/>
	<path class="st0" d="M131.2,201.6c-1.4-1.2-2.7-1.5-2.9-1.1c-0.2,0.5,0.6,1.5,2.2,2.4c1.6,1,2.9,1,2.9,1S132.7,202.9,131.2,201.6z"
		/>
	<path class="st0" d="M130.8,199c-1,1.4-2.2,1.9-2.5,1.5s0.2-1.5,1.5-2.7s2.4-1.5,2.4-1.5S131.9,197.6,130.8,199z"/>
	<path class="st0" d="M126.9,202c-1.3-1.3-2.6-1.7-2.8-1.2c-0.2,0.5,0.5,1.5,2.1,2.6c1.6,1,2.8,1.2,2.8,1.2S128.2,203.3,126.9,202z"
		/>
	<path class="st0" d="M126.6,199.4c-1.1,1.3-2.3,1.8-2.6,1.4c-0.3-0.4,0.3-1.5,1.6-2.7c1.4-1.1,2.5-1.4,2.5-1.4
		S127.7,198,126.6,199.4z"/>
	<path class="st0" d="M142.7,37.8c0.9,1.6,2,2.4,2.3,2c0.4-0.4,0-1.6-1.2-3.1s-2.3-2-2.3-2S141.8,36.2,142.7,37.8z"/>
	<path class="st0" d="M142.2,40.4c1.5-0.9,2.7-1,2.9-0.5c0.1,0.5-0.7,1.4-2.4,2c-1.7,0.7-2.8,0.5-2.8,0.5S140.7,41.4,142.2,40.4z"/>
	<path class="st0" d="M146.9,39c0.8,1.7,1.8,2.5,2.2,2.1c0.4-0.3,0.1-1.6-1-3.1s-2.2-2.1-2.2-2.1S146.1,37.3,146.9,39z"/>
	<path class="st0" d="M146.2,41.6c1.5-0.9,2.8-0.9,2.9-0.4c0.1,0.5-0.8,1.3-2.5,1.9c-1.7,0.6-2.8,0.4-2.8,0.4S144.7,42.5,146.2,41.6
		z"/>
	<path class="st0" d="M151,40.5c0.7,1.7,1.7,2.6,2.1,2.3c0.4-0.3,0.2-1.6-0.9-3.2c-1-1.6-2.1-2.2-2.1-2.2S150.3,38.7,151,40.5z"/>
	<path class="st0" d="M150.2,43c1.5-0.8,2.8-0.7,2.9-0.2s-0.9,1.3-2.6,1.8c-1.7,0.5-2.8,0.2-2.8,0.2S148.6,43.8,150.2,43z"/>
	<path class="st0" d="M155.1,42.1c0.6,1.7,1.6,2.7,2,2.4s0.3-1.6-0.7-3.2c-0.9-1.7-1.9-2.3-1.9-2.3S154.5,40.3,155.1,42.1z"/>
	<path class="st0" d="M154.1,44.6c1.6-0.7,2.9-0.6,2.9-0.1c0.1,0.5-0.9,1.2-2.7,1.6c-1.7,0.4-2.9,0.1-2.9,0.1S152.5,45.3,154.1,44.6
		z"/>
	<path class="st0" d="M159,44c0.5,1.8,1.4,2.7,1.9,2.5c0.4-0.3,0.3-1.6-0.5-3.3c-0.9-1.7-1.8-2.4-1.8-2.4S158.5,42.1,159,44z"/>
	<path class="st0" d="M158,46.4c1.6-0.6,2.9-0.4,2.9,0.1s-1,1.2-2.8,1.5s-2.9-0.1-2.9-0.1S156.3,47,158,46.4z"/>
	<path class="st0" d="M162.9,46c0.4,1.8,1.3,2.8,1.7,2.6c0.4-0.3,0.4-1.5-0.4-3.3c-0.8-1.7-1.7-2.5-1.7-2.5S162.5,44.2,162.9,46z"/>
	<path class="st0" d="M161.7,48.4c1.6-0.5,2.9-0.3,2.9,0.2s-1,1.1-2.8,1.3s-2.8-0.2-2.8-0.2S160,48.9,161.7,48.4z"/>
	<path class="st0" d="M166.6,48.3c0.3,1.8,1.1,2.9,1.6,2.6c0.5-0.2,0.5-1.5-0.2-3.3s-1.6-2.6-1.6-2.6S166.3,46.4,166.6,48.3z"/>
	<path class="st0" d="M165.3,50.6c1.7-0.4,2.9-0.1,2.9,0.4s-1.1,1.1-2.9,1.2c-1.8,0.1-2.8-0.4-2.8-0.4S163.6,51,165.3,50.6z"/>
	<path class="st0" d="M170.3,50.7c0.2,1.8,1,2.9,1.5,2.7s0.6-1.5,0-3.3s-1.4-2.7-1.4-2.7S170,48.8,170.3,50.7z"/>
	<path class="st0" d="M168.8,52.9c1.7-0.4,2.9,0,2.9,0.5s-1.2,1-2.9,1c-1.8,0-2.8-0.5-2.8-0.5S167.1,53.3,168.8,52.9z"/>
	<path class="st0" d="M173.8,53.3c0.1,1.8,0.8,3,1.3,2.8s0.7-1.4,0.2-3.3C174.8,51,174,50,174,50S173.6,51.5,173.8,53.3z"/>
	<path class="st0" d="M172.2,55.5c1.7-0.3,2.9,0.2,2.8,0.7c-0.1,0.5-1.2,0.9-3,0.9c-1.8-0.1-2.8-0.7-2.8-0.7S170.5,55.7,172.2,55.5z
		"/>
	<path class="st0" d="M177.1,56.1c0,1.8,0.7,3,1.2,2.9s0.7-1.4,0.3-3.3c-0.4-1.9-1.1-2.8-1.1-2.8S177.1,54.3,177.1,56.1z"/>
	<path class="st0" d="M175.5,58.2c1.7-0.2,2.9,0.3,2.8,0.8s-1.3,0.9-3,0.7c-1.8-0.2-2.7-0.8-2.7-0.8S173.7,58.4,175.5,58.2z"/>
	<path class="st0" d="M180.3,59.1c-0.1,1.8,0.5,3.1,1,2.9c0.5-0.1,0.8-1.4,0.5-3.3c-0.3-1.9-1-2.9-1-2.9S180.4,57.2,180.3,59.1z"/>
	<path class="st0" d="M178.5,61.1c1.7-0.1,2.9,0.5,2.7,1c-0.1,0.5-1.3,0.8-3.1,0.6c-1.8-0.3-2.7-0.9-2.7-0.9S176.8,61.2,178.5,61.1z
		"/>
	<path class="st0" d="M183.3,62.3c-0.2,1.8,0.4,3.1,0.9,3s0.9-1.3,0.7-3.2c-0.2-1.9-0.8-2.9-0.8-2.9S183.5,60.4,183.3,62.3z"/>
	<path class="st0" d="M181.5,64.1c1.7,0,2.8,0.6,2.7,1.1c-0.2,0.5-1.3,0.7-3.1,0.4s-2.6-1.1-2.6-1.1S179.7,64.1,181.5,64.1z"/>
	<path class="st0" d="M186.2,65.6c-0.3,1.8,0.2,3.1,0.7,3s0.9-1.3,0.8-3.2c-0.1-1.9-0.7-3-0.7-3S186.5,63.7,186.2,65.6z"/>
	<path class="st0" d="M184.3,67.3c1.7,0.1,2.8,0.8,2.6,1.2c-0.2,0.5-1.4,0.7-3.1,0.2c-1.7-0.5-2.6-1.2-2.6-1.2
		S182.5,67.2,184.3,67.3z"/>
	<path class="st0" d="M188.9,69c-0.3,1.8,0,3.1,0.5,3s1-1.2,1-3.1s-0.5-3-0.5-3S189.3,67.2,188.9,69z"/>
	<path class="st0" d="M186.9,70.7c1.7,0.2,2.8,0.9,2.6,1.4s-1.4,0.6-3.1,0.1c-1.7-0.5-2.5-1.4-2.5-1.4S185.1,70.5,186.9,70.7z"/>
	<path class="st0" d="M191.4,72.6c-0.4,1.8-0.1,3.1,0.4,3.1s1.1-1.2,1.2-3.1c0.1-1.9-0.4-3-0.4-3S191.9,70.8,191.4,72.6z"/>
	<path class="st0" d="M189.3,74.2c1.7,0.3,2.7,1.1,2.5,1.5c-0.2,0.5-1.4,0.5-3.1-0.1c-1.7-0.6-2.4-1.5-2.4-1.5
		S187.5,73.9,189.3,74.2z"/>
	<path class="st0" d="M193.7,76.3c-0.5,1.8-0.3,3.1,0.2,3.1s1.1-1.1,1.3-3s-0.2-3-0.2-3S194.3,74.5,193.7,76.3z"/>
	<path class="st0" d="M191.5,77.7c1.7,0.4,2.7,1.2,2.4,1.6s-1.5,0.5-3.1-0.3c-1.6-0.7-2.4-1.6-2.4-1.6S189.8,77.4,191.5,77.7z"/>
	<path class="st0" d="M195.8,80.1c-0.6,1.7-0.5,3.1,0.1,3.1s1.2-1.1,1.5-2.9c0.3-1.9,0-3,0-3S196.5,78.3,195.8,80.1z"/>
	<path class="st0" d="M193.6,81.5c1.7,0.5,2.6,1.3,2.3,1.8c-0.3,0.4-1.5,0.4-3.1-0.4s-2.3-1.7-2.3-1.7S191.9,81,193.6,81.5z"/>
	<path class="st0" d="M197.8,84c-0.7,1.7-0.6,3-0.1,3.1s1.2-1,1.6-2.9s0.1-3,0.1-3S198.5,82.3,197.8,84z"/>
	<path class="st0" d="M195.4,85.3c1.6,0.5,2.5,1.5,2.2,1.9s-1.5,0.3-3.1-0.6s-2.2-1.8-2.2-1.8S193.7,84.7,195.4,85.3z"/>
	<path class="st0" d="M199.5,88.1c-0.8,1.7-0.8,3-0.3,3.1s1.3-0.9,1.8-2.8c0.5-1.8,0.3-3,0.3-3S200.3,86.4,199.5,88.1z"/>
	<path class="st0" d="M197.1,89.2c1.6,0.6,2.4,1.6,2.1,2c-0.3,0.4-1.5,0.2-3-0.7c-1.5-1-2.1-2-2.1-2S195.4,88.5,197.1,89.2z"/>
	<path class="st0" d="M201,92.2c-0.9,1.6-0.9,3-0.4,3.1s1.3-0.9,1.9-2.7c0.6-1.8,0.4-3,0.4-3S201.9,90.5,201,92.2z"/>
	<path class="st0" d="M198.5,93.1c1.6,0.7,2.3,1.7,2,2.1s-1.5,0.1-3-0.9s-2-2.1-2-2.1S196.9,92.4,198.5,93.1z"/>
	<path class="st0" d="M202.2,96.4c-1,1.6-1.1,2.9-0.6,3s1.4-0.8,2.1-2.6c0.7-1.8,0.6-3,0.6-3S203.2,94.8,202.2,96.4z"/>
	<path class="st0" d="M199.7,97.2c1.5,0.8,2.3,1.8,1.9,2.2c-0.4,0.4-1.5,0.1-2.9-1.1c-1.4-1.1-1.9-2.2-1.9-2.2
		S198.2,96.4,199.7,97.2z"/>
	<path class="st0" d="M203.3,100.6c-1,1.5-1.2,2.8-0.7,3s1.4-0.7,2.2-2.5c0.8-1.7,0.7-2.9,0.7-2.9S204.4,99.1,203.3,100.6z"/>
	<path class="st0" d="M200.7,101.3c1.5,0.9,2.2,2,1.8,2.3s-1.5,0-2.9-1.2c-1.3-1.2-1.7-2.3-1.7-2.3S199.2,100.4,200.7,101.3z"/>
	<path class="st0" d="M204.1,104.9c-1.1,1.4-1.4,2.8-0.9,3s1.5-0.6,2.3-2.3c0.9-1.7,0.9-2.9,0.9-2.9S205.3,103.4,204.1,104.9z"/>
	<path class="st0" d="M201.5,105.5c1.4,0.9,2,2.1,1.6,2.4s-1.5-0.1-2.8-1.4s-1.6-2.3-1.6-2.3S200.1,104.5,201.5,105.5z"/>
	<path class="st0" d="M204.7,109.2c-1.2,1.4-1.5,2.7-1.1,2.9c0.5,0.2,1.5-0.6,2.4-2.2c1-1.6,1-2.9,1-2.9S206,107.8,204.7,109.2z"/>
	<path class="st0" d="M202.1,109.6c1.4,1,1.9,2.2,1.5,2.5s-1.5-0.2-2.7-1.5s-1.5-2.4-1.5-2.4S200.7,108.6,202.1,109.6z"/>
	<path class="st0" d="M205.1,113.6c-1.3,1.3-1.7,2.6-1.2,2.8c0.5,0.2,1.5-0.5,2.6-2.1s1.2-2.8,1.2-2.8S206.4,112.2,205.1,113.6z"/>
	<path class="st0" d="M202.5,113.9c1.3,1.1,1.8,2.3,1.4,2.6c-0.4,0.3-1.5-0.3-2.7-1.6c-1.1-1.4-1.4-2.5-1.4-2.5
		S201.1,112.7,202.5,113.9z"/>
</g>
<path class="st0" d="M131.1,233.3l-1.9-1.9c0.8-1.3,1.2-2.8,1.2-4.5c0-4.8-3.8-8.6-8.6-8.6c-4.7,0-8.6,3.9-8.6,8.6
	c0,4.8,3.8,8.6,8.6,8.6c1.9,0,3.6-0.6,5-1.7l1.8,1.7L131.1,233.3z M121.9,232.1c-2.9,0-5.3-2.3-5.3-5.3s2.3-5.3,5.3-5.3
	s5.3,2.3,5.3,5.3c0,0.7-0.1,1.3-0.4,2l-0.1-0.1h-4.9l2.7,2.7C123.6,231.8,122.9,232.1,121.9,232.1z"/>
<g>
	<path class="st0" d="M11.9,121.5v-3.9c0-2.7,2.2-4.4,5.2-4.3c1.6,0,3,0.6,3.9,1.6c0.6,0.7,0.9,1.7,0.9,3v3.7L11.9,121.5z M20.2,118
		c0-1.9-1.1-2.7-3.1-2.7s-3.4,0.8-3.4,2.6v1.6l6.5,0.1V118z"/>
	<path class="st0" d="M12.3,108.1l0.9-7.3l1.7,0.2l-0.7,5.3l2.2,0.3L17,102l1.7,0.2l-0.6,4.6l2.7,0.3l0.7-5.3l1.7,0.2l-0.9,7.3
		L12.3,108.1z"/>
	<path class="st0" d="M20.8,97.8l0.5-1.9c1.2,0.2,1.8-0.4,2.2-1.8c0.2-1,0.1-2-0.8-2.2c-1-0.2-1.4,0.6-2.1,2
		c-0.8,1.6-1.7,3.1-3.7,2.6c-1.9-0.5-2.5-2.3-2-4.4c0.5-2.2,2-3.3,4-3L18.4,91c-1-0.1-1.7,0.5-1.9,1.5c-0.3,1.1,0,1.9,0.7,2
		c0.8,0.2,1.2-0.4,1.9-1.8c0.9-1.9,1.8-3.4,3.9-2.9c2,0.5,2.7,2.3,2.1,4.5C24.4,97.1,22.9,98.3,20.8,97.8z"/>
	<path class="st0" d="M17.4,84.1l2.8-7.5l1.6,0.6l-1,2.8l7.8,2.9l-0.7,1.9L20,81.9l-1,2.8L17.4,84.1z"/>
	<path class="st0" d="M22.1,72.2l0.9-1.8l9,4.3l-0.9,1.8L22.1,72.2z"/>
	<path class="st0" d="M25.4,65.6l1.1-1.8H33c0.6,0,1.6,0.1,1.6,0.1l0,0c0,0-0.9-0.5-1.5-0.8l-4.5-2.7l1-1.7l8.6,5.2l-1,1.7l-6.5,0.1
		c-0.6,0-1.6-0.1-1.6-0.1l0,0c0,0,0.9,0.5,1.5,0.9l4.4,2.7l-1,1.7L25.4,65.6z"/>
	<path class="st0" d="M34.5,52l1.3-1.7l10.1,3.4l-1.3,1.7l-2.1-0.8l-2.2,2.8l1.3,1.8l-1.3,1.6L34.5,52z M39.3,56.1l1.6-2.1l-2.8-1.1
		c-0.5-0.2-1.5-0.6-1.5-0.6l0,0c0,0,0.6,0.8,1,1.3L39.3,56.1z"/>
	<path class="st0" d="M39.9,45.3l5.6-5.8l1.2,1.2l-2.1,2.2l6,5.8l-1.4,1.5l-6-5.8l-2.1,2.2L39.9,45.3z"/>
	<path class="st0" d="M49,36.3l1.5-1.3l6.6,7.6l-1.5,1.3L49,36.3z"/>
	<path class="st0" d="M57.2,35.9c-1.7-2.4-1.5-5.3,0.9-7.1c2.4-1.7,5.2-1,7,1.5c1.7,2.4,1.5,5.3-0.9,7C61.8,39,59,38.3,57.2,35.9z
		 M63.4,31.5c-1.2-1.6-2.8-2.4-4.3-1.3s-1.4,2.9-0.2,4.5s2.8,2.3,4.3,1.3C64.7,34.9,64.5,33.1,63.4,31.5z"/>
	<path class="st0" d="M66.6,23.5l1.8-1l5.6,3.4c0.5,0.3,1.3,0.9,1.3,0.9l0,0c0,0-0.5-0.9-0.9-1.5L72,20.7l1.8-0.9l4.7,8.8l-1.7,0.9
		l-5.6-3.3c-0.5-0.3-1.3-0.9-1.3-0.9l0,0c0,0,0.5,0.9,0.9,1.5l2.4,4.6l-1.8,0.9L66.6,23.5z"/>
	<path class="st0" d="M83.7,15.4l2-0.6l2.7,4.4c0.4,0.8,1.1,2,1.1,2l0,0c0,0-0.1-1.3-0.2-2.2l-0.4-5.1l1.9-0.6l2.5,4.5
		c0.5,0.8,1.1,1.9,1.1,1.9l0,0c0,0-0.1-1.4-0.2-2.2L94,12.4l1.9-0.6L96,22.1l-1.8,0.6l-2.7-4.8c-0.4-0.6-0.9-1.6-0.9-1.6l0,0
		c0,0,0.2,1,0.2,1.8l0.4,5.5l-1.8,0.5L83.7,15.4z"/>
	<path class="st0" d="M100.7,10.7l7.3-1.2l0.3,1.7L103,12l0.4,2.2l4.6-0.7l0.3,1.6l-4.6,0.7l0.4,2.7l5.3-0.9l0.3,1.7l-7.3,1.2
		L100.7,10.7z"/>
	<path class="st0" d="M113.2,9l3.9-0.2c2.7-0.1,4.5,2,4.6,4.9c0.1,1.6-0.4,3.1-1.4,4c-0.7,0.6-1.7,1-2.9,1.1l-3.7,0.2L113.2,9z
		 M117.1,17.1c1.9-0.1,2.6-1.3,2.5-3.3s-1-3.3-2.7-3.3l-1.6,0.1l0.3,6.5H117.1z"/>
	<path class="st0" d="M126.6,8.8l3.9,0.3c2.7,0.2,4.2,2.5,4,5.4c-0.1,1.6-0.8,3-1.9,3.8c-0.8,0.6-1.8,0.8-3,0.7l-3.7-0.3L126.6,8.8z
		 M129.5,17.3c1.9,0.2,2.7-1,2.9-2.9c0.2-2-0.6-3.4-2.3-3.6l-1.6-0.1l-0.5,6.5L129.5,17.3z"/>
	<path class="st0" d="M139.7,10.2l2,0.3l-1.7,9.9l-2-0.3L139.7,10.2z"/>
	<path class="st0" d="M147,11.6l2,0.5l1.7,6.3c0.2,0.6,0.3,1.5,0.3,1.5l0,0c0,0,0.2-1,0.4-1.7l1.4-5.1l1.9,0.5l-2.6,9.7l-1.9-0.5
		l-1.8-6.2c-0.2-0.6-0.3-1.5-0.3-1.5l0,0c0,0-0.2,1-0.4,1.7l-1.4,5l-1.9-0.5L147,11.6z"/>
	<path class="st0" d="M163.4,26.3L163.4,26.3c-1.1,0.8-2.1,0.8-3.2,0.3c-1.4-0.6-2.3-1.5-2.7-2.7s-0.3-2.5,0.2-3.9
		c0.6-1.5,1.7-2.7,3.1-3.1c1-0.4,2.2-0.3,3.4,0.2c2.3,1,3.1,2.8,2.7,4.7l-1.8-0.8c0.2-1-0.2-1.9-1.4-2.4c-1.7-0.7-3.2,0.4-4,2.2
		c-0.8,1.9-0.4,3.7,1.2,4.3c1.4,0.6,2.8-0.1,3.2-1.1v-0.1l-2.2-0.9l0.6-1.4l3.9,1.6l-2.1,4.9l-1.4-0.6L163.4,26.3z"/>
	<path class="st0" d="M174.1,29.8l1.7,1.1c-0.5,1.1-0.2,1.9,1,2.6c0.9,0.6,1.8,0.7,2.3,0c0.5-0.8-0.2-1.5-1.3-2.6
		c-1.3-1.3-2.4-2.6-1.3-4.4c1.1-1.7,3-1.6,4.8-0.4c1.9,1.2,2.5,2.9,1.6,4.7l-1.6-1.1c0.5-0.9,0.1-1.8-0.8-2.3
		c-0.9-0.6-1.8-0.6-2.2,0c-0.4,0.7,0,1.3,1.1,2.3c1.5,1.5,2.6,2.8,1.5,4.6c-1.1,1.7-3.1,1.8-5,0.5C173.6,33.5,173,31.6,174.1,29.8z"
		/>
	<path class="st0" d="M188.9,31.6l3.4,2.8c0.9,0.7,1.4,1.6,1.4,2.4c0.1,0.8-0.2,1.6-0.8,2.3c-1.2,1.5-3,1.6-4.6,0.3l-1.9-1.6
		l-2.3,2.8l-1.6-1.3L188.9,31.6z M187.5,36.5l1.6,1.3c0.8,0.7,1.6,0.6,2.2-0.1c0.6-0.7,0.5-1.5-0.3-2.1l-1.6-1.4L187.5,36.5z"/>
	<path class="st0" d="M198.6,40l5.1,5.3l-1.2,1.2l-3.7-3.8l-1.6,1.6l3.2,3.4l-1.2,1.2l-3.2-3.4l-1.9,1.9l3.7,3.9l-1.2,1.2l-5.1-5.3
		L198.6,40z"/>
	<path class="st0" d="M202.8,51.9c2.4-1.8,5.3-1.7,7.1,0.7c1.5,2,1.2,4-0.2,5.3l-1.2-1.6c0.7-0.8,0.8-1.8,0.1-2.7
		c-1.1-1.5-2.9-1.2-4.5,0s-2.2,3-1.1,4.3c0.7,0.9,1.8,1.2,2.7,0.7l1.2,1.6c-0.7,0.5-1.6,0.7-2.6,0.5c-0.9-0.2-1.8-0.7-2.7-1.8
		C199.8,56.6,200.4,53.7,202.8,51.9z"/>
	<path class="st0" d="M214.8,60.1l1.1,1.7l-8.5,5.3l-1.1-1.7L214.8,60.1z"/>
	<path class="st0" d="M219.8,68.9l0.9,1.9l-7.4,7.6l-0.9-1.9L214,75l-1.6-3.2l-2.2,0.4l-0.9-1.8L219.8,68.9z M214,71.4l1.2,2.4
		l2.2-2.1c0.4-0.4,1.2-1,1.2-1l0,0c0,0-1,0.2-1.6,0.3L214,71.4z"/>
	<path class="st0" d="M224.1,78.3l0.7,1.9L217,83l1.6,4.4L217,88l-2.3-6.3L224.1,78.3z"/>
	<path class="st0" d="M227.8,89.3l0.5,2l-9.7,2.6l-0.5-2L227.8,89.3z"/>
	<path class="st0" d="M222.6,97.2l0.3,2c-1.2,0.3-1.5,1.1-1.3,2.5c0.2,1,0.7,1.9,1.6,1.7c1-0.2,1-1.1,1.1-2.7
		c0.1-1.8,0.3-3.5,2.4-3.9c1.9-0.3,3.2,1.1,3.6,3.3c0.4,2.2-0.5,3.8-2.4,4.3l-0.3-1.9c1-0.3,1.3-1.1,1.2-2.2
		c-0.2-1.1-0.8-1.7-1.5-1.6c-0.8,0.1-0.9,0.9-1,2.4c-0.1,2.1-0.3,3.8-2.4,4.2c-2,0.3-3.4-1.1-3.8-3.3
		C219.6,99.3,220.6,97.6,222.6,97.2z"/>
	<path class="st0" d="M231.3,108.3l0.5,8l-1.7,0.1l-0.2-3l-8.3,0.5l-0.1-2l8.3-0.5l-0.2-3L231.3,108.3z"/>
</g>
<path id="SVGID_x5F_1_x5F__00000070118328031054805260000007396584464492277405_" class="st1" d="M21.6,118.6
	C21.6,63.1,66.6,18,122.2,18c55.5,0,100.6,45,100.6,100.6s-45,100.6-100.6,100.6C66.6,219.1,21.6,174.1,21.6,118.6z"/>
<rect x="31.8" y="100.8" class="st1" width="180.8" height="35.7"/>
<g class="st2">
	<path class="st0" d="M71.1,99.5v-0.4h13c1.8,0,3.5,0.2,5,0.5s2.9,0.7,4.1,1.3c1.2,0.5,2.3,1.1,3.2,1.7c0.9,0.6,1.6,1.3,2.2,1.9
		c1.1,1.1,2,2.3,2.7,3.6c0.8,1.3,1.3,2.7,1.7,4.1c0.4,1.5,0.6,3,0.6,4.5s-0.2,3-0.6,4.4s-0.9,2.7-1.6,3.9s-1.5,2.3-2.5,3.2
		c-1,1-2.1,1.8-3.3,2.6c-1.1,0.6-2.3,1.2-3.7,1.6c-1.4,0.4-3.3,0.6-5.7,0.6H71.1v-0.4h0.5c1.1,0,1.8-0.4,2.4-1.2
		c0.5-0.8,0.8-1.6,0.8-2.5v-25.5c0-0.9-0.1-1.6-0.4-2.2s-0.7-1-1.1-1.3c-0.5-0.3-1-0.4-1.6-0.4L71.1,99.5L71.1,99.5z M78.2,100.7
		v26.8c0,1.3,0.2,2.3,0.6,2.9s1.1,1,2,1.2s2.2,0.3,3.9,0.3c2.4,0,4.5-0.2,6.2-0.7s3.3-1.6,4.9-3.2c1.2-1.2,2.1-2.8,2.8-4.5
		c0.7-1.8,1.1-4,1.1-6.5c0-2-0.3-4-0.8-6c-0.6-2-1.4-3.7-2.6-5.2c-1.3-1.7-3-3.1-5-4.1s-4.5-1.5-7.4-1.5
		C82.3,100.1,80.4,100.3,78.2,100.7z"/>
	<path class="st0" d="M151.8,99.1v0.4c-0.7,0.1-1.3,0.4-1.8,0.8s-1.1,1-1.6,1.9s-1.1,2.1-1.6,3.8l-9.5,27.9H137l-8.6-27.9h-0.1
		l-9.4,27.9h-0.3l-9.6-30.8c-0.4-1.1-0.8-1.9-1.3-2.4s-0.9-0.8-1.3-0.9s-0.9-0.2-1.5-0.2v-0.4h10.5v0.4c-0.9,0.1-1.6,0.3-2.1,0.8
		s-0.7,1.1-0.7,1.8c0,0.6,0.1,1.2,0.4,2.1l7,22.7h0.1l7.7-22.8l-0.3-1c-0.3-1-0.8-1.8-1.4-2.5s-1.6-1.1-2.9-1.1v-0.4H134v0.4
		c-1.2,0-2,0.3-2.4,0.9s-0.5,1.2-0.5,1.7c0,0.7,0.1,1.3,0.3,2.1l7,22.8h0.1l7.2-21.2c0.2-0.6,0.4-1.2,0.6-2c0.2-0.8,0.3-1.4,0.3-2
		c0-1-0.2-1.7-0.7-2s-1.2-0.4-2.2-0.5V99h8.1V99.1z"/>
	<path class="st0" d="M171.3,105.6H171c-0.2-1.6-0.9-3.1-2.1-4.3c-1.2-1.2-2.8-1.8-4.8-1.8c-1.3,0-2.5,0.3-3.5,0.9s-1.8,1.4-2.3,2.5
		s-0.8,2.3-0.8,3.6c0,1.1,0.2,2,0.5,2.8s0.8,1.5,1.5,2.2s1.4,1.2,2.3,1.8s2,1.2,3.5,2.1c2.5,1.4,4.4,2.7,5.8,4.1s2.1,3.2,2.1,5.6
		c0,1.4-0.4,2.8-1.1,4.2c-0.7,1.3-1.9,2.4-3.4,3.3c-1.5,0.9-3.4,1.3-5.6,1.3c-1.4,0-2.6-0.2-3.7-0.4c-1.1-0.3-2.2-0.7-3.3-1.2
		c-0.5-0.2-0.8-0.2-0.9-0.2c-0.3,0-0.5,0.1-0.6,0.3s-0.2,0.7-0.4,1.5h-0.4v-8.5h0.4c0.6,2.5,1.6,4.4,3.2,5.6
		c1.6,1.3,3.5,1.9,5.8,1.9c1.7,0,3.1-0.3,4.1-1c1-0.6,1.7-1.4,2.1-2.3c0.4-0.9,0.6-1.8,0.6-2.8c0-1.9-0.6-3.4-1.7-4.6
		s-2.9-2.4-5.3-3.7c-1.6-0.9-2.8-1.6-3.6-2.1s-1.6-1.1-2.4-1.9c-0.8-0.8-1.4-1.7-1.9-2.8c-0.5-1.1-0.7-2.3-0.7-3.7
		c0-1.6,0.4-3.1,1.3-4.6c0.8-1.5,2-2.6,3.6-3.5c1.5-0.9,3.3-1.3,5.3-1.3c1.5,0,3,0.3,4.6,0.8c0.2,0.1,0.6,0.2,1,0.2
		c0.5,0,0.8-0.3,1-1h0.4v7H171.3z"/>
</g>
<path class="st0" d="M17.3,137.9L17.3,137.9c-0.2,0-0.4,0-0.5,0c7.6,43.3,41.7,77.9,84.9,86.3c0-0.2,0.1-0.3,0.1-0.5
	C58.8,215.5,24.9,181,17.3,137.9z"/>
<path class="st0" d="M141.5,224c0,0.1,0.1,0.3,0.1,0.4l0,0c43.7-8.1,78.2-42.8,85.9-86.5c-0.2,0-0.3,0-0.5,0
	C219.3,181.4,185,216,141.5,224z"/>
</svg>
