<?xml version="1.0" encoding="utf-8"?>
<!-- Generator: Adobe Illustrator 28.0.0, SVG Export Plug-In . SVG Version: 6.00 Build 0)  -->
<svg version="1.1" id="Layer_1" xmlns="http://www.w3.org/2000/svg" xmlns:xlink="http://www.w3.org/1999/xlink" x="0px" y="0px"
	 viewBox="0 0 232.3 233" style="enable-background:new 0 0 232.3 233;" xml:space="preserve">
<style type="text/css">
	.st0{fill:#FAF0B6;}
	.st1{fill:none;}
	.st2{enable-background:new;}
</style>
<g>
	<path class="st0" d="M138.5,37v0.3c3.4,1,6.7,2.1,10,3.5c9.7,4.2,18.5,10.1,26,17.7s13.4,16.3,17.5,26.1
		c4.2,10.1,6.4,20.9,6.3,31.9c0,11-2.2,21.7-6.5,31.8c-4.1,9.7-10.1,18.5-17.6,25.9c-7.5,7.5-16.3,13.4-26,17.5
		c-10.1,4.3-20.8,6.4-31.8,6.4h-0.3c-11.1,0-21.8-2.2-31.9-6.6c-9.7-4.2-18.5-10.1-26-17.7c-7.5-7.6-13.4-16.3-17.5-26.1
		c-4.2-10.1-6.4-20.9-6.3-31.9c0-11,2.2-21.7,6.5-31.8C45,74.3,51,65.6,58.5,58.1s16.3-13.4,26-17.5c3.1-1.3,6.3-2.4,9.6-3.4V37
		c-34.5,9.7-59.9,41.3-60,78.9c-0.2,45.4,36.5,82.4,81.9,82.5c0.1,0,0.2,0,0.3,0c45.3,0,82.1-36.6,82.2-81.9
		C198.6,78.7,173.2,46.7,138.5,37z"/>
	<path class="st0" d="M32.8,115.4c1.3,1.3,1.8,2.5,1.4,2.8s-1.5-0.4-2.7-1.9c-1.1-1.5-1.3-2.7-1.3-2.7S31.4,114.2,32.8,115.4z"/>
	<path class="st0" d="M35.4,115.6c-1.3,1.2-1.7,2.4-1.3,2.6c0.4,0.3,1.5-0.3,2.6-1.8c1.1-1.4,1.2-2.6,1.2-2.6S36.7,114.4,35.4,115.6
		z"/>
	<path class="st0" d="M32.8,119.8c1.4,1.2,1.9,2.4,1.5,2.7c-0.4,0.3-1.6-0.3-2.8-1.8S30,118,30,118S31.4,118.6,32.8,119.8z"/>
	<path class="st0" d="M35.5,119.8c-1.2,1.2-1.6,2.5-1.1,2.7s1.5-0.4,2.5-1.9S38,118,38,118S36.7,118.6,35.5,119.8z"/>
	<path class="st0" d="M33.1,124.2c1.5,1.1,2.1,2.3,1.6,2.6c-0.4,0.3-1.6-0.2-2.8-1.7c-1.3-1.4-1.6-2.6-1.6-2.6S31.6,123,33.1,124.2z
		"/>
	<path class="st0" d="M35.8,124.1c-1.2,1.3-1.4,2.5-1,2.7c0.5,0.2,1.5-0.5,2.4-2s1-2.7,1-2.7S37,122.7,35.8,124.1z"/>
	<path class="st0" d="M33.7,128.5c1.5,1,2.2,2.2,1.8,2.5s-1.6-0.2-2.9-1.5c-1.4-1.3-1.7-2.5-1.7-2.5S32.1,127.5,33.7,128.5z"/>
	<path class="st0" d="M36.3,128.3c-1.1,1.3-1.3,2.6-0.8,2.8s1.4-0.6,2.3-2.2c0.8-1.6,0.8-2.7,0.8-2.7S37.4,126.9,36.3,128.3z"/>
	<path class="st0" d="M34.4,132.8c1.6,0.9,2.3,2.1,1.9,2.4c-0.4,0.3-1.6-0.1-3-1.3c-1.4-1.3-1.9-2.4-1.9-2.4S32.8,131.8,34.4,132.8z
		"/>
	<path class="st0" d="M37,132.4c-1,1.4-1.2,2.7-0.7,2.8c0.5,0.2,1.4-0.6,2.1-2.3c0.7-1.6,0.7-2.8,0.7-2.8S38.1,131,37,132.4z"/>
	<path class="st0" d="M35.4,137.1c1.6,0.9,2.4,2,2,2.3c-0.4,0.4-1.6,0-3.1-1.2s-2-2.3-2-2.3S33.8,136.2,35.4,137.1z"/>
	<path class="st0" d="M38,136.5c-0.9,1.5-1,2.7-0.5,2.9c0.5,0.1,1.4-0.7,2-2.4c0.7-1.7,0.5-2.8,0.5-2.8S39,135,38,136.5z"/>
	<path class="st0" d="M36.6,141.3c1.7,0.8,2.5,1.8,2.1,2.2c-0.3,0.4-1.6,0.1-3.1-1s-2.1-2.2-2.1-2.2S34.9,140.5,36.6,141.3z"/>
	<path class="st0" d="M39.2,140.6c-0.9,1.5-0.9,2.8-0.4,2.9c0.5,0.1,1.3-0.8,1.9-2.5c0.6-1.7,0.4-2.8,0.4-2.8S40.1,139.1,39.2,140.6
		z"/>
	<path class="st0" d="M38,145.4c1.7,0.7,2.6,1.7,2.3,2.1c-0.3,0.4-1.6,0.2-3.2-0.9c-1.6-1-2.2-2.1-2.2-2.1S36.3,144.7,38,145.4z"/>
	<path class="st0" d="M40.6,144.6c-0.8,1.5-0.7,2.8-0.2,2.9c0.5,0.1,1.3-0.9,1.8-2.6c0.5-1.7,0.2-2.8,0.2-2.8S41.4,143,40.6,144.6z"
		/>
	<path class="st0" d="M39.7,149.5c1.7,0.6,2.7,1.6,2.4,2s-1.6,0.3-3.2-0.7c-1.7-0.9-2.3-1.9-2.3-1.9S37.9,148.8,39.7,149.5z"/>
	<path class="st0" d="M42.2,148.5c-0.7,1.6-0.6,2.9-0.1,2.9c0.5,0.1,1.2-0.9,1.6-2.7c0.4-1.7,0.1-2.9,0.1-2.9S42.9,146.9,42.2,148.5
		z"/>
	<path class="st0" d="M41.5,153.4c1.8,0.5,2.7,1.4,2.5,1.9c-0.3,0.4-1.6,0.3-3.3-0.5c-1.7-0.9-2.4-1.8-2.4-1.8
		S39.7,152.9,41.5,153.4z"/>
	<path class="st0" d="M43.9,152.4c-0.6,1.6-0.4,2.9,0.1,2.9s1.2-1,1.5-2.8s-0.1-2.9-0.1-2.9S44.6,150.7,43.9,152.4z"/>
	<path class="st0" d="M43.6,157.3c1.8,0.4,2.8,1.3,2.6,1.7c-0.3,0.4-1.5,0.4-3.3-0.4c-1.7-0.8-2.5-1.7-2.5-1.7
		S41.7,156.9,43.6,157.3z"/>
	<path class="st0" d="M45.9,156.1c-0.5,1.6-0.3,2.9,0.2,2.9s1.1-1,1.3-2.8s-0.2-2.8-0.2-2.8S46.5,154.4,45.9,156.1z"/>
	<path class="st0" d="M45.8,161c1.8,0.3,2.9,1.1,2.6,1.6s-1.5,0.5-3.3-0.2s-2.6-1.6-2.6-1.6S44,160.7,45.8,161z"/>
	<path class="st0" d="M48.1,159.7c-0.4,1.7-0.1,2.9,0.4,2.9s1.1-1.1,1.2-2.9c0.1-1.8-0.4-2.8-0.4-2.8S48.6,158,48.1,159.7z"/>
	<path class="st0" d="M48.3,164.6c1.8,0.2,2.9,1,2.7,1.5s-1.5,0.6-3.3,0s-2.7-1.4-2.7-1.4S46.4,164.4,48.3,164.6z"/>
	<path class="st0" d="M50.5,163.2c-0.4,1.7,0,2.9,0.5,2.9c0.5-0.1,1-1.2,1-2.9c0-1.8-0.5-2.8-0.5-2.8S50.9,161.5,50.5,163.2z"/>
	<path class="st0" d="M50.9,168.1c1.8,0.1,3,0.8,2.8,1.3s-1.4,0.7-3.3,0.2c-1.8-0.5-2.8-1.3-2.8-1.3S49,168,50.9,168.1z"/>
	<path class="st0" d="M53.1,166.6c-0.3,1.7,0.2,2.9,0.7,2.8c0.5-0.1,0.9-1.2,0.9-3c-0.1-1.8-0.7-2.8-0.7-2.8S53.3,164.9,53.1,166.6z
		"/>
	<path class="st0" d="M53.7,171.5c1.8,0,3,0.7,2.9,1.2c-0.2,0.5-1.4,0.7-3.3,0.3c-1.9-0.4-2.8-1.1-2.8-1.1S51.8,171.5,53.7,171.5z"
		/>
	<path class="st0" d="M55.8,169.8c-0.2,1.7,0.3,2.9,0.8,2.8c0.5-0.1,0.9-1.3,0.7-3c-0.2-1.8-0.8-2.7-0.8-2.7S56,168.1,55.8,169.8z"
		/>
	<path class="st0" d="M56.7,174.7c1.8-0.1,3.1,0.5,2.9,1c-0.1,0.5-1.4,0.8-3.3,0.5c-1.9-0.3-2.9-1-2.9-1S54.8,174.7,56.7,174.7z"/>
	<path class="st0" d="M58.7,172.9c-0.1,1.7,0.5,2.9,1,2.7c0.5-0.1,0.8-1.3,0.6-3.1c-0.3-1.8-0.9-2.7-0.9-2.7S58.8,171.2,58.7,172.9z
		"/>
	<path class="st0" d="M59.8,177.7c1.8-0.2,3.1,0.4,3,0.9s-1.3,0.9-3.2,0.7s-2.9-0.8-2.9-0.8S58,177.9,59.8,177.7z"/>
	<path class="st0" d="M61.7,175.9c0,1.7,0.6,2.8,1.1,2.7c0.5-0.2,0.7-1.3,0.4-3.1c-0.4-1.8-1.1-2.6-1.1-2.6S61.7,174.1,61.7,175.9z"
		/>
	<path class="st0" d="M63.1,180.6c1.8-0.3,3.1,0.2,3,0.7s-1.3,0.9-3.2,0.8c-1.9-0.1-3-0.7-3-0.7S61.3,180.8,63.1,180.6z"/>
	<path class="st0" d="M64.9,178.6c0.1,1.7,0.8,2.8,1.2,2.6c0.5-0.2,0.7-1.4,0.2-3.1c-0.5-1.7-1.2-2.6-1.2-2.6S64.8,176.9,64.9,178.6
		z"/>
	<path class="st0" d="M66.6,183.3c1.8-0.3,3.1,0,3,0.5s-1.2,1-3.1,1s-3-0.5-3-0.5S64.7,183.6,66.6,183.3z"/>
	<path class="st0" d="M68.3,181.2c0.2,1.7,0.9,2.8,1.4,2.6s0.6-1.4,0.1-3.1c-0.5-1.7-1.4-2.5-1.4-2.5S68.1,179.5,68.3,181.2z"/>
	<path class="st0" d="M70.2,185.8c1.8-0.4,3.1-0.1,3.1,0.4s-1.2,1.1-3.1,1.2c-1.9,0.1-3-0.4-3-0.4S68.3,186.2,70.2,185.8z"/>
	<path class="st0" d="M71.7,183.7c0.3,1.7,1.1,2.7,1.5,2.5c0.5-0.2,0.5-1.4-0.1-3.1c-0.6-1.7-1.5-2.4-1.5-2.4S71.4,181.9,71.7,183.7
		z"/>
	<path class="st0" d="M73.9,188.1c1.8-0.5,3.1-0.3,3.1,0.2s-1.1,1.1-3,1.3s-3-0.2-3-0.2S72.1,188.7,73.9,188.1z"/>
	<path class="st0" d="M75.3,185.9c0.4,1.7,1.2,2.7,1.6,2.4s0.5-1.5-0.3-3.1c-0.7-1.6-1.6-2.4-1.6-2.4S75,184.2,75.3,185.9z"/>
	<path class="st0" d="M77.7,190.2c1.7-0.6,3.1-0.5,3.1,0.1c0,0.5-1.1,1.2-2.9,1.5c-1.9,0.3-3,0-3,0S75.9,190.9,77.7,190.2z"/>
	<path class="st0" d="M79,187.9c0.5,1.7,1.3,2.6,1.8,2.3c0.4-0.3,0.4-1.5-0.4-3.1s-1.7-2.3-1.7-2.3S78.6,186.2,79,187.9z"/>
	<path class="st0" d="M81.6,192.1c1.7-0.7,3-0.6,3.1-0.1s-1,1.2-2.9,1.6c-1.9,0.4-3,0.1-3,0.1S79.9,192.9,81.6,192.1z"/>
	<path class="st0" d="M82.8,189.8c0.5,1.6,1.5,2.5,1.9,2.2s0.3-1.5-0.6-3.1s-1.8-2.2-1.8-2.2S82.3,188.1,82.8,189.8z"/>
	<path class="st0" d="M85.6,193.8c1.7-0.8,3-0.8,3.1-0.3s-0.9,1.3-2.8,1.8c-1.8,0.5-3,0.3-3,0.3S84,194.7,85.6,193.8z"/>
	<path class="st0" d="M86.7,191.4c0.6,1.6,1.6,2.4,2,2.1c0.4-0.3,0.2-1.5-0.7-3c-1-1.5-2-2.1-2-2.1S86.1,189.8,86.7,191.4z"/>
	<path class="st0" d="M89.8,195.3c1.6-0.9,3-0.9,3.1-0.4s-0.9,1.3-2.7,1.9c-1.8,0.6-3,0.4-3,0.4S88.1,196.3,89.8,195.3z"/>
	<path class="st0" d="M90.7,192.9c0.7,1.6,1.7,2.3,2.1,2s0.1-1.5-0.9-3s-2.1-2-2.1-2S90,191.3,90.7,192.9z"/>
	<path class="st0" d="M93.9,196.6c1.6-1,2.9-1.1,3-0.6s-0.8,1.4-2.6,2.1c-1.8,0.7-3,0.6-3,0.6S92.3,197.6,93.9,196.6z"/>
	<path class="st0" d="M94.8,194.1c0.8,1.5,1.8,2.3,2.2,1.9c0.4-0.4,0.1-1.5-1.1-2.9c-1.1-1.4-2.2-1.9-2.2-1.9S94,192.5,94.8,194.1z"
		/>
	<path class="st0" d="M98.2,197.7c1.5-1,2.8-1.2,3-0.7s-0.7,1.4-2.5,2.2c-1.7,0.8-2.9,0.7-2.9,0.7S96.6,198.8,98.2,197.7z"/>
	<path class="st0" d="M98.9,195.1c0.9,1.5,2,2.2,2.3,1.8s0-1.5-1.2-2.9c-1.2-1.3-2.3-1.7-2.3-1.7S98,193.6,98.9,195.1z"/>
	<path class="st0" d="M102.5,198.5c1.4-1.1,2.8-1.4,3-0.9s-0.6,1.5-2.3,2.3c-1.7,0.9-2.9,0.9-2.9,0.9S101,199.7,102.5,198.5z"/>
	<path class="st0" d="M103,195.9c0.9,1.4,2.1,2,2.4,1.6s-0.1-1.5-1.4-2.8s-2.3-1.6-2.3-1.6S102.1,194.5,103,195.9z"/>
	<path class="st0" d="M106.8,199.1c1.4-1.2,2.7-1.5,2.9-1.1c0.2,0.5-0.6,1.5-2.2,2.4c-1.6,1-2.9,1-2.9,1S105.4,200.4,106.8,199.1z"
		/>
	<path class="st0" d="M107.2,196.5c1,1.4,2.2,1.9,2.5,1.5s-0.2-1.5-1.5-2.7s-2.4-1.5-2.4-1.5S106.2,195.1,107.2,196.5z"/>
	<path class="st0" d="M111.1,199.5c1.3-1.3,2.6-1.7,2.8-1.2c0.2,0.5-0.5,1.5-2.1,2.6c-1.6,1-2.8,1.2-2.8,1.2
		S109.8,200.8,111.1,199.5z"/>
	<path class="st0" d="M111.4,196.9c1.1,1.3,2.3,1.8,2.6,1.4c0.3-0.4-0.3-1.5-1.6-2.7c-1.4-1.1-2.5-1.4-2.5-1.4
		S110.3,195.5,111.4,196.9z"/>
	<path class="st0" d="M95.3,35.3c-0.9,1.6-2,2.4-2.3,2c-0.4-0.4,0-1.6,1.2-3.1s2.3-2,2.3-2S96.2,33.7,95.3,35.3z"/>
	<path class="st0" d="M95.9,37.9c-1.5-0.9-2.7-1-2.9-0.5c-0.1,0.5,0.7,1.4,2.4,2c1.7,0.7,2.8,0.5,2.8,0.5S97.4,38.9,95.9,37.9z"/>
	<path class="st0" d="M91.1,36.5c-0.8,1.7-1.8,2.5-2.2,2.1c-0.4-0.3-0.1-1.6,1-3.1s2.2-2.1,2.2-2.1S91.9,34.8,91.1,36.5z"/>
	<path class="st0" d="M91.8,39.1c-1.5-0.9-2.8-0.9-2.9-0.4s0.8,1.3,2.5,1.9c1.7,0.6,2.8,0.4,2.8,0.4S93.3,40,91.8,39.1z"/>
	<path class="st0" d="M87,38c-0.7,1.7-1.7,2.6-2.1,2.3s-0.2-1.6,0.9-3.2c1-1.6,2.1-2.2,2.1-2.2S87.7,36.2,87,38z"/>
	<path class="st0" d="M87.8,40.5c-1.5-0.8-2.8-0.7-2.9-0.2s0.9,1.3,2.6,1.8s2.8,0.2,2.8,0.2S89.4,41.3,87.8,40.5z"/>
	<path class="st0" d="M83,39.6c-0.6,1.7-1.6,2.7-2,2.4s-0.3-1.6,0.7-3.2c0.9-1.7,1.9-2.3,1.9-2.3S83.6,37.8,83,39.6z"/>
	<path class="st0" d="M83.9,42.1C82.3,41.4,81,41.5,81,42c-0.1,0.5,0.9,1.2,2.7,1.6c1.7,0.4,2.9,0.1,2.9,0.1S85.5,42.8,83.9,42.1z"
		/>
	<path class="st0" d="M79,41.5c-0.5,1.8-1.4,2.7-1.9,2.5c-0.4-0.3-0.3-1.6,0.5-3.3c0.9-1.7,1.8-2.4,1.8-2.4S79.5,39.6,79,41.5z"/>
	<path class="st0" d="M80.1,43.9c-1.6-0.6-2.9-0.4-2.9,0.1s1,1.2,2.8,1.5s2.9-0.1,2.9-0.1S81.7,44.5,80.1,43.9z"/>
	<path class="st0" d="M75.1,43.5c-0.4,1.8-1.3,2.8-1.7,2.6c-0.4-0.3-0.4-1.5,0.4-3.3s1.7-2.5,1.7-2.5S75.6,41.7,75.1,43.5z"/>
	<path class="st0" d="M76.3,45.9c-1.6-0.5-2.9-0.3-2.9,0.2s1,1.1,2.8,1.3s2.8-0.2,2.8-0.2S78,46.4,76.3,45.9z"/>
	<path class="st0" d="M71.4,45.8c-0.3,1.8-1.1,2.9-1.6,2.6c-0.5-0.2-0.5-1.5,0.2-3.3s1.6-2.6,1.6-2.6S71.7,43.9,71.4,45.8z"/>
	<path class="st0" d="M72.7,48.1c-1.7-0.4-2.9-0.1-2.9,0.4s1.1,1.1,2.9,1.2c1.8,0.1,2.8-0.4,2.8-0.4S74.4,48.5,72.7,48.1z"/>
	<path class="st0" d="M67.8,48.2c-0.2,1.8-1,2.9-1.5,2.7s-0.6-1.5,0-3.3s1.4-2.7,1.4-2.7S68,46.3,67.8,48.2z"/>
	<path class="st0" d="M69.2,50.4c-1.7-0.4-2.9,0-2.9,0.5s1.2,1,2.9,1c1.8,0,2.8-0.5,2.8-0.5S70.9,50.8,69.2,50.4z"/>
	<path class="st0" d="M64.3,50.8c-0.1,1.8-0.8,3-1.3,2.8s-0.7-1.4-0.2-3.3c0.5-1.8,1.3-2.8,1.3-2.8S64.4,49,64.3,50.8z"/>
	<path class="st0" d="M65.8,53c-1.7-0.3-2.9,0.2-2.8,0.7c0.1,0.5,1.2,0.9,3,0.9c1.8-0.1,2.8-0.7,2.8-0.7S67.6,53.2,65.8,53z"/>
	<path class="st0" d="M60.9,53.6c0,1.8-0.7,3-1.2,2.9c-0.5-0.2-0.7-1.4-0.3-3.3c0.4-1.9,1.1-2.8,1.1-2.8S61,51.8,60.9,53.6z"/>
	<path class="st0" d="M62.6,55.7c-1.7-0.2-2.9,0.3-2.8,0.8s1.3,0.9,3,0.7c1.8-0.2,2.7-0.8,2.7-0.8S64.3,55.9,62.6,55.7z"/>
	<path class="st0" d="M57.7,56.6c0.1,1.8-0.5,3.1-1,2.9c-0.5-0.1-0.8-1.4-0.5-3.3c0.3-1.9,1-2.9,1-2.9S57.7,54.7,57.7,56.6z"/>
	<path class="st0" d="M59.5,58.6c-1.7-0.1-2.9,0.5-2.7,1c0.1,0.5,1.3,0.8,3.1,0.6c1.8-0.3,2.7-0.9,2.7-0.9S61.3,58.7,59.5,58.6z"/>
	<path class="st0" d="M54.7,59.8c0.2,1.8-0.4,3.1-0.9,3s-0.9-1.3-0.7-3.2s0.8-2.9,0.8-2.9S54.5,57.9,54.7,59.8z"/>
	<path class="st0" d="M56.5,61.6c-1.7,0-2.8,0.6-2.7,1.1c0.2,0.5,1.3,0.7,3.1,0.4c1.8-0.4,2.6-1.1,2.6-1.1S58.3,61.6,56.5,61.6z"/>
	<path class="st0" d="M51.8,63.1c0.3,1.8-0.2,3.1-0.7,3s-0.9-1.3-0.8-3.2c0.1-1.9,0.7-3,0.7-3S51.6,61.2,51.8,63.1z"/>
	<path class="st0" d="M53.8,64.8c-1.7,0.1-2.8,0.8-2.6,1.2c0.2,0.5,1.4,0.7,3.1,0.2c1.7-0.5,2.6-1.2,2.6-1.2S55.5,64.7,53.8,64.8z"
		/>
	<path class="st0" d="M49.1,66.5c0.3,1.8,0,3.1-0.5,3s-1-1.2-1-3.1s0.5-3,0.5-3S48.8,64.7,49.1,66.5z"/>
	<path class="st0" d="M51.2,68.2c-1.7,0.2-2.8,0.9-2.6,1.4s1.4,0.6,3.1,0.1c1.7-0.5,2.5-1.4,2.5-1.4S52.9,68,51.2,68.2z"/>
	<path class="st0" d="M46.6,70.1c0.4,1.8,0.1,3.1-0.4,3.1S45.1,72,45,70.1s0.4-3,0.4-3S46.2,68.3,46.6,70.1z"/>
	<path class="st0" d="M48.8,71.7c-1.7,0.3-2.7,1.1-2.5,1.5c0.2,0.5,1.4,0.5,3.1-0.1c1.7-0.6,2.4-1.5,2.4-1.5S50.5,71.4,48.8,71.7z"
		/>
	<path class="st0" d="M44.3,73.8c0.5,1.8,0.3,3.1-0.2,3.1s-1.1-1.1-1.3-3s0.2-3,0.2-3S43.8,72,44.3,73.8z"/>
	<path class="st0" d="M46.5,75.2c-1.7,0.4-2.7,1.2-2.4,1.6s1.5,0.5,3.1-0.3c1.6-0.7,2.4-1.6,2.4-1.6S48.2,74.9,46.5,75.2z"/>
	<path class="st0" d="M42.2,77.6c0.6,1.7,0.5,3.1-0.1,3.1c-0.5,0-1.2-1.1-1.5-2.9c-0.3-1.9,0-3,0-3S41.6,75.8,42.2,77.6z"/>
	<path class="st0" d="M44.5,79c-1.7,0.5-2.6,1.3-2.3,1.8c0.3,0.4,1.5,0.4,3.1-0.4s2.3-1.7,2.3-1.7S46.2,78.5,44.5,79z"/>
	<path class="st0" d="M40.3,81.5c0.7,1.7,0.6,3,0.1,3.1s-1.2-1-1.6-2.9c-0.4-1.9-0.1-3-0.1-3S39.5,79.8,40.3,81.5z"/>
	<path class="st0" d="M42.6,82.8c-1.6,0.5-2.5,1.5-2.2,1.9s1.5,0.3,3.1-0.6s2.2-1.8,2.2-1.8S44.3,82.2,42.6,82.8z"/>
	<path class="st0" d="M38.6,85.6c0.8,1.7,0.8,3,0.3,3.1s-1.3-0.9-1.8-2.8c-0.5-1.8-0.3-3-0.3-3S37.7,83.9,38.6,85.6z"/>
	<path class="st0" d="M41,86.7c-1.6,0.6-2.4,1.6-2.1,2c0.3,0.4,1.5,0.2,3-0.7c1.5-1,2.1-2,2.1-2S42.6,86,41,86.7z"/>
	<path class="st0" d="M37.1,89.7c0.9,1.6,0.9,3,0.4,3.1s-1.3-0.9-1.9-2.7c-0.6-1.8-0.4-3-0.4-3S36.2,88,37.1,89.7z"/>
	<path class="st0" d="M39.5,90.6c-1.6,0.7-2.3,1.7-2,2.1s1.5,0.1,3-0.9s2-2.1,2-2.1S41.1,89.9,39.5,90.6z"/>
	<path class="st0" d="M35.8,93.9c1,1.6,1.1,2.9,0.6,3s-1.4-0.8-2.1-2.6c-0.7-1.8-0.6-3-0.6-3S34.8,92.3,35.8,93.9z"/>
	<path class="st0" d="M38.3,94.7c-1.5,0.8-2.3,1.8-1.9,2.2c0.4,0.4,1.5,0.1,2.9-1.1c1.4-1.1,1.9-2.2,1.9-2.2S39.9,93.9,38.3,94.7z"
		/>
	<path class="st0" d="M34.7,98.1c1,1.5,1.2,2.8,0.7,3s-1.4-0.7-2.2-2.5s-0.7-2.9-0.7-2.9S33.7,96.6,34.7,98.1z"/>
	<path class="st0" d="M37.3,98.8c-1.5,0.9-2.2,2-1.8,2.3s1.5,0,2.9-1.2c1.3-1.2,1.7-2.3,1.7-2.3S38.8,97.9,37.3,98.8z"/>
	<path class="st0" d="M33.9,102.4c1.1,1.4,1.4,2.8,0.9,3s-1.5-0.6-2.3-2.3c-0.9-1.7-0.9-2.9-0.9-2.9S32.7,100.9,33.9,102.4z"/>
	<path class="st0" d="M36.5,103c-1.4,0.9-2,2.1-1.6,2.4s1.5-0.1,2.8-1.4s1.6-2.3,1.6-2.3S38,102,36.5,103z"/>
	<path class="st0" d="M33.3,106.7c1.2,1.4,1.5,2.7,1.1,2.9c-0.5,0.2-1.5-0.6-2.4-2.2c-1-1.6-1-2.9-1-2.9S32.1,105.3,33.3,106.7z"/>
	<path class="st0" d="M35.9,107.1c-1.4,1-1.9,2.2-1.5,2.5s1.5-0.2,2.7-1.5s1.5-2.4,1.5-2.4S37.3,106.1,35.9,107.1z"/>
	<path class="st0" d="M32.9,111.1c1.3,1.3,1.7,2.6,1.2,2.8c-0.5,0.2-1.5-0.5-2.6-2.1s-1.2-2.8-1.2-2.8S31.6,109.7,32.9,111.1z"/>
	<path class="st0" d="M35.5,111.4c-1.3,1.1-1.8,2.3-1.4,2.6c0.4,0.3,1.5-0.3,2.7-1.6c1.1-1.4,1.4-2.5,1.4-2.5S36.9,110.2,35.5,111.4
		z"/>
	<path class="st0" d="M199.6,115.4c-1.3,1.3-1.8,2.5-1.4,2.8s1.5-0.4,2.7-1.9c1.1-1.5,1.3-2.7,1.3-2.7S201,114.2,199.6,115.4z"/>
	<path class="st0" d="M197,115.6c1.3,1.2,1.7,2.4,1.3,2.6c-0.4,0.3-1.5-0.3-2.6-1.8c-1.1-1.4-1.2-2.6-1.2-2.6S195.7,114.4,197,115.6
		z"/>
	<path class="st0" d="M199.6,119.8c-1.4,1.2-1.9,2.4-1.5,2.7c0.4,0.3,1.6-0.3,2.8-1.8s1.5-2.7,1.5-2.7S201,118.6,199.6,119.8z"/>
	<path class="st0" d="M196.9,119.8c1.2,1.2,1.6,2.5,1.1,2.7s-1.5-0.4-2.5-1.9s-1.1-2.6-1.1-2.6S195.7,118.6,196.9,119.8z"/>
	<path class="st0" d="M199.3,124.2c-1.5,1.1-2.1,2.3-1.6,2.6s1.6-0.2,2.8-1.7c1.3-1.4,1.6-2.6,1.6-2.6S200.8,123,199.3,124.2z"/>
	<path class="st0" d="M196.6,124.1c1.2,1.3,1.4,2.5,1,2.7c-0.5,0.2-1.5-0.5-2.4-2s-1-2.7-1-2.7S195.4,122.7,196.6,124.1z"/>
	<path class="st0" d="M198.7,128.5c-1.5,1-2.2,2.2-1.8,2.5s1.6-0.2,2.9-1.5c1.4-1.3,1.7-2.5,1.7-2.5S200.3,127.5,198.7,128.5z"/>
	<path class="st0" d="M196.1,128.3c1.1,1.3,1.3,2.6,0.8,2.8s-1.4-0.6-2.3-2.2c-0.8-1.6-0.8-2.7-0.8-2.7S195,126.9,196.1,128.3z"/>
	<path class="st0" d="M198,132.8c-1.6,0.9-2.3,2.1-1.9,2.4c0.4,0.3,1.6-0.1,3-1.3c1.4-1.3,1.9-2.4,1.9-2.4S199.6,131.8,198,132.8z"
		/>
	<path class="st0" d="M195.3,132.4c1,1.4,1.2,2.7,0.7,2.8c-0.5,0.2-1.4-0.6-2.1-2.3s-0.7-2.8-0.7-2.8S194.3,131,195.3,132.4z"/>
	<path class="st0" d="M197,137.1c-1.6,0.9-2.4,2-2,2.3c0.4,0.4,1.6,0,3.1-1.2s2-2.3,2-2.3S198.6,136.2,197,137.1z"/>
	<path class="st0" d="M194.4,136.5c0.9,1.5,1,2.7,0.5,2.9c-0.5,0.1-1.4-0.7-2-2.4c-0.7-1.7-0.5-2.8-0.5-2.8S193.4,135,194.4,136.5z"
		/>
	<path class="st0" d="M195.8,141.3c-1.7,0.8-2.5,1.8-2.1,2.2c0.3,0.4,1.6,0.1,3.1-1s2.1-2.2,2.1-2.2S197.5,140.5,195.8,141.3z"/>
	<path class="st0" d="M193.2,140.6c0.9,1.5,0.9,2.8,0.4,2.9c-0.5,0.1-1.3-0.8-1.9-2.5s-0.4-2.8-0.4-2.8S192.3,139.1,193.2,140.6z"/>
	<path class="st0" d="M194.3,145.4c-1.7,0.7-2.6,1.7-2.3,2.1c0.3,0.4,1.6,0.2,3.2-0.9c1.6-1,2.2-2.1,2.2-2.1
		S196.1,144.7,194.3,145.4z"/>
	<path class="st0" d="M191.8,144.6c0.8,1.5,0.7,2.8,0.2,2.9c-0.5,0.1-1.3-0.9-1.8-2.6c-0.5-1.7-0.2-2.8-0.2-2.8S191,143,191.8,144.6
		z"/>
	<path class="st0" d="M192.7,149.5c-1.7,0.6-2.7,1.6-2.4,2s1.6,0.3,3.2-0.7c1.7-0.9,2.3-1.9,2.3-1.9S194.5,148.8,192.7,149.5z"/>
	<path class="st0" d="M190.2,148.5c0.7,1.6,0.6,2.9,0.1,2.9c-0.5,0.1-1.2-0.9-1.6-2.7c-0.4-1.7-0.1-2.9-0.1-2.9
		S189.5,146.9,190.2,148.5z"/>
	<path class="st0" d="M190.9,153.4c-1.8,0.5-2.7,1.4-2.5,1.9c0.3,0.4,1.6,0.3,3.3-0.5c1.7-0.9,2.4-1.8,2.4-1.8
		S192.7,152.9,190.9,153.4z"/>
	<path class="st0" d="M188.4,152.4c0.6,1.6,0.4,2.9-0.1,2.9s-1.2-1-1.5-2.8s0.1-2.9,0.1-2.9S187.8,150.7,188.4,152.4z"/>
	<path class="st0" d="M188.8,157.3c-1.8,0.4-2.8,1.3-2.6,1.7c0.3,0.4,1.5,0.4,3.3-0.4c1.7-0.8,2.5-1.7,2.5-1.7
		S190.6,156.9,188.8,157.3z"/>
	<path class="st0" d="M186.5,156.1c0.5,1.6,0.3,2.9-0.2,2.9s-1.1-1-1.3-2.8s0.2-2.8,0.2-2.8S185.9,154.4,186.5,156.1z"/>
	<path class="st0" d="M186.6,161c-1.8,0.3-2.9,1.1-2.6,1.6s1.5,0.5,3.3-0.2s2.6-1.6,2.6-1.6S188.4,160.7,186.6,161z"/>
	<path class="st0" d="M184.3,159.7c0.4,1.7,0.1,2.9-0.4,2.9s-1.1-1.1-1.2-2.9c-0.1-1.8,0.4-2.8,0.4-2.8S183.8,158,184.3,159.7z"/>
	<path class="st0" d="M184.1,164.6c-1.8,0.2-2.9,1-2.7,1.5s1.5,0.6,3.3,0s2.7-1.4,2.7-1.4S186,164.4,184.1,164.6z"/>
	<path class="st0" d="M181.9,163.2c0.4,1.7,0,2.9-0.5,2.9c-0.5-0.1-1-1.2-1-2.9c0-1.8,0.5-2.8,0.5-2.8S181.5,161.5,181.9,163.2z"/>
	<path class="st0" d="M181.5,168.1c-1.8,0.1-3,0.8-2.8,1.3s1.4,0.7,3.3,0.2c1.8-0.5,2.8-1.3,2.8-1.3S183.4,168,181.5,168.1z"/>
	<path class="st0" d="M179.3,166.6c0.3,1.7-0.2,2.9-0.7,2.8c-0.5-0.1-0.9-1.2-0.9-3c0.1-1.8,0.7-2.8,0.7-2.8
		S179.1,164.9,179.3,166.6z"/>
	<path class="st0" d="M178.7,171.5c-1.8,0-3,0.7-2.9,1.2c0.2,0.5,1.4,0.7,3.3,0.3c1.9-0.4,2.8-1.1,2.8-1.1S180.6,171.5,178.7,171.5z
		"/>
	<path class="st0" d="M176.6,169.8c0.2,1.7-0.3,2.9-0.8,2.8c-0.5-0.1-0.9-1.3-0.7-3c0.2-1.8,0.8-2.7,0.8-2.7
		S176.4,168.1,176.6,169.8z"/>
	<path class="st0" d="M175.7,174.7c-1.8-0.1-3.1,0.5-2.9,1c0.1,0.5,1.4,0.8,3.3,0.5c1.9-0.3,2.9-1,2.9-1S177.6,174.7,175.7,174.7z"
		/>
	<path class="st0" d="M173.7,172.9c0.1,1.7-0.5,2.9-1,2.7c-0.5-0.1-0.8-1.3-0.6-3.1c0.3-1.8,0.9-2.7,0.9-2.7
		S173.6,171.2,173.7,172.9z"/>
	<path class="st0" d="M172.6,177.7c-1.8-0.2-3.1,0.4-3,0.9s1.3,0.9,3.2,0.7s2.9-0.8,2.9-0.8S174.4,177.9,172.6,177.7z"/>
	<path class="st0" d="M170.7,175.9c0,1.7-0.6,2.8-1.1,2.7c-0.5-0.2-0.7-1.3-0.4-3.1c0.4-1.8,1.1-2.6,1.1-2.6
		S170.7,174.1,170.7,175.9z"/>
	<path class="st0" d="M169.3,180.6c-1.8-0.3-3.1,0.2-3,0.7s1.3,0.9,3.2,0.8c1.9-0.1,3-0.7,3-0.7S171.1,180.8,169.3,180.6z"/>
	<path class="st0" d="M167.5,178.6c-0.1,1.7-0.8,2.8-1.2,2.6c-0.5-0.2-0.7-1.4-0.2-3.1c0.5-1.7,1.2-2.6,1.2-2.6
		S167.6,176.9,167.5,178.6z"/>
	<path class="st0" d="M165.8,183.3c-1.8-0.3-3.1,0-3,0.5s1.2,1,3.1,1c1.9,0,3-0.5,3-0.5S167.7,183.6,165.8,183.3z"/>
	<path class="st0" d="M164.1,181.2c-0.2,1.7-0.9,2.8-1.4,2.6s-0.6-1.4-0.1-3.1c0.5-1.7,1.4-2.5,1.4-2.5S164.3,179.5,164.1,181.2z"/>
	<path class="st0" d="M162.2,185.8c-1.8-0.4-3.1-0.1-3.1,0.4s1.2,1.1,3.1,1.2c1.9,0.1,3-0.4,3-0.4S164.1,186.2,162.2,185.8z"/>
	<path class="st0" d="M160.7,183.7c-0.3,1.7-1.1,2.7-1.5,2.5c-0.5-0.2-0.5-1.4,0.1-3.1c0.6-1.7,1.5-2.4,1.5-2.4
		S160.9,181.9,160.7,183.7z"/>
	<path class="st0" d="M158.5,188.1c-1.8-0.5-3.1-0.3-3.1,0.2s1.1,1.1,3,1.3s3-0.2,3-0.2S160.3,188.7,158.5,188.1z"/>
	<path class="st0" d="M157.1,185.9c-0.4,1.7-1.2,2.7-1.6,2.4c-0.4-0.3-0.5-1.5,0.3-3.1c0.7-1.6,1.6-2.4,1.6-2.4
		S157.4,184.2,157.1,185.9z"/>
	<path class="st0" d="M154.7,190.2c-1.7-0.6-3.1-0.5-3.1,0.1c0,0.5,1.1,1.2,2.9,1.5c1.9,0.3,3,0,3,0S156.5,190.9,154.7,190.2z"/>
	<path class="st0" d="M153.4,187.9c-0.5,1.7-1.3,2.6-1.8,2.3c-0.4-0.3-0.4-1.5,0.4-3.1c0.8-1.6,1.7-2.3,1.7-2.3
		S153.8,186.2,153.4,187.9z"/>
	<path class="st0" d="M150.8,192.1c-1.7-0.7-3-0.6-3.1-0.1s1,1.2,2.9,1.6c1.9,0.4,3,0.1,3,0.1S152.5,192.9,150.8,192.1z"/>
	<path class="st0" d="M149.6,189.8c-0.5,1.6-1.5,2.5-1.9,2.2s-0.3-1.5,0.6-3.1c0.9-1.6,1.8-2.2,1.8-2.2S150.1,188.1,149.6,189.8z"/>
	<path class="st0" d="M146.7,193.8c-1.7-0.8-3-0.8-3.1-0.3s0.9,1.3,2.8,1.8c1.8,0.5,3,0.3,3,0.3S148.4,194.7,146.7,193.8z"/>
	<path class="st0" d="M145.7,191.4c-0.6,1.6-1.6,2.4-2,2.1c-0.4-0.3-0.2-1.5,0.7-3c1-1.5,2-2.1,2-2.1S146.3,189.8,145.7,191.4z"/>
	<path class="st0" d="M142.6,195.3c-1.6-0.9-3-0.9-3.1-0.4s0.9,1.3,2.7,1.9c1.8,0.6,3,0.4,3,0.4S144.3,196.3,142.6,195.3z"/>
	<path class="st0" d="M141.7,192.9c-0.7,1.6-1.7,2.3-2.1,2c-0.4-0.3-0.1-1.5,0.9-3s2.1-2,2.1-2S142.4,191.3,141.7,192.9z"/>
	<path class="st0" d="M138.5,196.6c-1.6-1-2.9-1.1-3-0.6s0.8,1.4,2.6,2.1c1.8,0.7,3,0.6,3,0.6S140.1,197.6,138.5,196.6z"/>
	<path class="st0" d="M137.6,194.1c-0.8,1.5-1.8,2.3-2.2,1.9c-0.4-0.4-0.1-1.5,1.1-2.9c1.1-1.4,2.2-1.9,2.2-1.9
		S138.4,192.5,137.6,194.1z"/>
	<path class="st0" d="M134.2,197.7c-1.5-1-2.8-1.2-3-0.7s0.7,1.4,2.5,2.2c1.7,0.8,2.9,0.7,2.9,0.7S135.8,198.8,134.2,197.7z"/>
	<path class="st0" d="M133.5,195.1c-0.9,1.5-2,2.2-2.3,1.8s0-1.5,1.2-2.9c1.2-1.3,2.3-1.7,2.3-1.7S134.4,193.6,133.5,195.1z"/>
	<path class="st0" d="M129.9,198.5c-1.4-1.1-2.8-1.4-3-0.9s0.6,1.5,2.3,2.3c1.7,0.9,2.9,0.9,2.9,0.9S131.4,199.7,129.9,198.5z"/>
	<path class="st0" d="M129.4,195.9c-0.9,1.4-2.1,2-2.4,1.6s0.1-1.5,1.4-2.8s2.3-1.6,2.3-1.6S130.3,194.5,129.4,195.9z"/>
	<path class="st0" d="M125.6,199.1c-1.4-1.2-2.7-1.5-2.9-1.1c-0.2,0.5,0.6,1.5,2.2,2.4c1.6,1,2.9,1,2.9,1S127,200.4,125.6,199.1z"/>
	<path class="st0" d="M125.2,196.5c-1,1.4-2.2,1.9-2.5,1.5s0.2-1.5,1.5-2.7s2.4-1.5,2.4-1.5S126.2,195.1,125.2,196.5z"/>
	<path class="st0" d="M121.2,199.5c-1.3-1.3-2.6-1.7-2.8-1.2c-0.2,0.5,0.5,1.5,2.1,2.6c1.6,1,2.8,1.2,2.8,1.2
		S122.6,200.8,121.2,199.5z"/>
	<path class="st0" d="M121,196.9c-1.1,1.3-2.3,1.8-2.6,1.4c-0.3-0.4,0.3-1.5,1.6-2.7c1.4-1.1,2.5-1.4,2.5-1.4S122.1,195.5,121,196.9
		z"/>
	<path class="st0" d="M137,35.3c0.9,1.6,2,2.4,2.3,2c0.4-0.4,0-1.6-1.2-3.1s-2.3-2-2.3-2S136.2,33.7,137,35.3z"/>
	<path class="st0" d="M136.5,37.9c1.5-0.9,2.7-1,2.9-0.5c0.1,0.5-0.7,1.4-2.4,2c-1.7,0.7-2.8,0.5-2.8,0.5S135,38.9,136.5,37.9z"/>
	<path class="st0" d="M141.2,36.5c0.8,1.7,1.8,2.5,2.2,2.1c0.4-0.3,0.1-1.6-1-3.1s-2.2-2.1-2.2-2.1S140.5,34.8,141.2,36.5z"/>
	<path class="st0" d="M140.6,39.1c1.5-0.9,2.8-0.9,2.9-0.4c0.1,0.5-0.8,1.3-2.5,1.9c-1.7,0.6-2.8,0.4-2.8,0.4S139,40,140.6,39.1z"/>
	<path class="st0" d="M145.4,38c0.7,1.7,1.7,2.6,2.1,2.3c0.4-0.3,0.2-1.6-0.9-3.2c-1-1.6-2.1-2.2-2.1-2.2S144.7,36.2,145.4,38z"/>
	<path class="st0" d="M144.6,40.5c1.5-0.8,2.8-0.7,2.9-0.2s-0.9,1.3-2.6,1.8c-1.7,0.5-2.8,0.2-2.8,0.2S143,41.3,144.6,40.5z"/>
	<path class="st0" d="M149.4,39.6c0.6,1.7,1.6,2.7,2,2.4s0.3-1.6-0.7-3.2c-0.9-1.7-1.9-2.3-1.9-2.3S148.8,37.8,149.4,39.6z"/>
	<path class="st0" d="M148.5,42.1c1.6-0.7,2.9-0.6,2.9-0.1c0.1,0.5-0.9,1.2-2.7,1.6c-1.7,0.4-2.9,0.1-2.9,0.1S146.9,42.8,148.5,42.1
		z"/>
	<path class="st0" d="M153.4,41.5c0.5,1.8,1.4,2.7,1.9,2.5c0.4-0.3,0.3-1.6-0.5-3.3c-0.9-1.7-1.8-2.4-1.8-2.4S152.9,39.6,153.4,41.5
		z"/>
	<path class="st0" d="M152.3,43.9c1.6-0.6,2.9-0.4,2.9,0.1s-1,1.2-2.8,1.5s-2.9-0.1-2.9-0.1S150.7,44.5,152.3,43.9z"/>
	<path class="st0" d="M157.3,43.5c0.4,1.8,1.3,2.8,1.7,2.6c0.4-0.3,0.4-1.5-0.4-3.3c-0.8-1.7-1.7-2.5-1.7-2.5S156.8,41.7,157.3,43.5
		z"/>
	<path class="st0" d="M156.1,45.9c1.6-0.5,2.9-0.3,2.9,0.2s-1,1.1-2.8,1.3s-2.8-0.2-2.8-0.2S154.4,46.4,156.1,45.9z"/>
	<path class="st0" d="M161,45.8c0.3,1.8,1.1,2.9,1.6,2.6c0.5-0.2,0.5-1.5-0.2-3.3s-1.6-2.6-1.6-2.6S160.7,43.9,161,45.8z"/>
	<path class="st0" d="M159.7,48.1c1.7-0.4,2.9-0.1,2.9,0.4s-1.1,1.1-2.9,1.2c-1.8,0.1-2.8-0.4-2.8-0.4S158,48.5,159.7,48.1z"/>
	<path class="st0" d="M164.6,48.2c0.2,1.8,1,2.9,1.5,2.7s0.6-1.5,0-3.3s-1.4-2.7-1.4-2.7S164.4,46.3,164.6,48.2z"/>
	<path class="st0" d="M163.2,50.4c1.7-0.4,2.9,0,2.9,0.5s-1.2,1-2.9,1c-1.8,0-2.8-0.5-2.8-0.5S161.5,50.8,163.2,50.4z"/>
	<path class="st0" d="M168.1,50.8c0.1,1.8,0.8,3,1.3,2.8s0.7-1.4,0.2-3.3c-0.5-1.8-1.3-2.8-1.3-2.8S168,49,168.1,50.8z"/>
	<path class="st0" d="M166.6,53c1.7-0.3,2.9,0.2,2.8,0.7c-0.1,0.5-1.2,0.9-3,0.9c-1.8-0.1-2.8-0.7-2.8-0.7S164.8,53.2,166.6,53z"/>
	<path class="st0" d="M171.5,53.6c0,1.8,0.7,3,1.2,2.9s0.7-1.4,0.3-3.3c-0.4-1.9-1.1-2.8-1.1-2.8S171.4,51.8,171.5,53.6z"/>
	<path class="st0" d="M169.8,55.7c1.7-0.2,2.9,0.3,2.8,0.8s-1.3,0.9-3,0.7c-1.8-0.2-2.7-0.8-2.7-0.8S168.1,55.9,169.8,55.7z"/>
	<path class="st0" d="M174.7,56.6c-0.1,1.8,0.5,3.1,1,2.9c0.5-0.1,0.8-1.4,0.5-3.3c-0.3-1.9-1-2.9-1-2.9S174.7,54.7,174.7,56.6z"/>
	<path class="st0" d="M172.9,58.6c1.7-0.1,2.9,0.5,2.7,1c-0.1,0.5-1.3,0.8-3.1,0.6c-1.8-0.3-2.7-0.9-2.7-0.9S171.1,58.7,172.9,58.6z
		"/>
	<path class="st0" d="M177.7,59.8c-0.2,1.8,0.4,3.1,0.9,3s0.9-1.3,0.7-3.2s-0.8-2.9-0.8-2.9S177.9,57.9,177.7,59.8z"/>
	<path class="st0" d="M175.8,61.6c1.7,0,2.8,0.6,2.7,1.1c-0.2,0.5-1.3,0.7-3.1,0.4c-1.8-0.4-2.6-1.1-2.6-1.1S174.1,61.6,175.8,61.6z
		"/>
	<path class="st0" d="M180.6,63.1c-0.3,1.8,0.2,3.1,0.7,3s0.9-1.3,0.8-3.2c-0.1-1.9-0.7-3-0.7-3S180.8,61.2,180.6,63.1z"/>
	<path class="st0" d="M178.6,64.8c1.7,0.1,2.8,0.8,2.6,1.2c-0.2,0.5-1.4,0.7-3.1,0.2c-1.7-0.5-2.6-1.2-2.6-1.2
		S176.8,64.7,178.6,64.8z"/>
	<path class="st0" d="M183.3,66.5c-0.3,1.8,0,3.1,0.5,3s1-1.2,1-3.1s-0.5-3-0.5-3S183.6,64.7,183.3,66.5z"/>
	<path class="st0" d="M181.2,68.2c1.7,0.2,2.8,0.9,2.6,1.4s-1.4,0.6-3.1,0.1c-1.7-0.5-2.5-1.4-2.5-1.4S179.5,68,181.2,68.2z"/>
	<path class="st0" d="M185.8,70.1c-0.4,1.8-0.1,3.1,0.4,3.1s1.1-1.2,1.2-3.1c0.1-1.9-0.4-3-0.4-3S186.2,68.3,185.8,70.1z"/>
	<path class="st0" d="M183.6,71.7c1.7,0.3,2.7,1.1,2.5,1.5c-0.2,0.5-1.4,0.5-3.1-0.1c-1.7-0.6-2.4-1.5-2.4-1.5
		S181.9,71.4,183.6,71.7z"/>
	<path class="st0" d="M188.1,73.8c-0.5,1.8-0.3,3.1,0.2,3.1s1.1-1.1,1.3-3s-0.2-3-0.2-3S188.6,72,188.1,73.8z"/>
	<path class="st0" d="M185.9,75.2c1.7,0.4,2.7,1.2,2.4,1.6s-1.5,0.5-3.1-0.3c-1.6-0.7-2.4-1.6-2.4-1.6S184.1,74.9,185.9,75.2z"/>
	<path class="st0" d="M190.2,77.6c-0.6,1.7-0.5,3.1,0.1,3.1s1.2-1.1,1.5-2.9c0.3-1.9,0-3,0-3S190.8,75.8,190.2,77.6z"/>
	<path class="st0" d="M187.9,79c1.7,0.5,2.6,1.3,2.3,1.8c-0.3,0.4-1.5,0.4-3.1-0.4s-2.3-1.7-2.3-1.7S186.2,78.5,187.9,79z"/>
	<path class="st0" d="M192.1,81.5c-0.7,1.7-0.6,3-0.1,3.1s1.2-1,1.6-2.9s0.1-3,0.1-3S192.8,79.8,192.1,81.5z"/>
	<path class="st0" d="M189.8,82.8c1.6,0.5,2.5,1.5,2.2,1.9s-1.5,0.3-3.1-0.6s-2.2-1.8-2.2-1.8S188.1,82.2,189.8,82.8z"/>
	<path class="st0" d="M193.8,85.6c-0.8,1.7-0.8,3-0.3,3.1s1.3-0.9,1.8-2.8c0.5-1.8,0.3-3,0.3-3S194.6,83.9,193.8,85.6z"/>
	<path class="st0" d="M191.4,86.7c1.6,0.6,2.4,1.6,2.1,2c-0.3,0.4-1.5,0.2-3-0.7c-1.5-1-2.1-2-2.1-2S189.8,86,191.4,86.7z"/>
	<path class="st0" d="M195.3,89.7c-0.9,1.6-0.9,3-0.4,3.1s1.3-0.9,1.9-2.7c0.6-1.8,0.4-3,0.4-3S196.2,88,195.3,89.7z"/>
	<path class="st0" d="M192.9,90.6c1.6,0.7,2.3,1.7,2,2.1s-1.5,0.1-3-0.9s-2-2.1-2-2.1S191.2,89.9,192.9,90.6z"/>
	<path class="st0" d="M196.6,93.9c-1,1.6-1.1,2.9-0.6,3s1.4-0.8,2.1-2.6c0.7-1.8,0.6-3,0.6-3S197.6,92.3,196.6,93.9z"/>
	<path class="st0" d="M194.1,94.7c1.5,0.8,2.3,1.8,1.9,2.2c-0.4,0.4-1.5,0.1-2.9-1.1c-1.4-1.1-1.9-2.2-1.9-2.2
		S192.5,93.9,194.1,94.7z"/>
	<path class="st0" d="M197.7,98.1c-1,1.5-1.2,2.8-0.7,3s1.4-0.7,2.2-2.5c0.8-1.7,0.7-2.9,0.7-2.9S198.7,96.6,197.7,98.1z"/>
	<path class="st0" d="M195.1,98.8c1.5,0.9,2.2,2,1.8,2.3s-1.5,0-2.9-1.2c-1.3-1.2-1.7-2.3-1.7-2.3S193.6,97.9,195.1,98.8z"/>
	<path class="st0" d="M198.5,102.4c-1.1,1.4-1.4,2.8-0.9,3s1.5-0.6,2.3-2.3c0.9-1.7,0.9-2.9,0.9-2.9S199.6,100.9,198.5,102.4z"/>
	<path class="st0" d="M195.9,103c1.4,0.9,2,2.1,1.6,2.4s-1.5-0.1-2.8-1.4s-1.6-2.3-1.6-2.3S194.4,102,195.9,103z"/>
	<path class="st0" d="M199.1,106.7c-1.2,1.4-1.5,2.7-1.1,2.9c0.5,0.2,1.5-0.6,2.4-2.2c1-1.6,1-2.9,1-2.9S200.3,105.3,199.1,106.7z"
		/>
	<path class="st0" d="M196.5,107.1c1.4,1,1.9,2.2,1.5,2.5s-1.5-0.2-2.7-1.5s-1.5-2.4-1.5-2.4S195.1,106.1,196.5,107.1z"/>
	<path class="st0" d="M199.5,111.1c-1.3,1.3-1.7,2.6-1.2,2.8c0.5,0.2,1.5-0.5,2.6-2.1s1.2-2.8,1.2-2.8S200.8,109.7,199.5,111.1z"/>
	<path class="st0" d="M196.9,111.4c1.3,1.1,1.8,2.3,1.4,2.6c-0.4,0.3-1.5-0.3-2.7-1.6c-1.1-1.4-1.4-2.5-1.4-2.5
		S195.5,110.2,196.9,111.4z"/>
</g>
<path class="st0" d="M125.1,230.8l-1.9-1.9c0.8-1.3,1.2-2.8,1.2-4.5c0-4.8-3.8-8.6-8.6-8.6c-4.7,0-8.6,3.9-8.6,8.6
	c0,4.8,3.8,8.6,8.6,8.6c1.9,0,3.6-0.6,5-1.7l1.8,1.7L125.1,230.8z M115.9,229.6c-2.9,0-5.3-2.3-5.3-5.3s2.3-5.3,5.3-5.3
	s5.3,2.3,5.3,5.3c0,0.7-0.1,1.3-0.4,2l-0.1-0.1h-4.9l2.7,2.7C117.6,229.3,116.9,229.6,115.9,229.6z"/>
<g>
	<path class="st0" d="M77.1,219l-1.9-0.7l3.7-9.3l1.9,0.7L77.1,219z"/>
	<path class="st0" d="M70.3,216.2l-1.8-0.9l-0.5-6.5c0-0.6,0-1.6,0-1.6l0,0c0,0-0.4,1-0.7,1.6l-2.4,4.7l-1.8-0.9l4.5-8.9l1.7,0.9
		l0.6,6.5c0,0.6,0,1.6,0,1.6l0,0c0,0,0.4-1,0.7-1.6l2.3-4.6l1.8,0.9L70.3,216.2z"/>
	<path class="st0" d="M58.7,210l-6.7-4.5l0.9-1.4l2.5,1.7l4.6-6.9l1.7,1.1l-4.6,6.9l2.5,1.7L58.7,210z"/>
	<path class="st0" d="M48.1,202.5l-5.6-4.7l1.1-1.3l4.1,3.4l1.4-1.7l-3.6-3l1.1-1.3l3.6,3l1.7-2.1l-4.1-3.5l1.1-1.3l5.7,4.8
		L48.1,202.5z"/>
	<path class="st0" d="M38.6,194.2l-3.1-3.3c-1.3-1.4-1.4-3.1-0.2-4.3c0.9-0.8,1.9-1,3-0.3l0,0c-0.4-0.9-0.4-1.6,0.4-2.5
		c0.9-1.1,1.8-1.8,1.6-2.1l0.1-0.1l1.3,1.4c0.1,0.3-0.7,1-1.4,1.8s-0.8,1.7,0.1,2.6l1.1,1.2l2.9-2.8l1.4,1.5L38.6,194.2z
		 M40.5,189.7l-1.5-1.6c-0.8-0.8-1.6-0.8-2.1-0.3c-0.6,0.6-0.7,1.3,0.1,2.1l1.5,1.6L40.5,189.7z"/>
	<path class="st0" d="M29.9,184.4l-1.2-1.7l2.5-6c0.2-0.6,0.7-1.4,0.7-1.4l0,0c0,0-0.8,0.7-1.4,1.1l-4.2,3.1l-1.2-1.6l8.1-5.9
		l1.2,1.6l-2.4,6c-0.2,0.6-0.7,1.4-0.7,1.4l0,0c0,0,0.8-0.7,1.4-1.1l4.2-3.1l1.2,1.6L29.9,184.4z"/>
	<path class="st0" d="M20.8,170.8l-1-1.8l7-8l1,1.8l-1.5,1.6l1.8,3.1l2.2-0.5l1,1.8L20.8,170.8z M26.4,168l-1.3-2.3l-2.1,2.2
		c-0.4,0.4-1.1,1.1-1.1,1.1l0,0c0,0,1-0.3,1.5-0.4L26.4,168z"/>
	<path class="st0" d="M16.7,163.2l-3.2-7.4l1.6-0.7l1.2,2.8l7.6-3.3l0.8,1.9l-7.6,3.3l1.2,2.8L16.7,163.2z"/>
	<path class="st0" d="M12,151.3l-0.6-1.9l9.5-3.1l0.6,1.9L12,151.3z"/>
	<path class="st0" d="M14.8,143.6c-2.9,0.6-5.5-0.7-6.1-3.6c-0.6-2.9,1.1-5.2,4.1-5.8c2.9-0.6,5.5,0.7,6.1,3.6
		C19.5,140.6,17.7,142.9,14.8,143.6z M13.2,136.2c-2,0.4-3.3,1.6-2.9,3.4c0.4,1.8,2.1,2.4,4.1,1.9c1.9-0.4,3.3-1.7,2.9-3.5
		C16.8,136.3,15.1,135.7,13.2,136.2z"/>
	<path class="st0" d="M7.1,130.1l-0.2-2l5.3-3.8c0.5-0.4,1.3-0.8,1.3-0.8l0,0c0,0-1,0.1-1.7,0.2l-5.2,0.5l-0.2-2l10-0.9l0.2,2
		l-5.2,3.9c-0.5,0.4-1.3,0.8-1.3,0.8l0,0c0,0,1-0.1,1.7-0.2l5.1-0.5l0.2,2L7.1,130.1z"/>
	<path class="st0" d="M6.3,113.8l0.1-2.1l10.1-3.2l-0.1,2.1l-2.1,0.6l-0.1,3.6l2.1,0.7l-0.1,2.1L6.3,113.8z M12.6,114.3l0.1-2.6
		l-2.9,0.8c-0.5,0.2-1.6,0.4-1.6,0.4l0,0c0,0,1,0.3,1.5,0.5L12.6,114.3z"/>
	<path class="st0" d="M6.9,103.4l0.3-2l8.2,1.2l0.7-4.7l1.7,0.2l-1,6.7L6.9,103.4z"/>
	<path class="st0" d="M15,88.1c-2.8-0.9-4.4-3.4-3.5-6.2c0.8-2.3,2.6-3.3,4.5-2.9l-0.6,1.9c-1-0.1-1.9,0.4-2.2,1.5
		c-0.6,1.8,0.6,3.1,2.5,3.7s3.7,0.1,4.2-1.5c0.4-1.1-0.1-2.2-1-2.6l0.6-1.9c0.8,0.3,1.5,0.9,1.9,1.8s0.5,1.9,0.1,3.2
		C20.6,87.8,17.9,89,15,88.1z"/>
	<path class="st0" d="M19.2,75.8c-2.7-1.3-3.9-3.9-2.7-6.6c1.3-2.7,4.1-3.4,6.8-2.1s3.9,3.9,2.6,6.6S21.9,77.1,19.2,75.8z
		 M22.5,68.9c-1.8-0.9-3.6-0.7-4.4,0.9c-0.8,1.7,0.2,3.2,2,4s3.6,0.7,4.4-1C25.3,71.3,24.3,69.8,22.5,68.9z"/>
	<path class="st0" d="M21.3,60.4l2.5-3.9c1-1.6,2.7-2.1,4.1-1.2c1,0.6,1.5,1.6,1.1,2.8l0,0c0.7-0.6,1.4-0.8,2.5-0.2
		c1.3,0.6,2.1,1.3,2.5,1.1l0.1,0.1l-1,1.6c-0.2,0.2-1.2-0.4-2.1-0.9c-1-0.5-1.8-0.3-2.5,0.7l-0.9,1.4l3.4,2.2l-1.1,1.7L21.3,60.4z
		 M26.2,61.1l1.2-1.8c0.6-0.9,0.4-1.7-0.3-2.1c-0.7-0.4-1.5-0.3-2,0.6l-1.2,1.9L26.2,61.1z"/>
	<path class="st0" d="M28.7,49.6l2.8-3.4c0.7-0.9,1.5-1.4,2.4-1.4c0.8-0.1,1.6,0.2,2.3,0.7c1.5,1.2,1.7,3,0.3,4.6L34.9,52l2.8,2.3
		l-1.3,1.6L28.7,49.6z M33.7,50.9l1.3-1.6c0.7-0.8,0.6-1.6-0.1-2.2c-0.7-0.6-1.5-0.5-2.1,0.3L31.5,49L33.7,50.9z"/>
	<path class="st0" d="M40.3,43.6c-2.1-2.2-2.2-5.1-0.1-7.1c2.1-2,5-1.7,7.1,0.5s2.2,5.1,0.1,7.1C45.3,46.1,42.4,45.8,40.3,43.6z
		 M45.8,38.4c-1.4-1.4-3.1-2-4.4-0.7c-1.3,1.3-0.9,3,0.5,4.5c1.4,1.4,3.1,1.9,4.4,0.6C47.6,41.5,47.2,39.8,45.8,38.4z"/>
	<path class="st0" d="M47.8,30l3.7-2.7c1.6-1.1,3.3-1,4.2,0.3c0.7,0.9,0.8,2,0,3l0,0c0.9-0.3,1.6-0.2,2.4,0.7c1,1.1,1.5,2,1.9,1.9
		l0.1,0.1l-1.6,1.2c-0.3,0.1-1-0.8-1.7-1.6s-1.6-1-2.6-0.2l-1.3,1l2.4,3.2l-1.6,1.2L47.8,30z M52.1,32.4l1.7-1.3
		c0.9-0.7,1-1.4,0.5-2.1s-1.3-0.8-2.1-0.2l-1.8,1.3L52.1,32.4z"/>
	<path class="st0" d="M61,21.1l1.8-1l8,7l-1.8,1l-1.6-1.5l-3.1,1.8l0.5,2.2l-1.8,1L61,21.1z M63.9,26.7l2.3-1.3l-2.2-2
		c-0.4-0.4-1.1-1.1-1.1-1.1l0,0c0,0,0.3,1,0.4,1.5L63.9,26.7z"/>
	<path class="st0" d="M68.5,17l7.4-3.2l0.7,1.6l-2.8,1.2l3.3,7.6L75.3,25L72,17.4l-2.8,1.2L68.5,17z"/>
	<path class="st0" d="M80.6,12.1l7-2.2l0.5,1.6L83,13.1l0.7,2.1l4.5-1.4l0.5,1.6l-4.5,1.4l0.8,2.6l5.1-1.6l0.5,1.6l-7.1,2.2
		L80.6,12.1z"/>
	<path class="st0" d="M98.5,7.6l7.3-0.9l0.2,1.7l-5.3,0.7l0.3,2.2l4.6-0.6l0.2,1.7l-4.6,0.6l0.3,2.7l5.3-0.7l0.2,1.7l-7.3,0.9
		L98.5,7.6z"/>
	<path class="st0" d="M110.4,6.3h2.1l1.8,5.8c0.2,0.7,0.4,1.6,0.4,1.6l0,0c0,0,0.2-1,0.4-1.6l1.7-5.8h2.1l-3.3,10h-1.8L110.4,6.3z"
		/>
	<path class="st0" d="M123.6,6.5l7.3,0.7l-0.2,1.7l-5.3-0.5l-0.2,2.2l4.7,0.5l-0.2,1.7l-4.7-0.5l-0.3,2.7l5.4,0.5l-0.2,1.7l-7.4-0.7
		L123.6,6.5z"/>
	<path class="st0" d="M136.2,8l2,0.4l2,6.2c0.2,0.6,0.4,1.5,0.4,1.5l0,0c0,0,0.2-1,0.3-1.7l1.1-5.1l2,0.4l-2.2,9.8l-1.9-0.4
		l-2.1-6.1c-0.2-0.6-0.4-1.5-0.4-1.5l0,0c0,0-0.2,1-0.3,1.7l-1.1,5l-2-0.4L136.2,8z"/>
	<path class="st0" d="M148.9,11.2l7.6,2.7l-0.6,1.6l-2.8-1l-2.8,7.8l-1.9-0.7l2.8-7.8l-2.8-1L148.9,11.2z"/>
	<path class="st0" d="M166.3,18.3l3.8,2.1c1,0.6,1.6,1.3,1.8,2.1c0.2,0.8,0.1,1.6-0.3,2.4c-0.9,1.7-2.6,2.2-4.5,1.1l-2.2-1.2
		l-1.8,3.2l-1.8-1L166.3,18.3z M165.9,23.5l1.8,1c0.9,0.5,1.7,0.3,2.1-0.5c0.5-0.8,0.2-1.6-0.7-2.1l-1.9-1L165.9,23.5z"/>
	<path class="st0" d="M177.4,24.9l1.7,1.2l-4.8,6.8l3.8,2.7l-1,1.4l-5.5-3.9L177.4,24.9z"/>
	<path class="st0" d="M188.9,33.8l1.6,1.4l-4.1,9.8l-1.6-1.4l0.9-2l-2.7-2.4l-1.9,1.1l-1.5-1.4L188.9,33.8z M184.5,38.3l2,1.8
		l1.3-2.7c0.2-0.5,0.7-1.4,0.7-1.4l0,0c0,0-0.9,0.6-1.3,0.9L184.5,38.3z"/>
	<path class="st0" d="M196.5,41.1l1.3,1.6l-2,6.2c-0.2,0.6-0.6,1.4-0.6,1.4l0,0c0,0,0.7-0.7,1.3-1.2l4-3.4l1.3,1.5l-7.6,6.6
		l-1.3-1.5l1.9-6.2c0.2-0.6,0.6-1.4,0.6-1.4l0,0c0,0-0.8,0.7-1.3,1.2l-3.9,3.4l-1.3-1.5L196.5,41.1z"/>
	<path class="st0" d="M205.2,51.6l1.1,1.7l-2.8,5.9c-0.3,0.6-0.8,1.4-0.8,1.4l0,0c0,0,0.8-0.6,1.4-1l4.4-2.9l1.1,1.7l-8.3,5.6
		l-1.1-1.6l2.7-5.9c0.3-0.6,0.8-1.4,0.8-1.4l0,0c0,0-0.8,0.6-1.4,1L198,59l-1.1-1.7L205.2,51.6z"/>
	<path class="st0" d="M212.3,62.9l1,1.8l-8.8,4.8l-1-1.8L212.3,62.9z"/>
	<path class="st0" d="M215.8,69.5l0.8,1.9l-3.8,5.3c-0.4,0.5-1,1.2-1,1.2l0,0c0,0,0.9-0.5,1.6-0.7l4.8-2.1l0.8,1.8l-9.2,3.9L209,79
		l3.8-5.3c0.4-0.5,1-1.2,1-1.2l0,0c0,0-0.9,0.5-1.6,0.7l-4.8,2l-0.8-1.8L215.8,69.5z"/>
	<path class="st0" d="M214.4,91.5L214.4,91.5c-1.3-0.4-1.9-1.2-2.3-2.3c-0.4-1.5-0.2-2.7,0.5-3.8c0.7-1,1.8-1.9,3.2-2.3
		c1.6-0.5,3.2-0.3,4.4,0.5c0.9,0.6,1.6,1.5,2,2.8c0.7,2.4-0.3,4.2-2.1,5l-0.5-1.9c0.9-0.5,1.3-1.4,1-2.6c-0.5-1.8-2.3-2.3-4.2-1.8
		c-2,0.6-3.1,2-2.7,3.7c0.4,1.5,1.8,2.2,2.9,1.9h0.1l-0.7-2.3l1.5-0.4l1.1,4.1l-5.1,1.4l-0.4-1.5L214.4,91.5z"/>
	<path class="st0" d="M225.2,101.8l0.4,4.4c0.1,1.2-0.1,2.1-0.7,2.7c-0.5,0.6-1.3,1-2.2,1.1c-1.9,0.2-3.3-0.9-3.5-3l-0.2-2.5
		l-3.6,0.4l-0.2-2.1L225.2,101.8z M220.7,104.3l0.2,2.1c0.1,1.1,0.7,1.6,1.6,1.5c0.9-0.1,1.4-0.7,1.3-1.7l-0.2-2.1L220.7,104.3z"/>
	<path class="st0" d="M226.1,114.6l-0.1,4.6c0,1.9-1.2,3.2-2.8,3.2c-1.2,0-2.1-0.6-2.4-1.9l0,0c-0.3,0.9-0.8,1.4-2,1.5
		c-1.4,0.1-2.5,0-2.7,0.4H216v-1.9c0.1-0.2,1.2-0.3,2.3-0.3c1.1-0.1,1.7-0.7,1.7-1.9v-1.6l-4-0.1v-2L226.1,114.6z M221.7,116.6v2.2
		c0,1.1,0.5,1.7,1.3,1.7s1.4-0.5,1.4-1.6v-2.2L221.7,116.6z"/>
	<path class="st0" d="M220.7,126.6c3,0.4,4.9,2.6,4.5,5.5c-0.4,2.9-2.9,4.4-5.9,4s-4.9-2.6-4.5-5.5
		C215.2,127.7,217.7,126.2,220.7,126.6z M219.6,134.1c2,0.3,3.6-0.4,3.9-2.2c0.3-1.8-1.1-3-3.1-3.3s-3.6,0.4-3.9,2.2
		S217.6,133.8,219.6,134.1z"/>
	<path class="st0" d="M223.1,141.9l-1.9,6.9l-1.7-0.5l1.4-5l-2.3-0.6l-1.1,4.2l-1.7-0.5l1.1-4.2l-4-1.1l0.5-2L223.1,141.9z"/>
	<path class="st0" d="M219.6,153.6l-2.7,6.8l-1.6-0.6l2-5l-2.1-0.8l-1.7,4.3l-1.5-0.6l1.7-4.3l-2.5-1l-2,5l-1.6-0.6l2.8-6.9
		L219.6,153.6z"/>
	<path class="st0" d="M208.8,161.5l-0.9,1.7c-1.1-0.5-1.9-0.1-2.6,1.2c-0.5,0.9-0.6,1.9,0.2,2.3c0.9,0.5,1.5-0.3,2.5-1.5
		c1.2-1.4,2.4-2.6,4.2-1.6c1.7,0.9,1.9,2.8,0.8,4.8c-1.1,2-2.7,2.7-4.6,1.9l0.9-1.7c0.9,0.4,1.8-0.1,2.2-1c0.5-1,0.5-1.8-0.2-2.1
		c-0.7-0.4-1.3,0.1-2.2,1.3c-1.4,1.6-2.6,2.8-4.5,1.8c-1.8-1-2-2.9-0.9-4.9C205.1,161.3,206.9,160.5,208.8,161.5z"/>
	<path class="st0" d="M202.8,172.1l-1.1,1.6c-1.1-0.6-1.8-0.3-2.7,0.9c-0.6,0.8-0.8,1.8-0.1,2.3c0.8,0.6,1.5-0.1,2.7-1.1
		c1.4-1.2,2.7-2.3,4.4-1.1c1.6,1.1,1.5,3,0.2,4.9c-1.3,1.8-3,2.4-4.8,1.4l1.1-1.6c0.9,0.5,1.8,0.1,2.3-0.7c0.6-0.9,0.7-1.7,0.1-2.2
		c-0.7-0.5-1.3,0-2.4,1c-1.6,1.4-2.9,2.5-4.7,1.3c-1.7-1.2-1.6-3.2-0.3-5C199.1,171.5,201,171,202.8,172.1z"/>
	<path class="st0" d="M200.5,186.7l-1.3,1.5l-7.6-6.5l1.3-1.5L200.5,186.7z"/>
	<path class="st0" d="M192.4,188.3c2.1,2.2,2.3,5.1,0.1,7.1c-2.1,2.1-5,1.7-7.1-0.4s-2.3-5-0.1-7.1
		C187.5,185.9,190.3,186.2,192.4,188.3z M187,193.6c1.4,1.4,3.1,1.9,4.4,0.7c1.3-1.3,0.9-3-0.5-4.5c-1.4-1.4-3.1-1.9-4.5-0.6
		S185.6,192.2,187,193.6z"/>
	<path class="st0" d="M185,202l-1.7,1.2l-6-2.5c-0.6-0.2-1.4-0.7-1.4-0.7l0,0c0,0,0.7,0.8,1.1,1.4l3.1,4.2l-1.6,1.2l-6-8l1.6-1.2
		l6,2.4c0.6,0.2,1.4,0.7,1.4,0.7l0,0c0,0-0.7-0.8-1.1-1.4l-3.1-4.1l1.6-1.2L185,202z"/>
	<path class="st0" d="M171.5,211.2l-1.8,1l-8-6.9l1.8-1l1.6,1.5l3.1-1.8l-0.5-2.2l1.8-1L171.5,211.2z M168.6,205.5l-2.3,1.3l2.2,2.1
		c0.4,0.4,1.1,1.1,1.1,1.1l0,0c0,0-0.3-1-0.4-1.5L168.6,205.5z"/>
	<path class="st0" d="M162.3,216l-1.9,0.8l-3.3-7.7l-4.3,1.8l-0.7-1.6l6.2-2.6L162.3,216z"/>
</g>
<path id="SVGID_x5F_1_x5F__00000170980224003343697520000003500789605211509123_" class="st1" d="M15.6,116.1
	c0-55.5,45-100.6,100.6-100.6c55.5,0,100.6,45,100.6,100.6s-45,100.6-100.6,100.6C60.6,216.6,15.6,171.6,15.6,116.1z"/>
<g class="st2">
	<path class="st0" d="M79.1,96.6V97c-1,0-1.9,0.3-2.6,0.8c-0.7,0.6-1.1,1.5-1.1,2.8v25.7c0,1.3,0.4,2.2,1.1,2.8
		c0.8,0.6,1.6,0.9,2.5,0.9v0.4H68.4V130c1,0,1.8-0.3,2.5-0.9c0.7-0.6,1.1-1.5,1.1-2.9v-25.7c0-1.4-0.4-2.4-1.1-2.9s-1.6-0.8-2.5-0.8
		v-0.4h10.7V96.6z"/>
	<path class="st0" d="M113.1,104.1h-0.4c-0.3-1.7-1.1-3.1-2.3-4.2c-1.3-1.1-2.7-2-4.3-2.5c-1.6-0.5-3.2-0.8-4.6-0.8
		c-1.9,0-3.8,0.4-5.5,1.2s-3.2,2-4.4,3.5c-1.2,1.5-2.2,3.3-2.9,5.4c-0.7,2.1-1,4.4-1,6.8s0.3,4.6,1,6.6s1.6,3.8,2.9,5.3
		s2.8,2.6,4.4,3.4c1.7,0.8,3.5,1.1,5.6,1.1c1.7,0,3.6-0.3,5.6-1s3.9-1.9,5.6-3.5v1.3c-2,1.6-3.9,2.7-5.6,3.5s-3.8,1.1-6.3,1.1
		c-2.7,0-5.1-0.5-7.3-1.5c-2.2-1-4.1-2.3-5.6-3.9s-2.7-3.5-3.4-5.6c-0.8-2.1-1.2-4.2-1.2-6.4c0-3.3,0.8-6.3,2.4-9.2
		c1.6-2.8,3.8-5.1,6.6-6.7s5.8-2.5,9-2.5c2,0,4.1,0.3,6.4,0.9l2.4,0.7c0.5,0.1,0.8,0.1,1.2,0.1c0.6,0,1-0.1,1.2-0.3
		c0.2-0.2,0.4-0.5,0.5-1h0.4L113.1,104.1z"/>
	<path class="st0" d="M116.5,97v-0.4h11.1c1.9,0,3.5,0.3,4.9,0.8s2.6,1.2,3.5,2.1s1.6,1.9,2.1,2.9s0.7,2.2,0.7,3.5
		c0,1.2-0.2,2.3-0.7,3.4c-0.4,1.1-1.1,2.1-2.1,2.9c-0.9,0.8-2.2,1.5-3.7,2s-3.3,0.8-5.2,0.8c-0.6,0-1.8-0.1-3.6-0.3v11.7
		c0,2.4,1.2,3.6,3.7,3.7v0.4h-10.8V130c1.1,0,1.9-0.3,2.6-0.9c0.7-0.6,1-1.5,1-2.8v-25.6c0-0.8-0.1-1.4-0.4-2s-0.5-0.9-0.9-1.1
		c-0.3-0.2-0.7-0.4-1.1-0.5s-0.7-0.2-0.8-0.2L116.5,97L116.5,97z M123.5,97.8v15.9c1.2,0.2,2.3,0.3,3.5,0.3c2.2,0,4-0.6,5.6-1.7
		c1.5-1.1,2.3-3.2,2.3-6.3c0-2.5-0.7-4.6-2-6.2s-3.4-2.4-6.1-2.4C125.7,97.5,124.6,97.6,123.5,97.8z"/>
	<path class="st0" d="M141.9,97v-0.4H153c1.9,0,3.5,0.3,4.9,0.8s2.6,1.2,3.5,2.1s1.6,1.9,2.1,2.9s0.7,2.2,0.7,3.5
		c0,1.2-0.2,2.3-0.7,3.4c-0.4,1.1-1.1,2.1-2.1,2.9c-0.9,0.8-2.2,1.5-3.7,2s-3.3,0.8-5.2,0.8c-0.6,0-1.8-0.1-3.6-0.3v11.7
		c0,2.4,1.2,3.6,3.7,3.7v0.4h-10.8V130c1.1,0,1.9-0.3,2.6-0.9c0.7-0.6,1-1.5,1-2.8v-25.6c0-0.8-0.1-1.4-0.4-2s-0.5-0.9-0.9-1.1
		c-0.3-0.2-0.7-0.4-1.1-0.5s-0.7-0.2-0.8-0.2L141.9,97L141.9,97z M149,97.8v15.9c1.2,0.2,2.3,0.3,3.5,0.3c2.2,0,4-0.6,5.6-1.7
		c1.5-1.1,2.3-3.2,2.3-6.3c0-2.5-0.7-4.6-2-6.2s-3.4-2.4-6.1-2.4C151.2,97.5,150.1,97.6,149,97.8z"/>
</g>
</svg>
