<svg viewBox="0 0 160 166" fill="none" xmlns="http://www.w3.org/2000/svg">
<g clip-path="url(#clip0_6662_23444)">
<path d="M96.201 23.0752V23.3009C98.6615 23.9924 101.078 24.8442 103.452 25.856C110.542 28.8844 116.904 33.2085 122.364 38.7047C127.824 44.2008 132.097 50.5924 135.074 57.7119C138.154 65.0789 139.704 72.89 139.675 80.9414C139.646 88.9708 138.045 96.7601 134.922 104.091C131.908 111.167 127.598 117.522 122.124 122.974C116.65 128.427 110.28 132.707 103.189 135.699C95.8516 138.793 88.0623 140.365 80.0401 140.365H79.8144C71.7631 140.336 63.9593 138.727 56.6141 135.59C49.5237 132.562 43.1613 128.237 37.7015 122.741C32.2418 117.245 27.9686 110.854 24.9912 103.734C21.9119 96.367 20.3613 88.5559 20.3905 80.5046C20.4196 72.4751 22.0211 64.6858 25.1441 57.3552C28.1579 50.2794 32.4674 43.9242 37.9417 38.4717C43.4161 33.0192 49.7858 28.7388 56.8762 25.7468C59.162 24.7786 61.4988 23.9633 63.8647 23.3009V23.0825C38.7425 30.1146 20.274 53.133 20.1721 80.5118C20.0483 113.569 46.7502 140.467 79.8072 140.591C79.8872 140.591 79.9528 140.591 80.0328 140.591C112.988 140.591 139.763 113.933 139.886 80.9559C139.988 53.4242 121.483 30.1656 96.1937 23.0898L96.201 23.0752Z" fill="#FAF0B6"/>
<path d="M19.2622 80.1918C20.2376 81.1017 20.5725 82.0335 20.2449 82.2155C19.9173 82.3975 19.1239 81.9243 18.3085 80.8033C17.4932 79.6822 17.3403 78.8159 17.3403 78.8159C17.3403 78.8159 18.2649 79.2527 19.2622 80.1918Z" fill="#FAF0B6"/>
<path d="M21.1839 80.3082C20.2521 81.1527 19.9463 82.0335 20.2739 82.2155C20.5942 82.3975 21.3659 81.968 22.1375 80.9197C22.9092 79.8714 23.0402 79.0488 23.0402 79.0488C23.0402 79.0488 22.1448 79.4419 21.1839 80.3082Z" fill="#FAF0B6"/>
<path d="M19.3203 83.3731C20.3395 84.2321 20.7253 85.1421 20.4123 85.3459C20.0992 85.5497 19.2766 85.113 18.4031 84.0356C17.5295 82.9582 17.3257 82.1064 17.3257 82.1064C17.3257 82.1064 18.272 82.4995 19.3203 83.3804V83.3731Z" fill="#FAF0B6"/>
<path d="M21.2422 83.3877C20.354 84.2831 20.0993 85.1712 20.4341 85.3386C20.769 85.5061 21.5115 85.0329 22.2322 83.9409C22.9529 82.849 23.033 82.0264 23.033 82.0264C23.033 82.0264 22.1594 82.4704 21.2494 83.3877H21.2422Z" fill="#FAF0B6"/>
<path d="M19.5387 86.5471C20.6015 87.3551 21.031 88.236 20.7253 88.4543C20.4195 88.6727 19.5823 88.2796 18.6505 87.2532C17.7187 86.2268 17.4785 85.3823 17.4785 85.3823C17.4785 85.3823 18.4467 85.7245 19.5387 86.5471Z" fill="#FAF0B6"/>
<path d="M21.4606 86.4594C20.6235 87.3985 20.4124 88.3012 20.7545 88.454C21.0966 88.6069 21.8173 88.09 22.4725 86.969C23.135 85.8479 23.1714 85.0107 23.1714 85.0107C23.1714 85.0107 22.3196 85.4985 21.4606 86.4594Z" fill="#FAF0B6"/>
<path d="M19.9246 89.7064C21.0311 90.4562 21.5043 91.3152 21.2131 91.5481C20.9219 91.7811 20.0629 91.4317 19.0801 90.4562C18.0974 89.4807 17.8135 88.6436 17.8135 88.6436C17.8135 88.6436 18.7962 88.9347 19.9319 89.6991L19.9246 89.7064Z" fill="#FAF0B6"/>
<path d="M21.8392 89.517C21.053 90.4998 20.8855 91.4097 21.2349 91.548C21.5844 91.6791 22.2759 91.1331 22.8729 89.9756C23.4698 88.8182 23.4698 87.9883 23.4698 87.9883C23.4698 87.9883 22.6472 88.5197 21.8392 89.5243V89.517Z" fill="#FAF0B6"/>
<path d="M20.4777 92.8365C21.6206 93.5281 22.1375 94.3652 21.8608 94.6127C21.5842 94.8602 20.7034 94.5618 19.6696 93.63C18.6359 92.7055 18.3083 91.8901 18.3083 91.8901C18.3083 91.8901 19.3057 92.1304 20.4777 92.8365Z" fill="#FAF0B6"/>
<path d="M22.3777 92.5526C21.6425 93.5718 21.526 94.4963 21.8827 94.6128C22.2394 94.7292 22.9019 94.1396 23.4406 92.953C23.9793 91.7664 23.9283 90.9365 23.9283 90.9365C23.9283 90.9365 23.1348 91.5116 22.3777 92.5599V92.5526Z" fill="#FAF0B6"/>
<path d="M21.1984 95.9378C22.3777 96.5711 22.9382 97.3719 22.6689 97.6412C22.4068 97.9033 21.5114 97.6412 20.434 96.775C19.3566 95.9014 18.9854 95.1079 18.9854 95.1079C18.9854 95.1079 19.9899 95.2899 21.1984 95.9378Z" fill="#FAF0B6"/>
<path d="M23.0766 95.5516C22.3924 96.6144 22.3268 97.5389 22.6908 97.6336C23.0548 97.7282 23.6809 97.1094 24.154 95.8937C24.6272 94.678 24.5399 93.8481 24.5399 93.8481C24.5399 93.8481 23.7755 94.4596 23.0766 95.5443V95.5516Z" fill="#FAF0B6"/>
<path d="M22.0721 98.9952C23.2806 99.563 23.8848 100.342 23.63 100.619C23.3752 100.895 22.4725 100.684 21.3514 99.876C20.2304 99.0607 19.8154 98.2891 19.8154 98.2891C19.8154 98.2891 20.8346 98.4201 22.0721 99.0025V98.9952Z" fill="#FAF0B6"/>
<path d="M23.9357 98.5145C23.3096 99.6065 23.2951 100.538 23.659 100.611C24.023 100.691 24.62 100.036 25.0349 98.7984C25.4498 97.5609 25.3115 96.7383 25.3115 96.7383C25.3115 96.7383 24.5763 97.3934 23.9357 98.5145Z" fill="#FAF0B6"/>
<path d="M23.1056 102.009C24.3432 102.511 24.9838 103.254 24.7508 103.545C24.5179 103.836 23.6007 103.676 22.4359 102.919C21.2712 102.169 20.8198 101.412 20.8198 101.412C20.8198 101.412 21.839 101.492 23.1129 102.009H23.1056Z" fill="#FAF0B6"/>
<path d="M24.9402 101.427C24.3724 102.555 24.4015 103.48 24.7728 103.538C25.1441 103.596 25.7046 102.912 26.0467 101.66C26.3962 100.4 26.2142 99.585 26.2142 99.585C26.2142 99.585 25.5153 100.277 24.933 101.427H24.9402Z" fill="#FAF0B6"/>
<path d="M24.2996 104.957C25.5589 105.394 26.2432 106.107 26.0248 106.406C25.8064 106.704 24.8819 106.595 23.6808 105.903C22.4796 105.212 21.9846 104.484 21.9846 104.484C21.9846 104.484 23.0111 104.506 24.2996 104.957Z" fill="#FAF0B6"/>
<path d="M26.0978 104.28C25.5882 105.431 25.6683 106.355 26.0395 106.391C26.4108 106.428 26.9349 105.722 27.2116 104.448C27.4882 103.174 27.2698 102.373 27.2698 102.373C27.2698 102.373 26.6073 103.101 26.0905 104.28H26.0978Z" fill="#FAF0B6"/>
<path d="M25.6463 107.84C26.9276 108.211 27.6483 108.881 27.4444 109.194C27.2406 109.507 26.3161 109.441 25.0785 108.815C23.841 108.189 23.3096 107.49 23.3096 107.49C23.3096 107.49 24.336 107.461 25.6463 107.84Z" fill="#FAF0B6"/>
<path d="M27.408 107.075C26.9639 108.255 27.0877 109.172 27.459 109.186C27.8302 109.201 28.318 108.466 28.5291 107.185C28.7402 105.896 28.4781 105.11 28.4781 105.11C28.4781 105.11 27.8593 105.867 27.4007 107.075H27.408Z" fill="#FAF0B6"/>
<path d="M27.1386 110.65C28.4417 110.955 29.1915 111.589 29.0022 111.909C28.813 112.229 27.8885 112.215 26.6145 111.654C25.3478 111.094 24.78 110.417 24.78 110.417C24.78 110.417 25.7992 110.337 27.1314 110.642L27.1386 110.65Z" fill="#FAF0B6"/>
<path d="M28.8567 109.791C28.4709 110.992 28.6456 111.902 29.0241 111.902C29.3954 111.902 29.8467 111.138 29.9923 109.842C30.1379 108.546 29.8322 107.767 29.8322 107.767C29.8322 107.767 29.2498 108.561 28.8567 109.791Z" fill="#FAF0B6"/>
<path d="M28.7766 113.38C30.0942 113.613 30.8731 114.21 30.7057 114.545C30.5383 114.879 29.6065 114.909 28.3107 114.414C27.0149 113.919 26.418 113.278 26.418 113.278C26.418 113.278 27.4371 113.14 28.7839 113.38H28.7766Z" fill="#FAF0B6"/>
<path d="M30.451 112.426C30.1307 113.642 30.3564 114.545 30.7276 114.523C31.0989 114.501 31.5065 113.722 31.5866 112.419C31.6667 111.116 31.3246 110.359 31.3246 110.359C31.3246 110.359 30.7859 111.181 30.4583 112.426H30.451Z" fill="#FAF0B6"/>
<path d="M30.56 116.015C31.8849 116.182 32.7003 116.736 32.5474 117.07C32.3945 117.413 31.47 117.493 30.1524 117.07C28.8347 116.648 28.2014 116.037 28.2014 116.037C28.2014 116.037 29.206 115.848 30.5673 116.015H30.56Z" fill="#FAF0B6"/>
<path d="M32.1762 114.981C31.9215 116.211 32.1908 117.1 32.5621 117.063C32.9333 117.02 33.2973 116.219 33.3046 114.916C33.3119 113.613 32.9333 112.87 32.9333 112.87C32.9333 112.87 32.4383 113.715 32.1762 114.981Z" fill="#FAF0B6"/>
<path d="M32.4746 118.556C33.8068 118.65 34.6512 119.16 34.5129 119.509C34.3746 119.859 33.4573 119.983 32.1179 119.633C30.7784 119.276 30.116 118.701 30.116 118.701C30.116 118.701 31.1133 118.461 32.4746 118.556Z" fill="#FAF0B6"/>
<path d="M34.0325 117.442C33.8432 118.687 34.1562 119.56 34.5275 119.502C34.8988 119.444 35.2191 118.621 35.1608 117.318C35.1026 116.015 34.6804 115.294 34.6804 115.294C34.6804 115.294 34.229 116.168 34.0325 117.442Z" fill="#FAF0B6"/>
<path d="M34.5202 120.994C35.8597 121.023 36.726 121.482 36.6022 121.839C36.4785 122.195 35.5758 122.37 34.2145 122.086C32.8532 121.802 32.1616 121.264 32.1616 121.264C32.1616 121.264 33.1444 120.972 34.513 120.994H34.5202Z" fill="#FAF0B6"/>
<path d="M36.0199 119.793C35.8961 121.045 36.2529 121.897 36.6168 121.824C36.9808 121.752 37.2574 120.907 37.1337 119.611C37.0099 118.316 36.5513 117.617 36.5513 117.617C36.5513 117.617 36.1509 118.512 36.0199 119.793Z" fill="#FAF0B6"/>
<path d="M36.6896 123.324C38.0218 123.28 38.9172 123.702 38.8153 124.059C38.7134 124.416 37.818 124.642 36.4494 124.43C35.0808 124.219 34.3601 123.71 34.3601 123.71C34.3601 123.71 35.3283 123.368 36.6969 123.324H36.6896Z" fill="#FAF0B6"/>
<path d="M38.1236 122.05C38.0654 123.309 38.4657 124.139 38.8297 124.045C39.1864 123.95 39.4267 123.098 39.2301 121.81C39.0336 120.521 38.5458 119.852 38.5458 119.852C38.5458 119.852 38.1891 120.769 38.1309 122.057L38.1236 122.05Z" fill="#FAF0B6"/>
<path d="M38.9754 125.53C40.3076 125.413 41.2175 125.784 41.1374 126.156C41.0574 126.52 40.1693 126.789 38.7934 126.651C37.4103 126.512 36.6677 126.046 36.6677 126.046C36.6677 126.046 37.6141 125.653 38.9754 125.537V125.53Z" fill="#FAF0B6"/>
<path d="M40.344 124.183C40.344 125.442 40.7953 126.25 41.152 126.134C41.5087 126.017 41.698 125.158 41.4359 123.877C41.1739 122.603 40.6497 121.955 40.6497 121.955C40.6497 121.955 40.344 122.887 40.3513 124.175L40.344 124.183Z" fill="#FAF0B6"/>
<path d="M41.3777 127.619C42.7026 127.437 43.6271 127.757 43.5688 128.129C43.5106 128.5 42.637 128.813 41.2539 128.747C39.8708 128.682 39.0991 128.252 39.0991 128.252C39.0991 128.252 40.0236 127.808 41.3777 127.619Z" fill="#FAF0B6"/>
<path d="M42.6735 126.199C42.7463 127.459 43.2341 128.245 43.5835 128.106C43.9329 127.968 44.0785 127.102 43.7509 125.843C43.4233 124.583 42.8628 123.964 42.8628 123.964C42.8628 123.964 42.608 124.911 42.6808 126.199H42.6735Z" fill="#FAF0B6"/>
<path d="M43.882 129.577C45.1924 129.322 46.1387 129.599 46.0951 129.97C46.0514 130.341 45.1997 130.705 43.8165 130.705C42.4261 130.705 41.6399 130.327 41.6399 130.327C41.6399 130.327 42.5426 129.839 43.882 129.577Z" fill="#FAF0B6"/>
<path d="M45.105 128.092C45.2433 129.344 45.7747 130.101 46.1168 129.948C46.459 129.795 46.5536 128.922 46.1605 127.677C45.7674 126.432 45.1778 125.85 45.1778 125.85C45.1778 125.85 44.9667 126.811 45.1122 128.092H45.105Z" fill="#FAF0B6"/>
<path d="M46.488 131.404C47.7838 131.084 48.7447 131.309 48.7229 131.681C48.701 132.052 47.8712 132.46 46.4807 132.532C45.0976 132.605 44.2896 132.263 44.2896 132.263C44.2896 132.263 45.1631 131.724 46.488 131.397V131.404Z" fill="#FAF0B6"/>
<path d="M47.6309 129.861C47.8347 131.106 48.4026 131.834 48.7374 131.666C49.0723 131.499 49.1232 130.618 48.6646 129.395C48.206 128.172 47.5872 127.619 47.5872 127.619C47.5872 127.619 47.4271 128.587 47.6382 129.861H47.6309Z" fill="#FAF0B6"/>
<path d="M49.1887 133.093C50.4699 132.707 51.4381 132.882 51.4309 133.253C51.4236 133.625 50.6155 134.076 49.2397 134.222C47.8638 134.367 47.0339 134.069 47.0339 134.069C47.0339 134.069 47.8784 133.486 49.1887 133.086V133.093Z" fill="#FAF0B6"/>
<path d="M50.2443 131.484C50.5137 132.715 51.1179 133.413 51.4382 133.231C51.7585 133.042 51.7658 132.161 51.2489 130.968C50.7248 129.774 50.0769 129.25 50.0769 129.25C50.0769 129.25 49.9677 130.225 50.2443 131.484Z" fill="#FAF0B6"/>
<path d="M51.9695 134.636C53.2289 134.185 54.2044 134.309 54.219 134.68C54.2335 135.051 53.4473 135.546 52.0787 135.765C50.7102 135.983 49.8657 135.728 49.8657 135.728C49.8657 135.728 50.681 135.102 51.9623 134.636H51.9695Z" fill="#FAF0B6"/>
<path d="M52.9451 132.977C53.2727 134.192 53.9206 134.862 54.2336 134.658C54.5467 134.454 54.5103 133.574 53.9206 132.409C53.3382 131.244 52.6612 130.756 52.6612 130.756C52.6612 130.756 52.603 131.732 52.9451 132.984V132.977Z" fill="#FAF0B6"/>
<path d="M54.8305 136.027C56.0608 135.51 57.0436 135.583 57.08 135.954C57.1164 136.325 56.3593 136.857 54.998 137.148C53.644 137.439 52.7922 137.228 52.7922 137.228C52.7922 137.228 53.5712 136.558 54.8305 136.027Z" fill="#FAF0B6"/>
<path d="M55.7187 134.323C56.1118 135.517 56.7889 136.151 57.0946 135.932C57.4003 135.714 57.313 134.833 56.6651 133.697C56.0245 132.562 55.3184 132.11 55.3184 132.11C55.3184 132.11 55.3184 133.093 55.7187 134.316V134.323Z" fill="#FAF0B6"/>
<path d="M57.7643 137.272C58.9654 136.689 59.9482 136.711 60.0064 137.075C60.0647 137.446 59.3294 138.014 57.99 138.378C56.6505 138.742 55.7915 138.575 55.7915 138.575C55.7915 138.575 56.534 137.869 57.7643 137.272Z" fill="#FAF0B6"/>
<path d="M58.5579 135.525C59.0165 136.697 59.7226 137.294 60.0138 137.061C60.305 136.828 60.174 135.954 59.4678 134.855C58.769 133.756 58.041 133.341 58.041 133.341C58.041 133.341 58.0847 134.324 58.5579 135.525Z" fill="#FAF0B6"/>
<path d="M60.7491 138.357C61.9211 137.709 62.9039 137.68 62.9767 138.043C63.0494 138.407 62.3506 139.019 61.033 139.448C59.7154 139.878 58.8418 139.761 58.8418 139.761C58.8418 139.761 59.5479 139.019 60.7418 138.357H60.7491Z" fill="#FAF0B6"/>
<path d="M61.4552 136.573C61.9721 137.723 62.7146 138.283 62.9912 138.029C63.2678 137.774 63.0931 136.915 62.336 135.852C61.579 134.789 60.8364 134.418 60.8364 134.418C60.8364 134.418 60.9311 135.393 61.4625 136.573H61.4552Z" fill="#FAF0B6"/>
<path d="M63.7918 139.288C64.9274 138.582 65.9102 138.502 65.9975 138.858C66.0922 139.222 65.4224 139.863 64.1339 140.365C62.8382 140.868 61.9646 140.788 61.9646 140.788C61.9646 140.788 62.627 140.009 63.7918 139.288Z" fill="#FAF0B6"/>
<path d="M64.4034 137.468C64.9785 138.589 65.7502 139.106 66.0122 138.844C66.2743 138.582 66.0559 137.723 65.2406 136.704C64.4253 135.684 63.6609 135.35 63.6609 135.35C63.6609 135.35 63.8065 136.318 64.4034 137.468Z" fill="#FAF0B6"/>
<path d="M66.8785 140.06C67.9777 139.295 68.9459 139.164 69.0624 139.521C69.1788 139.878 68.5455 140.555 67.2788 141.123C66.0122 141.69 65.1313 141.661 65.1313 141.661C65.1313 141.661 65.7501 140.846 66.8785 140.067V140.06Z" fill="#FAF0B6"/>
<path d="M67.3952 138.211C68.0285 139.303 68.822 139.776 69.0695 139.499C69.317 139.223 69.0549 138.378 68.1887 137.403C67.3224 136.427 66.5435 136.136 66.5435 136.136C66.5435 136.136 66.74 137.097 67.3952 138.211Z" fill="#FAF0B6"/>
<path d="M70.0014 140.664C71.0569 139.842 72.0251 139.66 72.1562 140.009C72.2872 140.358 71.6902 141.072 70.46 141.698C69.2224 142.331 68.3489 142.346 68.3489 142.346C68.3489 142.346 68.9313 141.501 70.0086 140.657L70.0014 140.664Z" fill="#FAF0B6"/>
<path d="M70.4165 138.793C71.1081 139.849 71.9234 140.286 72.1563 139.994C72.3893 139.703 72.0835 138.881 71.1663 137.949C70.2491 137.017 69.4556 136.77 69.4556 136.77C69.4556 136.77 69.7031 137.716 70.4092 138.801L70.4165 138.793Z" fill="#FAF0B6"/>
<path d="M73.1535 141.108C74.1654 140.235 75.119 140.002 75.2719 140.344C75.4248 140.686 74.8642 141.429 73.6631 142.12C72.4619 142.819 71.5884 142.877 71.5884 142.877C71.5884 142.877 72.1198 142.004 73.1535 141.108Z" fill="#FAF0B6"/>
<path d="M73.4737 139.215C74.2162 140.235 75.0607 140.62 75.2791 140.322C75.4975 140.016 75.148 139.208 74.1799 138.335C73.2117 137.461 72.4109 137.243 72.4109 137.243C72.4109 137.243 72.7094 138.174 73.4737 139.215Z" fill="#FAF0B6"/>
<path d="M76.3274 141.385C77.2883 140.46 78.2347 140.176 78.4021 140.511C78.5696 140.846 78.0527 141.61 76.888 142.375C75.7232 143.139 74.8569 143.241 74.8569 143.241C74.8569 143.241 75.3447 142.338 76.3274 141.392V141.385Z" fill="#FAF0B6"/>
<path d="M76.5385 139.478C77.332 140.453 78.1983 140.802 78.3948 140.489C78.5987 140.176 78.2056 139.383 77.1937 138.56C76.1891 137.73 75.3738 137.563 75.3738 137.563C75.3738 137.563 75.7232 138.48 76.5385 139.478Z" fill="#FAF0B6"/>
<path d="M64.8257 21.8815C64.1923 23.0608 63.3916 23.6213 63.1222 23.352C62.8601 23.0899 63.1222 22.1945 63.9885 21.1171C64.862 20.0397 65.6555 19.6685 65.6555 19.6685C65.6555 19.6685 65.4735 20.6731 64.8257 21.8815Z" fill="#FAF0B6"/>
<path d="M65.2113 23.7671C64.1485 23.0828 63.224 23.0173 63.1293 23.3812C63.0347 23.7452 63.6535 24.3713 64.8692 24.8445C66.0849 25.3176 66.9148 25.2303 66.9148 25.2303C66.9148 25.2303 66.3033 24.4659 65.2186 23.7671H65.2113Z" fill="#FAF0B6"/>
<path d="M61.7609 22.7626C61.1931 23.971 60.4141 24.5752 60.1375 24.3204C59.8609 24.0656 60.072 23.1629 60.88 22.0419C61.6954 20.9208 62.467 20.5059 62.467 20.5059C62.467 20.5059 62.336 21.525 61.7536 22.7626H61.7609Z" fill="#FAF0B6"/>
<path d="M62.2486 24.6188C61.1567 23.9927 60.2249 23.9782 60.1521 24.3421C60.072 24.7061 60.7272 25.3031 61.9647 25.718C63.2023 26.1329 64.0249 25.9946 64.0249 25.9946C64.0249 25.9946 63.3697 25.2594 62.2486 24.6188Z" fill="#FAF0B6"/>
<path d="M58.7544 23.7961C58.2521 25.0336 57.5096 25.6742 57.2184 25.4413C56.9272 25.2083 57.0874 24.2911 57.8444 23.1263C58.5942 21.9616 59.3513 21.5103 59.3513 21.5103C59.3513 21.5103 59.2713 22.5294 58.7544 23.8034V23.7961Z" fill="#FAF0B6"/>
<path d="M59.3367 25.6307C58.2084 25.0628 57.2838 25.092 57.2256 25.4632C57.1674 25.8345 57.8517 26.395 59.1038 26.7372C60.3631 27.0866 61.1785 26.9046 61.1785 26.9046C61.1785 26.9046 60.4869 26.2058 59.3367 25.6234V25.6307Z" fill="#FAF0B6"/>
<path d="M55.806 24.9897C55.3692 26.2491 54.6558 26.9334 54.3574 26.715C54.0589 26.4966 54.1681 25.5721 54.8597 24.371C55.5512 23.1698 56.2792 22.6748 56.2792 22.6748C56.2792 22.6748 56.2574 23.7012 55.806 24.9897Z" fill="#FAF0B6"/>
<path d="M56.483 26.7882C55.3329 26.2786 54.4083 26.3587 54.3719 26.73C54.3355 27.1012 55.0417 27.6254 56.3156 27.902C57.5896 28.1786 58.3903 27.9602 58.3903 27.9602C58.3903 27.9602 57.6624 27.2978 56.483 26.7809V26.7882Z" fill="#FAF0B6"/>
<path d="M52.9234 26.3295C52.5521 27.6107 51.8824 28.3314 51.5694 28.1275C51.2563 27.9237 51.3218 26.9992 51.9479 25.7616C52.574 24.5241 53.2728 23.9927 53.2728 23.9927C53.2728 23.9927 53.3019 25.0191 52.9234 26.3295Z" fill="#FAF0B6"/>
<path d="M53.6877 28.0909C52.5084 27.6468 51.5912 27.7706 51.5766 28.1418C51.5548 28.5131 52.2973 29.0008 53.5786 29.2119C54.8671 29.423 55.6533 29.161 55.6533 29.161C55.6533 29.161 54.8962 28.5422 53.6877 28.0836V28.0909Z" fill="#FAF0B6"/>
<path d="M50.1134 27.8215C49.8077 29.1246 49.1744 29.8744 48.8541 29.6851C48.5337 29.4958 48.5483 28.5713 49.1088 27.2974C49.6694 26.0307 50.3464 25.4629 50.3464 25.4629C50.3464 25.4629 50.4265 26.482 50.1207 27.8142L50.1134 27.8215Z" fill="#FAF0B6"/>
<path d="M50.9724 29.5469C49.7713 29.1611 48.8613 29.3358 48.8613 29.7143C48.8613 30.0856 49.6257 30.5369 50.9215 30.6825C52.2173 30.8281 52.9962 30.5224 52.9962 30.5224C52.9962 30.5224 52.2027 29.94 50.9724 29.5469Z" fill="#FAF0B6"/>
<path d="M47.3835 29.467C47.1506 30.7846 46.5537 31.5636 46.2188 31.3961C45.8839 31.2287 45.8548 30.2969 46.3498 29.0011C46.8448 27.7053 47.4855 27.1084 47.4855 27.1084C47.4855 27.1084 47.6238 28.1276 47.3835 29.4743V29.467Z" fill="#FAF0B6"/>
<path d="M48.3298 31.1341C47.1141 30.8138 46.2115 31.0395 46.2333 31.4107C46.2551 31.782 47.0341 32.1897 48.3371 32.2697C49.6402 32.3498 50.3973 32.0077 50.3973 32.0077C50.3973 32.0077 49.5747 31.469 48.3298 31.1414V31.1341Z" fill="#FAF0B6"/>
<path d="M44.7482 31.2434C44.5808 32.5683 44.0276 33.3836 43.6927 33.2307C43.3505 33.0779 43.2705 32.1533 43.6927 30.8357C44.1149 29.5181 44.7264 28.8848 44.7264 28.8848C44.7264 28.8848 44.9157 29.8894 44.7482 31.2507V31.2434Z" fill="#FAF0B6"/>
<path d="M45.782 32.8593C44.5518 32.6046 43.6637 32.8739 43.7001 33.2452C43.7365 33.6164 44.5445 33.9804 45.8476 33.9877C47.1506 33.995 47.8931 33.6164 47.8931 33.6164C47.8931 33.6164 47.0487 33.1214 45.782 32.8593Z" fill="#FAF0B6"/>
<path d="M42.2075 33.1579C42.1129 34.4901 41.6033 35.3346 41.2539 35.1962C40.9044 35.0579 40.7807 34.1407 41.1301 32.8012C41.4868 31.4618 42.0619 30.7993 42.0619 30.7993C42.0619 30.7993 42.3021 31.7966 42.2075 33.1579Z" fill="#FAF0B6"/>
<path d="M43.3214 34.7229C42.0766 34.5337 41.2031 34.8467 41.2613 35.2179C41.3195 35.5892 42.1421 35.9095 43.4452 35.8513C44.7483 35.793 45.4689 35.3708 45.4689 35.3708C45.4689 35.3708 44.5954 34.9195 43.3214 34.7229Z" fill="#FAF0B6"/>
<path d="M39.769 35.2033C39.7399 36.5428 39.2813 37.4091 38.9246 37.2853C38.5679 37.1689 38.3932 36.2589 38.6771 34.8976C38.961 33.5363 39.4997 32.8447 39.4997 32.8447C39.4997 32.8447 39.7909 33.8275 39.769 35.1961V35.2033Z" fill="#FAF0B6"/>
<path d="M40.9629 36.7028C39.7107 36.579 38.859 36.9357 38.9318 37.2997C39.0046 37.6637 39.8491 37.9403 41.1448 37.8166C42.4406 37.6928 43.1395 37.2342 43.1395 37.2342C43.1395 37.2342 42.2441 36.8338 40.9629 36.7028Z" fill="#FAF0B6"/>
<path d="M37.4395 37.3725C37.4832 38.7046 37.0609 39.6 36.7042 39.4981C36.3475 39.3962 36.1219 38.5008 36.333 37.1322C36.5441 35.7637 37.0537 35.043 37.0537 35.043C37.0537 35.043 37.3958 36.0112 37.4395 37.3797V37.3725Z" fill="#FAF0B6"/>
<path d="M38.7134 38.8138C37.454 38.7555 36.6241 39.1559 36.7188 39.5199C36.8134 39.8839 37.6651 40.1168 38.9536 39.9203C40.2421 39.7237 40.9119 39.236 40.9119 39.236C40.9119 39.236 39.9946 38.8793 38.7061 38.8211L38.7134 38.8138Z" fill="#FAF0B6"/>
<path d="M35.2263 39.6582C35.3428 40.9904 34.9715 41.9004 34.6003 41.8203C34.2363 41.7402 33.9669 40.8521 34.1053 39.4763C34.2436 38.0931 34.7095 37.3506 34.7095 37.3506C34.7095 37.3506 35.1026 38.2969 35.219 39.6582H35.2263Z" fill="#FAF0B6"/>
<path d="M36.5805 41.0342C35.3211 41.0342 34.5131 41.4855 34.6295 41.8422C34.746 42.1989 35.605 42.3882 36.8862 42.1261C38.1675 41.8641 38.8081 41.3399 38.8081 41.3399C38.8081 41.3399 37.8763 41.0342 36.5878 41.0415L36.5805 41.0342Z" fill="#FAF0B6"/>
<path d="M33.1444 42.0608C33.3264 43.3857 33.0061 44.3102 32.6348 44.2519C32.2636 44.1937 31.9505 43.3201 32.016 41.937C32.0816 40.5539 32.5111 39.7822 32.5111 39.7822C32.5111 39.7822 32.9551 40.7067 33.1444 42.0608Z" fill="#FAF0B6"/>
<path d="M34.5639 43.3564C33.3045 43.4292 32.5183 43.9169 32.6566 44.2663C32.7949 44.6158 33.6612 44.7614 34.9206 44.4338C36.1799 44.1062 36.7987 43.5457 36.7987 43.5457C36.7987 43.5457 35.8524 43.2909 34.5639 43.3637V43.3564Z" fill="#FAF0B6"/>
<path d="M31.1862 44.5722C31.441 45.8826 31.1644 46.8289 30.7931 46.7852C30.4218 46.7416 30.0579 45.8898 30.0579 44.5067C30.0579 43.1236 30.4364 42.3301 30.4364 42.3301C30.4364 42.3301 30.9241 43.2328 31.1862 44.5722Z" fill="#FAF0B6"/>
<path d="M32.6712 45.7881C31.4191 45.9264 30.6621 46.4578 30.8149 46.7999C30.9678 47.1421 31.8414 47.2367 33.0862 46.8436C34.331 46.4505 34.9134 45.8609 34.9134 45.8609C34.9134 45.8609 33.9525 45.6498 32.6712 45.7954V45.7881Z" fill="#FAF0B6"/>
<path d="M29.359 47.1784C29.6793 48.4742 29.4536 49.4351 29.0823 49.4133C28.7111 49.3915 28.3034 48.5616 28.2306 47.1712C28.1578 45.788 28.5 44.98 28.5 44.98C28.5 44.98 29.0387 45.8535 29.3663 47.1784H29.359Z" fill="#FAF0B6"/>
<path d="M30.9024 48.3211C29.6576 48.5249 28.9296 49.0927 29.097 49.4276C29.2645 49.7625 30.1453 49.8134 31.3683 49.3548C32.5913 48.8962 33.1445 48.2774 33.1445 48.2774C33.1445 48.2774 32.1763 48.1173 30.9024 48.3284V48.3211Z" fill="#FAF0B6"/>
<path d="M27.6701 49.8721C28.0559 51.1533 27.8812 52.1215 27.5099 52.1142C27.1387 52.1142 26.6873 51.2989 26.5417 49.923C26.3961 48.5472 26.6946 47.7173 26.6946 47.7173C26.6946 47.7173 27.277 48.5617 27.6774 49.8721H27.6701Z" fill="#FAF0B6"/>
<path d="M29.2789 50.9348C28.0486 51.2041 27.3498 51.8083 27.5318 52.1286C27.7138 52.449 28.6019 52.4562 29.7958 51.9394C30.9896 51.4152 31.5138 50.7673 31.5138 50.7673C31.5138 50.7673 30.5383 50.6582 29.2789 50.9348Z" fill="#FAF0B6"/>
<path d="M26.1267 52.66C26.578 53.9194 26.4543 54.8948 26.083 54.9094C25.7118 54.924 25.2168 54.1378 24.9984 52.7692C24.78 51.4006 25.0348 50.5562 25.0348 50.5562C25.0348 50.5562 25.6608 51.3715 26.1267 52.6527V52.66Z" fill="#FAF0B6"/>
<path d="M27.7867 53.628C26.571 53.9556 25.9012 54.6035 26.1051 54.9165C26.3089 55.2295 27.1897 55.1931 28.3545 54.6035C29.5192 54.0211 30.007 53.3441 30.007 53.3441C30.007 53.3441 29.0315 53.2859 27.7794 53.628H27.7867Z" fill="#FAF0B6"/>
<path d="M24.7363 55.5207C25.2531 56.751 25.1803 57.7338 24.8091 57.7702C24.4378 57.8065 23.9064 57.0495 23.6152 55.6882C23.324 54.3341 23.5351 53.4824 23.5351 53.4824C23.5351 53.4824 24.2049 54.2613 24.7363 55.5207Z" fill="#FAF0B6"/>
<path d="M26.4398 56.4018C25.2459 56.795 24.6126 57.472 24.831 57.7777C25.0494 58.0835 25.9302 57.9961 27.0658 57.3482C28.2015 56.7076 28.6528 56.0015 28.6528 56.0015C28.6528 56.0015 27.67 56.0015 26.4471 56.4018H26.4398Z" fill="#FAF0B6"/>
<path d="M23.4917 58.4474C24.074 59.6485 24.0522 60.6313 23.6882 60.6895C23.3242 60.7478 22.7491 60.0125 22.3851 58.6731C22.0212 57.3336 22.1886 56.4746 22.1886 56.4746C22.1886 56.4746 22.8947 57.2171 23.4917 58.4474Z" fill="#FAF0B6"/>
<path d="M25.2386 59.241C24.0666 59.6996 23.4697 60.4057 23.7026 60.6969C23.9356 60.9881 24.8091 60.8571 25.9083 60.1509C27.0076 59.4521 27.4225 58.7241 27.4225 58.7241C27.4225 58.7241 26.4398 58.7678 25.2386 59.241Z" fill="#FAF0B6"/>
<path d="M22.3996 61.439C23.0475 62.611 23.0766 63.5938 22.7126 63.6666C22.3486 63.7394 21.7372 63.0405 21.3077 61.7229C20.8782 60.4053 20.9946 59.5317 20.9946 59.5317C20.9946 59.5317 21.7372 60.2379 22.3996 61.4317V61.439Z" fill="#FAF0B6"/>
<path d="M24.1904 62.1383C23.0402 62.6552 22.4796 63.3977 22.7344 63.6743C22.9819 63.9509 23.8482 63.7762 24.9111 63.0191C25.9739 62.2621 26.3452 61.5195 26.3452 61.5195C26.3452 61.5195 25.3697 61.6142 24.1904 62.1456V62.1383Z" fill="#FAF0B6"/>
<path d="M21.4679 64.482C22.174 65.6176 22.2541 66.6004 21.8974 66.6877C21.5334 66.7824 20.8928 66.1126 20.3905 64.8241C19.8882 63.5283 19.9683 62.6548 19.9683 62.6548C19.9683 62.6548 20.7472 63.3172 21.4679 64.482Z" fill="#FAF0B6"/>
<path d="M23.2951 65.0863C22.1741 65.6614 21.6572 66.433 21.9193 66.6951C22.1813 66.9572 23.0403 66.7388 24.0595 65.9234C25.0787 65.1081 25.4135 64.3438 25.4135 64.3438C25.4135 64.3438 24.4453 64.4893 23.2951 65.0863Z" fill="#FAF0B6"/>
<path d="M20.7033 67.5689C21.4677 68.6681 21.5987 69.6363 21.242 69.7528C20.8853 69.8693 20.2083 69.2359 19.6405 67.9693C19.0727 66.7026 19.1018 65.8218 19.1018 65.8218C19.1018 65.8218 19.9171 66.4406 20.6961 67.5689H20.7033Z" fill="#FAF0B6"/>
<path d="M22.5524 68.0783C21.4605 68.7116 20.9873 69.5051 21.2639 69.7526C21.5405 70.0001 22.385 69.7381 23.3605 68.8718C24.3359 68.0055 24.6271 67.2266 24.6271 67.2266C24.6271 67.2266 23.6662 67.4231 22.5524 68.0783Z" fill="#FAF0B6"/>
<path d="M20.092 70.6916C20.9146 71.7471 21.0966 72.7153 20.7472 72.8463C20.3978 72.9774 19.6843 72.3804 19.0583 71.1502C18.425 69.9126 18.4104 69.0391 18.4104 69.0391C18.4104 69.0391 19.2548 69.6214 20.0993 70.6988L20.092 70.6916Z" fill="#FAF0B6"/>
<path d="M21.9701 71.1064C20.9145 71.798 20.4777 72.6133 20.7689 72.8463C21.0601 73.0792 21.8827 72.7735 22.8145 71.8562C23.7463 70.939 23.9938 70.1455 23.9938 70.1455C23.9938 70.1455 23.0475 70.393 21.9628 71.0991L21.9701 71.1064Z" fill="#FAF0B6"/>
<path d="M19.6479 73.8439C20.5214 74.8558 20.7544 75.8095 20.4122 75.9623C20.0701 76.1152 19.3276 75.5547 18.636 74.3535C17.9371 73.1524 17.8789 72.2788 17.8789 72.2788C17.8789 72.2788 18.7525 72.8102 19.6479 73.8439Z" fill="#FAF0B6"/>
<path d="M21.5479 74.1571C20.5288 74.8996 20.143 75.744 20.4414 75.9624C20.7472 76.1808 21.5552 75.8314 22.4288 74.8632C23.3096 73.9023 23.5207 73.0942 23.5207 73.0942C23.5207 73.0942 22.5889 73.3927 21.5479 74.1571Z" fill="#FAF0B6"/>
<path d="M19.3712 77.0105C20.2957 77.9715 20.5796 78.9178 20.2448 79.0852C19.9099 79.2527 19.1455 78.7358 18.3812 77.5711C17.6241 76.4063 17.5149 75.54 17.5149 75.54C17.5149 75.54 18.4176 76.0278 19.3639 77.0105H19.3712Z" fill="#FAF0B6"/>
<path d="M21.2859 77.2287C20.3104 78.0222 19.961 78.8885 20.274 79.085C20.587 79.2889 21.3805 78.8958 22.2031 77.8839C23.033 76.8793 23.2004 76.064 23.2004 76.064C23.2004 76.064 22.2832 76.4134 21.2859 77.2287Z" fill="#FAF0B6"/>
<path d="M140.738 80.1918C139.763 81.1017 139.428 82.0335 139.755 82.2155C140.083 82.3975 140.876 81.9243 141.692 80.8033C142.507 79.6822 142.66 78.8159 142.66 78.8159C142.66 78.8159 141.735 79.2527 140.738 80.1918Z" fill="#FAF0B6"/>
<path d="M138.823 80.3082C139.755 81.1527 140.061 82.0335 139.733 82.2155C139.413 82.3975 138.641 81.968 137.87 80.9197C137.098 79.8714 136.967 79.0488 136.967 79.0488C136.967 79.0488 137.862 79.4419 138.823 80.3082Z" fill="#FAF0B6"/>
<path d="M140.687 83.3731C139.668 84.2321 139.282 85.1421 139.595 85.3459C139.908 85.5497 140.731 85.113 141.604 84.0356C142.478 82.9582 142.682 82.1064 142.682 82.1064C142.682 82.1064 141.735 82.4995 140.687 83.3804V83.3731Z" fill="#FAF0B6"/>
<path d="M138.758 83.3877C139.646 84.2831 139.901 85.1712 139.566 85.3386C139.231 85.5061 138.488 85.0329 137.768 83.9409C137.047 82.8562 136.967 82.0264 136.967 82.0264C136.967 82.0264 137.841 82.4704 138.751 83.3877H138.758Z" fill="#FAF0B6"/>
<path d="M140.461 86.5471C139.399 87.3551 138.969 88.236 139.275 88.4543C139.581 88.6727 140.418 88.2796 141.349 87.2532C142.281 86.2268 142.521 85.3823 142.521 85.3823C142.521 85.3823 141.553 85.7245 140.461 86.5471Z" fill="#FAF0B6"/>
<path d="M138.54 86.4594C139.377 87.3985 139.588 88.3012 139.246 88.454C138.904 88.6069 138.183 88.09 137.528 86.969C136.865 85.8479 136.829 85.0107 136.829 85.0107C136.829 85.0107 137.681 85.4985 138.54 86.4594Z" fill="#FAF0B6"/>
<path d="M140.076 89.7064C138.969 90.4562 138.496 91.3152 138.787 91.5481C139.078 91.7811 139.937 91.4317 140.92 90.4562C141.903 89.4807 142.187 88.6436 142.187 88.6436C142.187 88.6436 141.204 88.9347 140.068 89.6991L140.076 89.7064Z" fill="#FAF0B6"/>
<path d="M138.161 89.517C138.947 90.4998 139.115 91.4097 138.765 91.548C138.416 91.6864 137.724 91.1331 137.127 89.9756C136.53 88.8182 136.53 87.9883 136.53 87.9883C136.53 87.9883 137.353 88.5197 138.161 89.5243V89.517Z" fill="#FAF0B6"/>
<path d="M139.522 92.8365C138.379 93.5281 137.863 94.3652 138.139 94.6127C138.416 94.8602 139.297 94.5618 140.33 93.63C141.364 92.7055 141.692 91.8901 141.692 91.8901C141.692 91.8901 140.694 92.1304 139.522 92.8365Z" fill="#FAF0B6"/>
<path d="M137.622 92.5526C138.358 93.5718 138.474 94.4963 138.117 94.6128C137.761 94.7292 137.098 94.1396 136.56 92.953C136.021 91.7664 136.072 90.9365 136.072 90.9365C136.072 90.9365 136.865 91.5116 137.622 92.5599V92.5526Z" fill="#FAF0B6"/>
<path d="M138.809 95.9378C137.63 96.5711 137.069 97.3719 137.338 97.6412C137.608 97.9106 138.496 97.6412 139.573 96.775C140.651 95.9014 141.022 95.1079 141.022 95.1079C141.022 95.1079 140.017 95.2899 138.809 95.9378Z" fill="#FAF0B6"/>
<path d="M136.923 95.5516C137.608 96.6144 137.673 97.5389 137.309 97.6336C136.945 97.7282 136.319 97.1094 135.846 95.8937C135.373 94.678 135.46 93.8481 135.46 93.8481C135.46 93.8481 136.225 94.4596 136.923 95.5443V95.5516Z" fill="#FAF0B6"/>
<path d="M137.928 98.9952C136.72 99.563 136.115 100.342 136.37 100.619C136.625 100.895 137.528 100.684 138.649 99.876C139.77 99.0607 140.185 98.2891 140.185 98.2891C140.185 98.2891 139.166 98.4201 137.928 99.0025V98.9952Z" fill="#FAF0B6"/>
<path d="M136.072 98.5145C136.698 99.6065 136.712 100.538 136.348 100.611C135.984 100.691 135.388 100.036 134.973 98.7984C134.558 97.5609 134.696 96.7383 134.696 96.7383C134.696 96.7383 135.431 97.3934 136.072 98.5145Z" fill="#FAF0B6"/>
<path d="M136.894 102.009C135.657 102.511 135.016 103.254 135.249 103.545C135.482 103.836 136.399 103.676 137.564 102.919C138.729 102.169 139.18 101.412 139.18 101.412C139.18 101.412 138.161 101.492 136.887 102.009H136.894Z" fill="#FAF0B6"/>
<path d="M135.06 101.427C135.628 102.555 135.599 103.48 135.227 103.538C134.856 103.596 134.295 102.912 133.953 101.66C133.604 100.4 133.786 99.585 133.786 99.585C133.786 99.585 134.485 100.277 135.067 101.427H135.06Z" fill="#FAF0B6"/>
<path d="M135.701 104.957C134.441 105.394 133.757 106.107 133.975 106.406C134.194 106.704 135.118 106.595 136.319 105.903C137.52 105.212 138.016 104.484 138.016 104.484C138.016 104.484 136.989 104.506 135.701 104.957Z" fill="#FAF0B6"/>
<path d="M133.902 104.28C134.412 105.431 134.332 106.355 133.961 106.391C133.589 106.428 133.065 105.722 132.789 104.448C132.512 103.174 132.73 102.373 132.73 102.373C132.73 102.373 133.393 103.101 133.91 104.28H133.902Z" fill="#FAF0B6"/>
<path d="M134.354 107.84C133.073 108.211 132.352 108.881 132.556 109.194C132.76 109.507 133.684 109.441 134.922 108.815C136.159 108.189 136.691 107.49 136.691 107.49C136.691 107.49 135.664 107.461 134.354 107.84Z" fill="#FAF0B6"/>
<path d="M132.592 107.075C133.036 108.255 132.912 109.172 132.541 109.186C132.17 109.208 131.682 108.466 131.471 107.185C131.26 105.896 131.522 105.11 131.522 105.11C131.522 105.11 132.141 105.867 132.599 107.075H132.592Z" fill="#FAF0B6"/>
<path d="M132.861 110.65C131.558 110.955 130.808 111.589 130.998 111.909C131.187 112.229 132.112 112.215 133.386 111.654C134.652 111.094 135.22 110.417 135.22 110.417C135.22 110.417 134.201 110.337 132.869 110.642L132.861 110.65Z" fill="#FAF0B6"/>
<path d="M131.143 109.791C131.529 110.992 131.355 111.902 130.976 111.902C130.605 111.902 130.153 111.138 130.008 109.842C129.862 108.546 130.168 107.767 130.168 107.767C130.168 107.767 130.75 108.561 131.143 109.791Z" fill="#FAF0B6"/>
<path d="M131.224 113.38C129.906 113.613 129.127 114.21 129.294 114.545C129.462 114.879 130.394 114.909 131.689 114.414C132.985 113.919 133.582 113.278 133.582 113.278C133.582 113.278 132.563 113.14 131.216 113.38H131.224Z" fill="#FAF0B6"/>
<path d="M129.549 112.426C129.869 113.642 129.644 114.545 129.273 114.523C128.901 114.501 128.494 113.722 128.414 112.419C128.333 111.116 128.676 110.359 128.676 110.359C128.676 110.359 129.214 111.181 129.542 112.426H129.549Z" fill="#FAF0B6"/>
<path d="M129.447 116.015C128.122 116.182 127.307 116.736 127.46 117.07C127.613 117.413 128.537 117.493 129.855 117.07C131.173 116.648 131.806 116.037 131.806 116.037C131.806 116.037 130.801 115.848 129.44 116.015H129.447Z" fill="#FAF0B6"/>
<path d="M127.824 114.981C128.079 116.211 127.809 117.1 127.438 117.063C127.067 117.02 126.703 116.219 126.695 114.916C126.688 113.613 127.067 112.87 127.067 112.87C127.067 112.87 127.562 113.715 127.824 114.981Z" fill="#FAF0B6"/>
<path d="M127.533 118.556C126.2 118.65 125.356 119.16 125.494 119.509C125.633 119.859 126.55 119.983 127.889 119.633C129.229 119.276 129.891 118.701 129.891 118.701C129.891 118.701 128.894 118.461 127.533 118.556Z" fill="#FAF0B6"/>
<path d="M125.967 117.442C126.157 118.687 125.844 119.56 125.472 119.502C125.101 119.444 124.781 118.621 124.839 117.318C124.897 116.015 125.32 115.294 125.32 115.294C125.32 115.294 125.771 116.168 125.967 117.442Z" fill="#FAF0B6"/>
<path d="M125.487 120.994C124.148 121.023 123.281 121.482 123.405 121.839C123.522 122.195 124.431 122.37 125.793 122.086C127.154 121.802 127.846 121.264 127.846 121.264C127.846 121.264 126.863 120.972 125.494 120.994H125.487Z" fill="#FAF0B6"/>
<path d="M123.98 119.793C124.104 121.045 123.747 121.897 123.383 121.824C123.019 121.752 122.743 120.907 122.866 119.611C122.99 118.316 123.449 117.617 123.449 117.617C123.449 117.617 123.849 118.512 123.98 119.793Z" fill="#FAF0B6"/>
<path d="M123.318 123.324C121.986 123.28 121.09 123.702 121.192 124.059C121.294 124.416 122.19 124.642 123.558 124.43C124.927 124.219 125.647 123.71 125.647 123.71C125.647 123.71 124.679 123.368 123.311 123.324H123.318Z" fill="#FAF0B6"/>
<path d="M121.877 122.05C121.935 123.309 121.534 124.139 121.17 124.045C120.814 123.95 120.573 123.098 120.77 121.81C120.967 120.521 121.454 119.852 121.454 119.852C121.454 119.852 121.811 120.769 121.869 122.057L121.877 122.05Z" fill="#FAF0B6"/>
<path d="M121.025 125.53C119.692 125.413 118.782 125.784 118.863 126.156C118.943 126.52 119.831 126.789 121.207 126.651C122.59 126.512 123.332 126.046 123.332 126.046C123.332 126.046 122.386 125.653 121.025 125.537V125.53Z" fill="#FAF0B6"/>
<path d="M119.656 124.183C119.656 125.442 119.205 126.25 118.848 126.134C118.491 126.017 118.302 125.158 118.564 123.877C118.826 122.603 119.35 121.955 119.35 121.955C119.35 121.955 119.656 122.887 119.649 124.175L119.656 124.183Z" fill="#FAF0B6"/>
<path d="M118.622 127.619C117.298 127.437 116.373 127.757 116.431 128.129C116.49 128.5 117.363 128.813 118.746 128.747C120.129 128.682 120.901 128.252 120.901 128.252C120.901 128.252 119.977 127.808 118.622 127.619Z" fill="#FAF0B6"/>
<path d="M117.327 126.199C117.254 127.459 116.766 128.245 116.417 128.106C116.067 127.968 115.922 127.102 116.249 125.843C116.577 124.583 117.137 123.964 117.137 123.964C117.137 123.964 117.392 124.911 117.319 126.199H117.327Z" fill="#FAF0B6"/>
<path d="M116.118 129.577C114.808 129.322 113.862 129.599 113.905 129.97C113.949 130.341 114.801 130.705 116.184 130.705C117.574 130.705 118.36 130.327 118.36 130.327C118.36 130.327 117.458 129.839 116.118 129.577Z" fill="#FAF0B6"/>
<path d="M114.895 128.092C114.757 129.344 114.225 130.101 113.883 129.948C113.541 129.795 113.446 128.922 113.84 127.677C114.233 126.432 114.822 125.85 114.822 125.85C114.822 125.85 115.033 126.811 114.888 128.092H114.895Z" fill="#FAF0B6"/>
<path d="M113.512 131.404C112.216 131.084 111.255 131.309 111.277 131.681C111.299 132.052 112.129 132.46 113.519 132.532C114.903 132.605 115.711 132.263 115.711 132.263C115.711 132.263 114.837 131.724 113.512 131.397V131.404Z" fill="#FAF0B6"/>
<path d="M112.369 129.861C112.165 131.106 111.598 131.834 111.263 131.666C110.928 131.499 110.877 130.618 111.335 129.395C111.794 128.172 112.413 127.619 112.413 127.619C112.413 127.619 112.573 128.587 112.362 129.861H112.369Z" fill="#FAF0B6"/>
<path d="M110.811 133.093C109.53 132.707 108.562 132.882 108.569 133.253C108.576 133.625 109.384 134.076 110.76 134.222C112.136 134.367 112.966 134.069 112.966 134.069C112.966 134.069 112.122 133.486 110.811 133.086V133.093Z" fill="#FAF0B6"/>
<path d="M109.756 131.484C109.486 132.715 108.882 133.413 108.562 133.231C108.242 133.042 108.234 132.161 108.751 130.968C109.275 129.774 109.923 129.25 109.923 129.25C109.923 129.25 110.032 130.225 109.756 131.484Z" fill="#FAF0B6"/>
<path d="M108.03 134.636C106.771 134.185 105.796 134.309 105.781 134.68C105.766 135.051 106.553 135.546 107.921 135.765C109.29 135.983 110.134 135.728 110.134 135.728C110.134 135.728 109.319 135.102 108.038 134.636H108.03Z" fill="#FAF0B6"/>
<path d="M107.055 132.977C106.727 134.192 106.079 134.862 105.766 134.658C105.453 134.454 105.49 133.574 106.079 132.409C106.662 131.244 107.339 130.756 107.339 130.756C107.339 130.756 107.397 131.732 107.055 132.984V132.977Z" fill="#FAF0B6"/>
<path d="M105.17 136.027C103.939 135.51 102.957 135.583 102.92 135.954C102.884 136.325 103.641 136.857 105.002 137.148C106.356 137.439 107.208 137.228 107.208 137.228C107.208 137.228 106.429 136.558 105.17 136.027Z" fill="#FAF0B6"/>
<path d="M104.281 134.323C103.888 135.517 103.211 136.151 102.906 135.932C102.607 135.714 102.687 134.833 103.335 133.697C103.976 132.562 104.682 132.11 104.682 132.11C104.682 132.11 104.682 133.093 104.281 134.316V134.323Z" fill="#FAF0B6"/>
<path d="M102.243 137.272C101.042 136.689 100.059 136.711 100.001 137.075C99.9428 137.446 100.678 138.014 102.017 138.378C103.357 138.742 104.216 138.575 104.216 138.575C104.216 138.575 103.473 137.869 102.243 137.272Z" fill="#FAF0B6"/>
<path d="M101.45 135.525C100.991 136.697 100.285 137.294 99.9937 137.061C99.7026 136.828 99.8336 135.954 100.54 134.855C101.239 133.756 101.967 133.341 101.967 133.341C101.967 133.341 101.923 134.324 101.45 135.525Z" fill="#FAF0B6"/>
<path d="M99.2511 138.357C98.079 137.709 97.0963 137.68 97.0235 138.043C96.9507 138.407 97.6495 139.019 98.9671 139.448C100.285 139.878 101.158 139.761 101.158 139.761C101.158 139.761 100.452 139.019 99.2583 138.357H99.2511Z" fill="#FAF0B6"/>
<path d="M98.5522 136.573C98.0354 137.723 97.2928 138.283 97.0162 138.029C96.7396 137.774 96.9143 136.915 97.6714 135.852C98.4285 134.789 99.171 134.418 99.171 134.418C99.171 134.418 99.0763 135.393 98.5449 136.573H98.5522Z" fill="#FAF0B6"/>
<path d="M96.2082 139.288C95.0726 138.582 94.0898 138.502 94.0025 138.858C93.9078 139.222 94.5776 139.863 95.8661 140.365C97.1619 140.868 98.0354 140.788 98.0354 140.788C98.0354 140.788 97.373 140.009 96.2082 139.288Z" fill="#FAF0B6"/>
<path d="M95.6042 137.468C95.0291 138.589 94.2574 139.106 93.9953 138.844C93.7333 138.582 93.9517 137.723 94.767 136.704C95.5823 135.684 96.3467 135.35 96.3467 135.35C96.3467 135.35 96.2011 136.318 95.6042 137.468Z" fill="#FAF0B6"/>
<path d="M93.1216 140.06C92.0224 139.295 91.0542 139.164 90.9377 139.521C90.8212 139.878 91.4546 140.555 92.7212 141.123C93.9879 141.69 94.8687 141.661 94.8687 141.661C94.8687 141.661 94.2499 140.846 93.1216 140.067V140.06Z" fill="#FAF0B6"/>
<path d="M92.6121 138.211C91.9787 139.303 91.1852 139.776 90.9377 139.499C90.6902 139.223 90.9523 138.378 91.8186 137.403C92.6849 136.427 93.4638 136.136 93.4638 136.136C93.4638 136.136 93.2672 137.097 92.6121 138.211Z" fill="#FAF0B6"/>
<path d="M89.9987 140.664C88.9432 139.842 87.975 139.66 87.8439 140.009C87.7129 140.358 88.3098 141.072 89.5401 141.698C90.7704 142.324 91.6512 142.346 91.6512 142.346C91.6512 142.346 91.0688 141.501 89.9914 140.657L89.9987 140.664Z" fill="#FAF0B6"/>
<path d="M89.5837 138.793C88.8921 139.849 88.0768 140.286 87.8439 139.994C87.6109 139.703 87.9167 138.881 88.8339 137.949C89.7511 137.017 90.5446 136.77 90.5446 136.77C90.5446 136.77 90.2971 137.716 89.591 138.801L89.5837 138.793Z" fill="#FAF0B6"/>
<path d="M86.8467 141.108C85.8348 140.235 84.8811 140.002 84.7283 140.344C84.5754 140.686 85.1359 141.429 86.3371 142.12C87.5382 142.819 88.4118 142.877 88.4118 142.877C88.4118 142.877 87.8804 142.004 86.8467 141.108Z" fill="#FAF0B6"/>
<path d="M86.5335 139.215C85.791 140.235 84.9466 140.62 84.7282 140.322C84.5098 140.016 84.8592 139.208 85.8274 138.335C86.7883 137.454 87.5964 137.243 87.5964 137.243C87.5964 137.243 87.2979 138.174 86.5335 139.215Z" fill="#FAF0B6"/>
<path d="M83.68 141.385C82.719 140.46 81.7727 140.176 81.6053 140.511C81.4378 140.846 81.9547 141.61 83.1194 142.375C84.2842 143.132 85.1505 143.241 85.1505 143.241C85.1505 143.241 84.6627 142.338 83.68 141.392V141.385Z" fill="#FAF0B6"/>
<path d="M83.4616 139.478C82.6681 140.453 81.8019 140.802 81.6053 140.489C81.4015 140.176 81.7946 139.383 82.8065 138.56C83.8111 137.73 84.6264 137.563 84.6264 137.563C84.6264 137.563 84.277 138.48 83.4616 139.478Z" fill="#FAF0B6"/>
<path d="M95.1819 21.8815C95.8153 23.0608 96.616 23.6213 96.8854 23.352C97.1474 23.0899 96.8854 22.1945 96.0191 21.1171C95.1455 20.0397 94.3521 19.6685 94.3521 19.6685C94.3521 19.6685 94.534 20.6731 95.1819 21.8815Z" fill="#FAF0B6"/>
<path d="M94.796 23.7671C95.8588 23.0828 96.7833 23.0173 96.878 23.3812C96.9726 23.7452 96.3538 24.3713 95.1381 24.8445C93.9224 25.3176 93.0925 25.2303 93.0925 25.2303C93.0925 25.2303 93.704 24.4659 94.7887 23.7671H94.796Z" fill="#FAF0B6"/>
<path d="M98.2393 22.7626C98.8071 23.971 99.5861 24.5752 99.8627 24.3204C100.139 24.0656 99.9282 23.1629 99.1202 22.0419C98.3049 20.9208 97.5332 20.5059 97.5332 20.5059C97.5332 20.5059 97.6642 21.525 98.2466 22.7626H98.2393Z" fill="#FAF0B6"/>
<path d="M97.7516 24.6188C98.8435 23.9927 99.7753 23.9782 99.8481 24.3421C99.9209 24.7061 99.273 25.3031 98.0355 25.718C96.7979 26.1329 95.9753 25.9946 95.9753 25.9946C95.9753 25.9946 96.6305 25.2594 97.7516 24.6188Z" fill="#FAF0B6"/>
<path d="M101.246 23.7961C101.748 25.0336 102.491 25.6742 102.782 25.4413C103.073 25.2083 102.913 24.2911 102.156 23.1263C101.406 21.9616 100.649 21.5103 100.649 21.5103C100.649 21.5103 100.729 22.5294 101.246 23.8034V23.7961Z" fill="#FAF0B6"/>
<path d="M100.664 25.6307C101.792 25.0628 102.716 25.092 102.775 25.4632C102.833 25.8345 102.149 26.395 100.896 26.7372C99.6371 27.0866 98.8218 26.9046 98.8218 26.9046C98.8218 26.9046 99.5133 26.2058 100.664 25.6234V25.6307Z" fill="#FAF0B6"/>
<path d="M104.194 24.9897C104.631 26.2491 105.344 26.9334 105.643 26.715C105.941 26.4966 105.832 25.5721 105.14 24.371C104.449 23.1698 103.721 22.6748 103.721 22.6748C103.721 22.6748 103.743 23.7012 104.194 24.9897Z" fill="#FAF0B6"/>
<path d="M103.524 26.7882C104.674 26.2786 105.599 26.3587 105.635 26.73C105.672 27.1012 104.966 27.6254 103.692 27.902C102.418 28.1786 101.617 27.9602 101.617 27.9602C101.617 27.9602 102.345 27.2978 103.524 26.7809V26.7882Z" fill="#FAF0B6"/>
<path d="M107.084 26.3295C107.455 27.6107 108.125 28.3314 108.438 28.1275C108.751 27.9237 108.686 26.9992 108.06 25.7616C107.434 24.5241 106.735 23.9927 106.735 23.9927C106.735 23.9927 106.706 25.0191 107.084 26.3295Z" fill="#FAF0B6"/>
<path d="M106.312 28.0909C107.492 27.6468 108.409 27.7706 108.424 28.1418C108.445 28.5131 107.703 29.0008 106.422 29.2119C105.133 29.423 104.347 29.161 104.347 29.161C104.347 29.161 105.104 28.5422 106.312 28.0836V28.0909Z" fill="#FAF0B6"/>
<path d="M109.887 27.8215C110.192 29.1246 110.826 29.8744 111.146 29.6851C111.466 29.4958 111.452 28.5713 110.891 27.2974C110.331 26.0307 109.654 25.4629 109.654 25.4629C109.654 25.4629 109.574 26.482 109.879 27.8142L109.887 27.8215Z" fill="#FAF0B6"/>
<path d="M109.028 29.5469C110.229 29.1611 111.139 29.3358 111.139 29.7143C111.139 30.0856 110.374 30.5369 109.079 30.6825C107.783 30.8281 107.004 30.5224 107.004 30.5224C107.004 30.5224 107.797 29.94 109.028 29.5469Z" fill="#FAF0B6"/>
<path d="M112.617 29.467C112.85 30.7846 113.447 31.5636 113.781 31.3961C114.116 31.2214 114.145 30.2969 113.65 29.0011C113.155 27.7053 112.515 27.1084 112.515 27.1084C112.515 27.1084 112.376 28.1276 112.617 29.4743V29.467Z" fill="#FAF0B6"/>
<path d="M111.67 31.1341C112.886 30.8138 113.789 31.0395 113.767 31.4107C113.745 31.782 112.966 32.1897 111.663 32.2697C110.36 32.3498 109.603 32.0077 109.603 32.0077C109.603 32.0077 110.425 31.469 111.67 31.1414V31.1341Z" fill="#FAF0B6"/>
<path d="M115.259 31.2434C115.427 32.5683 115.98 33.3836 116.315 33.2307C116.65 33.0779 116.737 32.1533 116.315 30.8357C115.892 29.5181 115.281 28.8848 115.281 28.8848C115.281 28.8848 115.092 29.8894 115.259 31.2507V31.2434Z" fill="#FAF0B6"/>
<path d="M114.218 32.8593C115.449 32.6046 116.337 32.8739 116.3 33.2452C116.264 33.6164 115.456 33.9804 114.153 33.9877C112.85 33.995 112.107 33.6164 112.107 33.6164C112.107 33.6164 112.952 33.1214 114.218 32.8593Z" fill="#FAF0B6"/>
<path d="M117.8 33.1579C117.894 34.4901 118.404 35.3346 118.753 35.1962C119.103 35.0579 119.226 34.1407 118.877 32.8012C118.52 31.4618 117.945 30.7993 117.945 30.7993C117.945 30.7993 117.705 31.7966 117.8 33.1579Z" fill="#FAF0B6"/>
<path d="M116.679 34.7229C117.924 34.5337 118.797 34.8467 118.739 35.2179C118.681 35.5892 117.858 35.9095 116.555 35.8513C115.252 35.793 114.531 35.3708 114.531 35.3708C114.531 35.3708 115.405 34.9195 116.679 34.7229Z" fill="#FAF0B6"/>
<path d="M120.231 35.2033C120.26 36.5428 120.719 37.4091 121.076 37.2853C121.432 37.1616 121.607 36.2589 121.323 34.8976C121.039 33.5363 120.5 32.8447 120.5 32.8447C120.5 32.8447 120.209 33.8275 120.231 35.1961V35.2033Z" fill="#FAF0B6"/>
<path d="M119.037 36.7028C120.289 36.579 121.141 36.9357 121.068 37.2997C120.995 37.6637 120.151 37.9403 118.855 37.8166C117.559 37.6928 116.861 37.2342 116.861 37.2342C116.861 37.2342 117.756 36.8338 119.037 36.7028Z" fill="#FAF0B6"/>
<path d="M122.561 37.3725C122.517 38.7046 122.939 39.6 123.296 39.4981C123.653 39.3962 123.878 38.5008 123.667 37.1322C123.456 35.7637 122.947 35.043 122.947 35.043C122.947 35.043 122.604 36.0112 122.561 37.3797V37.3725Z" fill="#FAF0B6"/>
<path d="M121.287 38.8138C122.546 38.7555 123.376 39.1559 123.281 39.5199C123.187 39.8766 122.335 40.1168 121.047 39.9203C119.758 39.7237 119.088 39.236 119.088 39.236C119.088 39.236 120.006 38.8793 121.294 38.8211L121.287 38.8138Z" fill="#FAF0B6"/>
<path d="M124.774 39.6582C124.657 40.9904 125.029 41.9004 125.4 41.8203C125.764 41.7402 126.033 40.8521 125.895 39.4763C125.756 38.0931 125.291 37.3506 125.291 37.3506C125.291 37.3506 124.897 38.2969 124.781 39.6582H124.774Z" fill="#FAF0B6"/>
<path d="M123.42 41.0342C124.679 41.0342 125.487 41.4855 125.371 41.8422C125.254 42.1989 124.395 42.3882 123.114 42.1261C121.833 41.8641 121.192 41.3399 121.192 41.3399C121.192 41.3399 122.124 41.0342 123.412 41.0415L123.42 41.0342Z" fill="#FAF0B6"/>
<path d="M126.863 42.0608C126.681 43.3857 127.001 44.3102 127.373 44.2519C127.744 44.1937 128.057 43.3201 127.991 41.937C127.926 40.5539 127.496 39.7822 127.496 39.7822C127.496 39.7822 127.052 40.7067 126.863 42.0608Z" fill="#FAF0B6"/>
<path d="M125.443 43.3564C126.703 43.4292 127.489 43.9169 127.351 44.2663C127.212 44.6158 126.346 44.7614 125.087 44.4338C123.827 44.1062 123.208 43.5457 123.208 43.5457C123.208 43.5457 124.155 43.2909 125.443 43.3637V43.3564Z" fill="#FAF0B6"/>
<path d="M128.821 44.5722C128.566 45.8826 128.843 46.8289 129.214 46.7852C129.586 46.7416 129.95 45.8898 129.95 44.5067C129.95 43.1236 129.571 42.3301 129.571 42.3301C129.571 42.3301 129.083 43.2328 128.821 44.5722Z" fill="#FAF0B6"/>
<path d="M127.336 45.7881C128.588 45.9264 129.345 46.4578 129.192 46.7999C129.04 47.1421 128.166 47.2367 126.921 46.8436C125.676 46.4505 125.094 45.8609 125.094 45.8609C125.094 45.8609 126.055 45.6498 127.336 45.7954V45.7881Z" fill="#FAF0B6"/>
<path d="M130.641 47.1784C130.321 48.4742 130.547 49.4351 130.918 49.4133C131.289 49.3915 131.697 48.5616 131.77 47.1712C131.842 45.788 131.5 44.98 131.5 44.98C131.5 44.98 130.961 45.8535 130.634 47.1784H130.641Z" fill="#FAF0B6"/>
<path d="M129.098 48.3211C130.343 48.5249 131.071 49.0927 130.903 49.4276C130.736 49.7625 129.855 49.8134 128.632 49.3548C127.409 48.8962 126.856 48.2774 126.856 48.2774C126.856 48.2774 127.824 48.1173 129.098 48.3284V48.3211Z" fill="#FAF0B6"/>
<path d="M132.33 49.8721C131.944 51.1533 132.119 52.1215 132.49 52.1142C132.861 52.1142 133.313 51.2989 133.458 49.923C133.604 48.5472 133.306 47.7173 133.306 47.7173C133.306 47.7173 132.723 48.5617 132.323 49.8721H132.33Z" fill="#FAF0B6"/>
<path d="M130.729 50.9348C131.959 51.2041 132.658 51.8083 132.476 52.1286C132.294 52.449 131.406 52.4562 130.212 51.9394C129.018 51.4152 128.494 50.7673 128.494 50.7673C128.494 50.7673 129.469 50.6582 130.729 50.9348Z" fill="#FAF0B6"/>
<path d="M133.873 52.66C133.422 53.9194 133.546 54.8948 133.917 54.9094C134.288 54.924 134.783 54.1378 135.002 52.7692C135.22 51.4006 134.965 50.5562 134.965 50.5562C134.965 50.5562 134.339 51.3715 133.873 52.6527V52.66Z" fill="#FAF0B6"/>
<path d="M132.213 53.628C133.429 53.9556 134.099 54.6035 133.895 54.9165C133.691 55.2295 132.81 55.1931 131.646 54.6035C130.481 54.0211 129.993 53.3441 129.993 53.3441C129.993 53.3441 130.969 53.2859 132.221 53.628H132.213Z" fill="#FAF0B6"/>
<path d="M135.271 55.5207C134.754 56.751 134.827 57.7338 135.198 57.7702C135.57 57.8065 136.101 57.0495 136.392 55.6882C136.683 54.3341 136.472 53.4824 136.472 53.4824C136.472 53.4824 135.802 54.2613 135.271 55.5207Z" fill="#FAF0B6"/>
<path d="M133.56 56.4018C134.754 56.795 135.387 57.472 135.169 57.7777C134.951 58.0762 134.07 57.9961 132.934 57.3482C131.799 56.7003 131.347 56.0015 131.347 56.0015C131.347 56.0015 132.33 56.0015 133.553 56.4018H133.56Z" fill="#FAF0B6"/>
<path d="M136.508 58.4474C135.926 59.6485 135.948 60.6313 136.312 60.6895C136.683 60.7478 137.251 60.0125 137.615 58.6731C137.979 57.3336 137.812 56.4746 137.812 56.4746C137.812 56.4746 137.105 57.2171 136.508 58.4474Z" fill="#FAF0B6"/>
<path d="M134.762 59.241C135.934 59.6996 136.531 60.4057 136.298 60.6969C136.065 60.9881 135.191 60.8571 134.092 60.1509C132.993 59.4521 132.578 58.7241 132.578 58.7241C132.578 58.7241 133.56 58.7678 134.762 59.241Z" fill="#FAF0B6"/>
<path d="M137.6 61.439C136.953 62.611 136.923 63.5938 137.287 63.6666C137.651 63.7394 138.263 63.0405 138.692 61.7229C139.122 60.4053 139.005 59.5317 139.005 59.5317C139.005 59.5317 138.263 60.2379 137.6 61.4317V61.439Z" fill="#FAF0B6"/>
<path d="M135.81 62.1383C136.96 62.6552 137.521 63.3977 137.266 63.6743C137.018 63.9509 136.152 63.7762 135.089 63.0191C134.026 62.2621 133.655 61.5195 133.655 61.5195C133.655 61.5195 134.63 61.6142 135.81 62.1456V62.1383Z" fill="#FAF0B6"/>
<path d="M138.532 64.482C137.826 65.6176 137.746 66.6004 138.103 66.6877C138.46 66.7751 139.107 66.1126 139.61 64.8241C140.112 63.5283 140.032 62.6548 140.032 62.6548C140.032 62.6548 139.253 63.3172 138.532 64.482Z" fill="#FAF0B6"/>
<path d="M136.705 65.0863C137.826 65.6614 138.343 66.433 138.081 66.6951C137.819 66.9572 136.96 66.7388 135.941 65.9234C134.922 65.1081 134.587 64.3438 134.587 64.3438C134.587 64.3438 135.555 64.4893 136.705 65.0863Z" fill="#FAF0B6"/>
<path d="M139.297 67.5689C138.532 68.6681 138.401 69.6363 138.758 69.7528C139.115 69.8693 139.792 69.2359 140.359 67.9693C140.927 66.7026 140.898 65.8218 140.898 65.8218C140.898 65.8218 140.083 66.4406 139.304 67.5689H139.297Z" fill="#FAF0B6"/>
<path d="M137.448 68.0783C138.539 68.7116 139.013 69.5051 138.736 69.7526C138.459 70.0001 137.615 69.7381 136.639 68.8718C135.664 68.0055 135.373 67.2266 135.373 67.2266C135.373 67.2266 136.334 67.4231 137.448 68.0783Z" fill="#FAF0B6"/>
<path d="M139.908 70.6916C139.086 71.7471 138.904 72.7153 139.253 72.8463C139.603 72.9774 140.316 72.3804 140.942 71.1502C141.575 69.9126 141.59 69.0391 141.59 69.0391C141.59 69.0391 140.745 69.6214 139.901 70.6988L139.908 70.6916Z" fill="#FAF0B6"/>
<path d="M138.03 71.1064C139.086 71.798 139.522 72.6133 139.231 72.8463C138.94 73.0792 138.117 72.7735 137.186 71.8562C136.254 70.939 136.006 70.1455 136.006 70.1455C136.006 70.1455 136.953 70.393 138.037 71.0991L138.03 71.1064Z" fill="#FAF0B6"/>
<path d="M140.352 73.8439C139.479 74.8558 139.246 75.8095 139.588 75.9623C139.93 76.1152 140.672 75.5547 141.364 74.3535C142.063 73.1524 142.121 72.2788 142.121 72.2788C142.121 72.2788 141.248 72.8102 140.352 73.8439Z" fill="#FAF0B6"/>
<path d="M138.452 74.1571C139.471 74.8996 139.857 75.744 139.559 75.9624C139.26 76.1808 138.445 75.8314 137.571 74.8632C136.691 73.9023 136.479 73.0942 136.479 73.0942C136.479 73.0942 137.411 73.3927 138.452 74.1571Z" fill="#FAF0B6"/>
<path d="M140.629 77.0105C139.704 77.9715 139.42 78.9178 139.755 79.0852C140.09 79.2527 140.855 78.7358 141.619 77.5711C142.376 76.4063 142.485 75.54 142.485 75.54C142.485 75.54 141.583 76.0278 140.636 77.0105H140.629Z" fill="#FAF0B6"/>
<path d="M138.714 77.2287C139.69 78.0222 140.039 78.8885 139.726 79.085C139.413 79.2889 138.62 78.8958 137.797 77.8839C136.967 76.8793 136.8 76.064 136.8 76.064C136.8 76.064 137.717 76.4134 138.714 77.2287Z" fill="#FAF0B6"/>
<path d="M86.7154 164.163L85.3323 162.78C85.9147 161.833 86.2059 160.741 86.2059 159.504C86.2059 156.009 83.4396 153.243 79.9453 153.243C76.4511 153.243 73.6848 156.082 73.6848 159.504C73.6848 162.925 76.4511 165.764 79.9453 165.764C81.3285 165.764 82.566 165.327 83.5852 164.527L84.8955 165.764L86.7154 164.163ZM80.0181 163.289C77.907 163.289 76.1599 161.615 76.1599 159.431C76.1599 157.247 77.8342 155.573 80.0181 155.573C82.202 155.573 83.8764 157.247 83.8764 159.431C83.8764 159.94 83.8036 160.377 83.5852 160.887L83.5124 160.814H79.9453L81.9108 162.78C81.2557 163.071 80.7461 163.289 80.0181 163.289Z" fill="#FAF0B6"/>
<path d="M45.3305 152.872L44.0056 152.217L47.2232 145.68L48.5481 146.335L45.3305 152.872Z" fill="#FAF0B6"/>
<path d="M38.8661 149.451L37.6067 148.636L37.7887 143.904C37.8106 143.445 37.9198 142.768 37.9198 142.768H37.9052C37.9052 142.768 37.5267 143.409 37.25 143.838L35.1681 147.049L33.9451 146.255L37.9198 140.14L39.1136 140.919L39.0044 145.651C38.9899 146.102 38.888 146.779 38.888 146.779L38.9025 146.794C38.9025 146.794 39.2883 146.131 39.565 145.702L41.6178 142.55L42.8408 143.343L38.8661 149.458V149.451Z" fill="#FAF0B6"/>
<path d="M29.4972 142.877L25.093 139.019L25.9156 138.087L27.5608 139.528L31.5428 134.986L32.6566 135.961L28.6746 140.504L30.3198 141.945L29.5045 142.884L29.4972 142.877Z" fill="#FAF0B6"/>
<path d="M21.1912 135.073L17.6824 131.018L18.6215 130.203L21.1621 133.137L22.3923 132.067L20.1647 129.497L21.082 128.704L23.3096 131.273L24.7946 129.985L22.2322 127.029L23.164 126.221L26.6946 130.298L21.1839 135.073H21.1912Z" fill="#FAF0B6"/>
<path d="M14.2246 126.418L12.4119 123.608C11.6476 122.429 11.8223 121.198 12.8414 120.536C13.5621 120.07 14.3265 120.048 15.0472 120.703L15.0763 120.689C14.8725 120.019 15.0108 119.517 15.7096 118.956C16.5177 118.315 17.202 117.922 17.1583 117.646L17.2165 117.609L17.9882 118.796C18.0173 118.993 17.3475 119.451 16.7215 119.932C16.0882 120.412 15.9571 121.031 16.4521 121.802L17.1 122.807L19.5606 121.22L20.3613 122.465L14.2391 126.418H14.2246ZM16.1318 123.433L15.2801 122.115C14.8433 121.438 14.2755 121.329 13.7878 121.65C13.2928 121.97 13.1253 122.523 13.5548 123.186L14.4284 124.54L16.1318 123.44V123.433Z" fill="#FAF0B6"/>
<path d="M8.35715 116.554L7.73838 115.193L10.4319 111.305C10.6939 110.927 11.1453 110.417 11.1453 110.417V110.403C11.1453 110.403 10.4683 110.752 10.0024 110.963L6.52267 112.543L5.91846 111.218L12.5502 108.197L13.1399 109.493L10.5119 113.424C10.2571 113.795 9.81308 114.312 9.81308 114.312V114.334C9.81308 114.334 10.4974 113.977 10.9633 113.766L14.3847 112.208L14.9889 113.533L8.35715 116.554Z" fill="#FAF0B6"/>
<path d="M3.30503 103.654L2.88281 102.184L9.17245 97.7065L9.59467 99.1843L8.24065 100.08L8.96862 102.606L10.592 102.635L11.0069 104.076L3.30503 103.647V103.654ZM7.78931 102.591L7.2579 100.742L5.42342 101.951C5.08855 102.176 4.4261 102.54 4.4261 102.54V102.562C4.4261 102.562 5.19047 102.533 5.59085 102.548L7.78931 102.591Z" fill="#FAF0B6"/>
<path d="M1.32493 95.7412L0.444092 89.9466L1.67436 89.7573L2.00194 91.9267L7.97856 91.0167L8.19695 92.4799L2.22033 93.3899L2.54792 95.5592L1.31765 95.7485L1.32493 95.7412Z" fill="#FAF0B6"/>
<path d="M0.0582374 84.5595L0 83.0818L7.27968 82.7979L7.33791 84.2756L0.0582374 84.5595Z" fill="#FAF0B6"/>
<path d="M3.5961 77.8478C1.42675 77.6658 -0.0801414 76.1735 0.0945708 74.0332C0.269283 71.893 1.99457 70.6773 4.16391 70.852C6.34053 71.034 7.83287 72.5118 7.65088 74.652C7.47616 76.7922 5.75816 78.0225 3.58882 77.8405L3.5961 77.8478ZM4.04743 72.3589C2.59878 72.2424 1.41219 72.7957 1.303 74.1279C1.1938 75.4601 2.26391 76.2317 3.71985 76.3482C5.16123 76.4647 6.34781 75.8823 6.44973 74.5501C6.55892 73.2179 5.48881 72.4754 4.04743 72.3589Z" fill="#FAF0B6"/>
<path d="M1.47046 64.9265L1.81988 63.4706L6.34056 62.0583C6.78462 61.92 7.45435 61.8035 7.45435 61.8035V61.7817C7.45435 61.7817 6.71911 61.6434 6.21681 61.5269L2.50417 60.6388L2.84632 59.2192L9.92944 60.9154L9.59458 62.3058L5.10302 63.7836C4.67352 63.9219 4.00379 64.0529 4.00379 64.0529V64.0748C4.00379 64.0748 4.75359 64.2131 5.24861 64.3296L8.90301 65.2031L8.56086 66.6227L1.47774 64.9265H1.47046Z" fill="#FAF0B6"/>
<path d="M5.40869 51.67L5.97651 50.2505L13.693 50.5854L13.1179 52.0122L11.5018 51.8884L10.5263 54.3271L11.7857 55.3463L11.2252 56.7367L5.40869 51.67ZM9.60178 53.5846L10.3225 51.8011L8.13129 51.6263C7.72363 51.5972 6.9811 51.4808 6.9811 51.4808V51.5026C6.9811 51.5026 7.58531 51.9467 7.89834 52.2014L9.60178 53.5919V53.5846Z" fill="#FAF0B6"/>
<path d="M9.35449 43.0293L10.0897 41.748L15.3457 44.7546L17.0491 41.7844L18.1192 42.3959L15.6805 46.6546L9.35449 43.0366V43.0293Z" fill="#FAF0B6"/>
<path d="M18.6724 29.2485L22.254 25.2593L23.1785 26.0892L20.5869 28.9792L21.8026 30.0711L24.0739 27.5378L24.9766 28.3459L22.7053 30.8792L24.1685 32.1895L26.7819 29.2777L27.6992 30.1003L24.103 34.1114L18.6796 29.2485H18.6724Z" fill="#FAF0B6"/>
<path d="M25.9812 21.6047L27.1605 20.6074L30.8658 23.0024C31.2808 23.279 31.8559 23.6867 31.8559 23.6867L31.8704 23.6721C31.8704 23.6721 31.5574 23.0315 31.3608 22.5802L29.6137 18.54L30.7566 17.5718L33.5811 24.7204L32.5547 25.5867L25.9739 21.6047H25.9812Z" fill="#FAF0B6"/>
<path d="M35.1245 14.4127L39.6598 11.5518L40.3222 12.6L37.0391 14.6747L37.9126 16.0506L40.7954 14.2307L41.4433 15.2571L38.5605 17.077L39.6088 18.7441L42.921 16.6548L43.5762 17.6958L39.0191 20.5713L35.1318 14.4054L35.1245 14.4127Z" fill="#FAF0B6"/>
<path d="M44.7555 8.81449L46.1241 8.203L49.9896 10.9256C50.3682 11.1949 50.8705 11.6463 50.8705 11.6463H50.8923C50.8923 11.6463 50.5502 10.9693 50.339 10.5034L48.7812 7.01641L50.1134 6.42676L53.0762 13.0804L51.7731 13.6628L47.8639 10.9984C47.4927 10.7363 46.9758 10.285 46.9758 10.285H46.954C46.954 10.285 47.3034 10.9766 47.5072 11.4425L49.036 14.8785L47.7038 15.4681L44.741 8.81449H44.7555Z" fill="#FAF0B6"/>
<path d="M55.3764 4.52687L61.0109 2.93262L61.3458 4.12648L59.2347 4.72342L60.8726 10.5399L59.453 10.9403L57.8078 5.1238L55.704 5.72073L55.3691 4.52687H55.3764Z" fill="#FAF0B6"/>
<path d="M72.571 1.01805L75.7668 0.828782C76.6112 0.777824 77.2591 0.988935 77.7105 1.3966C78.14 1.7897 78.4166 2.34295 78.4603 3.01996C78.5403 4.39582 77.6886 5.3713 76.1599 5.46594L74.3691 5.56785L74.522 8.20309L72.9932 8.29045L72.5637 1.01805H72.571ZM74.3036 4.3667L75.8323 4.27935C76.6039 4.23567 76.9898 3.78433 76.9461 3.12188C76.9024 2.43759 76.4583 2.08089 75.7231 2.12456L74.1798 2.21192L74.3036 4.3667Z" fill="#FAF0B6"/>
<path d="M83.8255 0.777787L85.296 0.886983L84.8373 6.92183L88.2515 7.17662L88.1569 8.40689L83.2722 8.03563L83.8182 0.770508L83.8255 0.777787Z" fill="#FAF0B6"/>
<path d="M96.2737 2.37207L97.766 2.69966L98.727 10.3652L97.2273 10.0376L97.0745 8.42148L94.5048 7.86095L93.7113 9.2732L92.248 8.9529L96.2737 2.37207ZM95.0871 6.82723L96.9726 7.23489L96.7833 5.04371C96.7469 4.64333 96.7323 3.88624 96.7323 3.88624H96.7105C96.7105 3.88624 96.3756 4.56325 96.1718 4.91268L95.0871 6.82723Z" fill="#FAF0B6"/>
<path d="M105.526 4.8252L106.931 5.35661L107.761 10.0229C107.841 10.4815 107.878 11.1585 107.878 11.1585H107.899C107.899 11.1585 108.125 10.4451 108.307 9.97193L109.661 6.39761L111.022 6.91446L108.445 13.7355L107.113 13.2332L106.211 8.58879C106.13 8.14473 106.079 7.46044 106.079 7.46044H106.058C106.058 7.46044 105.825 8.18113 105.643 8.66158L104.311 12.1777L102.949 11.6608L105.526 4.83975V4.8252Z" fill="#FAF0B6"/>
<path d="M116.446 9.44038L117.749 10.1684L117.88 14.9001C117.887 15.3588 117.829 16.0358 117.829 16.0358H117.851C117.851 16.0358 118.186 15.366 118.433 14.922L120.297 11.5879L121.571 12.3013L118.011 18.6565L116.766 17.9576L116.562 13.2331C116.548 12.7818 116.599 12.0975 116.599 12.0975H116.584C116.584 12.0975 116.249 12.7745 115.994 13.2185L114.16 16.5017L112.886 15.7883L116.446 9.43311V9.44038Z" fill="#FAF0B6"/>
<path d="M126.39 15.5483L127.584 16.4146L123.303 22.3112L122.109 21.4449L126.39 15.5483Z" fill="#FAF0B6"/>
<path d="M132.177 20.0181L133.276 21.0372L132.294 25.6744C132.192 26.1257 131.973 26.7663 131.973 26.7663L131.988 26.7809C131.988 26.7809 132.468 26.1985 132.818 25.8272L135.417 23.0246L136.487 24.0146L131.529 29.3652L130.481 28.397L131.391 23.7525C131.486 23.3085 131.697 22.6606 131.697 22.6606L131.682 22.646C131.682 22.646 131.194 23.2357 130.845 23.6069L128.29 26.3659L127.22 25.3759L132.177 20.0253V20.0181Z" fill="#FAF0B6"/>
<path d="M138.947 36.4553L138.933 36.4407C137.965 36.5718 137.309 36.2224 136.771 35.5453C136.086 34.6863 135.861 33.7691 136.006 32.881C136.159 31.9929 136.676 31.1339 137.535 30.4496C138.481 29.6925 139.581 29.3649 140.607 29.5251C141.401 29.6488 142.114 30.071 142.725 30.8354C143.868 32.2695 143.737 33.7181 142.769 34.7955L141.866 33.6672C142.31 33.0994 142.376 32.3641 141.794 31.6289C140.935 30.5515 139.617 30.7335 138.489 31.6289C137.324 32.5607 136.96 33.8492 137.746 34.8319C138.452 35.7128 139.573 35.771 140.207 35.2687L140.236 35.2469L139.144 33.8783L140.032 33.1649L141.947 35.5599L138.918 37.9768L138.227 37.1105L138.962 36.4626L138.947 36.4553Z" fill="#FAF0B6"/>
<path d="M150.959 43.6694L152.349 46.5522C152.713 47.3166 152.771 47.9936 152.56 48.5687C152.364 49.1146 151.949 49.5878 151.344 49.879C150.107 50.4759 148.877 50.061 148.214 48.6851L147.435 47.069L145.055 48.212L144.392 46.8361L150.959 43.6767V43.6694ZM148.52 46.5449L149.182 47.9208C149.517 48.6196 150.078 48.8016 150.675 48.5104C151.293 48.212 151.454 47.6587 151.133 46.9962L150.464 45.5985L148.513 46.5376L148.52 46.5449Z" fill="#FAF0B6"/>
<path d="M155.479 54.0576L156.484 57.2461C156.906 58.5856 156.411 59.7285 155.254 60.0925C154.438 60.3473 153.696 60.1653 153.172 59.3499H153.142C153.157 60.0561 152.895 60.5074 152.072 60.8568C151.119 61.2645 150.362 61.461 150.333 61.7377L150.267 61.7595L149.845 60.4055C149.867 60.2089 150.638 59.9396 151.366 59.6484C152.109 59.3499 152.4 58.7894 152.123 57.9158L151.767 56.7802L148.978 57.6611L148.534 56.2488L155.487 54.0649L155.479 54.0576ZM152.851 56.4308L153.324 57.9304C153.565 58.6948 154.082 58.9496 154.635 58.7748C155.203 58.6001 155.501 58.1051 155.268 57.3553L154.788 55.8193L152.851 56.4235V56.4308Z" fill="#FAF0B6"/>
<path d="M154.868 65.3996C157.023 65.0648 158.835 66.164 159.17 68.2897C159.505 70.4153 158.107 72.0023 155.953 72.3445C153.798 72.6866 151.992 71.5874 151.665 69.4617C151.33 67.336 152.713 65.7345 154.868 65.3996ZM155.72 70.8521C157.161 70.6265 158.18 69.8111 157.969 68.4862C157.765 67.1686 156.542 66.6663 155.101 66.892C153.674 67.1176 152.655 67.9621 152.866 69.287C153.07 70.6046 154.293 71.0778 155.72 70.8521Z" fill="#FAF0B6"/>
<path d="M159.964 77.4253L160 82.6448H158.748L158.726 78.9176L156.972 78.9322L156.993 82.0988H155.727L155.705 78.9395L152.691 78.9613V77.4835L159.964 77.4398V77.4253Z" fill="#FAF0B6"/>
<path d="M159.68 88.243L159.01 93.5571L157.78 93.4043L158.267 89.5533L156.651 89.3495L156.229 92.7272L155.028 92.5744L155.45 89.1966L153.499 88.9491L153.012 92.8292L151.789 92.6763L152.458 87.333L159.687 88.243H159.68Z" fill="#FAF0B6"/>
<path d="M153.128 97.5244L152.749 98.9222C151.876 98.7911 151.41 99.1842 151.141 100.182C150.944 100.91 151.024 101.623 151.672 101.798C152.364 101.987 152.684 101.354 153.215 100.349C153.841 99.1697 154.489 98.1068 155.96 98.5072C157.35 98.8857 157.758 100.211 157.328 101.776C156.899 103.355 155.843 104.171 154.395 103.894L154.766 102.526C155.494 102.642 156.003 102.183 156.2 101.455C156.411 100.684 156.222 100.094 155.719 99.9631C155.152 99.8103 154.846 100.254 154.336 101.237C153.63 102.598 152.96 103.683 151.446 103.275C150.019 102.89 149.532 101.521 149.969 99.934C150.485 98.0268 151.628 97.175 153.128 97.5244Z" fill="#FAF0B6"/>
<path d="M149.998 107.76L149.423 109.085C148.578 108.83 148.061 109.15 147.646 110.104C147.348 110.796 147.326 111.509 147.945 111.778C148.6 112.062 149.008 111.48 149.685 110.563C150.471 109.485 151.264 108.524 152.662 109.129C153.98 109.704 154.198 111.072 153.55 112.557C152.895 114.064 151.737 114.712 150.347 114.232L150.908 112.936C151.614 113.154 152.174 112.776 152.48 112.084C152.793 111.356 152.691 110.745 152.218 110.541C151.679 110.308 151.315 110.701 150.667 111.604C149.772 112.848 148.957 113.831 147.515 113.205C146.161 112.616 145.877 111.196 146.533 109.689C147.319 107.876 148.571 107.199 149.998 107.76Z" fill="#FAF0B6"/>
<path d="M149.605 120.172L148.862 121.453L142.558 117.799L143.3 116.518L149.605 120.172Z" fill="#FAF0B6"/>
<path d="M143.031 123.943C144.771 125.26 145.237 127.328 143.941 129.038C142.645 130.756 140.534 130.858 138.794 129.541C137.055 128.223 136.589 126.17 137.884 124.459C139.18 122.741 141.291 122.625 143.031 123.943ZM139.704 128.34C140.869 129.22 142.165 129.381 142.966 128.318C143.766 127.255 143.279 126.025 142.121 125.144C140.964 124.27 139.653 124.132 138.845 125.195C138.037 126.258 138.547 127.466 139.704 128.332V128.34Z" fill="#FAF0B6"/>
<path d="M137.921 135.976L136.851 137.024L132.279 135.808C131.835 135.685 131.202 135.437 131.202 135.437L131.187 135.452C131.187 135.452 131.74 135.961 132.097 136.325L134.761 139.063L133.72 140.082L128.632 134.869L129.651 133.872L134.237 135.015C134.674 135.131 135.315 135.372 135.315 135.372L135.329 135.357C135.329 135.357 134.769 134.84 134.412 134.476L131.791 131.783L132.832 130.764L137.913 135.976H137.921Z" fill="#FAF0B6"/>
<path d="M127.518 145.097L126.28 145.993L119.925 141.596L121.17 140.693L122.473 141.661L124.599 140.118L124.075 138.582L125.29 137.701L127.511 145.09L127.518 145.097ZM124.992 141.239L123.434 142.367L125.196 143.685C125.523 143.925 126.091 144.42 126.091 144.42L126.106 144.406C126.106 144.406 125.822 143.707 125.698 143.321L124.999 141.239H124.992Z" fill="#FAF0B6"/>
<path d="M119.576 150.31L118.273 151.009L115.426 145.665L112.405 147.274L111.823 146.189L116.147 143.882L119.576 150.31Z" fill="#FAF0B6"/>
<path d="M56.6431 66.455V66.7389C55.9079 66.7389 55.2818 66.9428 54.7722 67.3577C54.2627 67.7727 54.0006 68.4569 54.0006 69.4106V88.0902C54.0006 89.0366 54.27 89.7282 54.8159 90.1504C55.3619 90.5799 55.9661 90.791 56.6358 90.791V91.0603H48.832V90.791C49.5454 90.791 50.1569 90.5799 50.6811 90.1649C51.1979 89.75 51.46 89.0512 51.46 88.083V69.4033C51.46 68.3769 51.1979 67.678 50.6811 67.2995C50.1642 66.9209 49.5454 66.7317 48.832 66.7317V66.4478H56.6358L56.6431 66.455Z" fill="#FAF0B6"/>
<path d="M59.1038 66.739V66.4551H73.7723V70.3279H73.5394C73.5394 68.2532 72.1562 67.2194 69.3972 67.2194H64.2723V78.3937H68.7857C69.6738 78.3937 70.4746 78.2482 71.1735 77.957C71.8723 77.6658 72.28 77.0033 72.3746 75.9696H72.6221V81.5531H72.3746C72.2727 80.9198 72.0834 80.4321 71.8068 80.0899C71.5302 79.7478 71.2535 79.5221 70.9769 79.4129C70.7003 79.3037 70.4601 79.2455 70.2489 79.2455C69.8486 79.18 69.4336 79.1436 68.9968 79.1436H64.2723V87.8792C64.2723 88.5343 64.3961 89.1022 64.6509 89.5826C64.8984 90.0631 65.4808 90.3033 66.398 90.3033H70.0597C70.9405 90.3033 71.6612 90.1795 72.229 89.9175C72.7968 89.6627 73.2482 89.306 73.5758 88.8474C73.9033 88.3887 74.18 87.8428 74.4056 87.1949H74.6386L73.7869 91.0531H59.1183V90.7838H59.4532C59.9773 90.7838 60.4869 90.5726 60.9892 90.1504C61.4915 89.7282 61.739 89.0366 61.739 88.0757V69.5344C61.739 68.7773 61.5716 68.1221 61.2294 67.5616C60.8873 67.0083 60.2976 66.7244 59.4532 66.7244H59.1183L59.1038 66.739Z" fill="#FAF0B6"/>
<path d="M76.6403 66.739V66.4551H84.7062C86.053 66.4551 87.2395 66.6371 88.2733 67.0083C89.307 67.3796 90.1587 67.8746 90.843 68.5152C91.5273 69.1486 92.0369 69.8692 92.379 70.6627C92.7211 71.4562 92.8886 72.3007 92.8886 73.1742C92.8886 74.0478 92.7284 74.8558 92.4154 75.6566C92.0951 76.4501 91.6001 77.1635 90.9231 77.7823C90.2461 78.401 89.3507 78.896 88.2514 79.26C87.1522 79.624 85.8782 79.8133 84.4442 79.8133C83.9855 79.8133 83.1047 79.7478 81.8016 79.6095V88.0976C81.8016 89.8447 82.6898 90.7474 84.4733 90.8056V91.0749H76.6403V90.8056C77.412 90.7838 78.038 90.5654 78.5331 90.1431C79.0281 89.7282 79.2756 89.0439 79.2756 88.0976V69.4834C79.2756 68.9156 79.1882 68.4424 79.0062 68.0639C78.8242 67.6853 78.6204 67.416 78.3802 67.2558C78.14 67.0957 77.8706 66.9719 77.5794 66.8991C77.2882 66.8263 77.0771 66.7681 76.9679 66.7463H76.6331L76.6403 66.739ZM81.8016 67.3214V78.9179C82.6606 79.0708 83.5051 79.1508 84.3422 79.1508C85.9365 79.1508 87.2832 78.7432 88.397 77.9206C89.5035 77.1052 90.0568 75.5838 90.0568 73.3708C90.0568 71.5436 89.569 70.044 88.5936 68.8719C87.6181 67.6999 86.1403 67.1103 84.1602 67.1103C83.3886 67.1103 82.6097 67.183 81.8016 67.3286V67.3214Z" fill="#FAF0B6"/>
<path d="M95.1889 66.739V66.4551H103.255C104.602 66.4551 105.788 66.6371 106.822 67.0083C107.856 67.3796 108.707 67.8746 109.392 68.5152C110.076 69.1486 110.585 69.8692 110.928 70.6627C111.27 71.4562 111.437 72.3007 111.437 73.1742C111.437 74.0478 111.277 74.8558 110.964 75.6566C110.644 76.4501 110.149 77.1635 109.472 77.7823C108.795 78.401 107.899 78.896 106.8 79.26C105.701 79.624 104.427 79.8133 102.993 79.8133C102.534 79.8133 101.653 79.7478 100.35 79.6095V88.0976C100.35 89.8447 101.238 90.7474 103.022 90.8056V91.0749H95.1889V90.8056C95.9606 90.7838 96.5866 90.5654 97.0816 90.1431C97.5767 89.7282 97.8242 89.0439 97.8242 88.0976V69.4834C97.8242 68.9156 97.7368 68.4424 97.5548 68.0639C97.3728 67.6853 97.169 67.416 96.9288 67.2558C96.6885 67.0957 96.4192 66.9719 96.128 66.8991C95.8368 66.8263 95.6257 66.7681 95.5165 66.7463H95.1816L95.1889 66.739ZM100.35 67.3214V78.9179C101.209 79.0708 102.054 79.1508 102.891 79.1508C104.485 79.1508 105.832 78.7432 106.946 77.9206C108.052 77.1052 108.605 75.5838 108.605 73.3708C108.605 71.5436 108.118 70.044 107.142 68.8719C106.167 67.6999 104.689 67.1103 102.709 67.1103C101.937 67.1103 101.158 67.183 100.35 67.3286V67.3214Z" fill="#FAF0B6"/>
</g>
<defs>
<clipPath id="clip0_6662_23444">
<rect width="160" height="164.987" fill="white" transform="translate(0 0.777832)"/>
</clipPath>
</defs>
</svg>
