<?xml version="1.0" encoding="utf-8"?>
<!-- Generator: Adobe Illustrator 28.0.0, SVG Export Plug-In . SVG Version: 6.00 Build 0)  -->
<svg version="1.1" id="Layer_1" xmlns="http://www.w3.org/2000/svg" xmlns:xlink="http://www.w3.org/1999/xlink" x="0px" y="0px"
	 viewBox="0 0 232.3 233" style="enable-background:new 0 0 232.3 233;" xml:space="preserve">
<style type="text/css">
	.st0{fill:#FAF0B6;}
	.st1{fill:none;}
	.st2{enable-background:new    ;}
</style>
<g>
	<path class="st0" d="M138.1,37v0.3c3.4,1,6.7,2.1,10,3.5c9.7,4.2,18.5,10.1,26,17.7s13.4,16.3,17.5,26.1
		c4.2,10.1,6.4,20.9,6.3,31.9c0,11-2.2,21.7-6.5,31.8c-4.1,9.7-10.1,18.5-17.6,25.9c-7.5,7.5-16.3,13.4-26,17.5
		c-10.1,4.3-20.8,6.4-31.8,6.4h-0.3c-11.1,0-21.8-2.2-31.9-6.6c-9.7-4.2-18.5-10.1-26-17.7c-7.5-7.6-13.4-16.3-17.5-26.1
		c-4.2-10.1-6.4-20.9-6.3-31.9c0-11,2.2-21.7,6.5-31.8c4.1-9.7,10.1-18.4,17.6-25.9s16.3-13.4,26-17.5c3.1-1.3,6.3-2.4,9.6-3.4V37
		c-34.5,9.7-59.9,41.3-60,78.9c-0.2,45.4,36.5,82.4,81.9,82.5c0.1,0,0.2,0,0.3,0c45.3,0,82.1-36.6,82.2-81.9
		C198.3,78.7,172.8,46.7,138.1,37z"/>
	<path class="st0" d="M32.4,115.4c1.3,1.3,1.8,2.5,1.4,2.8c-0.4,0.3-1.5-0.4-2.7-1.9c-1.1-1.5-1.3-2.7-1.3-2.7S31,114.2,32.4,115.4z
		"/>
	<path class="st0" d="M35,115.6c-1.3,1.2-1.7,2.4-1.3,2.6c0.4,0.3,1.5-0.3,2.6-1.8c1.1-1.4,1.2-2.6,1.2-2.6S36.3,114.4,35,115.6z"/>
	<path class="st0" d="M32.5,119.8c1.4,1.2,1.9,2.4,1.5,2.7c-0.4,0.3-1.6-0.3-2.8-1.8s-1.5-2.7-1.5-2.7S31,118.6,32.5,119.8z"/>
	<path class="st0" d="M35.1,119.8c-1.2,1.2-1.6,2.5-1.1,2.7s1.5-0.4,2.5-1.9s1.1-2.6,1.1-2.6S36.4,118.6,35.1,119.8z"/>
	<path class="st0" d="M32.8,124.2c1.5,1.1,2.1,2.3,1.6,2.6s-1.6-0.2-2.8-1.7c-1.3-1.4-1.6-2.6-1.6-2.6S31.3,123,32.8,124.2z"/>
	<path class="st0" d="M35.4,124.1c-1.2,1.3-1.4,2.5-1,2.7c0.5,0.2,1.5-0.5,2.4-2s1-2.7,1-2.7S36.6,122.7,35.4,124.1z"/>
	<path class="st0" d="M33.3,128.5c1.5,1,2.2,2.2,1.8,2.5s-1.6-0.2-2.9-1.5c-1.4-1.3-1.7-2.5-1.7-2.5S31.8,127.5,33.3,128.5z"/>
	<path class="st0" d="M35.9,128.3c-1.1,1.3-1.3,2.6-0.8,2.8s1.4-0.6,2.3-2.2c0.8-1.6,0.8-2.7,0.8-2.7S37.1,126.9,35.9,128.3z"/>
	<path class="st0" d="M34.1,132.8c1.6,0.9,2.3,2.1,1.9,2.4c-0.4,0.3-1.6-0.1-3-1.3c-1.4-1.3-1.9-2.4-1.9-2.4S32.5,131.8,34.1,132.8z
		"/>
	<path class="st0" d="M36.7,132.4c-1,1.4-1.2,2.7-0.7,2.8c0.5,0.2,1.4-0.6,2.1-2.3c0.7-1.6,0.7-2.8,0.7-2.8S37.7,131,36.7,132.4z"/>
	<path class="st0" d="M35.1,137.1c1.6,0.9,2.4,2,2,2.3c-0.4,0.4-1.6,0-3.1-1.2s-2-2.3-2-2.3S33.4,136.2,35.1,137.1z"/>
	<path class="st0" d="M37.6,136.5c-0.9,1.5-1,2.7-0.5,2.9c0.5,0.1,1.4-0.7,2-2.4c0.7-1.7,0.5-2.8,0.5-2.8S38.6,135,37.6,136.5z"/>
	<path class="st0" d="M36.3,141.3c1.7,0.8,2.5,1.8,2.1,2.2c-0.3,0.4-1.6,0.1-3.1-1s-2.1-2.2-2.1-2.2S34.6,140.5,36.3,141.3z"/>
	<path class="st0" d="M38.8,140.6c-0.9,1.5-0.9,2.8-0.4,2.9c0.5,0.1,1.3-0.8,1.9-2.5s0.4-2.8,0.4-2.8S39.7,139.1,38.8,140.6z"/>
	<path class="st0" d="M37.7,145.4c1.7,0.7,2.6,1.7,2.3,2.1c-0.3,0.4-1.6,0.2-3.2-0.9c-1.6-1-2.2-2.1-2.2-2.1S35.9,144.7,37.7,145.4z
		"/>
	<path class="st0" d="M40.2,144.6c-0.8,1.5-0.7,2.8-0.2,2.9c0.5,0.1,1.3-0.9,1.8-2.6c0.5-1.7,0.2-2.8,0.2-2.8S41,143,40.2,144.6z"/>
	<path class="st0" d="M39.3,149.5c1.7,0.6,2.7,1.6,2.4,2s-1.6,0.3-3.2-0.7c-1.7-0.9-2.3-1.9-2.3-1.9S37.5,148.8,39.3,149.5z"/>
	<path class="st0" d="M41.8,148.5c-0.7,1.6-0.6,2.9-0.1,2.9c0.5,0.1,1.2-0.9,1.6-2.7c0.4-1.7,0.1-2.9,0.1-2.9S42.5,146.9,41.8,148.5
		z"/>
	<path class="st0" d="M41.2,153.4c1.8,0.5,2.7,1.4,2.5,1.9c-0.3,0.4-1.6,0.3-3.3-0.5c-1.7-0.9-2.4-1.8-2.4-1.8
		S39.4,152.9,41.2,153.4z"/>
	<path class="st0" d="M43.6,152.4c-0.6,1.6-0.4,2.9,0.1,2.9s1.2-1,1.5-2.8s-0.1-2.9-0.1-2.9S44.2,150.7,43.6,152.4z"/>
	<path class="st0" d="M43.2,157.3c1.8,0.4,2.8,1.3,2.6,1.7c-0.3,0.4-1.5,0.4-3.3-0.4c-1.7-0.8-2.5-1.7-2.5-1.7
		S41.4,156.9,43.2,157.3z"/>
	<path class="st0" d="M45.6,156.1c-0.5,1.6-0.3,2.9,0.2,2.9s1.1-1,1.3-2.8s-0.2-2.8-0.2-2.8S46.1,154.4,45.6,156.1z"/>
	<path class="st0" d="M45.5,161c1.8,0.3,2.9,1.1,2.6,1.6s-1.5,0.5-3.3-0.2s-2.6-1.6-2.6-1.6S43.6,160.7,45.5,161z"/>
	<path class="st0" d="M47.8,159.7c-0.4,1.7-0.1,2.9,0.4,2.9s1.1-1.1,1.2-2.9s-0.4-2.8-0.4-2.8S48.2,158,47.8,159.7z"/>
	<path class="st0" d="M47.9,164.6c1.8,0.2,2.9,1,2.7,1.5s-1.5,0.6-3.3,0s-2.7-1.4-2.7-1.4S46,164.4,47.9,164.6z"/>
	<path class="st0" d="M50.1,163.2c-0.4,1.7,0,2.9,0.5,2.9c0.5-0.1,1-1.2,1-2.9c0-1.8-0.5-2.8-0.5-2.8S50.5,161.5,50.1,163.2z"/>
	<path class="st0" d="M50.5,168.1c1.8,0.1,3,0.8,2.8,1.3s-1.4,0.7-3.3,0.2c-1.8-0.5-2.8-1.3-2.8-1.3S48.7,168,50.5,168.1z"/>
	<path class="st0" d="M52.7,166.6c-0.3,1.7,0.2,2.9,0.7,2.8c0.5-0.1,0.9-1.2,0.9-3c-0.1-1.8-0.7-2.8-0.7-2.8S53,164.9,52.7,166.6z"
		/>
	<path class="st0" d="M53.4,171.5c1.8,0,3,0.7,2.9,1.2c-0.2,0.5-1.4,0.7-3.3,0.3c-1.9-0.4-2.8-1.1-2.8-1.1S51.5,171.5,53.4,171.5z"
		/>
	<path class="st0" d="M55.4,169.8c-0.2,1.7,0.3,2.9,0.8,2.8c0.5-0.1,0.9-1.3,0.7-3c-0.2-1.8-0.8-2.7-0.8-2.7S55.6,168.1,55.4,169.8z
		"/>
	<path class="st0" d="M56.3,174.7c1.8-0.1,3.1,0.5,2.9,1c-0.1,0.5-1.4,0.8-3.3,0.5c-1.9-0.3-2.9-1-2.9-1S54.5,174.7,56.3,174.7z"/>
	<path class="st0" d="M58.3,172.9c-0.1,1.7,0.5,2.9,1,2.7c0.5-0.1,0.8-1.3,0.6-3.1c-0.3-1.8-0.9-2.7-0.9-2.7S58.4,171.2,58.3,172.9z
		"/>
	<path class="st0" d="M59.5,177.7c1.8-0.2,3.1,0.4,3,0.9s-1.3,0.9-3.2,0.7s-2.9-0.8-2.9-0.8S57.6,177.9,59.5,177.7z"/>
	<path class="st0" d="M61.4,175.9c0,1.7,0.6,2.8,1.1,2.7c0.5-0.2,0.7-1.3,0.4-3.1c-0.4-1.8-1.1-2.6-1.1-2.6S61.4,174.1,61.4,175.9z"
		/>
	<path class="st0" d="M62.8,180.6c1.8-0.3,3.1,0.2,3,0.7s-1.3,0.9-3.2,0.8c-1.9-0.1-3-0.7-3-0.7S60.9,180.8,62.8,180.6z"/>
	<path class="st0" d="M64.6,178.6c0.1,1.7,0.8,2.8,1.2,2.6c0.5-0.2,0.7-1.4,0.2-3.1c-0.5-1.7-1.2-2.6-1.2-2.6S64.5,176.9,64.6,178.6
		z"/>
	<path class="st0" d="M66.2,183.3c1.8-0.3,3.1,0,3,0.5s-1.2,1-3.1,1s-3-0.5-3-0.5S64.4,183.6,66.2,183.3z"/>
	<path class="st0" d="M67.9,181.2c0.2,1.7,0.9,2.8,1.4,2.6s0.6-1.4,0.1-3.1c-0.5-1.7-1.4-2.5-1.4-2.5S67.7,179.5,67.9,181.2z"/>
	<path class="st0" d="M69.8,185.8c1.8-0.4,3.1-0.1,3.1,0.4s-1.2,1.1-3.1,1.2c-1.9,0.1-3-0.4-3-0.4S68,186.2,69.8,185.8z"/>
	<path class="st0" d="M71.4,183.7c0.3,1.7,1.1,2.7,1.5,2.5c0.5-0.2,0.5-1.4-0.1-3.1c-0.6-1.7-1.5-2.4-1.5-2.4S71.1,181.9,71.4,183.7
		z"/>
	<path class="st0" d="M73.5,188.1c1.8-0.5,3.1-0.3,3.1,0.2s-1.1,1.1-3,1.3s-3-0.2-3-0.2S71.7,188.7,73.5,188.1z"/>
	<path class="st0" d="M75,185.9c0.4,1.7,1.2,2.7,1.6,2.4s0.5-1.5-0.3-3.1c-0.7-1.6-1.6-2.4-1.6-2.4S74.6,184.2,75,185.9z"/>
	<path class="st0" d="M77.3,190.2c1.7-0.6,3.1-0.5,3.1,0.1c0,0.5-1.1,1.2-2.9,1.5c-1.9,0.3-3,0-3,0S75.6,190.9,77.3,190.2z"/>
	<path class="st0" d="M78.7,187.9c0.5,1.7,1.3,2.6,1.8,2.3c0.4-0.3,0.4-1.5-0.4-3.1s-1.7-2.3-1.7-2.3S78.2,186.2,78.7,187.9z"/>
	<path class="st0" d="M81.3,192.1c1.7-0.7,3-0.6,3.1-0.1s-1,1.2-2.9,1.6c-1.9,0.4-3,0.1-3,0.1S79.5,192.9,81.3,192.1z"/>
	<path class="st0" d="M82.5,189.8c0.5,1.6,1.5,2.5,1.9,2.2s0.3-1.5-0.6-3.1s-1.8-2.2-1.8-2.2S81.9,188.1,82.5,189.8z"/>
	<path class="st0" d="M85.3,193.8c1.7-0.8,3-0.8,3.1-0.3s-0.9,1.3-2.8,1.8c-1.8,0.5-3,0.3-3,0.3S83.6,194.7,85.3,193.8z"/>
	<path class="st0" d="M86.4,191.4c0.6,1.6,1.6,2.4,2,2.1c0.4-0.3,0.2-1.5-0.7-3c-1-1.5-2-2.1-2-2.1S85.7,189.8,86.4,191.4z"/>
	<path class="st0" d="M89.4,195.3c1.6-0.9,3-0.9,3.1-0.4s-0.9,1.3-2.7,1.9c-1.8,0.6-3,0.4-3,0.4S87.7,196.3,89.4,195.3z"/>
	<path class="st0" d="M90.4,192.9c0.7,1.6,1.7,2.3,2.1,2s0.1-1.5-0.9-3s-2.1-2-2.1-2S89.6,191.3,90.4,192.9z"/>
	<path class="st0" d="M93.6,196.6c1.6-1,2.9-1.1,3-0.6s-0.8,1.4-2.6,2.1c-1.8,0.7-3,0.6-3,0.6S92,197.6,93.6,196.6z"/>
	<path class="st0" d="M94.4,194.1c0.8,1.5,1.8,2.3,2.2,1.9c0.4-0.4,0.1-1.5-1.1-2.9c-1.1-1.4-2.2-1.9-2.2-1.9S93.6,192.5,94.4,194.1
		z"/>
	<path class="st0" d="M97.8,197.7c1.5-1,2.8-1.2,3-0.7s-0.7,1.4-2.5,2.2c-1.7,0.8-2.9,0.7-2.9,0.7S96.3,198.8,97.8,197.7z"/>
	<path class="st0" d="M98.5,195.1c0.9,1.5,2,2.2,2.3,1.8s0-1.5-1.2-2.9c-1.2-1.3-2.3-1.7-2.3-1.7S97.6,193.6,98.5,195.1z"/>
	<path class="st0" d="M102.1,198.5c1.4-1.1,2.8-1.4,3-0.9s-0.6,1.5-2.3,2.3c-1.7,0.9-2.9,0.9-2.9,0.9S100.6,199.7,102.1,198.5z"/>
	<path class="st0" d="M102.7,195.9c0.9,1.4,2.1,2,2.4,1.6s-0.1-1.5-1.4-2.8s-2.3-1.6-2.3-1.6S101.7,194.5,102.7,195.9z"/>
	<path class="st0" d="M106.4,199.1c1.4-1.2,2.7-1.5,2.9-1.1c0.2,0.5-0.6,1.5-2.2,2.4c-1.6,1-2.9,1-2.9,1S105,200.4,106.4,199.1z"/>
	<path class="st0" d="M106.9,196.5c1,1.4,2.2,1.9,2.5,1.5s-0.2-1.5-1.5-2.7s-2.4-1.5-2.4-1.5S105.8,195.1,106.9,196.5z"/>
	<path class="st0" d="M110.8,199.5c1.3-1.3,2.6-1.7,2.8-1.2c0.2,0.5-0.5,1.5-2.1,2.6c-1.6,1-2.8,1.2-2.8,1.2
		S109.4,200.8,110.8,199.5z"/>
	<path class="st0" d="M111.1,196.9c1.1,1.3,2.3,1.8,2.6,1.4c0.3-0.4-0.3-1.5-1.6-2.7c-1.4-1.1-2.5-1.4-2.5-1.4
		S110,195.5,111.1,196.9z"/>
	<path class="st0" d="M95,35.3c-0.9,1.6-2,2.4-2.3,2c-0.4-0.4,0-1.6,1.2-3.1s2.3-2,2.3-2S95.9,33.7,95,35.3z"/>
	<path class="st0" d="M95.5,37.9c-1.5-0.9-2.7-1-2.9-0.5c-0.1,0.5,0.7,1.4,2.4,2c1.7,0.7,2.8,0.5,2.8,0.5S97,38.9,95.5,37.9z"/>
	<path class="st0" d="M90.8,36.5C90,38.2,89,39,88.6,38.6c-0.4-0.3-0.1-1.6,1-3.1s2.2-2.1,2.2-2.1S91.6,34.8,90.8,36.5z"/>
	<path class="st0" d="M91.4,39.1c-1.5-0.9-2.8-0.9-2.9-0.4s0.8,1.3,2.5,1.9c1.7,0.6,2.8,0.4,2.8,0.4S93,40,91.4,39.1z"/>
	<path class="st0" d="M86.7,38c-0.7,1.7-1.7,2.6-2.1,2.3s-0.2-1.6,0.9-3.2c1-1.6,2.1-2.2,2.1-2.2S87.4,36.2,86.7,38z"/>
	<path class="st0" d="M87.4,40.5c-1.5-0.8-2.8-0.7-2.9-0.2s0.9,1.3,2.6,1.8s2.8,0.2,2.8,0.2S89,41.3,87.4,40.5z"/>
	<path class="st0" d="M82.6,39.6c-0.6,1.7-1.6,2.7-2,2.4s-0.3-1.6,0.7-3.2c0.9-1.7,1.9-2.3,1.9-2.3S83.2,37.8,82.6,39.6z"/>
	<path class="st0" d="M83.5,42.1c-1.6-0.7-2.9-0.6-2.9-0.1c-0.1,0.5,0.9,1.2,2.7,1.6c1.7,0.4,2.9,0.1,2.9,0.1S85.1,42.8,83.5,42.1z"
		/>
	<path class="st0" d="M78.6,41.5c-0.5,1.8-1.4,2.7-1.9,2.5c-0.4-0.3-0.3-1.6,0.5-3.3c0.9-1.7,1.8-2.4,1.8-2.4S79.2,39.6,78.6,41.5z"
		/>
	<path class="st0" d="M79.7,43.9c-1.6-0.6-2.9-0.4-2.9,0.1s1,1.2,2.8,1.5s2.9-0.1,2.9-0.1S81.4,44.5,79.7,43.9z"/>
	<path class="st0" d="M74.8,43.5c-0.4,1.8-1.3,2.8-1.7,2.6c-0.4-0.3-0.4-1.5,0.4-3.3c0.8-1.7,1.7-2.5,1.7-2.5S75.2,41.7,74.8,43.5z"
		/>
	<path class="st0" d="M76,45.9c-1.6-0.5-2.9-0.3-2.9,0.2s1,1.1,2.8,1.3s2.8-0.2,2.8-0.2S77.6,46.4,76,45.9z"/>
	<path class="st0" d="M71,45.8c-0.3,1.8-1.1,2.9-1.6,2.6c-0.5-0.2-0.5-1.5,0.2-3.3s1.6-2.6,1.6-2.6S71.4,43.9,71,45.8z"/>
	<path class="st0" d="M72.3,48.1c-1.7-0.4-2.9-0.1-2.9,0.4s1.1,1.1,2.9,1.2c1.8,0.1,2.8-0.4,2.8-0.4S74,48.5,72.3,48.1z"/>
	<path class="st0" d="M67.4,48.2c-0.2,1.8-1,2.9-1.5,2.7s-0.6-1.5,0-3.3s1.4-2.7,1.4-2.7S67.6,46.3,67.4,48.2z"/>
	<path class="st0" d="M68.8,50.4c-1.7-0.4-2.9,0-2.9,0.5c0.1,0.5,1.2,1,2.9,1c1.8,0,2.8-0.5,2.8-0.5S70.6,50.8,68.8,50.4z"/>
	<path class="st0" d="M63.9,50.8c-0.1,1.8-0.8,3-1.3,2.8s-0.7-1.4-0.2-3.3c0.5-1.8,1.3-2.8,1.3-2.8S64.1,49,63.9,50.8z"/>
	<path class="st0" d="M65.5,53c-1.7-0.3-2.9,0.2-2.8,0.7c0.1,0.5,1.2,0.9,3,0.9c1.8-0.1,2.8-0.7,2.8-0.7S67.2,53.2,65.5,53z"/>
	<path class="st0" d="M60.6,53.6c0,1.8-0.7,3-1.2,2.9c-0.5-0.2-0.7-1.4-0.3-3.3c0.4-1.9,1.1-2.8,1.1-2.8S60.6,51.8,60.6,53.6z"/>
	<path class="st0" d="M62.2,55.7c-1.7-0.2-2.9,0.3-2.8,0.8c0.1,0.5,1.3,0.9,3,0.7c1.8-0.2,2.7-0.8,2.7-0.8S64,55.9,62.2,55.7z"/>
	<path class="st0" d="M57.4,56.6c0.1,1.8-0.5,3.1-1,2.9s-0.8-1.4-0.5-3.3c0.3-1.9,1-2.9,1-2.9S57.3,54.7,57.4,56.6z"/>
	<path class="st0" d="M59.1,58.6c-1.7-0.1-2.9,0.5-2.7,1c0.1,0.5,1.3,0.8,3.1,0.6c1.8-0.3,2.7-0.9,2.7-0.9S60.9,58.7,59.1,58.6z"/>
	<path class="st0" d="M54.3,59.8c0.2,1.8-0.4,3.1-0.9,3s-0.9-1.3-0.7-3.2s0.8-2.9,0.8-2.9S54.2,57.9,54.3,59.8z"/>
	<path class="st0" d="M56.2,61.6c-1.7,0-2.8,0.6-2.7,1.1c0.2,0.5,1.3,0.7,3.1,0.4c1.8-0.4,2.6-1.1,2.6-1.1S58,61.6,56.2,61.6z"/>
	<path class="st0" d="M51.5,63.1c0.3,1.8-0.2,3.1-0.7,3s-0.9-1.3-0.8-3.2c0.1-1.9,0.7-3,0.7-3S51.2,61.2,51.5,63.1z"/>
	<path class="st0" d="M53.4,64.8c-1.7,0.1-2.8,0.8-2.6,1.2c0.2,0.5,1.4,0.7,3.1,0.2c1.7-0.5,2.6-1.2,2.6-1.2S55.2,64.7,53.4,64.8z"
		/>
	<path class="st0" d="M48.8,66.5c0.3,1.8,0,3.1-0.5,3s-1-1.2-1-3.1s0.5-3,0.5-3S48.4,64.7,48.8,66.5z"/>
	<path class="st0" d="M50.8,68.2c-1.7,0.2-2.8,0.9-2.6,1.4s1.4,0.6,3.1,0.1c1.7-0.5,2.5-1.4,2.5-1.4S52.6,68,50.8,68.2z"/>
	<path class="st0" d="M46.3,70.1c0.4,1.8,0.1,3.1-0.4,3.1s-1.1-1.2-1.2-3.1s0.4-3,0.4-3S45.8,68.3,46.3,70.1z"/>
	<path class="st0" d="M48.4,71.7c-1.7,0.3-2.7,1.1-2.5,1.5c0.2,0.5,1.4,0.5,3.1-0.1c1.7-0.6,2.4-1.5,2.4-1.5S50.1,71.4,48.4,71.7z"
		/>
	<path class="st0" d="M44,73.8c0.5,1.8,0.3,3.1-0.2,3.1s-1.1-1.1-1.3-3s0.2-3,0.2-3S43.4,72,44,73.8z"/>
	<path class="st0" d="M46.2,75.2c-1.7,0.4-2.7,1.2-2.4,1.6s1.5,0.5,3.1-0.3c1.6-0.7,2.4-1.6,2.4-1.6S47.9,74.9,46.2,75.2z"/>
	<path class="st0" d="M41.8,77.6c0.6,1.7,0.5,3.1-0.1,3.1c-0.5,0-1.2-1.1-1.5-2.9c-0.3-1.9,0-3,0-3S41.2,75.8,41.8,77.6z"/>
	<path class="st0" d="M44.1,79c-1.7,0.5-2.6,1.3-2.3,1.8c0.3,0.4,1.5,0.4,3.1-0.4s2.3-1.7,2.3-1.7S45.8,78.5,44.1,79z"/>
	<path class="st0" d="M39.9,81.5c0.7,1.7,0.6,3,0.1,3.1s-1.2-1-1.6-2.9s-0.1-3-0.1-3S39.2,79.8,39.9,81.5z"/>
	<path class="st0" d="M42.3,82.8c-1.6,0.5-2.5,1.5-2.2,1.9s1.5,0.3,3.1-0.6s2.2-1.8,2.2-1.8S43.9,82.2,42.3,82.8z"/>
	<path class="st0" d="M38.2,85.6c0.8,1.7,0.8,3,0.3,3.1s-1.3-0.9-1.8-2.8c-0.5-1.8-0.3-3-0.3-3S37.4,83.9,38.2,85.6z"/>
	<path class="st0" d="M40.6,86.7c-1.6,0.6-2.4,1.6-2.1,2c0.3,0.4,1.5,0.2,3-0.7c1.5-1,2.1-2,2.1-2S42.3,86,40.6,86.7z"/>
	<path class="st0" d="M36.7,89.7c0.9,1.6,0.9,3,0.4,3.1s-1.3-0.9-1.9-2.7c-0.6-1.8-0.4-3-0.4-3S35.8,88,36.7,89.7z"/>
	<path class="st0" d="M39.2,90.6c-1.6,0.7-2.3,1.7-2,2.1s1.5,0.1,3-0.9s2-2.1,2-2.1S40.8,89.9,39.2,90.6z"/>
	<path class="st0" d="M35.4,93.9c1,1.6,1.1,2.9,0.6,3s-1.4-0.8-2.1-2.6c-0.7-1.8-0.6-3-0.6-3S34.4,92.3,35.4,93.9z"/>
	<path class="st0" d="M37.9,94.7c-1.5,0.8-2.3,1.8-1.9,2.2c0.4,0.4,1.5,0.1,2.9-1.1c1.4-1.1,1.9-2.2,1.9-2.2S39.5,93.9,37.9,94.7z"
		/>
	<path class="st0" d="M34.4,98.1c1,1.5,1.2,2.8,0.7,3s-1.4-0.7-2.2-2.5s-0.7-2.9-0.7-2.9S33.3,96.6,34.4,98.1z"/>
	<path class="st0" d="M36.9,98.8c-1.5,0.9-2.2,2-1.8,2.3s1.5,0,2.9-1.2c1.3-1.2,1.7-2.3,1.7-2.3S38.5,97.9,36.9,98.8z"/>
	<path class="st0" d="M33.5,102.4c1.1,1.4,1.4,2.8,0.9,3s-1.5-0.6-2.3-2.3c-0.9-1.7-0.9-2.9-0.9-2.9S32.4,100.9,33.5,102.4z"/>
	<path class="st0" d="M36.1,103c-1.4,0.9-2,2.1-1.6,2.4s1.5-0.1,2.8-1.4s1.6-2.3,1.6-2.3S37.6,102,36.1,103z"/>
	<path class="st0" d="M32.9,106.7c1.2,1.4,1.5,2.7,1.1,2.9c-0.5,0.2-1.5-0.6-2.4-2.2c-1-1.6-1-2.9-1-2.9S31.7,105.3,32.9,106.7z"/>
	<path class="st0" d="M35.5,107.1c-1.4,1-1.9,2.2-1.5,2.5s1.5-0.2,2.7-1.5s1.5-2.4,1.5-2.4S37,106.1,35.5,107.1z"/>
	<path class="st0" d="M32.6,111.1c1.3,1.3,1.7,2.6,1.2,2.8c-0.5,0.2-1.5-0.5-2.6-2.1c-1-1.6-1.2-2.8-1.2-2.8S31.2,109.7,32.6,111.1z
		"/>
	<path class="st0" d="M35.2,111.4c-1.3,1.1-1.8,2.3-1.4,2.6c0.4,0.3,1.5-0.3,2.7-1.6c1.1-1.4,1.4-2.5,1.4-2.5S36.6,110.2,35.2,111.4
		z"/>
	<path class="st0" d="M199.3,115.4c-1.3,1.3-1.8,2.5-1.4,2.8s1.5-0.4,2.7-1.9c1.1-1.5,1.3-2.7,1.3-2.7S200.6,114.2,199.3,115.4z"/>
	<path class="st0" d="M196.6,115.6c1.3,1.2,1.7,2.4,1.3,2.6c-0.4,0.3-1.5-0.3-2.6-1.8c-1.1-1.4-1.2-2.6-1.2-2.6
		S195.3,114.4,196.6,115.6z"/>
	<path class="st0" d="M199.2,119.8c-1.4,1.2-1.9,2.4-1.5,2.7c0.4,0.3,1.6-0.3,2.8-1.8s1.5-2.7,1.5-2.7S200.6,118.6,199.2,119.8z"/>
	<path class="st0" d="M196.6,119.8c1.2,1.2,1.6,2.5,1.1,2.7s-1.5-0.4-2.5-1.9s-1.1-2.6-1.1-2.6S195.3,118.6,196.6,119.8z"/>
	<path class="st0" d="M198.9,124.2c-1.5,1.1-2.1,2.3-1.6,2.6s1.6-0.2,2.8-1.7c1.3-1.4,1.6-2.6,1.6-2.6S200.4,123,198.9,124.2z"/>
	<path class="st0" d="M196.3,124.1c1.2,1.3,1.4,2.5,1,2.7c-0.5,0.2-1.5-0.5-2.4-2s-1-2.7-1-2.7S195.1,122.7,196.3,124.1z"/>
	<path class="st0" d="M198.4,128.5c-1.5,1-2.2,2.2-1.8,2.5s1.6-0.2,2.9-1.5c1.4-1.3,1.7-2.5,1.7-2.5S199.9,127.5,198.4,128.5z"/>
	<path class="st0" d="M195.7,128.3c1.1,1.3,1.3,2.6,0.8,2.8s-1.4-0.6-2.3-2.2c-0.8-1.6-0.8-2.7-0.8-2.7S194.6,126.9,195.7,128.3z"/>
	<path class="st0" d="M197.6,132.8c-1.6,0.9-2.3,2.1-1.9,2.4c0.4,0.3,1.6-0.1,3-1.3c1.4-1.3,1.9-2.4,1.9-2.4
		S199.2,131.8,197.6,132.8z"/>
	<path class="st0" d="M195,132.4c1,1.4,1.2,2.7,0.7,2.8c-0.5,0.2-1.4-0.6-2.1-2.3s-0.7-2.8-0.7-2.8S194,131,195,132.4z"/>
	<path class="st0" d="M196.6,137.1c-1.6,0.9-2.4,2-2,2.3c0.4,0.4,1.6,0,3.1-1.2s2-2.3,2-2.3S198.3,136.2,196.6,137.1z"/>
	<path class="st0" d="M194,136.5c0.9,1.5,1,2.7,0.5,2.9c-0.5,0.1-1.4-0.7-2-2.4c-0.7-1.7-0.5-2.8-0.5-2.8S193.1,135,194,136.5z"/>
	<path class="st0" d="M195.4,141.3c-1.7,0.8-2.5,1.8-2.1,2.2c0.3,0.4,1.6,0.1,3.1-1s2.1-2.2,2.1-2.2S197.1,140.5,195.4,141.3z"/>
	<path class="st0" d="M192.9,140.6c0.9,1.5,0.9,2.8,0.4,2.9c-0.5,0.1-1.3-0.8-1.9-2.5s-0.4-2.8-0.4-2.8S192,139.1,192.9,140.6z"/>
	<path class="st0" d="M194,145.4c-1.7,0.7-2.6,1.7-2.3,2.1c0.3,0.4,1.6,0.2,3.2-0.9c1.6-1,2.2-2.1,2.2-2.1S195.7,144.7,194,145.4z"
		/>
	<path class="st0" d="M191.5,144.6c0.8,1.5,0.7,2.8,0.2,2.9c-0.5,0.1-1.3-0.9-1.8-2.6c-0.5-1.7-0.2-2.8-0.2-2.8
		S190.7,143,191.5,144.6z"/>
	<path class="st0" d="M192.4,149.5c-1.7,0.6-2.7,1.6-2.4,2s1.6,0.3,3.2-0.7c1.7-0.9,2.3-1.9,2.3-1.9S194.1,148.8,192.4,149.5z"/>
	<path class="st0" d="M189.9,148.5c0.7,1.6,0.6,2.9,0.1,2.9c-0.5,0.1-1.2-0.9-1.6-2.7c-0.4-1.7-0.1-2.9-0.1-2.9
		S189.2,146.9,189.9,148.5z"/>
	<path class="st0" d="M190.5,153.4c-1.8,0.5-2.7,1.4-2.5,1.9c0.3,0.4,1.6,0.3,3.3-0.5c1.7-0.9,2.4-1.8,2.4-1.8
		S192.3,152.9,190.5,153.4z"/>
	<path class="st0" d="M188.1,152.4c0.6,1.6,0.4,2.9-0.1,2.9s-1.2-1-1.5-2.8s0.1-2.9,0.1-2.9S187.5,150.7,188.1,152.4z"/>
	<path class="st0" d="M188.5,157.3c-1.8,0.4-2.8,1.3-2.6,1.7c0.3,0.4,1.5,0.4,3.3-0.4c1.7-0.8,2.5-1.7,2.5-1.7
		S190.3,156.9,188.5,157.3z"/>
	<path class="st0" d="M186.1,156.1c0.5,1.6,0.3,2.9-0.2,2.9s-1.1-1-1.3-2.8s0.2-2.8,0.2-2.8S185.5,154.4,186.1,156.1z"/>
	<path class="st0" d="M186.2,161c-1.8,0.3-2.9,1.1-2.6,1.6s1.5,0.5,3.3-0.2s2.6-1.6,2.6-1.6S188.1,160.7,186.2,161z"/>
	<path class="st0" d="M183.9,159.7c0.4,1.7,0.1,2.9-0.4,2.9s-1.1-1.1-1.2-2.9c-0.1-1.8,0.4-2.8,0.4-2.8S183.5,158,183.9,159.7z"/>
	<path class="st0" d="M183.8,164.6c-1.8,0.2-2.9,1-2.7,1.5s1.5,0.6,3.3,0s2.7-1.4,2.7-1.4S185.6,164.4,183.8,164.6z"/>
	<path class="st0" d="M181.5,163.2c0.4,1.7,0,2.9-0.5,2.9c-0.5-0.1-1-1.2-1-2.9c0-1.8,0.5-2.8,0.5-2.8S181.2,161.5,181.5,163.2z"/>
	<path class="st0" d="M181.1,168.1c-1.8,0.1-3,0.8-2.8,1.3s1.4,0.7,3.3,0.2c1.8-0.5,2.8-1.3,2.8-1.3S183,168,181.1,168.1z"/>
	<path class="st0" d="M179,166.6c0.3,1.7-0.2,2.9-0.7,2.8c-0.5-0.1-0.9-1.2-0.9-3c0.1-1.8,0.7-2.8,0.7-2.8S178.7,164.9,179,166.6z"
		/>
	<path class="st0" d="M178.3,171.5c-1.8,0-3,0.7-2.9,1.2c0.2,0.5,1.4,0.7,3.3,0.3c1.9-0.4,2.8-1.1,2.8-1.1S180.2,171.5,178.3,171.5z
		"/>
	<path class="st0" d="M176.3,169.8c0.2,1.7-0.3,2.9-0.8,2.8c-0.5-0.1-0.9-1.3-0.7-3c0.2-1.8,0.8-2.7,0.8-2.7
		S176.1,168.1,176.3,169.8z"/>
	<path class="st0" d="M175.3,174.7c-1.8-0.1-3.1,0.5-2.9,1c0.1,0.5,1.4,0.8,3.3,0.5c1.9-0.3,2.9-1,2.9-1S177.2,174.7,175.3,174.7z"
		/>
	<path class="st0" d="M173.4,172.9c0.1,1.7-0.5,2.9-1,2.7c-0.5-0.1-0.8-1.3-0.6-3.1c0.3-1.8,0.9-2.7,0.9-2.7
		S173.3,171.2,173.4,172.9z"/>
	<path class="st0" d="M172.2,177.7c-1.8-0.2-3.1,0.4-3,0.9s1.3,0.9,3.2,0.7s2.9-0.8,2.9-0.8S174.1,177.9,172.2,177.7z"/>
	<path class="st0" d="M170.3,175.9c0,1.7-0.6,2.8-1.1,2.7c-0.5-0.2-0.7-1.3-0.4-3.1c0.4-1.8,1.1-2.6,1.1-2.6
		S170.3,174.1,170.3,175.9z"/>
	<path class="st0" d="M168.9,180.6c-1.8-0.3-3.1,0.2-3,0.7s1.3,0.9,3.2,0.8c1.9-0.1,3-0.7,3-0.7S170.8,180.8,168.9,180.6z"/>
	<path class="st0" d="M167.1,178.6c-0.1,1.7-0.8,2.8-1.2,2.6c-0.5-0.2-0.7-1.4-0.2-3.1c0.5-1.7,1.2-2.6,1.2-2.6
		S167.2,176.9,167.1,178.6z"/>
	<path class="st0" d="M165.4,183.3c-1.8-0.3-3.1,0-3,0.5s1.2,1,3.1,1c1.9,0,3-0.5,3-0.5S167.3,183.6,165.4,183.3z"/>
	<path class="st0" d="M163.8,181.2c-0.2,1.7-0.9,2.8-1.4,2.6s-0.6-1.4-0.1-3.1c0.5-1.7,1.4-2.5,1.4-2.5S164,179.5,163.8,181.2z"/>
	<path class="st0" d="M161.9,185.8c-1.8-0.4-3.1-0.1-3.1,0.4s1.2,1.1,3.1,1.2c1.9,0.1,3-0.4,3-0.4S163.7,186.2,161.9,185.8z"/>
	<path class="st0" d="M160.3,183.7c-0.3,1.7-1.1,2.7-1.5,2.5c-0.5-0.2-0.5-1.4,0.1-3.1c0.6-1.7,1.5-2.4,1.5-2.4
		S160.6,181.9,160.3,183.7z"/>
	<path class="st0" d="M158.2,188.1c-1.8-0.5-3.1-0.3-3.1,0.2s1.1,1.1,3,1.3s3-0.2,3-0.2S160,188.7,158.2,188.1z"/>
	<path class="st0" d="M156.7,185.9c-0.4,1.7-1.2,2.7-1.6,2.4c-0.4-0.3-0.5-1.5,0.3-3.1c0.7-1.6,1.6-2.4,1.6-2.4
		S157.1,184.2,156.7,185.9z"/>
	<path class="st0" d="M154.3,190.2c-1.7-0.6-3.1-0.5-3.1,0.1c0,0.5,1.1,1.2,2.9,1.5c1.9,0.3,3,0,3,0S156.1,190.9,154.3,190.2z"/>
	<path class="st0" d="M153,187.9c-0.5,1.7-1.3,2.6-1.8,2.3c-0.4-0.3-0.4-1.5,0.4-3.1c0.8-1.6,1.7-2.3,1.7-2.3S153.5,186.2,153,187.9
		z"/>
	<path class="st0" d="M150.4,192.1c-1.7-0.7-3-0.6-3.1-0.1s1,1.2,2.9,1.6s3,0.1,3,0.1S152.1,192.9,150.4,192.1z"/>
	<path class="st0" d="M149.2,189.8c-0.5,1.6-1.5,2.5-1.9,2.2s-0.3-1.5,0.6-3.1c0.9-1.6,1.8-2.2,1.8-2.2S149.7,188.1,149.2,189.8z"/>
	<path class="st0" d="M146.4,193.8c-1.7-0.8-3-0.8-3.1-0.3s0.9,1.3,2.8,1.8c1.8,0.5,3,0.3,3,0.3S148.1,194.7,146.4,193.8z"/>
	<path class="st0" d="M145.3,191.4c-0.6,1.6-1.6,2.4-2,2.1c-0.4-0.3-0.2-1.5,0.7-3c1-1.5,2-2.1,2-2.1S145.9,189.8,145.3,191.4z"/>
	<path class="st0" d="M142.3,195.3c-1.6-0.9-3-0.9-3.1-0.4s0.9,1.3,2.7,1.9c1.8,0.6,3,0.4,3,0.4S143.9,196.3,142.3,195.3z"/>
	<path class="st0" d="M141.3,192.9c-0.7,1.6-1.7,2.3-2.1,2c-0.4-0.3-0.1-1.5,0.9-3s2.1-2,2.1-2S142,191.3,141.3,192.9z"/>
	<path class="st0" d="M138.1,196.6c-1.6-1-2.9-1.1-3-0.6s0.8,1.4,2.6,2.1c1.8,0.7,3,0.6,3,0.6S139.7,197.6,138.1,196.6z"/>
	<path class="st0" d="M137.3,194.1c-0.8,1.5-1.8,2.3-2.2,1.9c-0.4-0.4-0.1-1.5,1.1-2.9c1.1-1.4,2.2-1.9,2.2-1.9
		S138.1,192.5,137.3,194.1z"/>
	<path class="st0" d="M133.9,197.7c-1.5-1-2.8-1.2-3-0.7s0.7,1.4,2.5,2.2c1.7,0.8,2.9,0.7,2.9,0.7S135.4,198.8,133.9,197.7z"/>
	<path class="st0" d="M133.2,195.1c-0.9,1.5-2,2.2-2.3,1.8s0-1.5,1.2-2.9c1.2-1.3,2.3-1.7,2.3-1.7S134,193.6,133.2,195.1z"/>
	<path class="st0" d="M129.6,198.5c-1.4-1.1-2.8-1.4-3-0.9s0.6,1.5,2.3,2.3c1.7,0.9,2.9,0.9,2.9,0.9S131.1,199.7,129.6,198.5z"/>
	<path class="st0" d="M129,195.9c-0.9,1.4-2.1,2-2.4,1.6s0.1-1.5,1.4-2.8s2.3-1.6,2.3-1.6S130,194.5,129,195.9z"/>
	<path class="st0" d="M125.2,199.1c-1.4-1.2-2.7-1.5-2.9-1.1c-0.2,0.5,0.6,1.5,2.2,2.4c1.6,1,2.9,1,2.9,1S126.7,200.4,125.2,199.1z"
		/>
	<path class="st0" d="M124.8,196.5c-1,1.4-2.2,1.9-2.5,1.5s0.2-1.5,1.5-2.7s2.4-1.5,2.4-1.5S125.9,195.1,124.8,196.5z"/>
	<path class="st0" d="M120.9,199.5c-1.3-1.3-2.6-1.7-2.8-1.2c-0.2,0.5,0.5,1.5,2.1,2.6c1.6,1,2.8,1.2,2.8,1.2
		S122.2,200.8,120.9,199.5z"/>
	<path class="st0" d="M120.6,196.9c-1.1,1.3-2.3,1.8-2.6,1.4c-0.3-0.4,0.3-1.5,1.6-2.7c1.4-1.1,2.5-1.4,2.5-1.4
		S121.7,195.5,120.6,196.9z"/>
	<path class="st0" d="M136.7,35.3c0.9,1.6,2,2.4,2.3,2c0.4-0.4,0-1.6-1.2-3.1s-2.3-2-2.3-2S135.8,33.7,136.7,35.3z"/>
	<path class="st0" d="M136.2,37.9c1.5-0.9,2.7-1,2.9-0.5c0.1,0.5-0.7,1.4-2.4,2c-1.7,0.7-2.8,0.5-2.8,0.5S134.7,38.9,136.2,37.9z"/>
	<path class="st0" d="M140.9,36.5c0.8,1.7,1.8,2.5,2.2,2.1c0.4-0.3,0.1-1.6-1-3.1s-2.2-2.1-2.2-2.1S140.1,34.8,140.9,36.5z"/>
	<path class="st0" d="M140.2,39.1c1.5-0.9,2.8-0.9,2.9-0.4c0.1,0.5-0.8,1.3-2.5,1.9c-1.7,0.6-2.8,0.4-2.8,0.4S138.7,40,140.2,39.1z"
		/>
	<path class="st0" d="M145,38c0.7,1.7,1.7,2.6,2.1,2.3c0.4-0.3,0.2-1.6-0.9-3.2c-1-1.6-2.1-2.2-2.1-2.2S144.3,36.2,145,38z"/>
	<path class="st0" d="M144.2,40.5c1.5-0.8,2.8-0.7,2.9-0.2s-0.9,1.3-2.6,1.8c-1.7,0.5-2.8,0.2-2.8,0.2S142.6,41.3,144.2,40.5z"/>
	<path class="st0" d="M149.1,39.6c0.6,1.7,1.6,2.7,2,2.4s0.3-1.6-0.7-3.2c-0.9-1.7-1.9-2.3-1.9-2.3S148.5,37.8,149.1,39.6z"/>
	<path class="st0" d="M148.1,42.1c1.6-0.7,2.9-0.6,2.9-0.1c0.1,0.5-0.9,1.2-2.7,1.6c-1.7,0.4-2.9,0.1-2.9,0.1S146.5,42.8,148.1,42.1
		z"/>
	<path class="st0" d="M153,41.5c0.5,1.8,1.4,2.7,1.9,2.5c0.4-0.3,0.3-1.6-0.5-3.3c-0.9-1.7-1.8-2.4-1.8-2.4S152.5,39.6,153,41.5z"/>
	<path class="st0" d="M152,43.9c1.6-0.6,2.9-0.4,2.9,0.1s-1,1.2-2.8,1.5s-2.9-0.1-2.9-0.1S150.3,44.5,152,43.9z"/>
	<path class="st0" d="M156.9,43.5c0.4,1.8,1.3,2.8,1.7,2.6c0.4-0.3,0.4-1.5-0.4-3.3c-0.8-1.7-1.7-2.5-1.7-2.5S156.5,41.7,156.9,43.5
		z"/>
	<path class="st0" d="M155.7,45.9c1.6-0.5,2.9-0.3,2.9,0.2s-1,1.1-2.8,1.3s-2.8-0.2-2.8-0.2S154,46.4,155.7,45.9z"/>
	<path class="st0" d="M160.6,45.8c0.3,1.8,1.1,2.9,1.6,2.6c0.5-0.2,0.5-1.5-0.2-3.3s-1.6-2.6-1.6-2.6S160.3,43.9,160.6,45.8z"/>
	<path class="st0" d="M159.3,48.1c1.7-0.4,2.9-0.1,2.9,0.4s-1.1,1.1-2.9,1.2c-1.8,0.1-2.8-0.4-2.8-0.4S157.6,48.5,159.3,48.1z"/>
	<path class="st0" d="M164.3,48.2c0.2,1.8,1,2.9,1.5,2.7s0.6-1.5,0-3.3s-1.4-2.7-1.4-2.7S164,46.3,164.3,48.2z"/>
	<path class="st0" d="M162.8,50.4c1.7-0.4,2.9,0,2.9,0.5s-1.2,1-2.9,1c-1.8,0-2.8-0.5-2.8-0.5S161.1,50.8,162.8,50.4z"/>
	<path class="st0" d="M167.8,50.8c0.1,1.8,0.8,3,1.3,2.8s0.7-1.4,0.2-3.3c-0.5-1.8-1.3-2.8-1.3-2.8S167.6,49,167.8,50.8z"/>
	<path class="st0" d="M166.2,53c1.7-0.3,2.9,0.2,2.8,0.7c-0.1,0.5-1.2,0.9-3,0.9c-1.8-0.1-2.8-0.7-2.8-0.7S164.5,53.2,166.2,53z"/>
	<path class="st0" d="M171.1,53.6c0,1.8,0.7,3,1.2,2.9s0.7-1.4,0.3-3.3c-0.4-1.9-1.1-2.8-1.1-2.8S171.1,51.8,171.1,53.6z"/>
	<path class="st0" d="M169.5,55.7c1.7-0.2,2.9,0.3,2.8,0.8s-1.3,0.9-3,0.7c-1.8-0.2-2.7-0.8-2.7-0.8S167.7,55.9,169.5,55.7z"/>
	<path class="st0" d="M174.3,56.6c-0.1,1.8,0.5,3.1,1,2.9c0.5-0.1,0.8-1.4,0.5-3.3c-0.3-1.9-1-2.9-1-2.9S174.4,54.7,174.3,56.6z"/>
	<path class="st0" d="M172.5,58.6c1.7-0.1,2.9,0.5,2.7,1c-0.1,0.5-1.3,0.8-3.1,0.6c-1.8-0.3-2.7-0.9-2.7-0.9S170.8,58.7,172.5,58.6z
		"/>
	<path class="st0" d="M177.3,59.8c-0.2,1.8,0.4,3.1,0.9,3s0.9-1.3,0.7-3.2s-0.8-2.9-0.8-2.9S177.5,57.9,177.3,59.8z"/>
	<path class="st0" d="M175.5,61.6c1.7,0,2.8,0.6,2.7,1.1c-0.2,0.5-1.3,0.7-3.1,0.4c-1.8-0.4-2.6-1.1-2.6-1.1S173.7,61.6,175.5,61.6z
		"/>
	<path class="st0" d="M180.2,63.1c-0.3,1.8,0.2,3.1,0.7,3s0.9-1.3,0.8-3.2c-0.1-1.9-0.7-3-0.7-3S180.5,61.2,180.2,63.1z"/>
	<path class="st0" d="M178.3,64.8c1.7,0.1,2.8,0.8,2.6,1.2c-0.2,0.5-1.4,0.7-3.1,0.2c-1.7-0.5-2.6-1.2-2.6-1.2
		S176.5,64.7,178.3,64.8z"/>
	<path class="st0" d="M182.9,66.5c-0.3,1.8,0,3.1,0.5,3s1-1.2,1-3.1s-0.5-3-0.5-3S183.3,64.7,182.9,66.5z"/>
	<path class="st0" d="M180.9,68.2c1.7,0.2,2.8,0.9,2.6,1.4s-1.4,0.6-3.1,0.1c-1.7-0.5-2.5-1.4-2.5-1.4S179.1,68,180.9,68.2z"/>
	<path class="st0" d="M185.4,70.1c-0.4,1.8-0.1,3.1,0.4,3.1s1.1-1.2,1.2-3.1c0.1-1.9-0.4-3-0.4-3S185.9,68.3,185.4,70.1z"/>
	<path class="st0" d="M183.3,71.7c1.7,0.3,2.7,1.1,2.5,1.5c-0.2,0.5-1.4,0.5-3.1-0.1c-1.7-0.6-2.4-1.5-2.4-1.5
		S181.5,71.4,183.3,71.7z"/>
	<path class="st0" d="M187.7,73.8c-0.5,1.8-0.3,3.1,0.2,3.1s1.1-1.1,1.3-3s-0.2-3-0.2-3S188.3,72,187.7,73.8z"/>
	<path class="st0" d="M185.5,75.2c1.7,0.4,2.7,1.2,2.4,1.6s-1.5,0.5-3.1-0.3c-1.6-0.7-2.4-1.6-2.4-1.6S183.8,74.9,185.5,75.2z"/>
	<path class="st0" d="M189.8,77.6c-0.6,1.7-0.5,3.1,0.1,3.1s1.2-1.1,1.5-2.9c0.3-1.9,0-3,0-3S190.5,75.8,189.8,77.6z"/>
	<path class="st0" d="M187.6,79c1.7,0.5,2.6,1.3,2.3,1.8c-0.3,0.4-1.5,0.4-3.1-0.4s-2.3-1.7-2.3-1.7S185.9,78.5,187.6,79z"/>
	<path class="st0" d="M191.8,81.5c-0.7,1.7-0.6,3-0.1,3.1s1.2-1,1.6-2.9s0.1-3,0.1-3S192.5,79.8,191.8,81.5z"/>
	<path class="st0" d="M189.4,82.8c1.6,0.5,2.5,1.5,2.2,1.9s-1.5,0.3-3.1-0.6s-2.2-1.8-2.2-1.8S187.7,82.2,189.4,82.8z"/>
	<path class="st0" d="M193.5,85.6c-0.8,1.7-0.8,3-0.3,3.1s1.3-0.9,1.8-2.8c0.5-1.8,0.3-3,0.3-3S194.3,83.9,193.5,85.6z"/>
	<path class="st0" d="M191.1,86.7c1.6,0.6,2.4,1.6,2.1,2c-0.3,0.4-1.5,0.2-3-0.7c-1.5-1-2.1-2-2.1-2S189.4,86,191.1,86.7z"/>
	<path class="st0" d="M195,89.7c-0.9,1.6-0.9,3-0.4,3.1s1.3-0.9,1.9-2.7c0.6-1.8,0.4-3,0.4-3S195.9,88,195,89.7z"/>
	<path class="st0" d="M192.5,90.6c1.6,0.7,2.3,1.7,2,2.1s-1.5,0.1-3-0.9s-2-2.1-2-2.1S190.9,89.9,192.5,90.6z"/>
	<path class="st0" d="M196.2,93.9c-1,1.6-1.1,2.9-0.6,3s1.4-0.8,2.1-2.6c0.7-1.8,0.6-3,0.6-3S197.2,92.3,196.2,93.9z"/>
	<path class="st0" d="M193.7,94.7c1.5,0.8,2.3,1.8,1.9,2.2c-0.4,0.4-1.5,0.1-2.9-1.1c-1.4-1.1-1.9-2.2-1.9-2.2
		S192.2,93.9,193.7,94.7z"/>
	<path class="st0" d="M197.3,98.1c-1,1.5-1.2,2.8-0.7,3s1.4-0.7,2.2-2.5c0.8-1.7,0.7-2.9,0.7-2.9S198.4,96.6,197.3,98.1z"/>
	<path class="st0" d="M194.7,98.8c1.5,0.9,2.2,2,1.8,2.3s-1.5,0-2.9-1.2c-1.3-1.2-1.7-2.3-1.7-2.3S193.2,97.9,194.7,98.8z"/>
	<path class="st0" d="M198.1,102.4c-1.1,1.4-1.4,2.8-0.9,3s1.5-0.6,2.3-2.3c0.9-1.7,0.9-2.9,0.9-2.9S199.3,100.9,198.1,102.4z"/>
	<path class="st0" d="M195.5,103c1.4,0.9,2,2.1,1.6,2.4s-1.5-0.1-2.8-1.4s-1.6-2.3-1.6-2.3S194.1,102,195.5,103z"/>
	<path class="st0" d="M198.7,106.7c-1.2,1.4-1.5,2.7-1.1,2.9c0.5,0.2,1.5-0.6,2.4-2.2c1-1.6,1-2.9,1-2.9S200,105.3,198.7,106.7z"/>
	<path class="st0" d="M196.1,107.1c1.4,1,1.9,2.2,1.5,2.5s-1.5-0.2-2.7-1.5s-1.5-2.4-1.5-2.4S194.7,106.1,196.1,107.1z"/>
	<path class="st0" d="M199.1,111.1c-1.3,1.3-1.7,2.6-1.2,2.8c0.5,0.2,1.5-0.5,2.6-2.1s1.2-2.8,1.2-2.8S200.4,109.7,199.1,111.1z"/>
	<path class="st0" d="M196.5,111.4c1.3,1.1,1.8,2.3,1.4,2.6c-0.4,0.3-1.5-0.3-2.7-1.6c-1.1-1.4-1.4-2.5-1.4-2.5
		S195.1,110.2,196.5,111.4z"/>
</g>
<path class="st0" d="M125.1,230.8l-1.9-1.9c0.8-1.3,1.2-2.8,1.2-4.5c0-4.8-3.8-8.6-8.6-8.6c-4.7,0-8.6,3.9-8.6,8.6
	c0,4.8,3.8,8.6,8.6,8.6c1.9,0,3.6-0.6,5-1.7l1.8,1.7L125.1,230.8z M115.9,229.6c-2.9,0-5.3-2.3-5.3-5.3s2.3-5.3,5.3-5.3
	s5.3,2.3,5.3,5.3c0,0.7-0.1,1.3-0.4,2l-0.1-0.1h-4.9l2.7,2.7C117.6,229.3,116.9,229.6,115.9,229.6z"/>
<g>
	<path class="st0" d="M23.7,176.1l-1.1-1.7L31,169l1.1,1.7L23.7,176.1z"/>
	<path class="st0" d="M19.8,169.9l-0.9-1.8l3.5-5.5c0.3-0.5,0.9-1.3,0.9-1.3l0,0c0,0-0.9,0.5-1.5,0.8l-4.7,2.4l-0.9-1.8l8.9-4.6
		l0.9,1.7l-3.4,5.6c-0.3,0.5-0.9,1.3-0.9,1.3l0,0c0,0,0.9-0.5,1.5-0.8l4.6-2.4l0.9,1.8L19.8,169.9z"/>
	<path class="st0" d="M14.1,158.1l-2.8-7.6l1.6-0.6l1,2.8l7.8-2.9l0.7,1.9l-7.8,2.9l1,2.8L14.1,158.1z"/>
	<path class="st0" d="M9.9,145.7l-1.7-7.2l1.7-0.4l1.3,5.2l2.2-0.5l-1.1-4.5l1.6-0.4l1.1,4.5l2.6-0.6l-1.3-5.2l1.6-0.4l1.8,7.2
		L9.9,145.7z"/>
	<path class="st0" d="M7.2,133.4l-0.6-4.6c-0.2-1.9,0.7-3.3,2.4-3.5c1.2-0.1,2.1,0.3,2.6,1.5l0,0c0.2-0.9,0.6-1.5,1.8-1.8
		c1.4-0.3,2.5-0.4,2.6-0.8h0.1l0.2,1.9c-0.1,0.3-1.2,0.4-2.2,0.6c-1.1,0.2-1.6,0.9-1.5,2.2l0.2,1.6l4-0.5l0.2,2L7.2,133.4z
		 M11.3,130.8l-0.3-2.1c-0.1-1.1-0.8-1.6-1.6-1.5s-1.3,0.7-1.2,1.8l0.3,2.2L11.3,130.8z"/>
	<path class="st0" d="M5.9,120.4v-2.1l5.6-3.3c0.5-0.3,1.4-0.7,1.4-0.7l0,0c0,0-1,0.1-1.7,0.1H6v-2h10v2l-5.5,3.4
		C9.8,118,9,118.4,9,118.4l0,0c0,0,1-0.1,1.7-0.1h5.2v2L5.9,120.4z"/>
	<path class="st0" d="M6.6,104l0.2-2.1l10.4-2.3l-0.3,2.1l-2.2,0.4l-0.4,3.6l2,0.9l-0.2,2L6.6,104z M12.8,105l0.3-2.6l-3,0.5
		c-0.5,0.1-1.6,0.2-1.6,0.2l0,0c0,0,1,0.4,1.5,0.6L12.8,105z"/>
	<path class="st0" d="M7.7,95.5l1.8-7.9l1.7,0.4l-0.7,3l8.1,1.9l-0.5,2l-8-1.9l-0.7,2.9L7.7,95.5z"/>
	<path class="st0" d="M11,83.1l0.6-1.9l9.5,3.1l-0.6,1.9L11,83.1z"/>
	<path class="st0" d="M17.8,78.5c-2.7-1.2-4-3.8-2.8-6.5s4-3.5,6.7-2.3s4,3.8,2.8,6.5C23.3,78.9,20.5,79.7,17.8,78.5z M20.8,71.5
		c-1.8-0.8-3.6-0.6-4.4,1.1c-0.7,1.7,0.3,3.2,2.1,4c1.8,0.8,3.6,0.6,4.4-1.1C23.7,73.8,22.6,72.3,20.8,71.5z"/>
	<path class="st0" d="M19.5,63l1.1-1.8h6.5c0.6,0,1.6,0.1,1.6,0.1l0,0c0,0-0.9-0.5-1.5-0.8l-4.5-2.7l1-1.7l8.6,5.2l-1,1.7l-6.5,0.1
		c-0.6,0-1.6-0.1-1.6-0.1l0,0c0,0,0.9,0.5,1.5,0.9l4.4,2.7l-1,1.7L19.5,63z"/>
	<path class="st0" d="M28.5,49.4l1.3-1.7l10.1,3.4l-1.3,1.7L36.5,52l-2.2,2.8l1.3,1.8l-1.3,1.6L28.5,49.4z M33.3,53.5l1.6-2.1
		l-2.8-1.1c-0.5-0.2-1.5-0.6-1.5-0.6l0,0c0,0,0.6,0.8,1,1.3L33.3,53.5z"/>
	<path class="st0" d="M35.2,41.4l1.4-1.4l5.9,5.8l3.3-3.4l1.2,1.2l-4.7,4.8L35.2,41.4z"/>
	<path class="st0" d="M48.1,29.5l5.8-4.2l1,1.4l-4.1,3l1.4,1.9l3.5-2.6l1,1.4L53.2,33l2.5,3.3L54,37.6L48.1,29.5z"/>
	<path class="st0" d="M58.1,22.6l1.8-1l4.2,7.2l4.1-2.4l0.8,1.5l-5.8,3.4L58.1,22.6z"/>
	<path class="st0" d="M69.7,21.8c-1.2-2.7-0.4-5.5,2.4-6.7c2.7-1.2,5.3,0.1,6.5,2.9s0.4,5.5-2.3,6.7C73.5,25.9,70.9,24.6,69.7,21.8z
		 M76.6,18.8c-0.8-1.8-2.2-2.9-3.9-2.2s-1.9,2.5-1.1,4.4c0.8,1.8,2.3,2.9,4,2.1C77.2,22.4,77.4,20.6,76.6,18.8z"/>
	<path class="st0" d="M81.4,11.7l4.4-1.3c1.9-0.5,3.4,0.2,3.9,1.8c0.3,1.1,0.1,2.1-1.1,2.8l0,0c1,0,1.6,0.4,2,1.5
		c0.5,1.3,0.8,2.4,1.2,2.4V19l-1.9,0.5c-0.3,0-0.6-1.1-1-2.1s-1.1-1.4-2.4-1.1L85,16.9l1.1,3.9l-2,0.6L81.4,11.7z M84.6,15.4
		l2.1-0.6c1.1-0.3,1.4-1,1.2-1.8c-0.2-0.8-0.9-1.2-1.9-0.9l-2.1,0.6L84.6,15.4z"/>
	<path class="st0" d="M96.8,7.9l2.1-0.3l5.1,9.3l-2.1,0.3l-1-2l-3.6,0.6L97.1,18l-2,0.3L96.8,7.9z M97.6,14.2l2.6-0.4l-1.4-2.7
		c-0.3-0.5-0.7-1.5-0.7-1.5l0,0c0,0-0.1,1-0.2,1.6L97.6,14.2z"/>
	<path class="st0" d="M107.2,6.6l2-0.1l0.4,8.3l4.7-0.2l0.1,1.7l-6.7,0.3L107.2,6.6z"/>
	<path class="st0" d="M124.8,6.6l3.9,0.5c2.7,0.3,4.1,2.7,3.8,5.6c-0.2,1.6-0.9,3-2,3.7c-0.8,0.5-1.8,0.8-3.1,0.6l-3.7-0.4
		L124.8,6.6z M127.4,15.2c1.9,0.2,2.8-0.8,3-2.8s-0.5-3.5-2.2-3.7l-1.6-0.2l-0.8,6.5L127.4,15.2z"/>
	<path class="st0" d="M138,8.5l7.2,1.7l-0.4,1.7l-5.2-1.2l-0.5,2.2l4.5,1.1l-0.4,1.6l-4.5-1.1l-0.6,2.6l5.2,1.3l-0.4,1.6l-7.2-1.7
		L138,8.5z"/>
	<path class="st0" d="M147.4,18l1.9,0.7c-0.3,1.2,0.2,1.9,1.5,2.4c1,0.4,2,0.3,2.3-0.5c0.3-0.9-0.5-1.4-1.8-2.3c-1.5-1-2.9-2-2.2-4
		c0.7-1.9,2.5-2.3,4.6-1.5s3.1,2.3,2.6,4.3l-1.8-0.7c0.2-1-0.3-1.7-1.3-2.1c-1-0.4-1.9-0.2-2.1,0.5c-0.3,0.8,0.3,1.2,1.6,2
		c1.8,1.1,3.2,2.2,2.4,4.2c-0.7,1.9-2.6,2.4-4.7,1.6C147.7,21.7,146.7,20,147.4,18z"/>
	<path class="st0" d="M162,16.4l1.8,0.9l-4.3,9l-1.8-0.9L162,16.4z"/>
	<path class="st0" d="M170.4,30.9L170.4,30.9c-1.2,0.6-2.2,0.5-3.2-0.1c-1.3-0.8-2-1.9-2.3-3.1c-0.2-1.2,0-2.6,0.8-3.9
		c0.9-1.4,2.1-2.4,3.5-2.7c1.1-0.2,2.2,0,3.4,0.7c2.2,1.3,2.7,3.2,1.9,5.1l-1.7-1c0.3-0.9,0-1.9-1.1-2.6c-1.6-1-3.2-0.1-4.3,1.6
		c-1.1,1.8-0.9,3.6,0.6,4.5c1.3,0.8,2.8,0.3,3.4-0.6l0,0l-2.1-1.2l0.8-1.3l3.6,2.2l-2.7,4.6l-1.3-0.8L170.4,30.9z"/>
	<path class="st0" d="M180.7,27.4l1.6,1.3l-0.8,6.5c-0.1,0.6-0.3,1.5-0.3,1.5l0,0c0,0,0.6-0.8,1-1.4l3.3-4.1l1.6,1.2l-6.2,7.9
		l-1.5-1.2l0.7-6.5c0.1-0.6,0.3-1.5,0.3-1.5l0,0c0,0-0.6,0.9-1,1.4l-3.2,4.1l-1.6-1.2L180.7,27.4z"/>
	<path class="st0" d="M195.3,40.2l2.9,3.3c0.8,0.9,1.1,1.7,1,2.6c-0.1,0.8-0.4,1.6-1.1,2.2c-1.4,1.3-3.2,1.2-4.6-0.4l-1.6-1.8
		l-2.7,2.4l-1.4-1.6L195.3,40.2z M193.2,44.9l1.4,1.6c0.7,0.8,1.5,0.8,2.2,0.2s0.7-1.4,0-2.2l-1.4-1.6L193.2,44.9z"/>
	<path class="st0" d="M203.7,50.1l2.6,3.8c1.1,1.6,0.9,3.3-0.4,4.2c-1,0.7-2,0.7-3-0.1l0,0c0.3,0.9,0.2,1.6-0.8,2.4
		c-1.1,0.9-2,1.5-1.9,1.9l-0.1,0.1l-1.1-1.6c-0.1-0.3,0.8-0.9,1.7-1.6c0.8-0.7,1-1.6,0.3-2.6l-0.9-1.3l-3.3,2.3l-1.2-1.7L203.7,50.1
		z M201.2,54.3l1.2,1.8c0.6,0.9,1.4,1,2.1,0.6c0.7-0.5,0.9-1.2,0.2-2.1l-1.3-1.8L201.2,54.3z"/>
	<path class="st0" d="M206.3,63c2.7-1.4,5.5-0.8,6.9,1.8c1.4,2.6,0.3,5.3-2.4,6.7c-2.6,1.4-5.5,0.8-6.9-1.8
		C202.6,67,203.7,64.4,206.3,63z M209.9,69.7c1.8-0.9,2.7-2.5,1.9-4.1c-0.9-1.6-2.7-1.7-4.4-0.8c-1.8,0.9-2.7,2.5-1.8,4.1
		C206.3,70.5,208.1,70.6,209.9,69.7z"/>
	<path class="st0" d="M217.3,73.8l2.6,6.7l-1.6,0.6l-1.8-4.8l-2.3,0.9l1.6,4.1l-1.6,0.6l-1.5-4.1l-3.9,1.5l-0.7-1.9L217.3,73.8z"/>
	<path class="st0" d="M221.4,85.4l1.8,7.1l-1.7,0.4l-1.3-5.2l-2.2,0.6l1.2,4.5l-1.6,0.4l-1.2-4.5l-2.6,0.7l1.3,5.2l-1.6,0.4
		l-1.8-7.2L221.4,85.4z"/>
	<path class="st0" d="M217.3,98.1l0.3,2c-1.2,0.3-1.6,1-1.4,2.5c0.1,1,0.6,1.9,1.5,1.8c1-0.1,1-1.1,1.2-2.7c0.2-1.8,0.4-3.5,2.5-3.8
		c2-0.3,3.2,1.2,3.5,3.4c0.3,2.2-0.6,3.8-2.6,4.2l-0.3-1.9c1-0.2,1.4-1.1,1.2-2.1c-0.1-1.1-0.7-1.7-1.4-1.6
		c-0.8,0.1-0.9,0.8-1.1,2.3c-0.2,2.1-0.4,3.8-2.6,4.1c-2,0.3-3.4-1.2-3.7-3.4C214.2,100.2,215.2,98.5,217.3,98.1z"/>
	<path class="st0" d="M218.8,110.3v2c-1.2,0.1-1.7,0.8-1.7,2.3c0,1,0.4,1.9,1.3,1.9c1,0,1.2-1,1.5-2.5c0.4-1.8,0.9-3.4,2.9-3.4
		s3,1.6,3,3.8c0,2.3-1.1,3.7-3.1,3.9v-1.9c1-0.1,1.5-0.9,1.5-1.9c0-1.1-0.5-1.8-1.2-1.8c-0.8,0-1,0.7-1.4,2.2
		c-0.4,2.1-0.9,3.7-3.1,3.8c-2,0-3.2-1.6-3.2-3.9C215.4,111.9,216.6,110.4,218.8,110.3z"/>
	<path class="st0" d="M225.5,123.4l-0.1,2l-10-0.7l0.1-2L225.5,123.4z"/>
	<path class="st0" d="M220,129.5c3,0.5,4.8,2.7,4.3,5.6s-3,4.4-6,3.9s-4.8-2.7-4.3-5.6C214.5,130.4,217,129,220,129.5z M218.7,136.9
		c2,0.3,3.7-0.3,4-2.1s-1.1-3-3-3.3c-2-0.3-3.6,0.3-4,2.1S216.7,136.6,218.7,136.9z"/>
	<path class="st0" d="M222,144.8l-0.6,2l-6.3,1.5c-0.6,0.1-1.5,0.3-1.5,0.3l0,0c0,0,1,0.3,1.7,0.5l5,1.6l-0.6,1.9l-9.6-3l0.6-1.9
		l6.3-1.6c0.6-0.2,1.5-0.3,1.5-0.3l0,0c0,0-1-0.3-1.7-0.5l-4.9-1.5l0.6-1.9L222,144.8z"/>
	<path class="st0" d="M216.5,160.3l-0.9,1.9l-10.6-0.9l0.9-1.9l2.2,0.3l1.5-3.3l-1.7-1.5l0.8-1.9L216.5,160.3z M210.9,157.4
		l-1.1,2.4l3,0.4c0.6,0.1,1.6,0.3,1.6,0.3l0,0c0,0-0.8-0.6-1.2-1L210.9,157.4z"/>
	<path class="st0" d="M211.9,169.6l-1,1.7l-7.2-4.3l-2.4,4l-1.5-0.9l3.4-5.8L211.9,169.6z"/>
</g>
<path id="SVGID_x5F_1_x5F__00000060734042220677527570000014683481922675197065_" class="st1" d="M15.6,116.1
	c0-55.5,45-100.6,100.6-100.6c55.5,0,100.6,45,100.6,100.6s-45,100.6-100.6,100.6C60.6,216.6,15.6,171.6,15.6,116.1z"/>
<rect x="25.8" y="98.3" class="st1" width="180.8" height="35.7"/>
<g class="st2">
	<path class="st0" d="M78.1,96.6V97c-1,0-1.9,0.3-2.6,0.8c-0.7,0.6-1.1,1.5-1.1,2.8v25.7c0,1.3,0.4,2.2,1.1,2.8
		c0.8,0.6,1.6,0.9,2.5,0.9v0.4H67.4V130c1,0,1.8-0.3,2.5-0.9c0.7-0.6,1.1-1.5,1.1-2.9v-25.7c0-1.4-0.4-2.4-1.1-2.9s-1.6-0.8-2.5-0.8
		v-0.4h10.7V96.6z"/>
	<path class="st0" d="M81.5,97v-0.4h20.3v5.1h-0.4c-0.1-1.1-0.5-2-1.2-2.8s-1.8-1.3-3.5-1.3h-8.1v15.3h7.6c1.4,0,2.4-0.3,2.9-0.9
		s0.9-1.4,1-2.4h0.4v7.7h-0.4c-0.1-1-0.4-1.8-1-2.4c-0.5-0.6-1.5-0.9-3-0.9h-7.6v12.3c0,1.1,0.3,2,1,2.7s1.4,1,2.3,1h0.5v0.4H81.5
		V130H82c0.9,0,1.7-0.3,2.3-1c0.6-0.7,0.9-1.6,0.9-2.7v-25.6c0-1.5-0.3-2.4-1-3c-0.7-0.5-1.4-0.8-2.2-0.8L81.5,97L81.5,97z"/>
	<path class="st0" d="M105.6,97v-0.4h13c1.8,0,3.5,0.2,5,0.5s2.9,0.7,4.1,1.3c1.2,0.5,2.3,1.1,3.2,1.7s1.6,1.3,2.2,1.9
		c1.1,1.1,2,2.3,2.7,3.6c0.8,1.3,1.3,2.7,1.7,4.1c0.4,1.5,0.6,3,0.6,4.5s-0.2,3-0.6,4.4s-0.9,2.7-1.6,3.9s-1.5,2.3-2.5,3.2
		c-1,1-2.1,1.8-3.3,2.6c-1.1,0.6-2.3,1.2-3.7,1.6c-1.4,0.4-3.3,0.6-5.7,0.6h-15.2V130h0.5c1.1,0,1.8-0.4,2.4-1.2
		c0.5-0.8,0.8-1.6,0.8-2.5v-25.5c0-0.9-0.1-1.6-0.4-2.2s-0.7-1-1.1-1.3c-0.5-0.3-1-0.4-1.6-0.4L105.6,97L105.6,97z M112.7,98.2V125
		c0,1.3,0.2,2.3,0.6,2.9s1.1,1,2,1.2s2.2,0.3,3.9,0.3c2.4,0,4.5-0.2,6.2-0.7s3.3-1.6,4.9-3.2c1.2-1.2,2.1-2.8,2.8-4.5
		c0.7-1.8,1.1-4,1.1-6.5c0-2-0.3-4-0.8-6c-0.6-2-1.4-3.7-2.6-5.2c-1.3-1.7-3-3.1-5-4.1s-4.5-1.5-7.4-1.5
		C116.8,97.6,114.9,97.8,112.7,98.2z"/>
	<path class="st0" d="M142.3,97v-0.4h11.1c1.9,0,3.5,0.3,4.9,0.8s2.6,1.2,3.5,2.1s1.6,1.9,2.1,2.9s0.7,2.2,0.7,3.5
		c0,1.2-0.2,2.3-0.7,3.4c-0.4,1.1-1.1,2.1-2.1,2.9c-0.9,0.8-2.2,1.5-3.7,2s-3.3,0.8-5.2,0.8c-0.6,0-1.8-0.1-3.6-0.3v11.7
		c0,2.4,1.2,3.6,3.7,3.7v0.4h-10.8V130c1.1,0,1.9-0.3,2.6-0.9c0.7-0.6,1-1.5,1-2.8v-25.6c0-0.8-0.1-1.4-0.4-2s-0.5-0.9-0.9-1.1
		c-0.3-0.2-0.7-0.4-1.1-0.5s-0.7-0.2-0.8-0.2L142.3,97L142.3,97z M149.4,97.8v15.9c1.2,0.2,2.3,0.3,3.5,0.3c2.2,0,4-0.6,5.6-1.7
		c1.5-1.1,2.3-3.2,2.3-6.3c0-2.5-0.7-4.6-2-6.2s-3.4-2.4-6.1-2.4C151.6,97.5,150.5,97.6,149.4,97.8z"/>
</g>
<path class="st0" d="M34.4,187.4c-0.1,0.1-0.3,0.2-0.4,0.3c15.5,18.5,37.1,31.8,61.7,36.6c0-0.2,0.1-0.3,0.1-0.5
	C71.3,219.1,49.8,205.8,34.4,187.4z"/>
<path class="st0" d="M197.5,187.9c-15.6,18.4-37.3,31.6-62,36.1c0,0.1,0.1,0.3,0.1,0.4l0,0c24.9-4.6,46.7-17.8,62.4-36.4
	C197.8,188,197.7,188,197.5,187.9z"/>
</svg>
