<svg viewBox="0 0 160 166" fill="none" xmlns="http://www.w3.org/2000/svg">
<g clip-path="url(#clip0_6667_25041)">
<path d="M96.1555 23.0747V23.3002C98.6136 23.991 101.028 24.8419 103.399 25.8528C110.482 28.8781 116.838 33.1979 122.292 38.6885C127.747 44.1792 132.016 50.5644 134.99 57.6768C138.066 65.0364 139.615 72.8397 139.586 80.883C139.557 88.9044 137.957 96.6859 134.837 104.009C131.827 111.078 127.521 117.427 122.052 122.874C116.584 128.321 110.22 132.597 103.137 135.586C95.8064 138.677 88.0249 140.248 80.0108 140.248H79.7853C71.7421 140.218 63.946 138.611 56.6082 135.477C49.5249 132.452 43.1688 128.132 37.7145 122.641C32.2602 117.15 27.9913 110.765 25.0169 103.653C21.9407 96.2932 20.3917 88.4899 20.4207 80.4466C20.4498 72.4252 22.0498 64.6437 25.1696 57.3204C28.1804 50.2517 32.4857 43.9029 37.9545 38.4558C43.4233 33.0088 49.7867 28.7326 56.87 25.7437C59.1535 24.7764 61.488 23.9619 63.8515 23.3002V23.082C38.7545 30.1071 20.3044 53.1024 20.2026 80.4539C20.0789 113.478 46.7541 140.349 79.778 140.473C79.858 140.473 79.9235 140.473 80.0035 140.473C112.926 140.473 139.674 113.841 139.797 80.8975C139.899 53.3933 121.413 30.158 96.1482 23.0893L96.1555 23.0747Z" fill="#FAF0B6"/>
<path d="M19.2861 80.1342C20.2606 81.0433 20.5952 81.9742 20.2679 82.156C19.9406 82.3378 19.1479 81.8651 18.3334 80.7451C17.5189 79.6252 17.3662 78.7598 17.3662 78.7598C17.3662 78.7598 18.2898 79.1961 19.2861 80.1342Z" fill="#FAF0B6"/>
<path d="M21.2061 80.2503C20.2752 81.0939 19.9697 81.9739 20.297 82.1557C20.617 82.3375 21.3879 81.9084 22.1587 80.8612C22.9296 79.814 23.0605 78.9922 23.0605 78.9922C23.0605 78.9922 22.166 79.3849 21.2061 80.2503Z" fill="#FAF0B6"/>
<path d="M19.3442 83.3123C20.3623 84.1704 20.7478 85.0795 20.4351 85.2831C20.1223 85.4867 19.3006 85.0504 18.4279 83.9741C17.5552 82.8977 17.3516 82.0469 17.3516 82.0469C17.3516 82.0469 18.297 82.4396 19.3442 83.3195V83.3123Z" fill="#FAF0B6"/>
<path d="M21.2642 83.3267C20.3769 84.2212 20.1224 85.1085 20.4569 85.2757C20.7915 85.443 21.5332 84.9703 22.2532 83.8794C22.9732 82.7886 23.0532 81.9668 23.0532 81.9668C23.0532 81.9668 22.1805 82.4104 21.2714 83.3267H21.2642Z" fill="#FAF0B6"/>
<path d="M19.5698 86.4829C20.6316 87.2902 21.0606 88.1701 20.7552 88.3883C20.4498 88.6065 19.6134 88.2137 18.6826 87.1883C17.7517 86.1629 17.5117 85.3193 17.5117 85.3193C17.5117 85.3193 18.4789 85.6611 19.5698 86.4829Z" fill="#FAF0B6"/>
<path d="M21.482 86.3955C20.6457 87.3336 20.4348 88.2354 20.7766 88.3881C21.1184 88.5408 21.8383 88.0245 22.4928 86.9045C23.1546 85.7846 23.191 84.9482 23.191 84.9482C23.191 84.9482 22.3401 85.4355 21.482 86.3955Z" fill="#FAF0B6"/>
<path d="M19.9547 89.6389C21.0601 90.388 21.5328 91.2461 21.2419 91.4788C20.951 91.7115 20.0929 91.3625 19.1111 90.388C18.1293 89.4135 17.8457 88.5771 17.8457 88.5771C17.8457 88.5771 18.8275 88.868 19.962 89.6316L19.9547 89.6389Z" fill="#FAF0B6"/>
<path d="M21.8677 89.4501C21.0823 90.4318 20.915 91.3409 21.2641 91.4791C21.6131 91.61 22.304 91.0645 22.9004 89.9082C23.4967 88.7519 23.4967 87.9229 23.4967 87.9229C23.4967 87.9229 22.6749 88.4537 21.8677 89.4573V89.4501Z" fill="#FAF0B6"/>
<path d="M20.508 92.7662C21.6498 93.4571 22.1661 94.2934 21.8898 94.5407C21.6134 94.7879 20.7334 94.4898 19.7008 93.5589C18.6681 92.6353 18.3408 91.8208 18.3408 91.8208C18.3408 91.8208 19.3371 92.0608 20.508 92.7662Z" fill="#FAF0B6"/>
<path d="M22.4056 92.4826C21.6711 93.5008 21.5547 94.4244 21.9111 94.5407C22.2674 94.6571 22.9292 94.068 23.4674 92.8826C24.0055 91.6972 23.9546 90.8682 23.9546 90.8682C23.9546 90.8682 23.1619 91.4427 22.4056 92.4899V92.4826Z" fill="#FAF0B6"/>
<path d="M21.2206 95.8642C22.3987 96.4969 22.9587 97.2969 22.6896 97.5659C22.4278 97.8278 21.5333 97.5659 20.457 96.7005C19.3807 95.8278 19.0098 95.0352 19.0098 95.0352C19.0098 95.0352 20.0134 95.217 21.2206 95.8642Z" fill="#FAF0B6"/>
<path d="M23.1039 95.4791C22.4203 96.5409 22.3548 97.4645 22.7184 97.559C23.0821 97.6535 23.7075 97.0354 24.1802 95.8209C24.6529 94.6064 24.5656 93.7773 24.5656 93.7773C24.5656 93.7773 23.802 94.3882 23.1039 95.4718V95.4791Z" fill="#FAF0B6"/>
<path d="M22.0933 98.9188C23.3005 99.486 23.9041 100.264 23.6496 100.541C23.3951 100.817 22.4933 100.606 21.3733 99.7988C20.2534 98.9843 19.8389 98.2134 19.8389 98.2134C19.8389 98.2134 20.857 98.3443 22.0933 98.9261V98.9188Z" fill="#FAF0B6"/>
<path d="M23.9547 98.4385C23.3293 99.5294 23.3147 100.46 23.6783 100.533C24.042 100.613 24.6383 99.9584 25.0528 98.7221C25.4673 97.4858 25.3292 96.6641 25.3292 96.6641C25.3292 96.6641 24.5947 97.3186 23.9547 98.4385Z" fill="#FAF0B6"/>
<path d="M23.1331 101.929C24.3694 102.431 25.0094 103.173 24.7767 103.464C24.544 103.755 23.6277 103.595 22.4641 102.838C21.3005 102.089 20.8496 101.333 20.8496 101.333C20.8496 101.333 21.8677 101.413 23.1404 101.929H23.1331Z" fill="#FAF0B6"/>
<path d="M24.9588 101.348C24.3916 102.475 24.4207 103.399 24.7916 103.457C25.1625 103.515 25.7224 102.831 26.0642 101.58C26.4133 100.322 26.2315 99.5078 26.2315 99.5078C26.2315 99.5078 25.5334 100.199 24.9516 101.348H24.9588Z" fill="#FAF0B6"/>
<path d="M24.3185 104.875C25.5766 105.311 26.2602 106.024 26.042 106.322C25.8239 106.62 24.9003 106.511 23.7003 105.82C22.5004 105.129 22.0059 104.402 22.0059 104.402C22.0059 104.402 23.0313 104.424 24.3185 104.875Z" fill="#FAF0B6"/>
<path d="M26.1218 104.198C25.6128 105.347 25.6927 106.271 26.0636 106.307C26.4345 106.344 26.9581 105.638 27.2345 104.366C27.5108 103.093 27.2927 102.293 27.2927 102.293C27.2927 102.293 26.6309 103.02 26.1145 104.198H26.1218Z" fill="#FAF0B6"/>
<path d="M25.6635 107.755C26.9435 108.126 27.6634 108.795 27.4598 109.108C27.2562 109.42 26.3326 109.355 25.0963 108.729C23.86 108.104 23.3291 107.406 23.3291 107.406C23.3291 107.406 24.3545 107.377 25.6635 107.755Z" fill="#FAF0B6"/>
<path d="M27.4241 106.984C26.9805 108.162 27.1041 109.078 27.475 109.093C27.8459 109.107 28.3331 108.373 28.544 107.093C28.7549 105.805 28.4931 105.02 28.4931 105.02C28.4931 105.02 27.875 105.776 27.4168 106.984H27.4241Z" fill="#FAF0B6"/>
<path d="M27.1551 110.562C28.4568 110.867 29.2059 111.5 29.0168 111.82C28.8277 112.14 27.9041 112.126 26.6315 111.566C25.3661 111.006 24.7988 110.329 24.7988 110.329C24.7988 110.329 25.817 110.249 27.1478 110.555L27.1551 110.562Z" fill="#FAF0B6"/>
<path d="M28.8787 109.704C28.4933 110.904 28.6678 111.813 29.046 111.813C29.4169 111.813 29.8678 111.049 30.0132 109.755C30.1587 108.46 29.8532 107.682 29.8532 107.682C29.8532 107.682 29.2714 108.475 28.8787 109.704Z" fill="#FAF0B6"/>
<path d="M28.7908 113.289C30.1071 113.522 30.8853 114.118 30.718 114.452C30.5507 114.787 29.6199 114.816 28.3254 114.322C27.0309 113.827 26.4346 113.187 26.4346 113.187C26.4346 113.187 27.4527 113.049 28.7981 113.289H28.7908Z" fill="#FAF0B6"/>
<path d="M30.4635 112.336C30.1436 113.551 30.369 114.453 30.7399 114.431C31.1108 114.409 31.518 113.631 31.598 112.329C31.678 111.027 31.3362 110.271 31.3362 110.271C31.3362 110.271 30.7981 111.093 30.4708 112.336H30.4635Z" fill="#FAF0B6"/>
<path d="M30.5731 115.922C31.8966 116.089 32.7111 116.642 32.5584 116.976C32.4057 117.318 31.4821 117.398 30.1658 116.976C28.8495 116.554 28.2168 115.943 28.2168 115.943C28.2168 115.943 29.2204 115.754 30.5803 115.922H30.5731Z" fill="#FAF0B6"/>
<path d="M32.1869 114.889C31.9324 116.118 32.2014 117.005 32.5723 116.969C32.9432 116.925 33.3068 116.125 33.3141 114.823C33.3214 113.522 32.9432 112.78 32.9432 112.78C32.9432 112.78 32.4487 113.623 32.1869 114.889Z" fill="#FAF0B6"/>
<path d="M32.4852 118.46C33.816 118.554 34.6596 119.063 34.5214 119.412C34.3833 119.761 33.4669 119.885 32.1288 119.536C30.7907 119.18 30.1289 118.605 30.1289 118.605C30.1289 118.605 31.1252 118.365 32.4852 118.46Z" fill="#FAF0B6"/>
<path d="M34.049 117.34C33.86 118.583 34.1727 119.456 34.5436 119.398C34.9145 119.34 35.2344 118.518 35.1763 117.216C35.1181 115.914 34.6963 115.194 34.6963 115.194C34.6963 115.194 34.2454 116.067 34.049 117.34Z" fill="#FAF0B6"/>
<path d="M34.5291 120.896C35.8672 120.925 36.7326 121.383 36.609 121.739C36.4854 122.096 35.5836 122.27 34.2237 121.987C32.8637 121.703 32.1729 121.165 32.1729 121.165C32.1729 121.165 33.1546 120.874 34.5218 120.896H34.5291Z" fill="#FAF0B6"/>
<path d="M36.027 119.696C35.9033 120.947 36.2597 121.798 36.6233 121.725C36.9869 121.652 37.2633 120.809 37.1396 119.514C37.016 118.22 36.5578 117.521 36.5578 117.521C36.5578 117.521 36.1579 118.416 36.027 119.696Z" fill="#FAF0B6"/>
<path d="M36.6963 123.223C38.0272 123.179 38.9217 123.601 38.8198 123.957C38.718 124.314 37.8235 124.539 36.4563 124.328C35.0891 124.117 34.3691 123.608 34.3691 123.608C34.3691 123.608 35.3364 123.266 36.7036 123.223H36.6963Z" fill="#FAF0B6"/>
<path d="M38.1287 121.943C38.0705 123.201 38.4705 124.031 38.8341 123.936C39.1905 123.841 39.4305 122.991 39.2341 121.703C39.0378 120.416 38.5505 119.747 38.5505 119.747C38.5505 119.747 38.1942 120.663 38.136 121.951L38.1287 121.943Z" fill="#FAF0B6"/>
<path d="M38.9802 125.427C40.311 125.31 41.2201 125.681 41.1401 126.052C41.0601 126.416 40.1728 126.685 38.7983 126.546C37.4166 126.408 36.6748 125.943 36.6748 125.943C36.6748 125.943 37.6202 125.55 38.9802 125.434V125.427Z" fill="#FAF0B6"/>
<path d="M40.3467 124.081C40.3467 125.339 40.7976 126.147 41.1539 126.03C41.5103 125.914 41.6993 125.056 41.4375 123.776C41.1757 122.503 40.6521 121.856 40.6521 121.856C40.6521 121.856 40.3467 122.787 40.354 124.074L40.3467 124.081Z" fill="#FAF0B6"/>
<path d="M41.3798 127.514C42.7034 127.332 43.6269 127.652 43.5688 128.023C43.5106 128.394 42.6379 128.707 41.2561 128.641C39.8744 128.576 39.1035 128.147 39.1035 128.147C39.1035 128.147 40.0271 127.703 41.3798 127.514Z" fill="#FAF0B6"/>
<path d="M42.6738 126.095C42.7465 127.354 43.2337 128.139 43.5828 128.001C43.9319 127.863 44.0773 126.997 43.7501 125.739C43.4228 124.481 42.8628 123.863 42.8628 123.863C42.8628 123.863 42.6083 124.808 42.681 126.095H42.6738Z" fill="#FAF0B6"/>
<path d="M43.8883 129.47C45.1974 129.216 46.1428 129.492 46.0991 129.863C46.0555 130.234 45.2046 130.597 43.8229 130.597C42.4339 130.597 41.6484 130.219 41.6484 130.219C41.6484 130.219 42.5502 129.732 43.8883 129.47Z" fill="#FAF0B6"/>
<path d="M45.1035 127.986C45.2416 129.237 45.7725 129.994 46.1143 129.841C46.4561 129.688 46.5507 128.816 46.158 127.572C45.7652 126.328 45.1762 125.747 45.1762 125.747C45.1762 125.747 44.9653 126.707 45.1107 127.986H45.1035Z" fill="#FAF0B6"/>
<path d="M46.4922 131.296C47.7866 130.976 48.7466 131.201 48.7248 131.572C48.703 131.943 47.8739 132.35 46.4849 132.423C45.1031 132.496 44.2959 132.154 44.2959 132.154C44.2959 132.154 45.1686 131.616 46.4922 131.288V131.296Z" fill="#FAF0B6"/>
<path d="M47.6262 129.746C47.8298 130.99 48.397 131.717 48.7316 131.55C49.0661 131.383 49.117 130.503 48.6589 129.281C48.2007 128.059 47.5825 127.506 47.5825 127.506C47.5825 127.506 47.4225 128.474 47.6334 129.746H47.6262Z" fill="#FAF0B6"/>
<path d="M49.1829 132.983C50.4628 132.597 51.4301 132.772 51.4228 133.143C51.4155 133.514 50.6083 133.964 49.2338 134.11C47.8593 134.255 47.0303 133.957 47.0303 133.957C47.0303 133.957 47.8739 133.375 49.1829 132.975V132.983Z" fill="#FAF0B6"/>
<path d="M50.2442 131.375C50.5132 132.604 51.1169 133.302 51.4368 133.121C51.7568 132.931 51.7641 132.052 51.2478 130.859C50.7241 129.666 50.0769 129.143 50.0769 129.143C50.0769 129.143 49.9678 130.117 50.2442 131.375Z" fill="#FAF0B6"/>
<path d="M51.9679 134.517C53.2261 134.066 54.2006 134.19 54.2151 134.561C54.2297 134.932 53.4442 135.426 52.077 135.644C50.7098 135.862 49.8662 135.608 49.8662 135.608C49.8662 135.608 50.6807 134.982 51.9607 134.517H51.9679Z" fill="#FAF0B6"/>
<path d="M52.9358 132.866C53.2631 134.081 53.9103 134.75 54.223 134.546C54.5357 134.342 54.4994 133.462 53.9103 132.299C53.3285 131.135 52.6522 130.648 52.6522 130.648C52.6522 130.648 52.594 131.622 52.9358 132.873V132.866Z" fill="#FAF0B6"/>
<path d="M54.8263 135.914C56.0553 135.397 57.0371 135.47 57.0735 135.841C57.1098 136.212 56.3535 136.743 54.9936 137.033C53.6336 137.324 52.79 137.113 52.79 137.113C52.79 137.113 53.5682 136.444 54.8263 135.914Z" fill="#FAF0B6"/>
<path d="M55.7066 134.212C56.0993 135.404 56.7757 136.037 57.0811 135.819C57.3865 135.601 57.2993 134.721 56.652 133.586C56.0121 132.452 55.3066 132.001 55.3066 132.001C55.3066 132.001 55.3066 132.983 55.7066 134.205V134.212Z" fill="#FAF0B6"/>
<path d="M57.7501 137.157C58.9501 136.575 59.9318 136.597 59.99 136.961C60.0482 137.331 59.3137 137.899 57.9756 138.262C56.6374 138.626 55.7793 138.459 55.7793 138.459C55.7793 138.459 56.5211 137.753 57.7501 137.157Z" fill="#FAF0B6"/>
<path d="M58.5427 135.404C59.0009 136.575 59.7063 137.172 59.9972 136.939C60.2881 136.706 60.1572 135.833 59.4518 134.735C58.7536 133.637 58.0264 133.223 58.0264 133.223C58.0264 133.223 58.07 134.204 58.5427 135.404Z" fill="#FAF0B6"/>
<path d="M60.7384 138.241C61.9092 137.594 62.891 137.564 62.9637 137.928C63.0365 138.292 62.3383 138.903 61.022 139.332C59.7057 139.761 58.833 139.644 58.833 139.644C58.833 139.644 59.5384 138.903 60.7311 138.241H60.7384Z" fill="#FAF0B6"/>
<path d="M61.4365 136.459C61.9529 137.608 62.6946 138.168 62.971 137.913C63.2473 137.659 63.0728 136.801 62.3165 135.739C61.5601 134.677 60.8184 134.306 60.8184 134.306C60.8184 134.306 60.9129 135.281 61.4438 136.459H61.4365Z" fill="#FAF0B6"/>
<path d="M63.7785 139.172C64.913 138.466 65.8948 138.386 65.982 138.742C66.0766 139.106 65.4075 139.746 64.1203 140.248C62.8258 140.75 61.9531 140.67 61.9531 140.67C61.9531 140.67 62.6149 139.892 63.7785 139.172Z" fill="#FAF0B6"/>
<path d="M64.3824 137.353C64.9569 138.473 65.7278 138.989 65.9896 138.728C66.2514 138.466 66.0332 137.608 65.2187 136.589C64.4042 135.571 63.6406 135.237 63.6406 135.237C63.6406 135.237 63.7861 136.204 64.3824 137.353Z" fill="#FAF0B6"/>
<path d="M66.8616 139.942C67.9597 139.179 68.9269 139.048 69.0433 139.404C69.1597 139.761 68.527 140.437 67.2616 141.004C65.9962 141.571 65.1162 141.542 65.1162 141.542C65.1162 141.542 65.7344 140.728 66.8616 139.95V139.942Z" fill="#FAF0B6"/>
<path d="M67.3714 138.088C68.0041 139.179 68.7968 139.651 69.044 139.375C69.2913 139.099 69.0295 138.255 68.1641 137.281C67.2987 136.306 66.5205 136.015 66.5205 136.015C66.5205 136.015 66.7169 136.975 67.3714 138.088Z" fill="#FAF0B6"/>
<path d="M69.9819 140.546C71.0364 139.724 72.0036 139.543 72.1345 139.892C72.2654 140.241 71.6691 140.953 70.4401 141.579C69.2037 142.211 68.3311 142.226 68.3311 142.226C68.3311 142.226 68.9128 141.382 69.9892 140.539L69.9819 140.546Z" fill="#FAF0B6"/>
<path d="M70.3965 138.67C71.0874 139.724 71.9019 140.161 72.1346 139.87C72.3673 139.579 72.0619 138.757 71.1455 137.826C70.2292 136.895 69.4365 136.648 69.4365 136.648C69.4365 136.648 69.6838 137.593 70.3892 138.677L70.3965 138.67Z" fill="#FAF0B6"/>
<path d="M73.1309 140.99C74.1418 140.117 75.0945 139.884 75.2472 140.226C75.3999 140.568 74.84 141.31 73.64 142C72.4401 142.699 71.5674 142.757 71.5674 142.757C71.5674 142.757 72.0983 141.884 73.1309 140.99Z" fill="#FAF0B6"/>
<path d="M73.4436 139.099C74.1854 140.117 75.029 140.502 75.2472 140.204C75.4653 139.899 75.1163 139.091 74.149 138.219C73.1818 137.346 72.3818 137.128 72.3818 137.128C72.3818 137.128 72.68 138.059 73.4436 139.099Z" fill="#FAF0B6"/>
<path d="M76.2942 141.266C77.2542 140.342 78.1996 140.059 78.3669 140.393C78.5341 140.728 78.0178 141.491 76.8542 142.255C75.6906 143.018 74.8252 143.12 74.8252 143.12C74.8252 143.12 75.3124 142.219 76.2942 141.273V141.266Z" fill="#FAF0B6"/>
<path d="M76.5122 139.36C77.3049 140.335 78.1703 140.684 78.3667 140.371C78.5703 140.059 78.1776 139.266 77.1667 138.444C76.1631 137.615 75.3486 137.448 75.3486 137.448C75.3486 137.448 75.6977 138.364 76.5122 139.36Z" fill="#FAF0B6"/>
<path d="M64.8036 21.8822C64.1709 23.0603 63.3709 23.6203 63.1018 23.3512C62.84 23.0894 63.1018 22.1949 63.9673 21.1186C64.8399 20.0423 65.6326 19.6714 65.6326 19.6714C65.6326 19.6714 65.4508 20.675 64.8036 21.8822Z" fill="#FAF0B6"/>
<path d="M65.189 23.766C64.1272 23.0824 63.2036 23.0169 63.109 23.3805C63.0145 23.7442 63.6327 24.3696 64.8472 24.8423C66.0616 25.315 66.8907 25.2277 66.8907 25.2277C66.8907 25.2277 66.2798 24.4641 65.1962 23.766H65.189Z" fill="#FAF0B6"/>
<path d="M61.7496 22.7549C61.1824 23.9621 60.4042 24.5658 60.1279 24.3112C59.8515 24.0567 60.0624 23.1549 60.8697 22.035C61.6842 20.915 62.455 20.5005 62.455 20.5005C62.455 20.5005 62.3241 21.5186 61.7423 22.7549H61.7496Z" fill="#FAF0B6"/>
<path d="M62.2299 24.6168C61.1391 23.9914 60.2082 23.9768 60.1355 24.3404C60.0555 24.7041 60.71 25.3004 61.9463 25.7149C63.1826 26.1295 64.0044 25.9913 64.0044 25.9913C64.0044 25.9913 63.3499 25.2568 62.2299 24.6168Z" fill="#FAF0B6"/>
<path d="M58.7391 23.7948C58.2373 25.0311 57.4955 25.671 57.2046 25.4383C56.9137 25.2056 57.0737 24.2893 57.83 23.1257C58.5791 21.9621 59.3354 21.5112 59.3354 21.5112C59.3354 21.5112 59.2554 22.5294 58.7391 23.802V23.7948Z" fill="#FAF0B6"/>
<path d="M59.3204 25.62C58.1932 25.0527 57.2696 25.0818 57.2114 25.4527C57.1533 25.8236 57.8369 26.3836 59.0877 26.7254C60.3458 27.0745 61.1604 26.8926 61.1604 26.8926C61.1604 26.8926 60.4695 26.1945 59.3204 25.6127V25.62Z" fill="#FAF0B6"/>
<path d="M55.7937 24.9801C55.3573 26.2382 54.6446 26.9218 54.3465 26.7037C54.0483 26.4855 54.1574 25.5619 54.8483 24.3619C55.5391 23.162 56.2664 22.6675 56.2664 22.6675C56.2664 22.6675 56.2446 23.6929 55.7937 24.9801Z" fill="#FAF0B6"/>
<path d="M56.4697 26.7839C55.3207 26.2749 54.3971 26.3549 54.3607 26.7258C54.3244 27.0966 55.0298 27.6203 56.3024 27.8966C57.5751 28.173 58.3751 27.9548 58.3751 27.9548C58.3751 27.9548 57.6478 27.293 56.4697 26.7767V26.7839Z" fill="#FAF0B6"/>
<path d="M52.9133 26.3257C52.5424 27.6056 51.8733 28.3256 51.5606 28.1219C51.2479 27.9183 51.3134 26.9947 51.9388 25.7584C52.5642 24.5221 53.2624 23.9912 53.2624 23.9912C53.2624 23.9912 53.2915 25.0166 52.9133 26.3257Z" fill="#FAF0B6"/>
<path d="M53.6847 28.0857C52.5065 27.6421 51.5902 27.7657 51.5757 28.1366C51.5538 28.5075 52.2956 28.9947 53.5756 29.2056C54.8628 29.4165 55.6482 29.1547 55.6482 29.1547C55.6482 29.1547 54.8919 28.5366 53.6847 28.0784V28.0857Z" fill="#FAF0B6"/>
<path d="M50.1064 27.8167C49.8009 29.1185 49.1682 29.8675 48.8482 29.6784C48.5282 29.4894 48.5428 28.5658 49.1028 27.2931C49.6627 26.0277 50.3391 25.4604 50.3391 25.4604C50.3391 25.4604 50.4191 26.4786 50.1136 27.8094L50.1064 27.8167Z" fill="#FAF0B6"/>
<path d="M50.9645 29.5325C49.7645 29.1471 48.8555 29.3216 48.8555 29.6998C48.8555 30.0707 49.6191 30.5216 50.9136 30.667C52.208 30.8125 52.9862 30.507 52.9862 30.507C52.9862 30.507 52.1935 29.9252 50.9645 29.5325Z" fill="#FAF0B6"/>
<path d="M47.379 29.4529C47.1462 30.7692 46.5499 31.5474 46.2154 31.3801C45.8808 31.2129 45.8518 30.282 46.3463 28.9875C46.8408 27.693 47.4808 27.0967 47.4808 27.0967C47.4808 27.0967 47.6189 28.1148 47.379 29.4602V29.4529Z" fill="#FAF0B6"/>
<path d="M48.3321 31.1256C47.1177 30.8057 46.2159 31.0311 46.2377 31.402C46.2595 31.7729 47.0377 32.1801 48.3394 32.2601C49.6412 32.3401 50.3975 31.9983 50.3975 31.9983C50.3975 31.9983 49.5757 31.4602 48.3321 31.1329V31.1256Z" fill="#FAF0B6"/>
<path d="M44.7469 31.2347C44.5796 32.5583 44.0269 33.3728 43.6924 33.22C43.3506 33.0673 43.2706 32.1437 43.6924 30.8274C44.1142 29.5111 44.7251 28.8784 44.7251 28.8784C44.7251 28.8784 44.9142 29.882 44.7469 31.2419V31.2347Z" fill="#FAF0B6"/>
<path d="M45.7792 32.849C44.5502 32.5945 43.663 32.8635 43.6993 33.2344C43.7357 33.6053 44.5429 33.9689 45.8447 33.9762C47.1464 33.9835 47.8882 33.6053 47.8882 33.6053C47.8882 33.6053 47.0446 33.1108 45.7792 32.849Z" fill="#FAF0B6"/>
<path d="M42.2082 33.1473C42.1136 34.4781 41.6046 35.3217 41.2555 35.1835C40.9064 35.0454 40.7828 34.129 41.1319 32.7909C41.4882 31.4528 42.0627 30.791 42.0627 30.791C42.0627 30.791 42.3027 31.7873 42.2082 33.1473Z" fill="#FAF0B6"/>
<path d="M43.3284 34.7107C42.0848 34.5216 41.2121 34.8343 41.2703 35.2052C41.3285 35.5761 42.1503 35.8961 43.452 35.8379C44.7538 35.7797 45.4738 35.3579 45.4738 35.3579C45.4738 35.3579 44.6011 34.907 43.3284 34.7107Z" fill="#FAF0B6"/>
<path d="M39.7722 35.1907C39.7431 36.5288 39.2849 37.3943 38.9286 37.2706C38.5723 37.1543 38.3977 36.2452 38.6813 34.8853C38.965 33.5254 39.5031 32.8345 39.5031 32.8345C39.5031 32.8345 39.794 33.8162 39.7722 35.1835V35.1907Z" fill="#FAF0B6"/>
<path d="M40.9728 36.6886C39.7219 36.5649 38.8711 36.9213 38.9438 37.2849C39.0165 37.6485 39.8601 37.9249 41.1546 37.8013C42.4491 37.6776 43.1472 37.2195 43.1472 37.2195C43.1472 37.2195 42.2527 36.8195 40.9728 36.6886Z" fill="#FAF0B6"/>
<path d="M37.4456 37.3579C37.4893 38.6888 37.0675 39.5833 36.7111 39.4815C36.3548 39.3797 36.1293 38.4852 36.3402 37.1179C36.5511 35.7507 37.0602 35.0308 37.0602 35.0308C37.0602 35.0308 37.402 35.998 37.4456 37.3652V37.3579Z" fill="#FAF0B6"/>
<path d="M38.7255 38.7903C37.4674 38.7322 36.6384 39.1321 36.7329 39.4958C36.8275 39.8594 37.6783 40.0921 38.9655 39.8957C40.2528 39.6994 40.9218 39.2121 40.9218 39.2121C40.9218 39.2121 40.0055 38.8558 38.7183 38.7976L38.7255 38.7903Z" fill="#FAF0B6"/>
<path d="M35.2418 39.6413C35.3581 40.9721 34.9872 41.8812 34.6163 41.8012C34.2527 41.7212 33.9836 40.834 34.1218 39.4595C34.26 38.0777 34.7254 37.3359 34.7254 37.3359C34.7254 37.3359 35.1181 38.2813 35.2345 39.6413H35.2418Z" fill="#FAF0B6"/>
<path d="M36.5871 41.0088C35.3289 41.0088 34.5217 41.4597 34.6381 41.816C34.7544 42.1724 35.6126 42.3615 36.8925 42.0996C38.1725 41.8378 38.8124 41.3142 38.8124 41.3142C38.8124 41.3142 37.8816 41.0088 36.5943 41.0161L36.5871 41.0088Z" fill="#FAF0B6"/>
<path d="M33.1545 42.0414C33.3363 43.365 33.0163 44.2886 32.6454 44.2304C32.2745 44.1722 31.9618 43.2995 32.0273 41.9178C32.0927 40.536 32.5218 39.7651 32.5218 39.7651C32.5218 39.7651 32.9654 40.6887 33.1545 42.0414Z" fill="#FAF0B6"/>
<path d="M34.5724 43.3359C33.3143 43.4086 32.5289 43.8958 32.6671 44.2449C32.8052 44.594 33.6707 44.7394 34.9288 44.4122C36.1869 44.0849 36.8051 43.525 36.8051 43.525C36.8051 43.525 35.8596 43.2704 34.5724 43.3431V43.3359Z" fill="#FAF0B6"/>
<path d="M31.1985 44.5504C31.453 45.8595 31.1767 46.8049 30.8058 46.7613C30.4349 46.7176 30.0713 45.8667 30.0713 44.485C30.0713 43.1032 30.4495 42.3105 30.4495 42.3105C30.4495 42.3105 30.9367 43.2123 31.1985 44.5504Z" fill="#FAF0B6"/>
<path d="M32.6816 45.7646C31.4307 45.9028 30.6744 46.4337 30.8271 46.7755C30.9798 47.1173 31.8525 47.2118 33.0961 46.8191C34.3397 46.4264 34.9215 45.8373 34.9215 45.8373C34.9215 45.8373 33.9615 45.6264 32.6816 45.7719V45.7646Z" fill="#FAF0B6"/>
<path d="M29.3727 47.1538C29.6927 48.4483 29.4673 49.4082 29.0964 49.3864C28.7255 49.3646 28.3182 48.5355 28.2455 47.1465C28.1728 45.7648 28.5146 44.9575 28.5146 44.9575C28.5146 44.9575 29.0527 45.8302 29.38 47.1538H29.3727Z" fill="#FAF0B6"/>
<path d="M30.9221 48.2883C29.6785 48.4919 28.9512 49.0592 29.1185 49.3937C29.2858 49.7282 30.1657 49.7791 31.3875 49.321C32.6093 48.8628 33.162 48.2446 33.162 48.2446C33.162 48.2446 32.1947 48.0847 30.9221 48.2956V48.2883Z" fill="#FAF0B6"/>
<path d="M27.6926 49.8445C28.078 51.1245 27.9035 52.0917 27.5326 52.0844C27.1617 52.0844 26.7108 51.2699 26.5654 49.8954C26.4199 48.5209 26.7181 47.6919 26.7181 47.6919C26.7181 47.6919 27.2999 48.5355 27.6999 49.8445H27.6926Z" fill="#FAF0B6"/>
<path d="M29.2925 50.9063C28.0635 51.1754 27.3653 51.779 27.5471 52.0989C27.7289 52.4189 28.6162 52.4262 29.8088 51.9099C31.0015 51.3862 31.5251 50.739 31.5251 50.739C31.5251 50.739 30.5506 50.6299 29.2925 50.9063Z" fill="#FAF0B6"/>
<path d="M26.1511 52.63C26.602 53.8882 26.4784 54.8627 26.1075 54.8772C25.7366 54.8918 25.2421 54.1063 25.0239 52.7391C24.8057 51.3719 25.0603 50.5283 25.0603 50.5283C25.0603 50.5283 25.6857 51.3428 26.1511 52.6228V52.63Z" fill="#FAF0B6"/>
<path d="M27.802 53.5969C26.5875 53.9242 25.9185 54.5715 26.1221 54.8842C26.3257 55.1969 27.2057 55.1605 28.3693 54.5715C29.5329 53.9897 30.0201 53.3133 30.0201 53.3133C30.0201 53.3133 29.0456 53.2551 27.7948 53.5969H27.802Z" fill="#FAF0B6"/>
<path d="M24.7553 55.4806C25.2716 56.7096 25.1989 57.6914 24.828 57.7278C24.4571 57.7641 23.9262 57.0078 23.6353 55.6479C23.3444 54.2952 23.5553 53.4443 23.5553 53.4443C23.5553 53.4443 24.2244 54.2225 24.7553 55.4806Z" fill="#FAF0B6"/>
<path d="M26.4564 56.3678C25.2638 56.7605 24.6311 57.4368 24.8492 57.7422C25.0674 58.0477 25.9474 57.9604 27.0819 57.3132C28.2164 56.6732 28.6672 55.9678 28.6672 55.9678C28.6672 55.9678 27.6855 55.9678 26.4637 56.3678H26.4564Z" fill="#FAF0B6"/>
<path d="M23.5111 58.4112C24.0929 59.6112 24.071 60.593 23.7074 60.6511C23.3438 60.7093 22.7693 59.9748 22.4057 58.6367C22.042 57.2986 22.2093 56.4404 22.2093 56.4404C22.2093 56.4404 22.9147 57.1822 23.5111 58.4112Z" fill="#FAF0B6"/>
<path d="M25.2639 59.2043C24.093 59.6625 23.4967 60.3679 23.7294 60.6588C23.9621 60.9497 24.8348 60.8188 25.9329 60.1134C27.0311 59.4152 27.4456 58.688 27.4456 58.688C27.4456 58.688 26.4638 58.7316 25.2639 59.2043Z" fill="#FAF0B6"/>
<path d="M22.4277 61.4005C23.075 62.5713 23.1041 63.5531 22.7404 63.6258C22.3768 63.6986 21.7659 63.0004 21.3369 61.6841C20.9078 60.3678 21.0242 59.4951 21.0242 59.4951C21.0242 59.4951 21.7659 60.2005 22.4277 61.3932V61.4005Z" fill="#FAF0B6"/>
<path d="M24.2094 62.0986C23.0603 62.615 22.5003 63.3567 22.7549 63.6331C23.0021 63.9094 23.8676 63.7349 24.9293 62.9786C25.9911 62.2223 26.362 61.4805 26.362 61.4805C26.362 61.4805 25.3875 61.575 24.2094 62.1059V62.0986Z" fill="#FAF0B6"/>
<path d="M21.4969 64.4401C22.2024 65.5746 22.2823 66.5564 21.926 66.6437C21.5624 66.7382 20.9224 66.0691 20.4206 64.7819C19.9188 63.4874 19.9988 62.6147 19.9988 62.6147C19.9988 62.6147 20.777 63.2765 21.4969 64.4401Z" fill="#FAF0B6"/>
<path d="M23.3144 65.044C22.1945 65.6186 21.6782 66.3894 21.94 66.6512C22.2018 66.913 23.0599 66.6949 24.0781 65.8804C25.0962 65.0658 25.4307 64.3022 25.4307 64.3022C25.4307 64.3022 24.4635 64.4477 23.3144 65.044Z" fill="#FAF0B6"/>
<path d="M20.7262 67.5237C21.4898 68.6218 21.6207 69.5891 21.2643 69.7054C20.908 69.8218 20.2316 69.1891 19.6644 67.9237C19.0971 66.6583 19.1262 65.7783 19.1262 65.7783C19.1262 65.7783 19.9407 66.3965 20.7189 67.5237H20.7262Z" fill="#FAF0B6"/>
<path d="M22.5803 68.033C21.4895 68.6657 21.0168 69.4584 21.2931 69.7057C21.5695 69.9529 22.4131 69.6911 23.3876 68.8257C24.3621 67.9603 24.653 67.1821 24.653 67.1821C24.653 67.1821 23.693 67.3785 22.5803 68.033Z" fill="#FAF0B6"/>
<path d="M20.1223 70.6435C20.9441 71.698 21.1259 72.6652 20.7768 72.7961C20.4277 72.927 19.7151 72.3307 19.0896 71.1017C18.4569 69.8654 18.4424 68.9927 18.4424 68.9927C18.4424 68.9927 19.286 69.5745 20.1296 70.6508L20.1223 70.6435Z" fill="#FAF0B6"/>
<path d="M21.999 71.0581C20.9445 71.749 20.5082 72.5635 20.7991 72.7962C21.09 73.0289 21.9118 72.7235 22.8426 71.8072C23.7735 70.8908 24.0208 70.0981 24.0208 70.0981C24.0208 70.0981 23.0754 70.3454 21.9918 71.0508L21.999 71.0581Z" fill="#FAF0B6"/>
<path d="M19.6783 73.7926C20.551 74.8034 20.7837 75.7561 20.4419 75.9088C20.1001 76.0616 19.3583 75.5016 18.6675 74.3016C17.9693 73.1017 17.9111 72.229 17.9111 72.229C17.9111 72.229 18.7838 72.7599 19.6783 73.7926Z" fill="#FAF0B6"/>
<path d="M21.5697 74.1052C20.5516 74.847 20.1661 75.6906 20.4643 75.9088C20.7697 76.1269 21.577 75.7779 22.4497 74.8106C23.3296 73.8507 23.5405 73.0435 23.5405 73.0435C23.5405 73.0435 22.6096 73.3416 21.5697 74.1052Z" fill="#FAF0B6"/>
<path d="M19.4023 76.9558C20.3259 77.9158 20.6095 78.8612 20.275 79.0285C19.9405 79.1957 19.1769 78.6794 18.4133 77.5158C17.6569 76.3522 17.5479 75.4868 17.5479 75.4868C17.5479 75.4868 18.4496 75.9741 19.395 76.9558H19.4023Z" fill="#FAF0B6"/>
<path d="M21.3077 77.1743C20.3332 77.967 19.9841 78.8324 20.2969 79.0288C20.6096 79.2324 21.4023 78.8397 22.224 77.8288C23.0531 76.8253 23.2204 76.0107 23.2204 76.0107C23.2204 76.0107 22.304 76.3598 21.3077 77.1743Z" fill="#FAF0B6"/>
<path d="M140.641 80.1342C139.666 81.0433 139.332 81.9742 139.659 82.156C139.986 82.3378 140.779 81.8651 141.593 80.7451C142.408 79.6252 142.561 78.7598 142.561 78.7598C142.561 78.7598 141.637 79.1961 140.641 80.1342Z" fill="#FAF0B6"/>
<path d="M138.727 80.2503C139.658 81.0939 139.964 81.9739 139.637 82.1557C139.317 82.3375 138.546 81.9084 137.775 80.8612C137.004 79.814 136.873 78.9922 136.873 78.9922C136.873 78.9922 137.768 79.3849 138.727 80.2503Z" fill="#FAF0B6"/>
<path d="M140.589 83.3123C139.571 84.1704 139.186 85.0795 139.498 85.2831C139.811 85.4867 140.633 85.0504 141.506 83.9741C142.378 82.8977 142.582 82.0469 142.582 82.0469C142.582 82.0469 141.636 82.4396 140.589 83.3195V83.3123Z" fill="#FAF0B6"/>
<path d="M138.67 83.3267C139.557 84.2212 139.812 85.1085 139.477 85.2757C139.143 85.443 138.401 84.9703 137.681 83.8794C136.961 82.7958 136.881 81.9668 136.881 81.9668C136.881 81.9668 137.754 82.4104 138.663 83.3267H138.67Z" fill="#FAF0B6"/>
<path d="M140.365 86.4829C139.303 87.2902 138.874 88.1701 139.179 88.3883C139.485 88.6065 140.321 88.2137 141.252 87.1883C142.183 86.1629 142.423 85.3193 142.423 85.3193C142.423 85.3193 141.455 85.6611 140.365 86.4829Z" fill="#FAF0B6"/>
<path d="M138.451 86.3955C139.288 87.3336 139.498 88.2354 139.157 88.3881C138.815 88.5408 138.095 88.0245 137.44 86.9045C136.779 85.7846 136.742 84.9482 136.742 84.9482C136.742 84.9482 137.593 85.4355 138.451 86.3955Z" fill="#FAF0B6"/>
<path d="M139.979 89.6389C138.873 90.388 138.401 91.2461 138.691 91.4788C138.982 91.7115 139.84 91.3625 140.822 90.388C141.804 89.4135 142.088 88.5771 142.088 88.5771C142.088 88.5771 141.106 88.868 139.971 89.6316L139.979 89.6389Z" fill="#FAF0B6"/>
<path d="M138.067 89.4501C138.852 90.4318 139.019 91.3409 138.67 91.4791C138.321 91.6172 137.63 91.0645 137.034 89.9082C136.437 88.7519 136.438 87.9229 136.438 87.9229C136.438 87.9229 137.259 88.4537 138.067 89.4573V89.4501Z" fill="#FAF0B6"/>
<path d="M139.426 92.7662C138.284 93.4571 137.768 94.2934 138.044 94.5407C138.32 94.7879 139.2 94.4898 140.233 93.5589C141.266 92.6353 141.593 91.8208 141.593 91.8208C141.593 91.8208 140.596 92.0608 139.426 92.7662Z" fill="#FAF0B6"/>
<path d="M137.528 92.4826C138.262 93.5008 138.379 94.4244 138.022 94.5407C137.666 94.6571 137.004 94.068 136.466 92.8826C135.928 91.6972 135.979 90.8682 135.979 90.8682C135.979 90.8682 136.772 91.4427 137.528 92.4899V92.4826Z" fill="#FAF0B6"/>
<path d="M138.713 95.8642C137.535 96.4969 136.975 97.2969 137.244 97.5659C137.513 97.835 138.4 97.5659 139.477 96.7005C140.553 95.8278 140.924 95.0352 140.924 95.0352C140.924 95.0352 139.92 95.217 138.713 95.8642Z" fill="#FAF0B6"/>
<path d="M136.829 95.4791C137.513 96.5409 137.578 97.4645 137.215 97.559C136.851 97.6535 136.226 97.0354 135.753 95.8209C135.28 94.6064 135.368 93.7773 135.368 93.7773C135.368 93.7773 136.131 94.3882 136.829 95.4718V95.4791Z" fill="#FAF0B6"/>
<path d="M137.834 98.9188C136.626 99.486 136.023 100.264 136.277 100.541C136.532 100.817 137.434 100.606 138.553 99.7988C139.673 98.9843 140.088 98.2134 140.088 98.2134C140.088 98.2134 139.07 98.3443 137.834 98.9261V98.9188Z" fill="#FAF0B6"/>
<path d="M135.979 98.4385C136.604 99.5294 136.619 100.46 136.255 100.533C135.891 100.613 135.295 99.9584 134.88 98.7221C134.466 97.4858 134.604 96.6641 134.604 96.6641C134.604 96.6641 135.339 97.3186 135.979 98.4385Z" fill="#FAF0B6"/>
<path d="M136.801 101.929C135.565 102.431 134.925 103.173 135.158 103.464C135.39 103.755 136.307 103.595 137.47 102.838C138.634 102.089 139.085 101.333 139.085 101.333C139.085 101.333 138.067 101.413 136.794 101.929H136.801Z" fill="#FAF0B6"/>
<path d="M134.968 101.348C135.536 102.475 135.507 103.399 135.136 103.457C134.765 103.515 134.205 102.831 133.863 101.58C133.514 100.322 133.696 99.5078 133.696 99.5078C133.696 99.5078 134.394 100.199 134.976 101.348H134.968Z" fill="#FAF0B6"/>
<path d="M135.608 104.875C134.35 105.311 133.667 106.024 133.885 106.322C134.103 106.62 135.027 106.511 136.227 105.82C137.427 105.129 137.921 104.402 137.921 104.402C137.921 104.402 136.896 104.424 135.608 104.875Z" fill="#FAF0B6"/>
<path d="M133.811 104.198C134.32 105.347 134.24 106.271 133.869 106.307C133.499 106.344 132.975 105.638 132.699 104.366C132.422 103.093 132.64 102.293 132.64 102.293C132.64 102.293 133.302 103.02 133.818 104.198H133.811Z" fill="#FAF0B6"/>
<path d="M134.27 107.755C132.99 108.126 132.27 108.795 132.474 109.108C132.677 109.42 133.601 109.355 134.837 108.729C136.073 108.104 136.604 107.406 136.604 107.406C136.604 107.406 135.579 107.377 134.27 107.755Z" fill="#FAF0B6"/>
<path d="M132.51 106.984C132.953 108.162 132.83 109.078 132.459 109.093C132.088 109.114 131.601 108.373 131.39 107.093C131.179 105.805 131.441 105.02 131.441 105.02C131.441 105.02 132.059 105.776 132.517 106.984H132.51Z" fill="#FAF0B6"/>
<path d="M132.779 110.562C131.478 110.867 130.729 111.5 130.918 111.82C131.107 112.14 132.03 112.126 133.303 111.566C134.568 111.006 135.136 110.329 135.136 110.329C135.136 110.329 134.118 110.249 132.787 110.555L132.779 110.562Z" fill="#FAF0B6"/>
<path d="M131.056 109.704C131.441 110.904 131.266 111.813 130.888 111.813C130.517 111.813 130.067 111.049 129.921 109.755C129.776 108.46 130.081 107.682 130.081 107.682C130.081 107.682 130.663 108.475 131.056 109.704Z" fill="#FAF0B6"/>
<path d="M131.135 113.289C129.819 113.522 129.041 114.118 129.208 114.452C129.375 114.787 130.306 114.816 131.601 114.322C132.895 113.827 133.491 113.187 133.491 113.187C133.491 113.187 132.473 113.049 131.128 113.289H131.135Z" fill="#FAF0B6"/>
<path d="M129.47 112.336C129.79 113.551 129.564 114.453 129.194 114.431C128.823 114.409 128.415 113.631 128.335 112.329C128.255 111.027 128.597 110.271 128.597 110.271C128.597 110.271 129.135 111.093 129.463 112.336H129.47Z" fill="#FAF0B6"/>
<path d="M129.361 115.922C128.038 116.089 127.223 116.642 127.376 116.976C127.528 117.318 128.452 117.398 129.768 116.976C131.085 116.554 131.717 115.943 131.717 115.943C131.717 115.943 130.714 115.754 129.354 115.922H129.361Z" fill="#FAF0B6"/>
<path d="M127.746 114.889C128.001 116.118 127.732 117.005 127.361 116.969C126.99 116.925 126.627 116.125 126.619 114.823C126.612 113.522 126.99 112.78 126.99 112.78C126.99 112.78 127.485 113.623 127.746 114.889Z" fill="#FAF0B6"/>
<path d="M127.448 118.46C126.118 118.554 125.274 119.063 125.412 119.412C125.55 119.761 126.467 119.885 127.805 119.536C129.143 119.18 129.805 118.605 129.805 118.605C129.805 118.605 128.808 118.365 127.448 118.46Z" fill="#FAF0B6"/>
<path d="M125.885 117.34C126.074 118.583 125.761 119.456 125.391 119.398C125.02 119.34 124.7 118.518 124.758 117.216C124.816 115.914 125.238 115.194 125.238 115.194C125.238 115.194 125.689 116.067 125.885 117.34Z" fill="#FAF0B6"/>
<path d="M125.405 120.896C124.067 120.925 123.202 121.383 123.325 121.739C123.442 122.096 124.351 122.27 125.711 121.987C127.07 121.703 127.761 121.165 127.761 121.165C127.761 121.165 126.78 120.874 125.412 120.896H125.405Z" fill="#FAF0B6"/>
<path d="M123.906 119.696C124.03 120.947 123.674 121.798 123.31 121.725C122.946 121.652 122.67 120.809 122.794 119.514C122.917 118.22 123.375 117.521 123.375 117.521C123.375 117.521 123.775 118.416 123.906 119.696Z" fill="#FAF0B6"/>
<path d="M123.238 123.223C121.907 123.179 121.013 123.601 121.114 123.957C121.216 124.314 122.111 124.539 123.478 124.328C124.845 124.117 125.565 123.608 125.565 123.608C125.565 123.608 124.598 123.266 123.231 123.223H123.238Z" fill="#FAF0B6"/>
<path d="M121.798 121.943C121.856 123.201 121.456 124.031 121.093 123.936C120.736 123.841 120.496 122.991 120.693 121.703C120.889 120.416 121.376 119.747 121.376 119.747C121.376 119.747 121.732 120.663 121.791 121.951L121.798 121.943Z" fill="#FAF0B6"/>
<path d="M120.954 125.427C119.623 125.31 118.714 125.681 118.794 126.052C118.874 126.416 119.761 126.685 121.136 126.546C122.517 126.408 123.259 125.943 123.259 125.943C123.259 125.943 122.314 125.55 120.954 125.434V125.427Z" fill="#FAF0B6"/>
<path d="M119.579 124.081C119.579 125.339 119.128 126.147 118.772 126.03C118.416 125.914 118.227 125.056 118.488 123.776C118.75 122.503 119.274 121.856 119.274 121.856C119.274 121.856 119.579 122.787 119.572 124.074L119.579 124.081Z" fill="#FAF0B6"/>
<path d="M118.554 127.514C117.23 127.332 116.307 127.652 116.365 128.023C116.423 128.394 117.296 128.707 118.678 128.641C120.059 128.576 120.83 128.147 120.83 128.147C120.83 128.147 119.907 127.703 118.554 127.514Z" fill="#FAF0B6"/>
<path d="M117.259 126.095C117.187 127.354 116.7 128.139 116.35 128.001C116.001 127.863 115.856 126.997 116.183 125.739C116.51 124.481 117.07 123.863 117.07 123.863C117.07 123.863 117.325 124.808 117.252 126.095H117.259Z" fill="#FAF0B6"/>
<path d="M116.045 129.47C114.736 129.216 113.791 129.492 113.834 129.863C113.878 130.234 114.729 130.597 116.111 130.597C117.5 130.597 118.285 130.219 118.285 130.219C118.285 130.219 117.383 129.732 116.045 129.47Z" fill="#FAF0B6"/>
<path d="M114.831 127.986C114.693 129.237 114.162 129.994 113.82 129.841C113.478 129.688 113.384 128.816 113.777 127.572C114.169 126.328 114.758 125.747 114.758 125.747C114.758 125.747 114.969 126.707 114.824 127.986H114.831Z" fill="#FAF0B6"/>
<path d="M113.442 131.296C112.147 130.976 111.188 131.201 111.209 131.572C111.231 131.943 112.06 132.35 113.449 132.423C114.831 132.496 115.638 132.154 115.638 132.154C115.638 132.154 114.766 131.616 113.442 131.288V131.296Z" fill="#FAF0B6"/>
<path d="M112.3 129.746C112.096 130.99 111.529 131.717 111.195 131.55C110.86 131.383 110.809 130.503 111.267 129.281C111.725 128.059 112.344 127.506 112.344 127.506C112.344 127.506 112.504 128.474 112.293 129.746H112.3Z" fill="#FAF0B6"/>
<path d="M110.751 132.983C109.471 132.597 108.504 132.772 108.511 133.143C108.518 133.514 109.325 133.964 110.7 134.11C112.074 134.255 112.903 133.957 112.903 133.957C112.903 133.957 112.06 133.375 110.751 132.975V132.983Z" fill="#FAF0B6"/>
<path d="M109.689 131.375C109.42 132.604 108.816 133.302 108.496 133.121C108.176 132.931 108.169 132.052 108.685 130.859C109.209 129.666 109.856 129.143 109.856 129.143C109.856 129.143 109.965 130.117 109.689 131.375Z" fill="#FAF0B6"/>
<path d="M107.965 134.517C106.707 134.066 105.733 134.19 105.718 134.561C105.703 134.932 106.489 135.426 107.856 135.644C109.223 135.862 110.067 135.608 110.067 135.608C110.067 135.608 109.252 134.982 107.972 134.517H107.965Z" fill="#FAF0B6"/>
<path d="M106.998 132.866C106.671 134.081 106.024 134.75 105.711 134.546C105.399 134.342 105.435 133.462 106.024 132.299C106.606 131.135 107.282 130.648 107.282 130.648C107.282 130.648 107.34 131.622 106.998 132.873V132.866Z" fill="#FAF0B6"/>
<path d="M105.108 135.914C103.879 135.397 102.897 135.47 102.861 135.841C102.824 136.212 103.581 136.743 104.941 137.033C106.3 137.324 107.144 137.113 107.144 137.113C107.144 137.113 106.366 136.444 105.108 135.914Z" fill="#FAF0B6"/>
<path d="M104.227 134.212C103.834 135.404 103.158 136.037 102.853 135.819C102.555 135.601 102.635 134.721 103.282 133.586C103.922 132.452 104.627 132.001 104.627 132.001C104.627 132.001 104.627 132.983 104.227 134.205V134.212Z" fill="#FAF0B6"/>
<path d="M102.185 137.157C100.985 136.575 100.003 136.597 99.9446 136.961C99.8864 137.331 100.621 137.899 101.959 138.262C103.297 138.626 104.155 138.459 104.155 138.459C104.155 138.459 103.414 137.753 102.185 137.157Z" fill="#FAF0B6"/>
<path d="M101.391 135.404C100.933 136.575 100.228 137.172 99.9367 136.939C99.6458 136.706 99.7767 135.833 100.482 134.735C101.18 133.637 101.908 133.223 101.908 133.223C101.908 133.223 101.864 134.204 101.391 135.404Z" fill="#FAF0B6"/>
<path d="M99.1954 138.241C98.0245 137.594 97.0427 137.564 96.97 137.928C96.8973 138.292 97.5954 138.903 98.9117 139.332C100.228 139.761 101.101 139.644 101.101 139.644C101.101 139.644 100.395 138.903 99.2026 138.241H99.1954Z" fill="#FAF0B6"/>
<path d="M98.4968 136.459C97.9805 137.608 97.2387 138.168 96.9624 137.913C96.686 137.659 96.8605 136.801 97.6169 135.739C98.3732 134.677 99.115 134.306 99.115 134.306C99.115 134.306 99.0204 135.281 98.4896 136.459H98.4968Z" fill="#FAF0B6"/>
<path d="M96.1557 139.172C95.0212 138.466 94.0394 138.386 93.9522 138.742C93.8576 139.106 94.5267 139.746 95.8139 140.248C97.1084 140.75 97.9811 140.67 97.9811 140.67C97.9811 140.67 97.3193 139.892 96.1557 139.172Z" fill="#FAF0B6"/>
<path d="M95.5519 137.353C94.9774 138.473 94.2065 138.989 93.9447 138.728C93.6829 138.466 93.9011 137.608 94.7156 136.589C95.5301 135.571 96.2937 135.237 96.2937 135.237C96.2937 135.237 96.1482 136.204 95.5519 137.353Z" fill="#FAF0B6"/>
<path d="M93.0713 139.942C91.9732 139.179 91.0059 139.048 90.8896 139.404C90.7732 139.761 91.4059 140.437 92.6713 141.004C93.9367 141.571 94.8167 141.542 94.8167 141.542C94.8167 141.542 94.1985 140.728 93.0713 139.95V139.942Z" fill="#FAF0B6"/>
<path d="M92.5632 138.088C91.9305 139.179 91.1378 139.651 90.8905 139.375C90.6433 139.099 90.9051 138.255 91.7705 137.281C92.6359 136.306 93.414 136.015 93.414 136.015C93.414 136.015 93.2177 136.975 92.5632 138.088Z" fill="#FAF0B6"/>
<path d="M89.9516 140.546C88.8971 139.724 87.9299 139.543 87.799 139.892C87.6681 140.241 88.2644 140.953 89.4935 141.579C90.7225 142.204 91.6025 142.226 91.6025 142.226C91.6025 142.226 91.0207 141.382 89.9443 140.539L89.9516 140.546Z" fill="#FAF0B6"/>
<path d="M89.5375 138.67C88.8466 139.724 88.0321 140.161 87.7994 139.87C87.5666 139.579 87.8721 138.757 88.7884 137.826C89.7047 136.895 90.4974 136.648 90.4974 136.648C90.4974 136.648 90.2502 137.593 89.5447 138.677L89.5375 138.67Z" fill="#FAF0B6"/>
<path d="M86.803 140.99C85.7922 140.117 84.8395 139.884 84.6867 140.226C84.534 140.568 85.094 141.31 86.2939 142C87.4939 142.699 88.3666 142.757 88.3666 142.757C88.3666 142.757 87.8357 141.884 86.803 140.99Z" fill="#FAF0B6"/>
<path d="M86.4902 139.099C85.7484 140.117 84.9048 140.502 84.6866 140.204C84.4684 139.899 84.8175 139.091 85.7847 138.219C86.7447 137.339 87.5519 137.128 87.5519 137.128C87.5519 137.128 87.2538 138.059 86.4902 139.099Z" fill="#FAF0B6"/>
<path d="M83.6395 141.266C82.6796 140.342 81.7342 140.059 81.5669 140.393C81.3996 140.728 81.916 141.491 83.0795 142.255C84.2431 143.011 85.1085 143.12 85.1085 143.12C85.1085 143.12 84.6213 142.219 83.6395 141.273V141.266Z" fill="#FAF0B6"/>
<path d="M83.4211 139.36C82.6285 140.335 81.763 140.684 81.5667 140.371C81.3631 140.059 81.7558 139.266 82.7666 138.444C83.7702 137.615 84.5847 137.448 84.5847 137.448C84.5847 137.448 84.2357 138.364 83.4211 139.36Z" fill="#FAF0B6"/>
<path d="M95.1298 21.8822C95.7625 23.0603 96.5625 23.6203 96.8316 23.3512C97.0934 23.0894 96.8316 22.1949 95.9662 21.1186C95.0935 20.0423 94.3008 19.6714 94.3008 19.6714C94.3008 19.6714 94.4826 20.675 95.1298 21.8822Z" fill="#FAF0B6"/>
<path d="M94.7447 23.766C95.8065 23.0824 96.7301 23.0169 96.8246 23.3805C96.9192 23.7442 96.301 24.3696 95.0865 24.8423C93.872 25.315 93.043 25.2277 93.043 25.2277C93.043 25.2277 93.6539 24.4641 94.7374 23.766H94.7447Z" fill="#FAF0B6"/>
<path d="M98.1839 22.7549C98.7512 23.9621 99.5293 24.5658 99.8057 24.3112C100.082 24.0567 99.8711 23.1549 99.0639 22.035C98.2494 20.915 97.4785 20.5005 97.4785 20.5005C97.4785 20.5005 97.6094 21.5186 98.1912 22.7549H98.1839Z" fill="#FAF0B6"/>
<path d="M97.7042 24.6168C98.795 23.9914 99.7259 23.9768 99.7986 24.3404C99.8713 24.7041 99.2241 25.3004 97.9878 25.7149C96.7515 26.1295 95.9297 25.9913 95.9297 25.9913C95.9297 25.9913 96.5842 25.2568 97.7042 24.6168Z" fill="#FAF0B6"/>
<path d="M101.188 23.7948C101.69 25.0311 102.432 25.671 102.723 25.4383C103.013 25.2056 102.854 24.2893 102.097 23.1257C101.348 21.9621 100.592 21.5112 100.592 21.5112C100.592 21.5112 100.672 22.5294 101.188 23.802V23.7948Z" fill="#FAF0B6"/>
<path d="M100.613 25.62C101.741 25.0527 102.664 25.0818 102.722 25.4527C102.781 25.8236 102.097 26.3836 100.846 26.7254C99.5879 27.0745 98.7734 26.8926 98.7734 26.8926C98.7734 26.8926 99.4643 26.1945 100.613 25.6127V25.62Z" fill="#FAF0B6"/>
<path d="M104.141 24.9801C104.577 26.2382 105.29 26.9218 105.588 26.7037C105.886 26.4855 105.777 25.5619 105.086 24.3619C104.395 23.162 103.668 22.6675 103.668 22.6675C103.668 22.6675 103.69 23.6929 104.141 24.9801Z" fill="#FAF0B6"/>
<path d="M103.464 26.7839C104.613 26.2749 105.537 26.3549 105.573 26.7258C105.609 27.0966 104.904 27.6203 103.631 27.8966C102.359 28.173 101.559 27.9548 101.559 27.9548C101.559 27.9548 102.286 27.293 103.464 26.7767V26.7839Z" fill="#FAF0B6"/>
<path d="M107.02 26.3257C107.391 27.6056 108.06 28.3256 108.373 28.1219C108.686 27.9183 108.62 26.9947 107.995 25.7584C107.37 24.5221 106.671 23.9912 106.671 23.9912C106.671 23.9912 106.642 25.0166 107.02 26.3257Z" fill="#FAF0B6"/>
<path d="M106.25 28.0857C107.428 27.6421 108.344 27.7657 108.359 28.1366C108.38 28.5075 107.639 28.9947 106.359 29.2056C105.072 29.4165 104.286 29.1547 104.286 29.1547C104.286 29.1547 105.042 28.5366 106.25 28.0784V28.0857Z" fill="#FAF0B6"/>
<path d="M109.827 27.8167C110.133 29.1185 110.765 29.8675 111.085 29.6784C111.405 29.4894 111.391 28.5658 110.831 27.2931C110.271 26.0277 109.594 25.4604 109.594 25.4604C109.594 25.4604 109.514 26.4786 109.82 27.8094L109.827 27.8167Z" fill="#FAF0B6"/>
<path d="M108.969 29.5325C110.169 29.1471 111.078 29.3216 111.078 29.6998C111.078 30.0707 110.314 30.5216 109.02 30.667C107.725 30.8125 106.947 30.507 106.947 30.507C106.947 30.507 107.74 29.9252 108.969 29.5325Z" fill="#FAF0B6"/>
<path d="M112.548 29.4529C112.78 30.7692 113.377 31.5474 113.711 31.3801C114.046 31.2056 114.075 30.282 113.58 28.9875C113.086 27.693 112.446 27.0967 112.446 27.0967C112.446 27.0967 112.308 28.1148 112.548 29.4602V29.4529Z" fill="#FAF0B6"/>
<path d="M111.602 31.1256C112.816 30.8057 113.718 31.0311 113.696 31.402C113.674 31.7729 112.896 32.1801 111.594 32.2601C110.292 32.3401 109.536 31.9983 109.536 31.9983C109.536 31.9983 110.358 31.4602 111.602 31.1329V31.1256Z" fill="#FAF0B6"/>
<path d="M115.187 31.2347C115.355 32.5583 115.907 33.3728 116.242 33.22C116.576 33.0673 116.664 32.1437 116.242 30.8274C115.82 29.5111 115.209 28.8784 115.209 28.8784C115.209 28.8784 115.02 29.882 115.187 31.2419V31.2347Z" fill="#FAF0B6"/>
<path d="M114.155 32.849C115.384 32.5945 116.271 32.8635 116.235 33.2344C116.198 33.6053 115.391 33.9689 114.089 33.9762C112.788 33.9835 112.046 33.6053 112.046 33.6053C112.046 33.6053 112.889 33.1108 114.155 32.849Z" fill="#FAF0B6"/>
<path d="M117.725 33.1473C117.82 34.4781 118.329 35.3217 118.678 35.1835C119.027 35.0454 119.151 34.129 118.801 32.7909C118.445 31.4528 117.871 30.791 117.871 30.791C117.871 30.791 117.631 31.7873 117.725 33.1473Z" fill="#FAF0B6"/>
<path d="M116.605 34.7107C117.849 34.5216 118.722 34.8343 118.663 35.2052C118.605 35.5761 117.783 35.8961 116.482 35.8379C115.18 35.7797 114.46 35.3579 114.46 35.3579C114.46 35.3579 115.333 34.907 116.605 34.7107Z" fill="#FAF0B6"/>
<path d="M120.161 35.1907C120.19 36.5288 120.649 37.3943 121.005 37.2706C121.361 37.147 121.536 36.2452 121.252 34.8853C120.969 33.5254 120.43 32.8345 120.43 32.8345C120.43 32.8345 120.14 33.8162 120.161 35.1835V35.1907Z" fill="#FAF0B6"/>
<path d="M118.962 36.6886C120.212 36.5649 121.063 36.9213 120.991 37.2849C120.918 37.6485 120.074 37.9249 118.78 37.8013C117.485 37.6776 116.787 37.2195 116.787 37.2195C116.787 37.2195 117.682 36.8195 118.962 36.6886Z" fill="#FAF0B6"/>
<path d="M122.488 37.3579C122.445 38.6888 122.867 39.5833 123.223 39.4815C123.579 39.3797 123.805 38.4852 123.594 37.1179C123.383 35.7507 122.874 35.0308 122.874 35.0308C122.874 35.0308 122.532 35.998 122.488 37.3652V37.3579Z" fill="#FAF0B6"/>
<path d="M121.209 38.7903C122.467 38.7322 123.296 39.1321 123.202 39.4958C123.107 39.8521 122.256 40.0921 120.969 39.8957C119.682 39.6994 119.013 39.2121 119.013 39.2121C119.013 39.2121 119.929 38.8558 121.216 38.7976L121.209 38.7903Z" fill="#FAF0B6"/>
<path d="M124.692 39.6413C124.575 40.9721 124.946 41.8812 125.317 41.8012C125.681 41.7212 125.95 40.834 125.812 39.4595C125.673 38.0777 125.208 37.3359 125.208 37.3359C125.208 37.3359 124.815 38.2813 124.699 39.6413H124.692Z" fill="#FAF0B6"/>
<path d="M123.346 41.0088C124.605 41.0088 125.412 41.4597 125.295 41.816C125.179 42.1724 124.321 42.3615 123.041 42.0996C121.761 41.8378 121.121 41.3142 121.121 41.3142C121.121 41.3142 122.052 41.0088 123.339 41.0161L123.346 41.0088Z" fill="#FAF0B6"/>
<path d="M126.779 42.0414C126.597 43.365 126.917 44.2886 127.288 44.2304C127.659 44.1722 127.972 43.2995 127.906 41.9178C127.841 40.536 127.412 39.7651 127.412 39.7651C127.412 39.7651 126.968 40.6887 126.779 42.0414Z" fill="#FAF0B6"/>
<path d="M125.362 43.3359C126.62 43.4086 127.405 43.8958 127.267 44.2449C127.129 44.594 126.263 44.7394 125.005 44.4122C123.747 44.0849 123.129 43.525 123.129 43.525C123.129 43.525 124.074 43.2704 125.362 43.3431V43.3359Z" fill="#FAF0B6"/>
<path d="M128.735 44.5504C128.481 45.8595 128.757 46.8049 129.128 46.7613C129.499 46.7176 129.863 45.8667 129.863 44.485C129.863 43.1032 129.484 42.3105 129.484 42.3105C129.484 42.3105 128.997 43.2123 128.735 44.5504Z" fill="#FAF0B6"/>
<path d="M127.252 45.7646C128.502 45.9028 129.259 46.4337 129.106 46.7755C128.953 47.1173 128.081 47.2118 126.837 46.8191C125.594 46.4264 125.012 45.8373 125.012 45.8373C125.012 45.8373 125.972 45.6264 127.252 45.7719V45.7646Z" fill="#FAF0B6"/>
<path d="M130.561 47.1538C130.241 48.4483 130.467 49.4082 130.838 49.3864C131.208 49.3646 131.616 48.5355 131.688 47.1465C131.761 45.7648 131.419 44.9575 131.419 44.9575C131.419 44.9575 130.881 45.8302 130.554 47.1538H130.561Z" fill="#FAF0B6"/>
<path d="M129.012 48.2883C130.256 48.4919 130.983 49.0592 130.816 49.3937C130.649 49.7282 129.769 49.7791 128.547 49.321C127.325 48.8628 126.772 48.2446 126.772 48.2446C126.772 48.2446 127.74 48.0847 129.012 48.2956V48.2883Z" fill="#FAF0B6"/>
<path d="M132.24 49.8445C131.855 51.1245 132.03 52.0917 132.4 52.0844C132.771 52.0844 133.222 51.2699 133.368 49.8954C133.513 48.5209 133.215 47.6919 133.215 47.6919C133.215 47.6919 132.633 48.5355 132.233 49.8445H132.24Z" fill="#FAF0B6"/>
<path d="M130.641 50.9063C131.87 51.1754 132.568 51.779 132.386 52.0989C132.204 52.4189 131.317 52.4262 130.124 51.9099C128.932 51.3862 128.408 50.739 128.408 50.739C128.408 50.739 129.383 50.6299 130.641 50.9063Z" fill="#FAF0B6"/>
<path d="M133.783 52.63C133.332 53.8882 133.455 54.8627 133.826 54.8772C134.197 54.8918 134.692 54.1063 134.91 52.7391C135.128 51.3719 134.874 50.5283 134.874 50.5283C134.874 50.5283 134.248 51.3428 133.783 52.6228V52.63Z" fill="#FAF0B6"/>
<path d="M132.132 53.5969C133.347 53.9242 134.016 54.5715 133.812 54.8842C133.608 55.1969 132.728 55.1605 131.565 54.5715C130.401 53.9897 129.914 53.3133 129.914 53.3133C129.914 53.3133 130.889 53.2551 132.139 53.5969H132.132Z" fill="#FAF0B6"/>
<path d="M135.179 55.4806C134.662 56.7096 134.735 57.6914 135.106 57.7278C135.477 57.7641 136.008 57.0078 136.299 55.6479C136.589 54.2952 136.379 53.4443 136.379 53.4443C136.379 53.4443 135.71 54.2225 135.179 55.4806Z" fill="#FAF0B6"/>
<path d="M133.477 56.3678C134.67 56.7605 135.303 57.4368 135.085 57.7422C134.866 58.0404 133.986 57.9604 132.852 57.3132C131.717 56.6659 131.267 55.9678 131.267 55.9678C131.267 55.9678 132.248 55.9678 133.47 56.3678H133.477Z" fill="#FAF0B6"/>
<path d="M136.423 58.4112C135.841 59.6112 135.863 60.593 136.226 60.6511C136.597 60.7093 137.164 59.9748 137.528 58.6367C137.892 57.2986 137.724 56.4404 137.724 56.4404C137.724 56.4404 137.019 57.1822 136.423 58.4112Z" fill="#FAF0B6"/>
<path d="M134.67 59.2043C135.841 59.6625 136.437 60.3679 136.204 60.6588C135.972 60.9497 135.099 60.8188 134.001 60.1134C132.903 59.4152 132.488 58.688 132.488 58.688C132.488 58.688 133.47 58.7316 134.67 59.2043Z" fill="#FAF0B6"/>
<path d="M137.506 61.4005C136.859 62.5713 136.83 63.5531 137.194 63.6258C137.557 63.6986 138.168 63.0004 138.597 61.6841C139.026 60.3678 138.91 59.4951 138.91 59.4951C138.91 59.4951 138.168 60.2005 137.506 61.3932V61.4005Z" fill="#FAF0B6"/>
<path d="M135.717 62.0986C136.866 62.615 137.426 63.3567 137.172 63.6331C136.924 63.9094 136.059 63.7349 134.997 62.9786C133.935 62.2223 133.564 61.4805 133.564 61.4805C133.564 61.4805 134.539 61.575 135.717 62.1059V62.0986Z" fill="#FAF0B6"/>
<path d="M138.437 64.4401C137.731 65.5746 137.651 66.5564 138.008 66.6437C138.364 66.7309 139.011 66.0691 139.513 64.7819C140.015 63.4874 139.935 62.6147 139.935 62.6147C139.935 62.6147 139.157 63.2765 138.437 64.4401Z" fill="#FAF0B6"/>
<path d="M136.619 65.044C137.739 65.6186 138.255 66.3894 137.994 66.6512C137.732 66.913 136.874 66.6949 135.856 65.8804C134.837 65.0658 134.503 64.3022 134.503 64.3022C134.503 64.3022 135.47 64.4477 136.619 65.044Z" fill="#FAF0B6"/>
<path d="M139.208 67.5237C138.444 68.6218 138.313 69.5891 138.669 69.7054C139.026 69.8218 139.702 69.1891 140.269 67.9237C140.837 66.6583 140.807 65.7783 140.807 65.7783C140.807 65.7783 139.993 66.3965 139.215 67.5237H139.208Z" fill="#FAF0B6"/>
<path d="M137.353 68.033C138.444 68.6657 138.916 69.4584 138.64 69.7057C138.364 69.9529 137.52 69.6911 136.546 68.8257C135.571 67.9603 135.28 67.1821 135.28 67.1821C135.28 67.1821 136.24 67.3785 137.353 68.033Z" fill="#FAF0B6"/>
<path d="M139.811 70.6435C138.989 71.698 138.808 72.6652 139.157 72.7961C139.506 72.927 140.219 72.3307 140.844 71.1017C141.477 69.8654 141.491 68.9927 141.491 68.9927C141.491 68.9927 140.648 69.5745 139.804 70.6508L139.811 70.6435Z" fill="#FAF0B6"/>
<path d="M137.935 71.0581C138.989 71.749 139.426 72.5635 139.135 72.7962C138.844 73.0289 138.022 72.7235 137.091 71.8072C136.16 70.8908 135.913 70.0981 135.913 70.0981C135.913 70.0981 136.858 70.3454 137.942 71.0508L137.935 71.0581Z" fill="#FAF0B6"/>
<path d="M140.255 73.7926C139.383 74.8034 139.15 75.7561 139.492 75.9088C139.833 76.0616 140.575 75.5016 141.266 74.3016C141.964 73.1017 142.022 72.229 142.022 72.229C142.022 72.229 141.15 72.7599 140.255 73.7926Z" fill="#FAF0B6"/>
<path d="M138.364 74.1052C139.383 74.847 139.768 75.6906 139.47 75.9088C139.172 76.1269 138.357 75.7779 137.484 74.8106C136.604 73.8507 136.394 73.0435 136.394 73.0435C136.394 73.0435 137.324 73.3416 138.364 74.1052Z" fill="#FAF0B6"/>
<path d="M140.531 76.9558C139.608 77.9158 139.324 78.8612 139.659 79.0285C139.993 79.1957 140.757 78.6794 141.521 77.5158C142.284 76.3522 142.386 75.4868 142.386 75.4868C142.386 75.4868 141.484 75.9741 140.539 76.9558H140.531Z" fill="#FAF0B6"/>
<path d="M138.627 77.1743C139.601 77.967 139.95 78.8324 139.637 79.0288C139.325 79.2324 138.532 78.8397 137.71 77.8288C136.881 76.8253 136.714 76.0107 136.714 76.0107C136.714 76.0107 137.63 76.3598 138.627 77.1743Z" fill="#FAF0B6"/>
<path d="M86.6797 164.021L85.2979 162.64C85.8797 161.694 86.1706 160.603 86.1706 159.367C86.1706 155.876 83.4071 153.113 79.9164 153.113C76.4256 153.113 73.6621 155.949 73.6621 159.367C73.6621 162.785 76.4256 165.621 79.9164 165.621C81.2981 165.621 82.5344 165.185 83.5526 164.385L84.8616 165.621L86.6797 164.021ZM79.9891 163.149C77.8801 163.149 76.1347 161.476 76.1347 159.294C76.1347 157.113 77.8074 155.44 79.9891 155.44C82.1708 155.44 83.8435 157.113 83.8435 159.294C83.8435 159.803 83.7707 160.24 83.5526 160.749L83.4798 160.676H79.9164L81.8799 162.64C81.2254 162.931 80.7163 163.149 79.9891 163.149Z" fill="#FAF0B6"/>
<path d="M45.4964 152.822L44.1729 152.175L47.3727 145.637L48.7036 146.284L45.5037 152.822H45.4964Z" fill="#FAF0B6"/>
<path d="M40.711 150.386L39.4383 149.6L39.4965 144.873C39.5038 144.415 39.591 143.739 39.591 143.739H39.5765C39.5765 143.739 39.2201 144.393 38.9511 144.822L36.9584 148.08L35.7148 147.317L39.5183 141.113L40.7328 141.855L40.7473 146.582C40.7473 147.033 40.6601 147.709 40.6601 147.709L40.6746 147.724C40.6746 147.724 41.0382 147.055 41.3073 146.618L43.2709 143.419L44.5144 144.182L40.711 150.386Z" fill="#FAF0B6"/>
<path d="M32.7182 145.237L28.1221 141.608L28.8929 140.634L30.6092 141.994L34.3545 137.252L35.5108 138.168L31.7728 142.91L33.4891 144.263L32.7182 145.237Z" fill="#FAF0B6"/>
<path d="M25.4319 139.186L21.6357 135.412L22.5084 134.532L25.2574 137.266L26.4064 136.11L23.992 133.717L24.8429 132.859L27.2573 135.252L28.6391 133.855L25.8683 131.099L26.7337 130.227L30.5517 134.023L25.4247 139.186H25.4319Z" fill="#FAF0B6"/>
<path d="M19.0686 132.554L16.9887 129.943C16.116 128.845 16.1669 127.601 17.1124 126.845C17.7814 126.314 18.5377 126.219 19.3232 126.794L19.345 126.772C19.0759 126.125 19.1632 125.616 19.8031 124.99C20.5449 124.27 21.1849 123.812 21.1122 123.543L21.1704 123.5L22.0503 124.605C22.1012 124.801 21.4758 125.325 20.9013 125.856C20.3195 126.401 20.2468 127.027 20.814 127.747L21.5558 128.677L23.8466 126.859L24.7629 128.016L19.0614 132.554H19.0686ZM20.6686 129.397L19.6941 128.168C19.1923 127.536 18.6177 127.485 18.1669 127.848C17.7087 128.219 17.5996 128.787 18.0869 129.397L19.0905 130.656L20.6758 129.397H20.6686Z" fill="#FAF0B6"/>
<path d="M13.3155 124.947L12.5301 123.674L14.7263 119.485C14.9445 119.078 15.3299 118.518 15.3299 118.518V118.503C15.3299 118.503 14.6972 118.932 14.2609 119.201L11.0029 121.201L10.2393 119.958L16.4426 116.147L17.1917 117.361L15.0609 121.587C14.85 121.987 14.4718 122.554 14.4718 122.554L14.4863 122.569C14.4863 122.569 15.119 122.132 15.5481 121.87L18.748 119.907L19.5116 121.15L13.3082 124.961L13.3155 124.947Z" fill="#FAF0B6"/>
<path d="M7.52723 114.562L6.89453 113.173L12.4506 107.813L13.0906 109.209L11.8834 110.3L12.9743 112.693L14.5815 112.482L15.2069 113.842L7.5345 114.562H7.52723ZM11.8034 112.845L11.0034 111.093L9.36715 112.555C9.06898 112.824 8.47264 113.289 8.47264 113.289V113.311C8.47264 113.311 9.2217 113.173 9.62895 113.122L11.8107 112.845H11.8034Z" fill="#FAF0B6"/>
<path d="M5.05466 108.831L3.2002 103.275L4.37832 102.882L5.0692 104.962L10.7999 103.05L11.2653 104.453L5.53463 106.366L6.23278 108.446L5.05466 108.838V108.831Z" fill="#FAF0B6"/>
<path d="M2.3418 99.8933L2 98.4607L9.08331 96.7808L9.42512 98.2134L2.3418 99.8933Z" fill="#FAF0B6"/>
<path d="M4.82873 94.4464C2.66883 94.7373 0.879816 93.6028 0.596192 91.4719C0.305297 89.3411 1.73069 87.7848 3.89059 87.4939C6.05049 87.203 7.82495 88.3303 8.11585 90.4611C8.40675 92.5919 6.98863 94.1555 4.82873 94.4464ZM4.09422 88.9848C2.65428 89.1811 1.61433 89.9738 1.79614 91.2974C1.97795 92.621 3.18517 93.1446 4.63237 92.9482C6.06503 92.7519 7.09044 91.9301 6.91591 90.6065C6.74137 89.2829 5.52688 88.7884 4.09422 88.9848Z" fill="#FAF0B6"/>
<path d="M0.0364656 84.2503V82.7522L4.07265 80.3014C4.46536 80.0614 5.09078 79.7851 5.09078 79.7851V79.7633C5.09078 79.7633 4.33445 79.8069 3.83266 79.8142L0.0146484 79.836V78.3815L7.27977 78.3379V79.7633L3.28723 82.2723C2.90179 82.5122 2.28364 82.7959 2.28364 82.7959V82.8177C2.28364 82.8177 3.04724 82.774 3.55631 82.7668L7.30886 82.745V84.1994L0.043738 84.2431L0.0364656 84.2503Z" fill="#FAF0B6"/>
<path d="M0.436523 72.3601L0.611061 70.8402L8.13072 69.1094L7.95618 70.6366L6.36353 70.9493L6.06536 73.5601L7.54893 74.2073L7.38166 75.6909L0.436523 72.3529V72.3601ZM4.98177 73.0874L5.19994 71.1747L3.04004 71.5893C2.64006 71.6693 1.891 71.7565 1.891 71.7565V71.7783C1.891 71.7783 2.59643 72.0402 2.96732 72.2074L4.9745 73.0874H4.98177Z" fill="#FAF0B6"/>
<path d="M1.54199 64.8766L1.87652 63.4366L7.76716 64.7966L8.53804 61.4658L9.73798 61.7422L8.63258 66.5129L1.54199 64.8766Z" fill="#FAF0B6"/>
<path d="M5.04688 52.5936L7.02497 47.772L8.18128 48.2447L6.76316 51.6991L8.3849 52.3681L9.59212 49.4374L10.7557 49.9173L9.54849 52.8408L12.3338 53.9899L11.7738 55.3571L5.04688 52.5936Z" fill="#FAF0B6"/>
<path d="M8.63965 44.427L11.2213 39.7363L12.3122 40.3327L10.4432 43.7289L11.8686 44.5143L13.5122 41.5399L14.5739 42.1217L12.9304 45.0961L14.6466 46.0415L16.5375 42.6162L17.6138 43.2125L15.0103 47.925L8.63965 44.4125V44.427Z" fill="#FAF0B6"/>
<path d="M17.1487 39.7215L17.985 38.5434C18.7559 38.9652 19.3304 38.7616 19.934 37.918C20.3704 37.3071 20.5376 36.609 19.9922 36.2235C19.4104 35.809 18.8941 36.289 18.0432 37.0453C17.0469 37.9325 16.0724 38.7034 14.8361 37.8235C13.6652 36.9871 13.7379 35.6054 14.6833 34.2891C15.636 32.9509 16.9014 32.5582 18.1595 33.3146L17.3378 34.4636C16.6905 34.1073 16.0651 34.3545 15.6288 34.9727C15.1706 35.6199 15.1415 36.2381 15.5633 36.5362C16.0433 36.878 16.4796 36.5653 17.2941 35.8235C18.4286 34.7909 19.4249 34.0054 20.7049 34.9145C21.9048 35.7726 21.8903 37.2198 20.9376 38.5507C19.7886 40.1579 18.4286 40.5651 17.1487 39.7143V39.7215Z" fill="#FAF0B6"/>
<path d="M18.4287 29.5549L22.334 25.1987L23.2576 26.0278L21.7958 27.6568L26.2902 31.6784L25.3084 32.7766L20.8141 28.7549L19.3523 30.3839L18.4287 29.5549Z" fill="#FAF0B6"/>
<path d="M24.8422 22.7623L25.9185 21.7515L30.8856 27.0676L29.8093 28.0785L24.835 22.7623H24.8422Z" fill="#FAF0B6"/>
<path d="M28.3911 19.5117L29.6128 18.559L33.2127 21.0971C33.6199 21.388 34.1726 21.8171 34.1726 21.8171L34.1872 21.8025C34.1872 21.8025 33.8963 21.148 33.7217 20.6898L32.1363 16.5882L33.3145 15.6719L35.8525 22.9152L34.7908 23.7442L28.3838 19.5117H28.3911Z" fill="#FAF0B6"/>
<path d="M37.2207 13.0973L38.5225 12.2974L44.5367 17.1335L43.2277 17.9407L41.9987 16.879L39.766 18.2607L40.1733 19.8316L38.9006 20.617L37.228 13.0901L37.2207 13.0973ZM39.4606 17.1262L41.0969 16.1154L39.4388 14.6754C39.1333 14.4136 38.5952 13.8755 38.5952 13.8755H38.5806C38.5806 13.8755 38.8134 14.6027 38.9079 15.0027L39.4606 17.1262Z" fill="#FAF0B6"/>
<path d="M43.7729 9.33729L45.111 8.70459L47.6927 14.1734L50.7835 12.7117L51.3071 13.8244L46.8782 15.9188L43.7656 9.33729H43.7729Z" fill="#FAF0B6"/>
<path d="M57.5396 3.91941L59.0086 3.50488L63.4447 9.81732L61.9612 10.2318L61.0739 8.87191L58.5431 9.58461L58.4995 11.2064L57.0596 11.6136L57.5323 3.91941H57.5396ZM58.5795 8.40648L60.434 7.88287L59.2413 6.03568C59.0158 5.69387 58.6522 5.03936 58.6522 5.03936H58.6304C58.6304 5.03936 58.6522 5.80296 58.6377 6.20294L58.5795 8.39921V8.40648Z" fill="#FAF0B6"/>
<path d="M64.9424 2.09432L66.4259 1.86887L69.4295 5.51961C69.7203 5.87596 70.084 6.45048 70.084 6.45048H70.1058C70.1058 6.45048 69.9531 5.7087 69.8731 5.2069L69.2985 1.43253L70.7385 1.21436L71.8293 8.41403L70.4185 8.62493L67.3568 5.01782C67.0659 4.66874 66.695 4.1015 66.695 4.1015H66.6732C66.6732 4.1015 66.8259 4.85783 66.9059 5.35962L67.4732 9.07582L66.0332 9.29399L64.9424 2.09432Z" fill="#FAF0B6"/>
<path d="M74.6875 0.894263L77.5237 0.777904C79.4655 0.70518 80.7745 2.21784 80.8618 4.3632C80.9054 5.54132 80.5491 6.59582 79.8145 7.26488C79.2909 7.73032 78.6001 8.01394 77.6837 8.0503L74.9711 8.15939L74.6875 0.88699V0.894263ZM77.5383 6.79218C78.92 6.734 79.4291 5.87585 79.3709 4.42865C79.3127 2.98144 78.6437 1.99967 77.3928 2.05057L76.2147 2.09421L76.3965 6.83581L77.5383 6.79218Z" fill="#FAF0B6"/>
<path d="M88.7156 1.17773L90.1774 1.38136L89.3556 7.37382L92.7445 7.83925L92.5773 9.06101L87.7266 8.39195L88.7229 1.17773H88.7156Z" fill="#FAF0B6"/>
<path d="M96.9992 2.55957L98.4392 2.88683L96.8247 9.98469L95.3848 9.65743L96.9992 2.55957Z" fill="#FAF0B6"/>
<path d="M101.683 3.67236L103.159 4.15234L103.079 8.55941C103.064 9.06121 103.021 9.75936 103.021 9.75936H103.043C103.043 9.75936 103.421 9.16302 103.697 8.75577L106.206 5.14139L107.631 5.60682L103.05 11.7738L101.77 11.3593L101.683 3.67964V3.67236Z" fill="#FAF0B6"/>
<path d="M110.853 6.89404L115.718 9.12667L115.202 10.2539L111.675 8.63942L110.998 10.123L114.089 11.5411L113.587 12.6392L110.497 11.2211L109.675 13.0101L113.231 14.6391L112.715 15.7591L107.82 13.5192L110.853 6.90132V6.89404Z" fill="#FAF0B6"/>
<path d="M122.744 13.1045L127.165 16.1225L126.467 17.1479L123.26 14.9662L122.344 16.3116L125.151 18.2243L124.467 19.2279L121.66 17.3152L120.555 18.937L123.784 21.1405L123.085 22.1586L118.635 19.126L122.736 13.1118L122.744 13.1045Z" fill="#FAF0B6"/>
<path d="M129.776 18.0937L130.947 19.1046L129.165 23.1335C128.962 23.5916 128.649 24.2171 128.649 24.2171L128.664 24.2316C128.664 24.2316 129.245 23.8171 129.66 23.5553L133.376 21.1917L134.511 22.1662L127.9 26.0788L126.882 25.1988L129.776 18.0864V18.0937Z" fill="#FAF0B6"/>
<path d="M136.975 24.6094L140.604 28.551L139.688 29.3946L137.063 26.5438L135.863 27.6492L138.168 30.1509L137.274 30.9727L134.968 28.471L133.521 29.8019L136.168 32.6817L135.259 33.5181L131.608 29.5546L136.961 24.6239L136.975 24.6094Z" fill="#FAF0B6"/>
<path d="M143.056 31.5254L143.936 32.7399L142.059 37.0815C141.877 37.5033 141.528 38.0924 141.528 38.0924L141.543 38.1069C141.543 38.1069 142.132 37.6342 142.539 37.336L145.637 35.1034L146.488 36.2815L140.583 40.5432L139.747 39.3869L141.557 35.0161C141.732 34.6016 142.074 34.0053 142.074 34.0053L142.059 33.9907C142.059 33.9907 141.463 34.4707 141.048 34.7689L138.001 36.9651L137.15 35.787L143.056 31.5254Z" fill="#FAF0B6"/>
<path d="M148.444 39.3652L151.288 44.485L150.204 45.0886L149.142 43.176L143.863 46.1067L143.143 44.8195L148.422 41.8888L147.361 39.9761L148.444 39.3725V39.3652Z" fill="#FAF0B6"/>
<path d="M148.03 49.2703L148.583 50.6085C147.812 51.0375 147.681 51.6266 148.081 52.5938C148.372 53.292 148.866 53.801 149.485 53.5465C150.146 53.2702 150.008 52.5793 149.826 51.4593C149.601 50.143 149.463 48.9067 150.866 48.3322C152.197 47.7868 153.332 48.5795 153.943 50.0776C154.568 51.5902 154.226 52.8774 152.917 53.5392L152.379 52.2302C153.026 51.8739 153.15 51.2048 152.859 50.5139C152.554 49.7794 152.044 49.4303 151.564 49.6267C151.019 49.8521 151.055 50.3903 151.252 51.4739C151.521 52.9793 151.659 54.2447 150.212 54.8483C148.845 55.4155 147.63 54.6228 147.005 53.1102C146.248 51.2848 146.634 49.9176 148.03 49.2776V49.2703Z" fill="#FAF0B6"/>
<path d="M157.36 60.5351L158.058 63.655C158.24 64.4767 158.145 65.1458 157.811 65.6621C157.491 66.1494 156.989 66.513 156.335 66.6585C154.996 66.9566 153.891 66.2803 153.557 64.7895L153.164 63.0368L150.589 63.6113L150.255 62.1205L157.36 60.5278V60.5351ZM154.335 62.775L154.669 64.2658C154.836 65.0222 155.346 65.3276 155.993 65.1822C156.662 65.0294 156.945 64.5276 156.785 63.815L156.451 62.3023L154.342 62.775H154.335Z" fill="#FAF0B6"/>
<path d="M159.178 69.7563L159.513 73.0798C159.658 74.4761 158.938 75.4943 157.731 75.6179C156.88 75.7052 156.189 75.3779 155.84 74.4689H155.811C155.687 75.1597 155.338 75.5452 154.466 75.727C153.455 75.9306 152.669 75.9742 152.582 76.2361H152.509L152.364 74.8325C152.429 74.6434 153.237 74.5416 154.008 74.3961C154.793 74.258 155.193 73.7634 155.098 72.8544L154.975 71.669L152.066 71.9672L151.913 70.4981L159.156 69.7636L159.178 69.7563ZM156.124 71.5526L156.284 73.1162C156.364 73.9162 156.822 74.2725 157.396 74.2143C157.986 74.1562 158.378 73.7343 158.306 72.9562L158.146 71.3563L156.131 71.5599L156.124 71.5526Z" fill="#FAF0B6"/>
<path d="M156.277 78.8614C158.459 78.9123 160.044 80.3086 160 82.4612C159.957 84.6066 158.306 85.9302 156.124 85.8793C153.942 85.8283 152.364 84.4393 152.415 82.294C152.466 80.1486 154.102 78.8178 156.284 78.8614H156.277ZM156.153 84.3739C157.608 84.403 158.757 83.7775 158.786 82.4467C158.815 81.1158 157.702 80.4031 156.241 80.374C154.793 80.345 153.652 80.9995 153.622 82.3376C153.593 83.6684 154.706 84.3448 156.153 84.3811V84.3739Z" fill="#FAF0B6"/>
<path d="M159.411 89.6611L158.669 94.8245L157.426 94.6427L157.957 90.9483L156.226 90.701L155.775 93.8355L154.524 93.6536L154.975 90.5192L151.993 90.0902L152.204 88.6284L159.411 89.6611Z" fill="#FAF0B6"/>
<path d="M157.927 98.4678L156.567 103.646L155.368 103.333L156.349 99.5805L154.771 99.1659L153.906 102.453L152.735 102.148L153.6 98.8605L151.702 98.3587L150.713 102.14L149.521 101.828L150.888 96.6206L157.927 98.4678Z" fill="#FAF0B6"/>
<path d="M150.837 105.101L150.306 106.446C149.456 106.22 148.947 106.562 148.568 107.529C148.292 108.228 148.299 108.948 148.925 109.188C149.586 109.449 149.972 108.853 150.619 107.915C151.368 106.81 152.125 105.82 153.543 106.38C154.881 106.904 155.143 108.264 154.554 109.777C153.957 111.304 152.823 111.995 151.412 111.566L151.928 110.249C152.641 110.438 153.186 110.046 153.463 109.34C153.754 108.599 153.63 107.995 153.143 107.806C152.59 107.588 152.248 108.002 151.63 108.919C150.779 110.191 150.001 111.202 148.539 110.635C147.165 110.097 146.83 108.686 147.427 107.159C148.147 105.319 149.368 104.591 150.823 105.108L150.837 105.101Z" fill="#FAF0B6"/>
<path d="M147.441 113.318L146.757 114.591C145.935 114.264 145.397 114.54 144.903 115.456C144.546 116.118 144.466 116.831 145.063 117.144C145.688 117.478 146.146 116.94 146.895 116.082C147.775 115.071 148.641 114.184 149.979 114.904C151.244 115.58 151.346 116.962 150.582 118.395C149.804 119.842 148.597 120.394 147.252 119.798L147.921 118.547C148.604 118.824 149.201 118.489 149.557 117.827C149.935 117.129 149.884 116.511 149.426 116.264C148.903 115.987 148.51 116.351 147.797 117.195C146.801 118.358 145.914 119.267 144.532 118.525C143.23 117.827 143.063 116.387 143.841 114.94C144.772 113.202 146.074 112.628 147.455 113.304L147.441 113.318Z" fill="#FAF0B6"/>
<path d="M147.099 124.038L146.284 125.267L140.212 121.252L141.026 120.023L147.099 124.038Z" fill="#FAF0B6"/>
<path d="M141.441 125.943C143.136 127.318 143.536 129.398 142.183 131.063C140.83 132.736 138.721 132.765 137.027 131.397C135.332 130.023 134.932 127.958 136.285 126.285C137.638 124.612 139.747 124.569 141.441 125.943ZM137.972 130.227C139.107 131.143 140.394 131.347 141.23 130.314C142.074 129.281 141.623 128.038 140.489 127.121C139.361 126.212 138.06 126.03 137.216 127.063C136.372 128.103 136.845 129.318 137.965 130.227H137.972Z" fill="#FAF0B6"/>
<path d="M137.288 136.43L136.204 137.463L131.645 136.204C131.201 136.081 130.576 135.819 130.576 135.819L130.561 135.834C130.561 135.834 131.114 136.35 131.463 136.721L134.103 139.477L133.048 140.481L128.016 135.223L129.048 134.241L133.623 135.426C134.059 135.543 134.692 135.797 134.692 135.797L134.706 135.783C134.706 135.783 134.146 135.259 133.797 134.895L131.201 132.183L132.255 131.179L137.288 136.437V136.43Z" fill="#FAF0B6"/>
<path d="M128.351 144.291L127.129 145.208L120.715 140.902L121.951 139.986L123.267 140.932L125.376 139.361L124.831 137.833L126.031 136.939L128.351 144.291ZM125.769 140.473L124.227 141.622L126.002 142.917C126.329 143.157 126.911 143.637 126.911 143.637L126.925 143.622C126.925 143.622 126.635 142.924 126.504 142.539L125.769 140.466V140.473Z" fill="#FAF0B6"/>
<path d="M122.14 148.611L120.867 149.353L117.82 144.131L114.867 145.855L114.249 144.793L118.482 142.328L122.147 148.618L122.14 148.611Z" fill="#FAF0B6"/>
<path d="M57.3502 66.4038V66.6874C56.6156 66.6874 55.9902 66.891 55.4812 67.3055C54.9721 67.7201 54.7103 68.4037 54.7103 69.3563V88.0173C54.7103 88.9627 54.9794 89.6536 55.5248 90.0754C56.0702 90.5045 56.6738 90.7154 57.3429 90.7154V90.9845H49.5469V90.7154C50.2596 90.7154 50.8705 90.5045 51.3941 90.0899C51.9104 89.6754 52.1722 88.9773 52.1722 88.01V69.3491C52.1722 68.3237 51.9104 67.6255 51.3941 67.2474C50.8777 66.8692 50.2596 66.6801 49.5469 66.6801V66.3965H57.3429L57.3502 66.4038Z" fill="#FAF0B6"/>
<path d="M59.7715 66.6874V66.4038H74.5272V70.1418H74.2581C74.1926 69.3709 73.909 68.6873 73.4145 68.0837C72.92 67.4801 72.0691 67.1747 70.8692 67.1747H64.964V78.3087H70.4692C71.5164 78.3087 72.2291 78.0978 72.6073 77.6688C72.9854 77.2397 73.2327 76.6506 73.3418 75.8943H73.6109V81.4722H73.3418C73.2763 80.7741 73.0436 80.1923 72.6509 79.7414C72.2582 79.2905 71.531 79.0651 70.4692 79.0651H64.964V88.0246C64.964 88.8392 65.1967 89.4937 65.6621 89.9882C66.1276 90.4827 66.6948 90.73 67.3493 90.73H67.6984V90.9991H59.7715V90.73H60.106C60.7751 90.73 61.3278 90.4827 61.7641 89.9809C62.2005 89.4791 62.4259 88.8319 62.4259 88.0319V69.4364C62.4259 68.3819 62.1859 67.6619 61.7059 67.2765C61.226 66.8911 60.6951 66.702 60.106 66.702H59.7715V66.6874Z" fill="#FAF0B6"/>
<path d="M77.2983 90.7227H77.6328C78.2364 90.7227 78.7673 90.4827 79.2255 90.01C79.6836 89.5373 79.9164 88.8755 79.9164 88.0174V69.4582C79.9164 68.4328 79.6545 67.7201 79.1382 67.3201C78.6219 66.9202 78.0037 66.7092 77.291 66.6874V66.4038H85.1525V66.6874C84.4616 66.7092 83.8507 66.9129 83.3198 67.3056C82.7889 67.6983 82.5199 68.411 82.5199 69.4582V87.3992C82.5199 88.4683 82.7889 89.21 83.3198 89.6173C83.8507 90.0318 84.7307 90.2355 85.9379 90.2355H88.0614C88.985 90.2355 89.7195 90.1264 90.2722 89.9009C90.8249 89.6755 91.2613 89.341 91.5813 88.8828C91.9013 88.4246 92.2285 87.7847 92.563 86.9483H92.8467L91.9085 90.9845H77.291V90.7154L77.2983 90.7227Z" fill="#FAF0B6"/>
<path d="M94.4174 66.6874V66.4038H102.475C103.821 66.4038 105.006 66.5856 106.039 66.9565C107.071 67.3274 107.922 67.8219 108.606 68.4619C109.289 69.0946 109.799 69.8146 110.14 70.6073C110.482 71.3999 110.649 72.2435 110.649 73.1162C110.649 73.9889 110.489 74.7962 110.177 75.5961C109.857 76.3888 109.362 77.1015 108.686 77.7197C108.01 78.3378 107.115 78.8323 106.017 79.196C104.919 79.5596 103.646 79.7487 102.213 79.7487C101.755 79.7487 100.875 79.6832 99.5736 79.545V88.0246C99.5736 89.77 100.461 90.6718 102.243 90.73V90.9991H94.4174V90.73C95.1883 90.7082 95.8137 90.49 96.3082 90.0682C96.8028 89.6537 97.05 88.9701 97.05 88.0246V69.4291C97.05 68.8619 96.9628 68.3892 96.781 68.011C96.5991 67.6328 96.3955 67.3638 96.1555 67.2038C95.9155 67.0438 95.6465 66.9201 95.3556 66.8474C95.0574 66.7674 94.8538 66.7165 94.7447 66.6947H94.4102L94.4174 66.6874ZM99.5736 67.2692V78.8542C100.432 79.0069 101.275 79.0869 102.112 79.0869C103.704 79.0869 105.05 78.6796 106.162 77.8578C107.268 77.0433 107.82 75.5234 107.82 73.3126C107.82 71.4872 107.333 69.9891 106.359 68.811C105.384 67.6401 103.908 67.0511 101.93 67.0511C101.159 67.0511 100.381 67.1238 99.5736 67.2692Z" fill="#FAF0B6"/>
</g>
<defs>
<clipPath id="clip0_6667_25041">
<rect width="160" height="164.843" fill="white" transform="translate(0 0.777832)"/>
</clipPath>
</defs>
</svg>
