<?xml version="1.0" encoding="utf-8"?>
<!-- Generator: Adobe Illustrator 28.0.0, SVG Export Plug-In . SVG Version: 6.00 Build 0)  -->
<svg version="1.1" id="Layer_1" xmlns="http://www.w3.org/2000/svg" xmlns:xlink="http://www.w3.org/1999/xlink" x="0px" y="0px"
	 viewBox="0 0 232.3 233" style="enable-background:new 0 0 232.3 233;" xml:space="preserve">
<style type="text/css">
	.st0{fill:#FAF0B6;}
	.st1{fill:none;}
	.st2{enable-background:new    ;}
</style>
<g>
	<path class="st0" d="M137.8,37v0.3c3.4,1,6.7,2.1,10,3.5c9.7,4.2,18.5,10.1,26,17.7s13.4,16.3,17.5,26.1
		c4.2,10.1,6.4,20.9,6.3,31.9c0,11-2.2,21.7-6.5,31.8c-4.1,9.7-10.1,18.5-17.6,25.9c-7.5,7.5-16.3,13.4-26,17.5
		c-10.1,4.3-20.8,6.4-31.8,6.4h-0.3c-11.1,0-21.8-2.2-31.9-6.6c-9.7-4.2-18.5-10.1-26-17.7c-7.5-7.6-13.4-16.3-17.5-26.1
		c-4.2-10.1-6.4-20.9-6.3-31.9c0-11,2.2-21.7,6.5-31.8c4.1-9.7,10.1-18.4,17.6-25.9s16.3-13.4,26-17.5c3.1-1.3,6.3-2.4,9.6-3.4V37
		c-34.5,9.7-59.9,41.3-60,78.9c-0.2,45.4,36.5,82.4,81.9,82.5c0.1,0,0.2,0,0.3,0c45.3,0,82.1-36.6,82.2-81.9
		C198,78.7,172.5,46.7,137.8,37z"/>
	<path class="st0" d="M32.1,115.4c1.3,1.3,1.8,2.5,1.4,2.8c-0.4,0.3-1.5-0.4-2.7-1.9c-1.1-1.5-1.3-2.7-1.3-2.7
		S30.7,114.2,32.1,115.4z"/>
	<path class="st0" d="M34.7,115.6c-1.3,1.2-1.7,2.4-1.3,2.6c0.4,0.3,1.5-0.3,2.6-1.8c1.1-1.4,1.2-2.6,1.2-2.6S36.1,114.4,34.7,115.6
		z"/>
	<path class="st0" d="M32.2,119.8c1.4,1.2,1.9,2.4,1.5,2.7c-0.4,0.3-1.6-0.3-2.8-1.8s-1.5-2.7-1.5-2.7S30.7,118.6,32.2,119.8z"/>
	<path class="st0" d="M34.8,119.8c-1.2,1.2-1.6,2.5-1.1,2.7s1.5-0.4,2.5-1.9s1.1-2.6,1.1-2.6S36.1,118.6,34.8,119.8z"/>
	<path class="st0" d="M32.5,124.2c1.5,1.1,2.1,2.3,1.6,2.6s-1.6-0.2-2.8-1.7c-1.3-1.4-1.6-2.6-1.6-2.6S31,123,32.5,124.2z"/>
	<path class="st0" d="M35.1,124.1c-1.2,1.3-1.4,2.5-1,2.7c0.5,0.2,1.5-0.5,2.4-2s1-2.7,1-2.7S36.3,122.7,35.1,124.1z"/>
	<path class="st0" d="M33,128.5c1.5,1,2.2,2.2,1.8,2.5s-1.6-0.2-2.9-1.5c-1.4-1.3-1.7-2.5-1.7-2.5S31.5,127.5,33,128.5z"/>
	<path class="st0" d="M35.7,128.3c-1.1,1.3-1.3,2.6-0.8,2.8s1.4-0.6,2.3-2.2c0.8-1.6,0.8-2.7,0.8-2.7S36.8,126.9,35.7,128.3z"/>
	<path class="st0" d="M33.8,132.8c1.6,0.9,2.3,2.1,1.9,2.4c-0.4,0.3-1.6-0.1-3-1.3c-1.4-1.3-1.9-2.4-1.9-2.4S32.2,131.8,33.8,132.8z
		"/>
	<path class="st0" d="M36.4,132.4c-1,1.4-1.2,2.7-0.7,2.8c0.5,0.2,1.4-0.6,2.1-2.3c0.7-1.6,0.7-2.8,0.7-2.8S37.4,131,36.4,132.4z"/>
	<path class="st0" d="M34.8,137.1c1.6,0.9,2.4,2,2,2.3c-0.4,0.4-1.6,0-3.1-1.2s-2-2.3-2-2.3S33.1,136.2,34.8,137.1z"/>
	<path class="st0" d="M37.4,136.5c-0.9,1.5-1,2.7-0.5,2.9c0.5,0.1,1.4-0.7,2-2.4c0.7-1.7,0.5-2.8,0.5-2.8S38.3,135,37.4,136.5z"/>
	<path class="st0" d="M36,141.3c1.7,0.8,2.5,1.8,2.1,2.2c-0.3,0.4-1.6,0.1-3.1-1s-2.1-2.2-2.1-2.2S34.3,140.5,36,141.3z"/>
	<path class="st0" d="M38.5,140.6c-0.9,1.5-0.9,2.8-0.4,2.9c0.5,0.1,1.3-0.8,1.9-2.5s0.4-2.8,0.4-2.8S39.4,139.1,38.5,140.6z"/>
	<path class="st0" d="M37.4,145.4c1.7,0.7,2.6,1.7,2.3,2.1c-0.3,0.4-1.6,0.2-3.2-0.9c-1.6-1-2.2-2.1-2.2-2.1S35.7,144.7,37.4,145.4z
		"/>
	<path class="st0" d="M39.9,144.6c-0.8,1.5-0.7,2.8-0.2,2.9c0.5,0.1,1.3-0.9,1.8-2.6c0.5-1.7,0.2-2.8,0.2-2.8S40.7,143,39.9,144.6z"
		/>
	<path class="st0" d="M39,149.5c1.7,0.6,2.7,1.6,2.4,2s-1.6,0.3-3.2-0.7c-1.7-0.9-2.3-1.9-2.3-1.9S37.3,148.8,39,149.5z"/>
	<path class="st0" d="M41.5,148.5c-0.7,1.6-0.6,2.9-0.1,2.9c0.5,0.1,1.2-0.9,1.6-2.7c0.4-1.7,0.1-2.9,0.1-2.9S42.2,146.9,41.5,148.5
		z"/>
	<path class="st0" d="M40.9,153.4c1.8,0.5,2.7,1.4,2.5,1.9c-0.3,0.4-1.6,0.3-3.3-0.5c-1.7-0.9-2.4-1.8-2.4-1.8
		S39.1,152.9,40.9,153.4z"/>
	<path class="st0" d="M43.3,152.4c-0.6,1.6-0.4,2.9,0.1,2.9s1.2-1,1.5-2.8s-0.1-2.9-0.1-2.9S43.9,150.7,43.3,152.4z"/>
	<path class="st0" d="M42.9,157.3c1.8,0.4,2.8,1.3,2.6,1.7c-0.3,0.4-1.5,0.4-3.3-0.4c-1.7-0.8-2.5-1.7-2.5-1.7
		S41.1,156.9,42.9,157.3z"/>
	<path class="st0" d="M45.3,156.1c-0.5,1.6-0.3,2.9,0.2,2.9s1.1-1,1.3-2.8s-0.2-2.8-0.2-2.8S45.8,154.4,45.3,156.1z"/>
	<path class="st0" d="M45.2,161c1.8,0.3,2.9,1.1,2.6,1.6s-1.5,0.5-3.3-0.2s-2.6-1.6-2.6-1.6S43.3,160.7,45.2,161z"/>
	<path class="st0" d="M47.5,159.7c-0.4,1.7-0.1,2.9,0.4,2.9s1.1-1.1,1.2-2.9s-0.4-2.8-0.4-2.8S47.9,158,47.5,159.7z"/>
	<path class="st0" d="M47.6,164.6c1.8,0.2,2.9,1,2.7,1.5s-1.5,0.6-3.3,0s-2.7-1.4-2.7-1.4S45.8,164.4,47.6,164.6z"/>
	<path class="st0" d="M49.8,163.2c-0.4,1.7,0,2.9,0.5,2.9c0.5-0.1,1-1.2,1-2.9c0-1.8-0.5-2.8-0.5-2.8S50.2,161.5,49.8,163.2z"/>
	<path class="st0" d="M50.3,168.1c1.8,0.1,3,0.8,2.8,1.3s-1.4,0.7-3.3,0.2c-1.8-0.5-2.8-1.3-2.8-1.3S48.4,168,50.3,168.1z"/>
	<path class="st0" d="M52.4,166.6c-0.3,1.7,0.2,2.9,0.7,2.8c0.5-0.1,0.9-1.2,0.9-3c-0.1-1.8-0.7-2.8-0.7-2.8S52.7,164.9,52.4,166.6z
		"/>
	<path class="st0" d="M53.1,171.5c1.8,0,3,0.7,2.9,1.2c-0.2,0.5-1.4,0.7-3.3,0.3c-1.9-0.4-2.8-1.1-2.8-1.1S51.2,171.5,53.1,171.5z"
		/>
	<path class="st0" d="M55.1,169.8c-0.2,1.7,0.3,2.9,0.8,2.8c0.5-0.1,0.9-1.3,0.7-3c-0.2-1.8-0.8-2.7-0.8-2.7S55.3,168.1,55.1,169.8z
		"/>
	<path class="st0" d="M56,174.7c1.8-0.1,3.1,0.5,2.9,1c-0.1,0.5-1.4,0.8-3.3,0.5c-1.9-0.3-2.9-1-2.9-1S54.2,174.7,56,174.7z"/>
	<path class="st0" d="M58,172.9c-0.1,1.7,0.5,2.9,1,2.7c0.5-0.1,0.8-1.3,0.6-3.1c-0.3-1.8-0.9-2.7-0.9-2.7S58.1,171.2,58,172.9z"/>
	<path class="st0" d="M59.2,177.7c1.8-0.2,3.1,0.4,3,0.9s-1.3,0.9-3.2,0.7s-2.9-0.8-2.9-0.8S57.3,177.9,59.2,177.7z"/>
	<path class="st0" d="M61.1,175.9c0,1.7,0.6,2.8,1.1,2.7c0.5-0.2,0.7-1.3,0.4-3.1c-0.4-1.8-1.1-2.6-1.1-2.6S61.1,174.1,61.1,175.9z"
		/>
	<path class="st0" d="M62.5,180.6c1.8-0.3,3.1,0.2,3,0.7s-1.3,0.9-3.2,0.8c-1.9-0.1-3-0.7-3-0.7S60.6,180.8,62.5,180.6z"/>
	<path class="st0" d="M64.3,178.6c0.1,1.7,0.8,2.8,1.2,2.6c0.5-0.2,0.7-1.4,0.2-3.1c-0.5-1.7-1.2-2.6-1.2-2.6S64.2,176.9,64.3,178.6
		z"/>
	<path class="st0" d="M65.9,183.3c1.8-0.3,3.1,0,3,0.5s-1.2,1-3.1,1s-3-0.5-3-0.5S64.1,183.6,65.9,183.3z"/>
	<path class="st0" d="M67.6,181.2c0.2,1.7,0.9,2.8,1.4,2.6s0.6-1.4,0.1-3.1c-0.5-1.7-1.4-2.5-1.4-2.5S67.4,179.5,67.6,181.2z"/>
	<path class="st0" d="M69.5,185.8c1.8-0.4,3.1-0.1,3.1,0.4s-1.2,1.1-3.1,1.2c-1.9,0.1-3-0.4-3-0.4S67.7,186.2,69.5,185.8z"/>
	<path class="st0" d="M71.1,183.7c0.3,1.7,1.1,2.7,1.5,2.5c0.5-0.2,0.5-1.4-0.1-3.1c-0.6-1.7-1.5-2.4-1.5-2.4S70.8,181.9,71.1,183.7
		z"/>
	<path class="st0" d="M73.2,188.1c1.8-0.5,3.1-0.3,3.1,0.2s-1.1,1.1-3,1.3s-3-0.2-3-0.2S71.4,188.7,73.2,188.1z"/>
	<path class="st0" d="M74.7,185.9c0.4,1.7,1.2,2.7,1.6,2.4s0.5-1.5-0.3-3.1c-0.7-1.6-1.6-2.4-1.6-2.4S74.3,184.2,74.7,185.9z"/>
	<path class="st0" d="M77,190.2c1.7-0.6,3.1-0.5,3.1,0.1c0,0.5-1.1,1.2-2.9,1.5c-1.9,0.3-3,0-3,0S75.3,190.9,77,190.2z"/>
	<path class="st0" d="M78.4,187.9c0.5,1.7,1.3,2.6,1.8,2.3c0.4-0.3,0.4-1.5-0.4-3.1s-1.7-2.3-1.7-2.3S77.9,186.2,78.4,187.9z"/>
	<path class="st0" d="M81,192.1c1.7-0.7,3-0.6,3.1-0.1s-1,1.2-2.9,1.6c-1.9,0.4-3,0.1-3,0.1S79.2,192.9,81,192.1z"/>
	<path class="st0" d="M82.2,189.8c0.5,1.6,1.5,2.5,1.9,2.2s0.3-1.5-0.6-3.1s-1.8-2.2-1.8-2.2S81.6,188.1,82.2,189.8z"/>
	<path class="st0" d="M85,193.8c1.7-0.8,3-0.8,3.1-0.3s-0.9,1.3-2.8,1.8c-1.8,0.5-3,0.3-3,0.3S83.3,194.7,85,193.8z"/>
	<path class="st0" d="M86.1,191.4c0.6,1.6,1.6,2.4,2,2.1c0.4-0.3,0.2-1.5-0.7-3c-1-1.5-2-2.1-2-2.1S85.4,189.8,86.1,191.4z"/>
	<path class="st0" d="M89.1,195.3c1.6-0.9,3-0.9,3.1-0.4s-0.9,1.3-2.7,1.9c-1.8,0.6-3,0.4-3,0.4S87.5,196.3,89.1,195.3z"/>
	<path class="st0" d="M90.1,192.9c0.7,1.6,1.7,2.3,2.1,2s0.1-1.5-0.9-3s-2.1-2-2.1-2S89.3,191.3,90.1,192.9z"/>
	<path class="st0" d="M93.3,196.6c1.6-1,2.9-1.1,3-0.6s-0.8,1.4-2.6,2.1c-1.8,0.7-3,0.6-3,0.6S91.7,197.6,93.3,196.6z"/>
	<path class="st0" d="M94.1,194.1c0.8,1.5,1.8,2.3,2.2,1.9c0.4-0.4,0.1-1.5-1.1-2.9c-1.1-1.4-2.2-1.9-2.2-1.9S93.3,192.5,94.1,194.1
		z"/>
	<path class="st0" d="M97.5,197.7c1.5-1,2.8-1.2,3-0.7s-0.7,1.4-2.5,2.2c-1.7,0.8-2.9,0.7-2.9,0.7S96,198.8,97.5,197.7z"/>
	<path class="st0" d="M98.2,195.1c0.9,1.5,2,2.2,2.3,1.8s0-1.5-1.2-2.9c-1.2-1.3-2.3-1.7-2.3-1.7S97.3,193.6,98.2,195.1z"/>
	<path class="st0" d="M101.8,198.5c1.4-1.1,2.8-1.4,3-0.9s-0.6,1.5-2.3,2.3c-1.7,0.9-2.9,0.9-2.9,0.9S100.3,199.7,101.8,198.5z"/>
	<path class="st0" d="M102.4,195.9c0.9,1.4,2.1,2,2.4,1.6s-0.1-1.5-1.4-2.8s-2.3-1.6-2.3-1.6S101.4,194.5,102.4,195.9z"/>
	<path class="st0" d="M106.1,199.1c1.4-1.2,2.7-1.5,2.9-1.1c0.2,0.5-0.6,1.5-2.2,2.4c-1.6,1-2.9,1-2.9,1S104.7,200.4,106.1,199.1z"
		/>
	<path class="st0" d="M106.6,196.5c1,1.4,2.2,1.9,2.5,1.5s-0.2-1.5-1.5-2.7s-2.4-1.5-2.4-1.5S105.5,195.1,106.6,196.5z"/>
	<path class="st0" d="M110.5,199.5c1.3-1.3,2.6-1.7,2.8-1.2c0.2,0.5-0.5,1.5-2.1,2.6c-1.6,1-2.8,1.2-2.8,1.2
		S109.1,200.8,110.5,199.5z"/>
	<path class="st0" d="M110.8,196.9c1.1,1.3,2.3,1.8,2.6,1.4c0.3-0.4-0.3-1.5-1.6-2.7c-1.4-1.1-2.5-1.4-2.5-1.4
		S109.7,195.5,110.8,196.9z"/>
	<path class="st0" d="M94.7,35.3c-0.9,1.6-2,2.4-2.3,2c-0.4-0.4,0-1.6,1.2-3.1s2.3-2,2.3-2S95.6,33.7,94.7,35.3z"/>
	<path class="st0" d="M95.2,37.9c-1.5-0.9-2.7-1-2.9-0.5c-0.1,0.5,0.7,1.4,2.4,2c1.7,0.7,2.8,0.5,2.8,0.5S96.7,38.9,95.2,37.9z"/>
	<path class="st0" d="M90.5,36.5c-0.8,1.7-1.8,2.5-2.2,2.1c-0.4-0.3-0.1-1.6,1-3.1s2.2-2.1,2.2-2.1S91.3,34.8,90.5,36.5z"/>
	<path class="st0" d="M91.2,39.1c-1.5-0.9-2.8-0.9-2.9-0.4s0.8,1.3,2.5,1.9c1.7,0.6,2.8,0.4,2.8,0.4S92.7,40,91.2,39.1z"/>
	<path class="st0" d="M86.4,38c-0.7,1.7-1.7,2.6-2.1,2.3s-0.2-1.6,0.9-3.2c1-1.6,2.1-2.2,2.1-2.2S87.1,36.2,86.4,38z"/>
	<path class="st0" d="M87.2,40.5c-1.5-0.8-2.8-0.7-2.9-0.2s0.9,1.3,2.6,1.8s2.8,0.2,2.8,0.2S88.7,41.3,87.2,40.5z"/>
	<path class="st0" d="M82.3,39.6c-0.6,1.7-1.6,2.7-2,2.4S80,40.4,81,38.8c0.9-1.7,1.9-2.3,1.9-2.3S82.9,37.8,82.3,39.6z"/>
	<path class="st0" d="M83.2,42.1c-1.6-0.7-2.9-0.6-2.9-0.1c-0.1,0.5,0.9,1.2,2.7,1.6c1.7,0.4,2.9,0.1,2.9,0.1S84.9,42.8,83.2,42.1z"
		/>
	<path class="st0" d="M78.3,41.5c-0.5,1.8-1.4,2.7-1.9,2.5c-0.4-0.3-0.3-1.6,0.5-3.3c0.9-1.7,1.8-2.4,1.8-2.4S78.9,39.6,78.3,41.5z"
		/>
	<path class="st0" d="M79.4,43.9c-1.6-0.6-2.9-0.4-2.9,0.1s1,1.2,2.8,1.5s2.9-0.1,2.9-0.1S81.1,44.5,79.4,43.9z"/>
	<path class="st0" d="M74.5,43.5c-0.4,1.8-1.3,2.8-1.7,2.6c-0.4-0.3-0.4-1.5,0.4-3.3c0.8-1.7,1.7-2.5,1.7-2.5S74.9,41.7,74.5,43.5z"
		/>
	<path class="st0" d="M75.7,45.9c-1.6-0.5-2.9-0.3-2.9,0.2s1,1.1,2.8,1.3s2.8-0.2,2.8-0.2S77.4,46.4,75.7,45.9z"/>
	<path class="st0" d="M70.7,45.8c-0.3,1.8-1.1,2.9-1.6,2.6c-0.5-0.2-0.5-1.5,0.2-3.3s1.6-2.6,1.6-2.6S71.1,43.9,70.7,45.8z"/>
	<path class="st0" d="M72,48.1c-1.7-0.4-2.9-0.1-2.9,0.4s1.1,1.1,2.9,1.2c1.8,0.1,2.8-0.4,2.8-0.4S73.8,48.5,72,48.1z"/>
	<path class="st0" d="M67.1,48.2c-0.2,1.8-1,2.9-1.5,2.7s-0.6-1.5,0-3.3s1.4-2.7,1.4-2.7S67.3,46.3,67.1,48.2z"/>
	<path class="st0" d="M68.5,50.4c-1.7-0.4-2.9,0-2.9,0.5c0.1,0.5,1.2,1,2.9,1c1.8,0,2.8-0.5,2.8-0.5S70.3,50.8,68.5,50.4z"/>
	<path class="st0" d="M63.6,50.8c-0.1,1.8-0.8,3-1.3,2.8s-0.7-1.4-0.2-3.3c0.5-1.8,1.3-2.8,1.3-2.8S63.8,49,63.6,50.8z"/>
	<path class="st0" d="M65.2,53c-1.7-0.3-2.9,0.2-2.8,0.7c0.1,0.5,1.2,0.9,3,0.9c1.8-0.1,2.8-0.7,2.8-0.7S66.9,53.2,65.2,53z"/>
	<path class="st0" d="M60.3,53.6c0,1.8-0.7,3-1.2,2.9c-0.5-0.2-0.7-1.4-0.3-3.3c0.4-1.9,1.1-2.8,1.1-2.8S60.3,51.8,60.3,53.6z"/>
	<path class="st0" d="M61.9,55.7c-1.7-0.2-2.9,0.3-2.8,0.8c0.1,0.5,1.3,0.9,3,0.7c1.8-0.2,2.7-0.8,2.7-0.8S63.7,55.9,61.9,55.7z"/>
	<path class="st0" d="M57.1,56.6c0.1,1.8-0.5,3.1-1,2.9s-0.8-1.4-0.5-3.3c0.3-1.9,1-2.9,1-2.9S57,54.7,57.1,56.6z"/>
	<path class="st0" d="M58.8,58.6c-1.7-0.1-2.9,0.5-2.7,1c0.1,0.5,1.3,0.8,3.1,0.6c1.8-0.3,2.7-0.9,2.7-0.9S60.6,58.7,58.8,58.6z"/>
	<path class="st0" d="M54,59.8c0.2,1.8-0.4,3.1-0.9,3s-0.9-1.3-0.7-3.2s0.8-2.9,0.8-2.9S53.9,57.9,54,59.8z"/>
	<path class="st0" d="M55.9,61.6c-1.7,0-2.8,0.6-2.7,1.1c0.2,0.5,1.3,0.7,3.1,0.4c1.8-0.4,2.6-1.1,2.6-1.1S57.7,61.6,55.9,61.6z"/>
	<path class="st0" d="M51.2,63.1c0.3,1.8-0.2,3.1-0.7,3s-0.9-1.3-0.8-3.2c0.1-1.9,0.7-3,0.7-3S50.9,61.2,51.2,63.1z"/>
	<path class="st0" d="M53.1,64.8c-1.7,0.1-2.8,0.8-2.6,1.2c0.2,0.5,1.4,0.7,3.1,0.2c1.7-0.5,2.6-1.2,2.6-1.2S54.9,64.7,53.1,64.8z"
		/>
	<path class="st0" d="M48.5,66.5c0.3,1.8,0,3.1-0.5,3s-1-1.2-1-3.1s0.5-3,0.5-3S48.1,64.7,48.5,66.5z"/>
	<path class="st0" d="M50.5,68.2c-1.7,0.2-2.8,0.9-2.6,1.4s1.4,0.6,3.1,0.1c1.7-0.5,2.5-1.4,2.5-1.4S52.3,68,50.5,68.2z"/>
	<path class="st0" d="M46,70.1c0.4,1.8,0.1,3.1-0.4,3.1s-1.1-1.2-1.2-3.1s0.4-3,0.4-3S45.5,68.3,46,70.1z"/>
	<path class="st0" d="M48.1,71.7c-1.7,0.3-2.7,1.1-2.5,1.5c0.2,0.5,1.4,0.5,3.1-0.1c1.7-0.6,2.4-1.5,2.4-1.5S49.9,71.4,48.1,71.7z"
		/>
	<path class="st0" d="M43.7,73.8c0.5,1.8,0.3,3.1-0.2,3.1s-1.1-1.1-1.3-3s0.2-3,0.2-3S43.1,72,43.7,73.8z"/>
	<path class="st0" d="M45.9,75.2c-1.7,0.4-2.7,1.2-2.4,1.6s1.5,0.5,3.1-0.3c1.6-0.7,2.4-1.6,2.4-1.6S47.6,74.9,45.9,75.2z"/>
	<path class="st0" d="M41.5,77.6c0.6,1.7,0.5,3.1-0.1,3.1c-0.5,0-1.2-1.1-1.5-2.9c-0.3-1.9,0-3,0-3S40.9,75.8,41.5,77.6z"/>
	<path class="st0" d="M43.8,79c-1.7,0.5-2.6,1.3-2.3,1.8c0.3,0.4,1.5,0.4,3.1-0.4s2.3-1.7,2.3-1.7S45.5,78.5,43.8,79z"/>
	<path class="st0" d="M39.6,81.5c0.7,1.7,0.6,3,0.1,3.1s-1.2-1-1.6-2.9s-0.1-3-0.1-3S38.9,79.8,39.6,81.5z"/>
	<path class="st0" d="M42,82.8c-1.6,0.5-2.5,1.5-2.2,1.9s1.5,0.3,3.1-0.6s2.2-1.8,2.2-1.8S43.7,82.2,42,82.8z"/>
	<path class="st0" d="M37.9,85.6c0.8,1.7,0.8,3,0.3,3.1s-1.3-0.9-1.8-2.8c-0.5-1.8-0.3-3-0.3-3S37.1,83.9,37.9,85.6z"/>
	<path class="st0" d="M40.3,86.7c-1.6,0.6-2.4,1.6-2.1,2c0.3,0.4,1.5,0.2,3-0.7c1.5-1,2.1-2,2.1-2S42,86,40.3,86.7z"/>
	<path class="st0" d="M36.4,89.7c0.9,1.6,0.9,3,0.4,3.1s-1.3-0.9-1.9-2.7c-0.6-1.8-0.4-3-0.4-3S35.5,88,36.4,89.7z"/>
	<path class="st0" d="M38.9,90.6c-1.6,0.7-2.3,1.7-2,2.1s1.5,0.1,3-0.9s2-2.1,2-2.1S40.5,89.9,38.9,90.6z"/>
	<path class="st0" d="M35.1,93.9c1,1.6,1.1,2.9,0.6,3s-1.4-0.8-2.1-2.6c-0.7-1.8-0.6-3-0.6-3S34.2,92.3,35.1,93.9z"/>
	<path class="st0" d="M37.6,94.7c-1.5,0.8-2.3,1.8-1.9,2.2c0.4,0.4,1.5,0.1,2.9-1.1c1.4-1.1,1.9-2.2,1.9-2.2S39.2,93.9,37.6,94.7z"
		/>
	<path class="st0" d="M34.1,98.1c1,1.5,1.2,2.8,0.7,3s-1.4-0.7-2.2-2.5s-0.7-2.9-0.7-2.9S33,96.6,34.1,98.1z"/>
	<path class="st0" d="M36.6,98.8c-1.5,0.9-2.2,2-1.8,2.3s1.5,0,2.9-1.2c1.3-1.2,1.7-2.3,1.7-2.3S38.2,97.9,36.6,98.8z"/>
	<path class="st0" d="M33.3,102.4c1.1,1.4,1.4,2.8,0.9,3s-1.5-0.6-2.3-2.3c-0.9-1.7-0.9-2.9-0.9-2.9S32.1,100.9,33.3,102.4z"/>
	<path class="st0" d="M35.8,103c-1.4,0.9-2,2.1-1.6,2.4s1.5-0.1,2.8-1.4s1.6-2.3,1.6-2.3S37.3,102,35.8,103z"/>
	<path class="st0" d="M32.6,106.7c1.2,1.4,1.5,2.7,1.1,2.9c-0.5,0.2-1.5-0.6-2.4-2.2c-1-1.6-1-2.9-1-2.9S31.4,105.3,32.6,106.7z"/>
	<path class="st0" d="M35.2,107.1c-1.4,1-1.9,2.2-1.5,2.5s1.5-0.2,2.7-1.5s1.5-2.4,1.5-2.4S36.7,106.1,35.2,107.1z"/>
	<path class="st0" d="M32.3,111.1c1.3,1.3,1.7,2.6,1.2,2.8c-0.5,0.2-1.5-0.5-2.6-2.1c-1-1.6-1.2-2.8-1.2-2.8S31,109.7,32.3,111.1z"
		/>
	<path class="st0" d="M34.9,111.4c-1.3,1.1-1.8,2.3-1.4,2.6c0.4,0.3,1.5-0.3,2.7-1.6c1.1-1.4,1.4-2.5,1.4-2.5S36.3,110.2,34.9,111.4
		z"/>
	<path class="st0" d="M199,115.4c-1.3,1.3-1.8,2.5-1.4,2.8s1.5-0.4,2.7-1.9c1.1-1.5,1.3-2.7,1.3-2.7S200.4,114.2,199,115.4z"/>
	<path class="st0" d="M196.3,115.6c1.3,1.2,1.7,2.4,1.3,2.6c-0.4,0.3-1.5-0.3-2.6-1.8c-1.1-1.4-1.2-2.6-1.2-2.6
		S195,114.4,196.3,115.6z"/>
	<path class="st0" d="M198.9,119.8c-1.4,1.2-1.9,2.4-1.5,2.7c0.4,0.3,1.6-0.3,2.8-1.8s1.5-2.7,1.5-2.7S200.3,118.6,198.9,119.8z"/>
	<path class="st0" d="M196.3,119.8c1.2,1.2,1.6,2.5,1.1,2.7s-1.5-0.4-2.5-1.9s-1.1-2.6-1.1-2.6S195,118.6,196.3,119.8z"/>
	<path class="st0" d="M198.6,124.2c-1.5,1.1-2.1,2.3-1.6,2.6s1.6-0.2,2.8-1.7c1.3-1.4,1.6-2.6,1.6-2.6S200.1,123,198.6,124.2z"/>
	<path class="st0" d="M196,124.1c1.2,1.3,1.4,2.5,1,2.7c-0.5,0.2-1.5-0.5-2.4-2s-1-2.7-1-2.7S194.8,122.7,196,124.1z"/>
	<path class="st0" d="M198.1,128.5c-1.5,1-2.2,2.2-1.8,2.5s1.6-0.2,2.9-1.5c1.4-1.3,1.7-2.5,1.7-2.5S199.6,127.5,198.1,128.5z"/>
	<path class="st0" d="M195.4,128.3c1.1,1.3,1.3,2.6,0.8,2.8s-1.4-0.6-2.3-2.2c-0.8-1.6-0.8-2.7-0.8-2.7S194.3,126.9,195.4,128.3z"/>
	<path class="st0" d="M197.3,132.8c-1.6,0.9-2.3,2.1-1.9,2.4c0.4,0.3,1.6-0.1,3-1.3c1.4-1.3,1.9-2.4,1.9-2.4
		S198.9,131.8,197.3,132.8z"/>
	<path class="st0" d="M194.7,132.4c1,1.4,1.2,2.7,0.7,2.8c-0.5,0.2-1.4-0.6-2.1-2.3s-0.7-2.8-0.7-2.8S193.7,131,194.7,132.4z"/>
	<path class="st0" d="M196.3,137.1c-1.6,0.9-2.4,2-2,2.3c0.4,0.4,1.6,0,3.1-1.2s2-2.3,2-2.3S198,136.2,196.3,137.1z"/>
	<path class="st0" d="M193.7,136.5c0.9,1.5,1,2.7,0.5,2.9c-0.5,0.1-1.4-0.7-2-2.4c-0.7-1.7-0.5-2.8-0.5-2.8S192.8,135,193.7,136.5z"
		/>
	<path class="st0" d="M195.1,141.3c-1.7,0.8-2.5,1.8-2.1,2.2c0.3,0.4,1.6,0.1,3.1-1s2.1-2.2,2.1-2.2S196.8,140.5,195.1,141.3z"/>
	<path class="st0" d="M192.6,140.6c0.9,1.5,0.9,2.8,0.4,2.9c-0.5,0.1-1.3-0.8-1.9-2.5s-0.4-2.8-0.4-2.8S191.7,139.1,192.6,140.6z"/>
	<path class="st0" d="M193.7,145.4c-1.7,0.7-2.6,1.7-2.3,2.1c0.3,0.4,1.6,0.2,3.2-0.9c1.6-1,2.2-2.1,2.2-2.1
		S195.4,144.7,193.7,145.4z"/>
	<path class="st0" d="M191.2,144.6c0.8,1.5,0.7,2.8,0.2,2.9c-0.5,0.1-1.3-0.9-1.8-2.6c-0.5-1.7-0.2-2.8-0.2-2.8
		S190.4,143,191.2,144.6z"/>
	<path class="st0" d="M192.1,149.5c-1.7,0.6-2.7,1.6-2.4,2s1.6,0.3,3.2-0.7c1.7-0.9,2.3-1.9,2.3-1.9S193.8,148.8,192.1,149.5z"/>
	<path class="st0" d="M189.6,148.5c0.7,1.6,0.6,2.9,0.1,2.9c-0.5,0.1-1.2-0.9-1.6-2.7c-0.4-1.7-0.1-2.9-0.1-2.9
		S188.9,146.9,189.6,148.5z"/>
	<path class="st0" d="M190.2,153.4c-1.8,0.5-2.7,1.4-2.5,1.9c0.3,0.4,1.6,0.3,3.3-0.5c1.7-0.9,2.4-1.8,2.4-1.8
		S192,152.9,190.2,153.4z"/>
	<path class="st0" d="M187.8,152.4c0.6,1.6,0.4,2.9-0.1,2.9s-1.2-1-1.5-2.8s0.1-2.9,0.1-2.9S187.2,150.7,187.8,152.4z"/>
	<path class="st0" d="M188.2,157.3c-1.8,0.4-2.8,1.3-2.6,1.7c0.3,0.4,1.5,0.4,3.3-0.4c1.7-0.8,2.5-1.7,2.5-1.7
		S190,156.9,188.2,157.3z"/>
	<path class="st0" d="M185.8,156.1c0.5,1.6,0.3,2.9-0.2,2.9s-1.1-1-1.3-2.8s0.2-2.8,0.2-2.8S185.3,154.4,185.8,156.1z"/>
	<path class="st0" d="M185.9,161c-1.8,0.3-2.9,1.1-2.6,1.6s1.5,0.5,3.3-0.2s2.6-1.6,2.6-1.6S187.8,160.7,185.9,161z"/>
	<path class="st0" d="M183.6,159.7c0.4,1.7,0.1,2.9-0.4,2.9s-1.1-1.1-1.2-2.9c-0.1-1.8,0.4-2.8,0.4-2.8S183.2,158,183.6,159.7z"/>
	<path class="st0" d="M183.5,164.6c-1.8,0.2-2.9,1-2.7,1.5s1.5,0.6,3.3,0s2.7-1.4,2.7-1.4S185.3,164.4,183.5,164.6z"/>
	<path class="st0" d="M181.2,163.2c0.4,1.7,0,2.9-0.5,2.9c-0.5-0.1-1-1.2-1-2.9c0-1.8,0.5-2.8,0.5-2.8S180.9,161.5,181.2,163.2z"/>
	<path class="st0" d="M180.8,168.1c-1.8,0.1-3,0.8-2.8,1.3s1.4,0.7,3.3,0.2c1.8-0.5,2.8-1.3,2.8-1.3S182.7,168,180.8,168.1z"/>
	<path class="st0" d="M178.7,166.6c0.3,1.7-0.2,2.9-0.7,2.8c-0.5-0.1-0.9-1.2-0.9-3c0.1-1.8,0.7-2.8,0.7-2.8
		S178.4,164.9,178.7,166.6z"/>
	<path class="st0" d="M178,171.5c-1.8,0-3,0.7-2.9,1.2c0.2,0.5,1.4,0.7,3.3,0.3c1.9-0.4,2.8-1.1,2.8-1.1S179.9,171.5,178,171.5z"/>
	<path class="st0" d="M176,169.8c0.2,1.7-0.3,2.9-0.8,2.8c-0.5-0.1-0.9-1.3-0.7-3c0.2-1.8,0.8-2.7,0.8-2.7S175.8,168.1,176,169.8z"
		/>
	<path class="st0" d="M175,174.7c-1.8-0.1-3.1,0.5-2.9,1c0.1,0.5,1.4,0.8,3.3,0.5c1.9-0.3,2.9-1,2.9-1S176.9,174.7,175,174.7z"/>
	<path class="st0" d="M173.1,172.9c0.1,1.7-0.5,2.9-1,2.7c-0.5-0.1-0.8-1.3-0.6-3.1c0.3-1.8,0.9-2.7,0.9-2.7S173,171.2,173.1,172.9z
		"/>
	<path class="st0" d="M171.9,177.7c-1.8-0.2-3.1,0.4-3,0.9s1.3,0.9,3.2,0.7s2.9-0.8,2.9-0.8S173.8,177.9,171.9,177.7z"/>
	<path class="st0" d="M170,175.9c0,1.7-0.6,2.8-1.1,2.7c-0.5-0.2-0.7-1.3-0.4-3.1c0.4-1.8,1.1-2.6,1.1-2.6S170,174.1,170,175.9z"/>
	<path class="st0" d="M168.6,180.6c-1.8-0.3-3.1,0.2-3,0.7s1.3,0.9,3.2,0.8c1.9-0.1,3-0.7,3-0.7S170.5,180.8,168.6,180.6z"/>
	<path class="st0" d="M166.8,178.6c-0.1,1.7-0.8,2.8-1.2,2.6c-0.5-0.2-0.7-1.4-0.2-3.1c0.5-1.7,1.2-2.6,1.2-2.6
		S166.9,176.9,166.8,178.6z"/>
	<path class="st0" d="M165.2,183.3c-1.8-0.3-3.1,0-3,0.5s1.2,1,3.1,1c1.9,0,3-0.5,3-0.5S167,183.6,165.2,183.3z"/>
	<path class="st0" d="M163.5,181.2c-0.2,1.7-0.9,2.8-1.4,2.6s-0.6-1.4-0.1-3.1c0.5-1.7,1.4-2.5,1.4-2.5S163.7,179.5,163.5,181.2z"/>
	<path class="st0" d="M161.6,185.8c-1.8-0.4-3.1-0.1-3.1,0.4s1.2,1.1,3.1,1.2c1.9,0.1,3-0.4,3-0.4S163.4,186.2,161.6,185.8z"/>
	<path class="st0" d="M160,183.7c-0.3,1.7-1.1,2.7-1.5,2.5c-0.5-0.2-0.5-1.4,0.1-3.1c0.6-1.7,1.5-2.4,1.5-2.4S160.3,181.9,160,183.7
		z"/>
	<path class="st0" d="M157.9,188.1c-1.8-0.5-3.1-0.3-3.1,0.2s1.1,1.1,3,1.3s3-0.2,3-0.2S159.7,188.7,157.9,188.1z"/>
	<path class="st0" d="M156.4,185.9c-0.4,1.7-1.2,2.7-1.6,2.4c-0.4-0.3-0.5-1.5,0.3-3.1c0.7-1.6,1.6-2.4,1.6-2.4
		S156.8,184.2,156.4,185.9z"/>
	<path class="st0" d="M154,190.2c-1.7-0.6-3.1-0.5-3.1,0.1c0,0.5,1.1,1.2,2.9,1.5c1.9,0.3,3,0,3,0S155.8,190.9,154,190.2z"/>
	<path class="st0" d="M152.7,187.9c-0.5,1.7-1.3,2.6-1.8,2.3c-0.4-0.3-0.4-1.5,0.4-3.1c0.8-1.6,1.7-2.3,1.7-2.3
		S153.2,186.2,152.7,187.9z"/>
	<path class="st0" d="M150.1,192.1c-1.7-0.7-3-0.6-3.1-0.1s1,1.2,2.9,1.6s3,0.1,3,0.1S151.9,192.9,150.1,192.1z"/>
	<path class="st0" d="M148.9,189.8c-0.5,1.6-1.5,2.5-1.9,2.2s-0.3-1.5,0.6-3.1c0.9-1.6,1.8-2.2,1.8-2.2S149.5,188.1,148.9,189.8z"/>
	<path class="st0" d="M146.1,193.8c-1.7-0.8-3-0.8-3.1-0.3s0.9,1.3,2.8,1.8c1.8,0.5,3,0.3,3,0.3S147.8,194.7,146.1,193.8z"/>
	<path class="st0" d="M145,191.4c-0.6,1.6-1.6,2.4-2,2.1c-0.4-0.3-0.2-1.5,0.7-3c1-1.5,2-2.1,2-2.1S145.6,189.8,145,191.4z"/>
	<path class="st0" d="M142,195.3c-1.6-0.9-3-0.9-3.1-0.4s0.9,1.3,2.7,1.9c1.8,0.6,3,0.4,3,0.4S143.6,196.3,142,195.3z"/>
	<path class="st0" d="M141,192.9c-0.7,1.6-1.7,2.3-2.1,2c-0.4-0.3-0.1-1.5,0.9-3s2.1-2,2.1-2S141.8,191.3,141,192.9z"/>
	<path class="st0" d="M137.8,196.6c-1.6-1-2.9-1.1-3-0.6s0.8,1.4,2.6,2.1c1.8,0.7,3,0.6,3,0.6S139.4,197.6,137.8,196.6z"/>
	<path class="st0" d="M137,194.1c-0.8,1.5-1.8,2.3-2.2,1.9c-0.4-0.4-0.1-1.5,1.1-2.9c1.1-1.4,2.2-1.9,2.2-1.9S137.8,192.5,137,194.1
		z"/>
	<path class="st0" d="M133.6,197.7c-1.5-1-2.8-1.2-3-0.7s0.7,1.4,2.5,2.2c1.7,0.8,2.9,0.7,2.9,0.7S135.1,198.8,133.6,197.7z"/>
	<path class="st0" d="M132.9,195.1c-0.9,1.5-2,2.2-2.3,1.8s0-1.5,1.2-2.9c1.2-1.3,2.3-1.7,2.3-1.7S133.8,193.6,132.9,195.1z"/>
	<path class="st0" d="M129.3,198.5c-1.4-1.1-2.8-1.4-3-0.9s0.6,1.5,2.3,2.3c1.7,0.9,2.9,0.9,2.9,0.9S130.8,199.7,129.3,198.5z"/>
	<path class="st0" d="M128.7,195.9c-0.9,1.4-2.1,2-2.4,1.6s0.1-1.5,1.4-2.8s2.3-1.6,2.3-1.6S129.7,194.5,128.7,195.9z"/>
	<path class="st0" d="M124.9,199.1c-1.4-1.2-2.7-1.5-2.9-1.1c-0.2,0.5,0.6,1.5,2.2,2.4c1.6,1,2.9,1,2.9,1S126.4,200.4,124.9,199.1z"
		/>
	<path class="st0" d="M124.5,196.5c-1,1.4-2.2,1.9-2.5,1.5s0.2-1.5,1.5-2.7s2.4-1.5,2.4-1.5S125.6,195.1,124.5,196.5z"/>
	<path class="st0" d="M120.6,199.5c-1.3-1.3-2.6-1.7-2.8-1.2c-0.2,0.5,0.5,1.5,2.1,2.6c1.6,1,2.8,1.2,2.8,1.2
		S121.9,200.8,120.6,199.5z"/>
	<path class="st0" d="M120.3,196.9c-1.1,1.3-2.3,1.8-2.6,1.4c-0.3-0.4,0.3-1.5,1.6-2.7c1.4-1.1,2.5-1.4,2.5-1.4
		S121.4,195.5,120.3,196.9z"/>
	<path class="st0" d="M136.4,35.3c0.9,1.6,2,2.4,2.3,2c0.4-0.4,0-1.6-1.2-3.1s-2.3-2-2.3-2S135.5,33.7,136.4,35.3z"/>
	<path class="st0" d="M135.9,37.9c1.5-0.9,2.7-1,2.9-0.5c0.1,0.5-0.7,1.4-2.4,2c-1.7,0.7-2.8,0.5-2.8,0.5S134.4,38.9,135.9,37.9z"/>
	<path class="st0" d="M140.6,36.5c0.8,1.7,1.8,2.5,2.2,2.1c0.4-0.3,0.1-1.6-1-3.1s-2.2-2.1-2.2-2.1S139.8,34.8,140.6,36.5z"/>
	<path class="st0" d="M139.9,39.1c1.5-0.9,2.8-0.9,2.9-0.4c0.1,0.5-0.8,1.3-2.5,1.9c-1.7,0.6-2.8,0.4-2.8,0.4S138.4,40,139.9,39.1z"
		/>
	<path class="st0" d="M144.7,38c0.7,1.7,1.7,2.6,2.1,2.3c0.4-0.3,0.2-1.6-0.9-3.2c-1-1.6-2.1-2.2-2.1-2.2S144,36.2,144.7,38z"/>
	<path class="st0" d="M143.9,40.5c1.5-0.8,2.8-0.7,2.9-0.2s-0.9,1.3-2.6,1.8c-1.7,0.5-2.8,0.2-2.8,0.2S142.3,41.3,143.9,40.5z"/>
	<path class="st0" d="M148.8,39.6c0.6,1.7,1.6,2.7,2,2.4s0.3-1.6-0.7-3.2c-0.9-1.7-1.9-2.3-1.9-2.3S148.2,37.8,148.8,39.6z"/>
	<path class="st0" d="M147.9,42.1c1.6-0.7,2.9-0.6,2.9-0.1c0.1,0.5-0.9,1.2-2.7,1.6c-1.7,0.4-2.9,0.1-2.9,0.1S146.2,42.8,147.9,42.1
		z"/>
	<path class="st0" d="M152.7,41.5c0.5,1.8,1.4,2.7,1.9,2.5c0.4-0.3,0.3-1.6-0.5-3.3c-0.9-1.7-1.8-2.4-1.8-2.4S152.2,39.6,152.7,41.5
		z"/>
	<path class="st0" d="M151.7,43.9c1.6-0.6,2.9-0.4,2.9,0.1s-1,1.2-2.8,1.5s-2.9-0.1-2.9-0.1S150,44.5,151.7,43.9z"/>
	<path class="st0" d="M156.6,43.5c0.4,1.8,1.3,2.8,1.7,2.6c0.4-0.3,0.4-1.5-0.4-3.3c-0.8-1.7-1.7-2.5-1.7-2.5S156.2,41.7,156.6,43.5
		z"/>
	<path class="st0" d="M155.4,45.9c1.6-0.5,2.9-0.3,2.9,0.2s-1,1.1-2.8,1.3s-2.8-0.2-2.8-0.2S153.7,46.4,155.4,45.9z"/>
	<path class="st0" d="M160.4,45.8c0.3,1.8,1.1,2.9,1.6,2.6c0.5-0.2,0.5-1.5-0.2-3.3s-1.6-2.6-1.6-2.6S160,43.9,160.4,45.8z"/>
	<path class="st0" d="M159,48.1c1.7-0.4,2.9-0.1,2.9,0.4s-1.1,1.1-2.9,1.2c-1.8,0.1-2.8-0.4-2.8-0.4S157.3,48.5,159,48.1z"/>
	<path class="st0" d="M164,48.2c0.2,1.8,1,2.9,1.5,2.7s0.6-1.5,0-3.3s-1.4-2.7-1.4-2.7S163.7,46.3,164,48.2z"/>
	<path class="st0" d="M162.6,50.4c1.7-0.4,2.9,0,2.9,0.5s-1.2,1-2.9,1c-1.8,0-2.8-0.5-2.8-0.5S160.8,50.8,162.6,50.4z"/>
	<path class="st0" d="M167.5,50.8c0.1,1.8,0.8,3,1.3,2.8s0.7-1.4,0.2-3.3c-0.5-1.8-1.3-2.8-1.3-2.8S167.3,49,167.5,50.8z"/>
	<path class="st0" d="M165.9,53c1.7-0.3,2.9,0.2,2.8,0.7c-0.1,0.5-1.2,0.9-3,0.9c-1.8-0.1-2.8-0.7-2.8-0.7S164.2,53.2,165.9,53z"/>
	<path class="st0" d="M170.8,53.6c0,1.8,0.7,3,1.2,2.9s0.7-1.4,0.3-3.3c-0.4-1.9-1.1-2.8-1.1-2.8S170.8,51.8,170.8,53.6z"/>
	<path class="st0" d="M169.2,55.7c1.7-0.2,2.9,0.3,2.8,0.8s-1.3,0.9-3,0.7c-1.8-0.2-2.7-0.8-2.7-0.8S167.4,55.9,169.2,55.7z"/>
	<path class="st0" d="M174,56.6c-0.1,1.8,0.5,3.1,1,2.9c0.5-0.1,0.8-1.4,0.5-3.3c-0.3-1.9-1-2.9-1-2.9S174.1,54.7,174,56.6z"/>
	<path class="st0" d="M172.3,58.6c1.7-0.1,2.9,0.5,2.7,1c-0.1,0.5-1.3,0.8-3.1,0.6c-1.8-0.3-2.7-0.9-2.7-0.9S170.5,58.7,172.3,58.6z
		"/>
	<path class="st0" d="M177,59.8c-0.2,1.8,0.4,3.1,0.9,3s0.9-1.3,0.7-3.2s-0.8-2.9-0.8-2.9S177.2,57.9,177,59.8z"/>
	<path class="st0" d="M175.2,61.6c1.7,0,2.8,0.6,2.7,1.1c-0.2,0.5-1.3,0.7-3.1,0.4c-1.8-0.4-2.6-1.1-2.6-1.1S173.4,61.6,175.2,61.6z
		"/>
	<path class="st0" d="M179.9,63.1c-0.3,1.8,0.2,3.1,0.7,3s0.9-1.3,0.8-3.2c-0.1-1.9-0.7-3-0.7-3S180.2,61.2,179.9,63.1z"/>
	<path class="st0" d="M178,64.8c1.7,0.1,2.8,0.8,2.6,1.2c-0.2,0.5-1.4,0.7-3.1,0.2c-1.7-0.5-2.6-1.2-2.6-1.2S176.2,64.7,178,64.8z"
		/>
	<path class="st0" d="M182.6,66.5c-0.3,1.8,0,3.1,0.5,3s1-1.2,1-3.1s-0.5-3-0.5-3S183,64.7,182.6,66.5z"/>
	<path class="st0" d="M180.6,68.2c1.7,0.2,2.8,0.9,2.6,1.4s-1.4,0.6-3.1,0.1c-1.7-0.5-2.5-1.4-2.5-1.4S178.8,68,180.6,68.2z"/>
	<path class="st0" d="M185.1,70.1c-0.4,1.8-0.1,3.1,0.4,3.1s1.1-1.2,1.2-3.1c0.1-1.9-0.4-3-0.4-3S185.6,68.3,185.1,70.1z"/>
	<path class="st0" d="M183,71.7c1.7,0.3,2.7,1.1,2.5,1.5c-0.2,0.5-1.4,0.5-3.1-0.1c-1.7-0.6-2.4-1.5-2.4-1.5S181.2,71.4,183,71.7z"
		/>
	<path class="st0" d="M187.4,73.8c-0.5,1.8-0.3,3.1,0.2,3.1s1.1-1.1,1.3-3s-0.2-3-0.2-3S188,72,187.4,73.8z"/>
	<path class="st0" d="M185.2,75.2c1.7,0.4,2.7,1.2,2.4,1.6s-1.5,0.5-3.1-0.3c-1.6-0.7-2.4-1.6-2.4-1.6S183.5,74.9,185.2,75.2z"/>
	<path class="st0" d="M189.5,77.6c-0.6,1.7-0.5,3.1,0.1,3.1s1.2-1.1,1.5-2.9c0.3-1.9,0-3,0-3S190.2,75.8,189.5,77.6z"/>
	<path class="st0" d="M187.3,79c1.7,0.5,2.6,1.3,2.3,1.8c-0.3,0.4-1.5,0.4-3.1-0.4s-2.3-1.7-2.3-1.7S185.6,78.5,187.3,79z"/>
	<path class="st0" d="M191.5,81.5c-0.7,1.7-0.6,3-0.1,3.1s1.2-1,1.6-2.9s0.1-3,0.1-3S192.2,79.8,191.5,81.5z"/>
	<path class="st0" d="M189.1,82.8c1.6,0.5,2.5,1.5,2.2,1.9s-1.5,0.3-3.1-0.6s-2.2-1.8-2.2-1.8S187.4,82.2,189.1,82.8z"/>
	<path class="st0" d="M193.2,85.6c-0.8,1.7-0.8,3-0.3,3.1s1.3-0.9,1.8-2.8c0.5-1.8,0.3-3,0.3-3S194,83.9,193.2,85.6z"/>
	<path class="st0" d="M190.8,86.7c1.6,0.6,2.4,1.6,2.1,2c-0.3,0.4-1.5,0.2-3-0.7c-1.5-1-2.1-2-2.1-2S189.1,86,190.8,86.7z"/>
	<path class="st0" d="M194.7,89.7c-0.9,1.6-0.9,3-0.4,3.1s1.3-0.9,1.9-2.7c0.6-1.8,0.4-3,0.4-3S195.6,88,194.7,89.7z"/>
	<path class="st0" d="M192.2,90.6c1.6,0.7,2.3,1.7,2,2.1s-1.5,0.1-3-0.9s-2-2.1-2-2.1S190.6,89.9,192.2,90.6z"/>
	<path class="st0" d="M195.9,93.9c-1,1.6-1.1,2.9-0.6,3s1.4-0.8,2.1-2.6c0.7-1.8,0.6-3,0.6-3S196.9,92.3,195.9,93.9z"/>
	<path class="st0" d="M193.4,94.7c1.5,0.8,2.3,1.8,1.9,2.2c-0.4,0.4-1.5,0.1-2.9-1.1c-1.4-1.1-1.9-2.2-1.9-2.2
		S191.9,93.9,193.4,94.7z"/>
	<path class="st0" d="M197,98.1c-1,1.5-1.2,2.8-0.7,3s1.4-0.7,2.2-2.5c0.8-1.7,0.7-2.9,0.7-2.9S198.1,96.6,197,98.1z"/>
	<path class="st0" d="M194.5,98.8c1.5,0.9,2.2,2,1.8,2.3s-1.5,0-2.9-1.2c-1.3-1.2-1.7-2.3-1.7-2.3S192.9,97.9,194.5,98.8z"/>
	<path class="st0" d="M197.8,102.4c-1.1,1.4-1.4,2.8-0.9,3s1.5-0.6,2.3-2.3c0.9-1.7,0.9-2.9,0.9-2.9S199,100.9,197.8,102.4z"/>
	<path class="st0" d="M195.3,103c1.4,0.9,2,2.1,1.6,2.4s-1.5-0.1-2.8-1.4s-1.6-2.3-1.6-2.3S193.8,102,195.3,103z"/>
	<path class="st0" d="M198.4,106.7c-1.2,1.4-1.5,2.7-1.1,2.9c0.5,0.2,1.5-0.6,2.4-2.2c1-1.6,1-2.9,1-2.9S199.7,105.3,198.4,106.7z"
		/>
	<path class="st0" d="M195.8,107.1c1.4,1,1.9,2.2,1.5,2.5s-1.5-0.2-2.7-1.5s-1.5-2.4-1.5-2.4S194.4,106.1,195.8,107.1z"/>
	<path class="st0" d="M198.8,111.1c-1.3,1.3-1.7,2.6-1.2,2.8c0.5,0.2,1.5-0.5,2.6-2.1s1.2-2.8,1.2-2.8S200.1,109.7,198.8,111.1z"/>
	<path class="st0" d="M196.2,111.4c1.3,1.1,1.8,2.3,1.4,2.6c-0.4,0.3-1.5-0.3-2.7-1.6c-1.1-1.4-1.4-2.5-1.4-2.5
		S194.8,110.2,196.2,111.4z"/>
</g>
<path class="st0" d="M124.8,230.8l-1.9-1.9c0.8-1.3,1.2-2.8,1.2-4.5c0-4.8-3.8-8.6-8.6-8.6c-4.7,0-8.6,3.9-8.6,8.6
	c0,4.8,3.8,8.6,8.6,8.6c1.9,0,3.6-0.6,5-1.7l1.8,1.7L124.8,230.8z M115.6,229.6c-2.9,0-5.3-2.3-5.3-5.3s2.3-5.3,5.3-5.3
	s5.3,2.3,5.3,5.3c0,0.7-0.1,1.3-0.4,2l-0.1-0.1h-4.9l2.7,2.7C117.3,229.3,116.6,229.6,115.6,229.6z"/>
<g>
	<path class="st0" d="M36.4,192.5L35,191l7.3-6.9l1.4,1.5L36.4,192.5z"/>
	<path class="st0" d="M31.4,187l-1.3-1.6l2.3-6.1c0.2-0.6,0.7-1.4,0.7-1.4l0,0c0,0-0.8,0.7-1.3,1.1l-4.1,3.2l-1.2-1.6l7.9-6.2
		l1.2,1.5l-2.2,6.1c-0.2,0.6-0.7,1.4-0.7,1.4l0,0c0,0,0.8-0.7,1.3-1.1l4.1-3.2l1.2,1.6L31.4,187z"/>
	<path class="st0" d="M23.6,176.6l-4.2-6.9l1.5-0.9l1.6,2.6l7.1-4.3l1.1,1.7l-7.1,4.3l1.6,2.6L23.6,176.6z"/>
	<path class="st0" d="M17.1,165.3l-3.1-6.7l1.6-0.7l2.2,4.8l2-0.9l-2-4.2l1.5-0.7l2,4.2l2.5-1.1l-2.2-4.9l1.5-0.7l3.1,6.7
		L17.1,165.3z"/>
	<path class="st0" d="M12.1,153.7l-1.4-4.4c-0.6-1.8,0.1-3.4,1.7-3.9c1.1-0.4,2.1-0.1,2.9,1l0,0c0-1,0.3-1.6,1.4-2.1
		c1.3-0.6,2.3-0.8,2.4-1.2h0.1l0.6,1.9c0,0.3-1.1,0.6-2.1,1.1c-1,0.4-1.4,1.2-1,2.4l0.5,1.6l3.8-1.2l0.6,1.9L12.1,153.7z
		 M15.7,150.4l-0.7-2.1c-0.3-1.1-1.1-1.4-1.8-1.1c-0.8,0.2-1.2,0.9-0.9,2l0.7,2.1L15.7,150.4z"/>
	<path class="st0" d="M8.4,141.1l-0.4-2l4.9-4.3c0.5-0.4,1.2-1,1.2-1l0,0c0,0-1,0.3-1.7,0.4l-5.2,1l-0.4-2l9.8-1.9l0.4,1.9l-4.8,4.4
		c-0.5,0.4-1.2,1-1.2,1l0,0c0,0,1-0.3,1.7-0.4l5.1-1l0.4,2L8.4,141.1z"/>
	<path class="st0" d="M5.9,124.9l-0.1-2.1l9.7-4.2l0.1,2.1l-2.1,0.8l0.2,3.6l2.2,0.5l0.1,2.1L5.9,124.9z M12.3,124.8l-0.2-2.6
		l-2.8,1.1c-0.5,0.2-1.5,0.5-1.5,0.5l0,0c0,0,1,0.2,1.6,0.3L12.3,124.8z"/>
	<path class="st0" d="M5.5,116.4l0.3-8l1.7,0.1l-0.1,3l8.3,0.3l-0.1,2l-8.3-0.3l-0.1,3L5.5,116.4z"/>
	<path class="st0" d="M6.3,103.5l0.3-2l9.9,1.2l-0.3,2L6.3,103.5z"/>
	<path class="st0" d="M12.1,97.7c-2.9-0.7-4.7-3-4-5.9s3.2-4.2,6.2-3.5c2.9,0.7,4.7,3,4,5.8C17.6,97,15.1,98.4,12.1,97.7z
		 M13.8,90.3c-2-0.4-3.7,0.1-4.1,1.9s0.9,3,2.9,3.5c1.9,0.4,3.7-0.1,4.1-1.9S15.7,90.8,13.8,90.3z"/>
	<path class="st0" d="M10.9,82.3l0.7-1.9l6.4-1.2c0.6-0.1,1.6-0.2,1.6-0.2l0,0c0,0-1-0.3-1.6-0.5l-4.9-1.8l0.7-1.9l9.4,3.4L22.3,80
		L16,81.3c-0.6,0.1-1.5,0.2-1.5,0.2l0,0c0,0,1,0.3,1.7,0.5l4.9,1.8l-0.7,1.9L10.9,82.3z"/>
	<path class="st0" d="M17.1,67.2l1-1.9l10.5,1.4l-1,1.9l-2.2-0.4l-1.6,3.2l1.6,1.6l-0.9,1.8L17.1,67.2z M22.6,70.3l1.2-2.4l-3-0.5
		c-0.5-0.1-1.6-0.3-1.6-0.3l0,0c0,0,0.8,0.7,1.2,1.1L22.6,70.3z"/>
	<path class="st0" d="M22.2,58l1.1-1.7l6.9,4.6l2.6-3.9l1.4,0.9l-3.7,5.6L22.2,58z"/>
	<path class="st0" d="M32.2,44.2l1.4-1.5l4.5,2.5c0.8,0.5,1.9,1.2,1.9,1.2l0,0c0,0-0.7-1-1.2-1.8L36,40.3l1.4-1.4l4.4,2.7
		c0.8,0.5,1.9,1.2,1.9,1.2l0,0c0,0-0.8-1.1-1.2-1.9l-2.7-4.4l1.4-1.4l5.2,9l-1.3,1.4l-4.7-2.9c-0.6-0.4-1.5-1-1.5-1l0,0
		c0,0,0.6,0.8,1.1,1.5l3,4.6L41.7,49L32.2,44.2z"/>
	<path class="st0" d="M44.8,32l5.8-4.6l1.1,1.3L47.4,32l1.4,1.8l3.7-2.9l1,1.3l-3.7,2.9l1.7,2.1l4.2-3.3l1,1.3L51,39.8L44.8,32z"/>
	<path class="st0" d="M54.9,24.4l3.3-2c2.3-1.4,4.9-0.5,6.4,2.1c0.8,1.4,1.1,2.9,0.7,4.2c-0.3,0.9-1,1.7-2,2.4L60.1,33L54.9,24.4z
		 M62.3,29.6c1.6-1,1.7-2.4,0.6-4.1s-2.5-2.4-4-1.5l-1.4,0.8l3.4,5.6L62.3,29.6z"/>
	<path class="st0" d="M66.5,17.7l3.6-1.6c2.4-1.1,4.9,0.1,6.1,2.8c0.7,1.5,0.8,3,0.2,4.2c-0.4,0.9-1.2,1.6-2.3,2.1l-3.4,1.5
		L66.5,17.7z M73.2,23.7c1.7-0.8,1.9-2.2,1.1-4s-2.2-2.7-3.8-2L69,18.4l2.7,5.9L73.2,23.7z"/>
	<path class="st0" d="M78.7,12.6l1.9-0.7l3.3,9.5L82,22L78.7,12.6z"/>
	<path class="st0" d="M85.8,10.3l2-0.5l4.5,4.7c0.4,0.5,1,1.2,1,1.2l0,0c0,0-0.3-1-0.5-1.7l-1.2-5.1l1.9-0.5l2.3,9.7L94,18.6
		L89.4,14c-0.4-0.4-1-1.2-1-1.2l0,0c0,0,0.3,1,0.5,1.7l1.2,5l-2,0.5L85.8,10.3z"/>
	<path class="st0" d="M107.3,15.2L107.3,15.2c-0.6,1.2-1.5,1.7-2.7,1.9c-1.5,0.2-2.7-0.3-3.7-1.1c-0.9-0.8-1.5-2.1-1.7-3.6
		c-0.2-1.7,0.2-3.2,1.2-4.2c0.7-0.8,1.7-1.3,3.1-1.5c2.5-0.3,4.1,0.9,4.6,2.9l-2,0.2c-0.3-0.9-1.1-1.6-2.4-1.4
		c-1.9,0.2-2.6,1.9-2.4,3.8c0.2,2,1.5,3.4,3.2,3.2c1.5-0.2,2.4-1.4,2.3-2.5v-0.1l-2.4,0.3l-0.2-1.6l4.2-0.5l0.6,5.3l-1.5,0.2
		L107.3,15.2z"/>
	<path class="st0" d="M119.2,6.3l4.4,0.3c1.2,0.1,2,0.5,2.5,1.1s0.8,1.4,0.7,2.3c-0.1,1.9-1.5,3.1-3.5,2.9l-2.5-0.2l-0.2,3.6
		l-2.1-0.1L119.2,6.3z M121,11.1l2.1,0.1c1.1,0.1,1.7-0.5,1.7-1.4c0.1-0.9-0.5-1.5-1.5-1.6l-2.1-0.1L121,11.1z"/>
	<path class="st0" d="M132,7.4l2,0.4l-1.5,8.2l4.6,0.8l-0.3,1.7l-6.6-1.2L132,7.4z"/>
	<path class="st0" d="M146.2,10.6l2,0.6l0.5,10.6l-2-0.6V19l-3.5-1l-1.2,1.8l-2-0.6L146.2,10.6z M144.1,16.6l2.5,0.8v-3
		c0-0.6,0.1-1.6,0.1-1.6l0,0c0,0-0.5,0.9-0.8,1.4L144.1,16.6z"/>
	<path class="st0" d="M156.2,14l1.9,0.8l0.8,6.5c0.1,0.6,0.1,1.6,0.1,1.6l0,0c0,0,0.4-1,0.6-1.6l2.1-4.8l1.8,0.8l-4,9.2l-1.8-0.8
		l-0.9-6.4c-0.1-0.6-0.1-1.6-0.1-1.6l0,0c0,0-0.4,1-0.7,1.6l-2.1,4.7l-1.8-0.8L156.2,14z"/>
	<path class="st0" d="M168.5,19.8l1.8,1.1v6.5c0,0.6-0.1,1.6-0.1,1.6l0,0c0,0,0.5-0.9,0.8-1.5l2.7-4.5l1.7,1l-5.2,8.6l-1.7-1
		l-0.1-6.5c0-0.6,0.1-1.6,0.1-1.6l0,0c0,0-0.5,0.9-0.9,1.5l-2.7,4.4l-1.7-1L168.5,19.8z"/>
	<path class="st0" d="M179.8,27l1.6,1.2l-5.9,8.1l-1.6-1.2L179.8,27z"/>
	<path class="st0" d="M185.7,31.5l1.5,1.4l-1.2,6.4c-0.1,0.6-0.4,1.5-0.4,1.5l0,0c0,0,0.6-0.8,1.1-1.3l3.5-3.9l1.5,1.3l-6.7,7.5
		l-1.5-1.3l1.1-6.4c0.1-0.6,0.4-1.5,0.4-1.5l0,0c0,0-0.7,0.8-1.1,1.3l-3.4,3.9l-1.5-1.3L185.7,31.5z"/>
	<path class="st0" d="M193.8,52L193.8,52c-1.3,0.2-2.3-0.2-3-1.1c-1-1.1-1.3-2.4-1.2-3.6c0.2-1.2,0.8-2.4,2-3.4
		c1.3-1.1,2.7-1.6,4.2-1.4c1.1,0.1,2.1,0.7,3,1.7c1.7,1.9,1.6,3.9,0.3,5.4l-1.3-1.5c0.6-0.8,0.6-1.8-0.2-2.8c-1.2-1.4-3-1.1-4.5,0.2
		s-2,3.1-0.8,4.4c1,1.2,2.6,1.2,3.4,0.5l0,0l-1.6-1.8l1.2-1l2.8,3.2l-4,3.5l-1-1.2L193.8,52z"/>
	<path class="st0" d="M208,56.7l2.3,3.8c0.6,1,0.8,1.9,0.5,2.7c-0.2,0.8-0.7,1.5-1.5,1.9c-1.6,1-3.4,0.6-4.4-1.2l-1.3-2.1l-3.1,1.9
		l-1.1-1.8L208,56.7z M205,60.9l1.1,1.8c0.5,0.9,1.3,1.1,2.1,0.6s1-1.3,0.4-2.1l-1.1-1.8L205,60.9z"/>
	<path class="st0" d="M214.4,67.9l1.9,4.2c0.8,1.8,0.3,3.4-1.2,4.1c-1.1,0.5-2.1,0.3-3-0.7l0,0c0.1,1-0.2,1.6-1.2,2.2
		c-1.2,0.7-2.2,1.1-2.2,1.5h-0.1l-0.8-1.8c0-0.3,1-0.8,2-1.3s1.3-1.3,0.8-2.5l-0.7-1.5l-3.7,1.6l-0.8-1.9L214.4,67.9z M211.1,71.6
		l0.9,2c0.5,1,1.2,1.3,1.9,0.9c0.7-0.3,1.1-1,0.6-2l-0.9-2L211.1,71.6z"/>
	<path class="st0" d="M214.5,81.1c2.9-0.9,5.5,0.3,6.4,3.1s-0.7,5.3-3.6,6.1c-2.9,0.9-5.5-0.3-6.4-3.1S211.6,81.9,214.5,81.1z
		 M216.7,88.3c1.9-0.6,3.1-1.9,2.6-3.6c-0.5-1.8-2.3-2.2-4.2-1.6s-3.1,1.9-2.6,3.7C213,88.5,214.8,88.9,216.7,88.3z"/>
	<path class="st0" d="M223.2,93.9l1.2,7.1l-1.7,0.3l-0.9-5.1l-2.4,0.4l0.7,4.3l-1.7,0.3l-0.7-4.3l-4.1,0.7l-0.3-2L223.2,93.9z"/>
	<path class="st0" d="M225,106l0.4,7.4l-1.7,0.1l-0.3-5.3l-2.2,0.1l0.3,4.7l-1.7,0.1l-0.3-4.7l-2.7,0.2l0.3,5.4l-1.7,0.1l-0.4-7.4
		L225,106z"/>
	<path class="st0" d="M218.6,117.7l-0.1,2c-1.2,0.1-1.7,0.7-1.8,2.2c-0.1,1,0.3,2,1.2,2c1,0.1,1.2-0.9,1.7-2.4
		c0.5-1.8,1.1-3.4,3.1-3.3s2.9,1.8,2.8,4c-0.1,2.3-1.3,3.6-3.3,3.7l0.1-1.9c1-0.1,1.6-0.8,1.6-1.8c0.1-1.1-0.4-1.8-1.1-1.9
		c-0.8,0-1.1,0.6-1.5,2.1c-0.6,2-1.1,3.7-3.3,3.6c-2-0.1-3.1-1.8-3-4.1C215.2,119.1,216.5,117.6,218.6,117.7z"/>
	<path class="st0" d="M217.7,129.9l-0.3,2c-1.2-0.1-1.8,0.5-2,1.9c-0.2,1,0,2,0.9,2.1c1,0.2,1.3-0.7,1.9-2.2
		c0.7-1.7,1.5-3.2,3.5-2.9c1.9,0.3,2.7,2.1,2.3,4.3s-1.7,3.5-3.7,3.3l0.3-1.9c1,0.1,1.6-0.6,1.8-1.6c0.2-1.1-0.1-1.9-0.8-2
		c-0.8-0.1-1.2,0.5-1.7,1.9c-0.8,2-1.6,3.5-3.7,3.2c-2-0.3-2.8-2.2-2.4-4.4C214.1,130.9,215.6,129.6,217.7,129.9z"/>
	<path class="st0" d="M221.9,144l-0.5,2l-9.7-2.6l0.5-2L221.9,144z"/>
	<path class="st0" d="M215.3,149c2.8,1.1,4.2,3.6,3.2,6.4c-1.1,2.8-3.8,3.7-6.6,2.6c-2.8-1.1-4.2-3.6-3.2-6.4
		C209.8,148.9,212.5,147.9,215.3,149z M212.6,156c1.9,0.7,3.6,0.4,4.3-1.3s-0.5-3.1-2.3-3.9c-1.9-0.7-3.6-0.4-4.3,1.3
		C209.6,153.9,210.7,155.3,212.6,156z"/>
	<path class="st0" d="M214.4,164.5l-1,1.8l-6.5,0.3c-0.6,0-1.6,0-1.6,0l0,0c0,0,0.9,0.4,1.6,0.8l4.6,2.5l-0.9,1.8l-8.8-4.7l0.9-1.7
		l6.5-0.4c0.6,0,1.6,0,1.6,0l0,0c0,0-1-0.4-1.6-0.8l-4.6-2.4l0.9-1.8L214.4,164.5z"/>
	<path class="st0" d="M206,178.5l-1.2,1.7l-10.2-2.9l1.2-1.7l2.1,0.7l2.1-3l-1.4-1.8l1.2-1.7L206,178.5z M201,174.6l-1.5,2.2
		l2.9,0.9c0.5,0.2,1.5,0.6,1.5,0.6l0,0c0,0-0.7-0.8-1-1.2L201,174.6z"/>
	<path class="st0" d="M199.8,186.8l-1.3,1.5l-6.2-5.5l-3.1,3.5l-1.3-1.1l4.5-5L199.8,186.8z"/>
</g>
<path id="SVGID_x5F_1_x5F__00000001659141175509072490000003853101273489259402_" class="st1" d="M15.3,116.1
	c0-55.5,45-100.6,100.6-100.6c55.5,0,100.6,45,100.6,100.6s-45,100.6-100.6,100.6C60.3,216.6,15.3,171.6,15.3,116.1z"/>
<rect x="25.5" y="98.3" class="st1" width="180.8" height="35.7"/>
<g class="st2">
	<path class="st0" d="M72,96.8v0.4c-1,0-1.9,0.3-2.6,0.8c-0.7,0.6-1.1,1.5-1.1,2.8v25.7c0,1.3,0.4,2.2,1.1,2.8
		c0.8,0.6,1.6,0.9,2.5,0.9v0.4H61.3v-0.4c1,0,1.8-0.3,2.5-0.9c0.7-0.6,1.1-1.5,1.1-2.9v-25.7c0-1.4-0.4-2.4-1.1-2.9
		c-0.7-0.5-1.6-0.8-2.5-0.8v-0.4H72V96.8z"/>
	<path class="st0" d="M121.3,96.8v0.4c-0.7,0.1-1.3,0.4-1.8,0.8s-1.1,1-1.6,1.9s-1.1,2.1-1.6,3.8l-9.5,27.9h-0.3l-8.6-27.9h-0.1
		l-9.4,27.9H88l-9.6-30.8c-0.4-1.1-0.8-1.9-1.3-2.4s-0.9-0.8-1.3-0.9s-0.9-0.2-1.5-0.2v-0.4h10.5v0.4c-0.9,0.1-1.6,0.3-2.1,0.8
		S82,99.2,82,99.9c0,0.6,0.1,1.2,0.4,2.1l7.1,22.8h0.1l7.7-22.8l-0.3-1c-0.3-1-0.8-1.8-1.4-2.5s-1.6-1.1-2.9-1.1V97h10.8v0.4
		c-1.2,0-2,0.3-2.4,0.9s-0.5,1.2-0.5,1.7c0,0.7,0.1,1.3,0.3,2.1l7,22.8h0.1l7.2-21.2c0.2-0.6,0.4-1.2,0.6-2s0.3-1.4,0.3-2
		c0-1-0.2-1.7-0.7-2s-1.2-0.4-2.2-0.5v-0.4C113.2,96.8,121.3,96.8,121.3,96.8z"/>
	<path class="st0" d="M123.5,97.2v-0.4h11.1c1.8,0,3.5,0.3,4.9,0.8s2.6,1.2,3.5,2.1s1.6,1.9,2.1,2.9c0.5,1.1,0.7,2.2,0.7,3.5
		c0,1.2-0.2,2.3-0.7,3.4c-0.4,1.1-1.1,2.1-2.1,2.9c-0.9,0.8-2.2,1.5-3.7,2s-3.3,0.8-5.2,0.8c-0.6,0-1.8-0.1-3.6-0.3v11.7
		c0,2.4,1.2,3.6,3.7,3.7v0.4h-10.8v-0.4c1.1,0,1.9-0.3,2.6-0.9c0.7-0.6,1-1.5,1-2.8V101c0-0.8-0.1-1.4-0.4-2
		c-0.2-0.5-0.5-0.9-0.9-1.1s-0.7-0.4-1.1-0.5s-0.7-0.2-0.8-0.2C123.8,97.2,123.5,97.2,123.5,97.2z M130.6,98v15.9
		c1.2,0.2,2.3,0.3,3.5,0.3c2.2,0,4-0.6,5.6-1.7c1.5-1.1,2.3-3.2,2.3-6.3c0-2.5-0.7-4.6-2-6.2s-3.4-2.4-6.1-2.4
		C132.8,97.7,131.7,97.8,130.6,98z"/>
	<path class="st0" d="M149,97.2v-0.4h11.1c1.8,0,3.5,0.3,4.9,0.8s2.6,1.2,3.5,2.1s1.6,1.9,2.1,2.9c0.5,1.1,0.7,2.2,0.7,3.5
		c0,1.2-0.2,2.3-0.7,3.4c-0.4,1.1-1.1,2.1-2.1,2.9c-0.9,0.8-2.2,1.5-3.7,2s-3.3,0.8-5.2,0.8c-0.6,0-1.8-0.1-3.6-0.3v11.7
		c0,2.4,1.2,3.6,3.7,3.7v0.4H149v-0.4c1.1,0,1.9-0.3,2.6-0.9c0.7-0.6,1-1.5,1-2.8V101c0-0.8-0.1-1.4-0.4-2c-0.2-0.5-0.5-0.9-0.9-1.1
		s-0.7-0.4-1.1-0.5c-0.4-0.1-0.7-0.2-0.8-0.2C149.4,97.2,149,97.2,149,97.2z M156.1,98v15.9c1.2,0.2,2.3,0.3,3.5,0.3
		c2.2,0,4-0.6,5.6-1.7c1.5-1.1,2.3-3.2,2.3-6.3c0-2.5-0.7-4.6-2-6.2s-3.4-2.4-6.1-2.4C158.3,97.7,157.2,97.8,156.1,98z"/>
</g>
<g>
	<path class="st0" d="M45.6,199c-0.1,0.1-0.3,0.2-0.4,0.3c14,12.5,31.4,21.3,50.5,25c0-0.2,0.1-0.3,0.1-0.5
		C76.8,220.1,59.6,211.3,45.6,199z"/>
	<path class="st0" d="M186.4,199.2c-14.1,12.4-31.6,21.2-50.9,24.8c0,0.1,0.1,0.3,0.1,0.4l0,0c19.4-3.6,37-12.4,51.2-25
		C186.7,199.4,186.6,199.3,186.4,199.2z"/>
</g>
</svg>
