<svg viewBox="0 0 160 161" fill="none" xmlns="http://www.w3.org/2000/svg">
<g clip-path="url(#clip0_6665_24042)">
<path d="M93.2898 22.5234V22.7422C95.6746 23.4124 98.017 24.2379 100.317 25.2187C107.189 28.1538 113.356 32.3448 118.648 37.6718C123.939 42.9988 128.081 49.1936 130.967 56.094C133.951 63.2343 135.454 70.8049 135.426 78.6085C135.398 86.3908 133.845 93.9403 130.819 101.045C127.898 107.903 123.721 114.063 118.415 119.348C113.109 124.632 106.935 128.781 100.063 131.681C92.9511 134.679 85.4016 136.203 77.6263 136.203H77.4076C69.6041 136.175 62.0405 134.616 54.9214 131.575C48.0492 128.64 41.8826 124.449 36.5909 119.122C31.2992 113.795 27.1576 107.6 24.2718 100.7C21.2873 93.5593 19.7844 85.9886 19.8127 78.1851C19.8409 70.4028 21.3931 62.8533 24.42 55.7483C27.341 48.8902 31.5179 42.7307 36.8237 37.446C42.1296 32.1614 48.3032 28.0127 55.1754 25.1128C57.3908 24.1745 59.6557 23.3842 61.9488 22.7422V22.5305C37.5999 29.3462 19.6998 51.656 19.601 78.1922C19.4811 110.232 45.361 136.302 77.4005 136.422C77.4781 136.422 77.5416 136.422 77.6193 136.422C109.56 136.422 135.511 110.584 135.63 78.6226C135.729 51.9383 117.794 29.3956 93.2827 22.5375L93.2898 22.5234Z" fill="#FAF0B6"/>
<path d="M18.7113 77.8814C19.6568 78.7633 19.9813 79.6664 19.6638 79.8428C19.3463 80.0192 18.5773 79.5606 17.787 78.474C16.9968 77.3875 16.8486 76.5479 16.8486 76.5479C16.8486 76.5479 17.7447 76.9712 18.7113 77.8814Z" fill="#FAF0B6"/>
<path d="M20.5746 77.9945C19.6715 78.813 19.3751 79.6667 19.6926 79.8431C20.0031 80.0195 20.751 79.6032 21.4989 78.5872C22.2468 77.5712 22.3738 76.7739 22.3738 76.7739C22.3738 76.7739 21.5059 77.1549 20.5746 77.9945Z" fill="#FAF0B6"/>
<path d="M18.7682 80.965C19.756 81.7975 20.1299 82.6795 19.8265 82.877C19.5231 83.0746 18.7259 82.6513 17.8792 81.607C17.0325 80.5628 16.835 79.7373 16.835 79.7373C16.835 79.7373 17.7522 80.1183 18.7682 80.972V80.965Z" fill="#FAF0B6"/>
<path d="M20.6304 80.9791C19.7696 81.8469 19.5227 82.7077 19.8472 82.87C20.1718 83.0322 20.8915 82.5736 21.59 81.5153C22.2885 80.4569 22.3661 79.6597 22.3661 79.6597C22.3661 79.6597 21.5194 80.0901 20.6375 80.9791H20.6304Z" fill="#FAF0B6"/>
<path d="M18.9801 84.041C20.0103 84.8242 20.4265 85.6779 20.1302 85.8896C19.8339 86.1012 19.0225 85.7202 18.1194 84.7254C17.2162 83.7306 16.9834 82.9121 16.9834 82.9121C16.9834 82.9121 17.9218 83.2437 18.9801 84.041Z" fill="#FAF0B6"/>
<path d="M20.843 83.9563C20.0316 84.8665 19.827 85.7414 20.1586 85.8895C20.4902 86.0377 21.1887 85.5368 21.8237 84.4502C22.4658 83.3636 22.5011 82.5522 22.5011 82.5522C22.5011 82.5522 21.6756 83.025 20.843 83.9563Z" fill="#FAF0B6"/>
<path d="M19.3606 87.1034C20.433 87.8301 20.8916 88.6626 20.6094 88.8884C20.3272 89.1142 19.4946 88.7755 18.5421 87.8301C17.5896 86.8846 17.3145 86.0732 17.3145 86.0732C17.3145 86.0732 18.267 86.3555 19.3676 87.0963L19.3606 87.1034Z" fill="#FAF0B6"/>
<path d="M21.2098 86.9197C20.4477 87.8722 20.2855 88.7541 20.6241 88.8882C20.9628 89.0152 21.6331 88.486 22.2116 87.3642C22.7902 86.2423 22.7902 85.438 22.7902 85.438C22.7902 85.438 21.9929 85.953 21.2098 86.9267V86.9197Z" fill="#FAF0B6"/>
<path d="M19.8897 90.137C20.9974 90.8072 21.4984 91.6186 21.2302 91.8585C20.9621 92.0984 20.1084 91.8091 19.1065 90.906C18.1046 90.01 17.7871 89.2197 17.7871 89.2197C17.7871 89.2197 18.7537 89.4526 19.8897 90.137Z" fill="#FAF0B6"/>
<path d="M21.7386 89.8618C21.026 90.8495 20.9131 91.7456 21.2588 91.8585C21.6045 91.9714 22.2466 91.3999 22.7687 90.2498C23.2908 89.0997 23.2414 88.2954 23.2414 88.2954C23.2414 88.2954 22.4724 88.8528 21.7386 89.8688V89.8618Z" fill="#FAF0B6"/>
<path d="M20.5883 93.1427C21.7313 93.7566 22.2746 94.5327 22.0135 94.7937C21.7595 95.0477 20.8917 94.7937 19.8474 93.9541C18.8032 93.1074 18.4434 92.3384 18.4434 92.3384C18.4434 92.3384 19.417 92.5148 20.5883 93.1427Z" fill="#FAF0B6"/>
<path d="M22.4091 92.7687C21.7459 93.7988 21.6824 94.6949 22.0352 94.7866C22.3879 94.8783 22.9947 94.2786 23.4533 93.1003C23.912 91.922 23.8273 91.1177 23.8273 91.1177C23.8273 91.1177 23.0865 91.7103 22.4091 92.7616V92.7687Z" fill="#FAF0B6"/>
<path d="M21.4353 96.1063C22.6065 96.6566 23.1921 97.4116 22.9452 97.6797C22.6982 97.9478 21.8233 97.7432 20.7368 96.96C19.6502 96.1698 19.248 95.4219 19.248 95.4219C19.248 95.4219 20.2358 95.5489 21.4353 96.1133V96.1063Z" fill="#FAF0B6"/>
<path d="M23.241 95.6405C22.6342 96.6989 22.6201 97.602 22.9729 97.6725C23.3257 97.7501 23.9043 97.1151 24.3064 95.9157C24.7086 94.7162 24.5745 93.9189 24.5745 93.9189C24.5745 93.9189 23.8619 94.554 23.241 95.6405Z" fill="#FAF0B6"/>
<path d="M22.444 99.0273C23.6434 99.5141 24.2643 100.234 24.0385 100.516C23.8128 100.798 22.9238 100.643 21.7949 99.9092C20.666 99.1825 20.2285 98.4487 20.2285 98.4487C20.2285 98.4487 21.2163 98.5263 22.451 99.0273H22.444Z" fill="#FAF0B6"/>
<path d="M24.2153 98.4628C23.665 99.5564 23.6932 100.452 24.0531 100.509C24.4129 100.565 24.9562 99.9022 25.2878 98.6886C25.6265 97.468 25.4501 96.6777 25.4501 96.6777C25.4501 96.6777 24.7727 97.348 24.2083 98.4628H24.2153Z" fill="#FAF0B6"/>
<path d="M23.5943 101.885C24.8149 102.308 25.4781 103 25.2664 103.289C25.0548 103.578 24.1587 103.472 22.9945 102.802C21.8304 102.132 21.3506 101.426 21.3506 101.426C21.3506 101.426 22.3454 101.447 23.5943 101.885Z" fill="#FAF0B6"/>
<path d="M25.3367 101.228C24.8428 102.343 24.9204 103.239 25.2803 103.275C25.6401 103.31 26.1481 102.625 26.4162 101.391C26.6843 100.156 26.4727 99.3799 26.4727 99.3799C26.4727 99.3799 25.8306 100.085 25.3296 101.228H25.3367Z" fill="#FAF0B6"/>
<path d="M24.8996 104.679C26.1414 105.038 26.8399 105.687 26.6423 105.991C26.4448 106.294 25.5487 106.231 24.3493 105.624C23.1498 105.017 22.6348 104.34 22.6348 104.34C22.6348 104.34 23.6296 104.312 24.8996 104.679Z" fill="#FAF0B6"/>
<path d="M26.607 103.931C26.1766 105.074 26.2966 105.963 26.6564 105.977C27.0163 105.991 27.489 105.279 27.6936 104.037C27.8982 102.788 27.6442 102.026 27.6442 102.026C27.6442 102.026 27.0445 102.76 26.6 103.931H26.607Z" fill="#FAF0B6"/>
<path d="M26.3456 107.402C27.6085 107.698 28.3353 108.312 28.1518 108.623C27.9684 108.933 27.0723 108.919 25.8376 108.376C24.6099 107.832 24.0596 107.176 24.0596 107.176C24.0596 107.176 25.0474 107.099 26.3385 107.395L26.3456 107.402Z" fill="#FAF0B6"/>
<path d="M28.0109 106.569C27.637 107.734 27.8063 108.615 28.1732 108.615C28.533 108.615 28.9705 107.875 29.1116 106.619C29.2527 105.363 28.9564 104.608 28.9564 104.608C28.9564 104.608 28.3919 105.377 28.0109 106.569Z" fill="#FAF0B6"/>
<path d="M27.9335 110.048C29.2105 110.274 29.9655 110.852 29.8032 111.177C29.6409 111.501 28.7378 111.529 27.4819 111.05C26.226 110.57 25.6475 109.949 25.6475 109.949C25.6475 109.949 26.6352 109.815 27.9405 110.048H27.9335Z" fill="#FAF0B6"/>
<path d="M29.5566 109.124C29.2462 110.302 29.4649 111.177 29.8247 111.156C30.1846 111.135 30.5797 110.38 30.6573 109.117C30.7349 107.854 30.4033 107.12 30.4033 107.12C30.4033 107.12 29.8812 107.917 29.5637 109.124H29.5566Z" fill="#FAF0B6"/>
<path d="M29.662 112.602C30.9461 112.764 31.7363 113.301 31.5882 113.625C31.44 113.957 30.5439 114.034 29.2669 113.625C27.9898 113.216 27.376 112.623 27.376 112.623C27.376 112.623 28.3497 112.44 29.669 112.602H29.662Z" fill="#FAF0B6"/>
<path d="M31.2288 111.6C30.9819 112.793 31.2429 113.654 31.6028 113.618C31.9626 113.576 32.3154 112.8 32.3224 111.537C32.3295 110.274 31.9626 109.554 31.9626 109.554C31.9626 109.554 31.4828 110.373 31.2288 111.6Z" fill="#FAF0B6"/>
<path d="M31.5175 115.064C32.8086 115.156 33.6271 115.65 33.493 115.989C33.359 116.327 32.47 116.447 31.1717 116.109C29.8735 115.763 29.2314 115.205 29.2314 115.205C29.2314 115.205 30.1981 114.973 31.5175 115.064Z" fill="#FAF0B6"/>
<path d="M33.0346 113.985C32.8512 115.192 33.1546 116.038 33.5144 115.982C33.8743 115.926 34.1847 115.128 34.1283 113.865C34.0718 112.602 33.6626 111.904 33.6626 111.904C33.6626 111.904 33.2251 112.75 33.0346 113.985Z" fill="#FAF0B6"/>
<path d="M33.4999 117.428C34.7981 117.457 35.6377 117.901 35.5178 118.247C35.3978 118.593 34.5229 118.762 33.2035 118.487C31.8841 118.212 31.2139 117.689 31.2139 117.689C31.2139 117.689 32.1664 117.407 33.4928 117.428H33.4999Z" fill="#FAF0B6"/>
<path d="M34.9539 116.264C34.834 117.477 35.1797 118.303 35.5325 118.232C35.8853 118.162 36.1534 117.343 36.0335 116.088C35.9135 114.832 35.469 114.154 35.469 114.154C35.469 114.154 35.0809 115.022 34.9539 116.264Z" fill="#FAF0B6"/>
<path d="M35.6025 119.686C36.8937 119.644 37.7615 120.053 37.6628 120.399C37.564 120.744 36.6961 120.963 35.3697 120.759C34.0432 120.554 33.3447 120.06 33.3447 120.06C33.3447 120.06 34.2831 119.728 35.6096 119.686H35.6025Z" fill="#FAF0B6"/>
<path d="M36.9928 118.444C36.9364 119.665 37.3244 120.469 37.6772 120.378C38.0229 120.286 38.2558 119.46 38.0653 118.211C37.8748 116.963 37.402 116.313 37.402 116.313C37.402 116.313 37.0563 117.202 36.9999 118.451L36.9928 118.444Z" fill="#FAF0B6"/>
<path d="M37.8187 121.824C39.1098 121.711 39.9918 122.071 39.9142 122.431C39.8366 122.783 38.9758 123.044 37.6423 122.91C36.3017 122.776 35.582 122.325 35.582 122.325C35.582 122.325 36.4993 121.944 37.8187 121.831V121.824Z" fill="#FAF0B6"/>
<path d="M39.1445 120.518C39.1445 121.739 39.582 122.522 39.9277 122.409C40.2734 122.296 40.4569 121.464 40.2029 120.222C39.9489 118.987 39.4409 118.359 39.4409 118.359C39.4409 118.359 39.1445 119.262 39.1516 120.511L39.1445 120.518Z" fill="#FAF0B6"/>
<path d="M40.1469 123.849C41.431 123.672 42.3271 123.983 42.2706 124.343C42.2142 124.703 41.3675 125.006 40.0269 124.942C38.6864 124.879 37.9385 124.463 37.9385 124.463C37.9385 124.463 38.8345 124.032 40.1469 123.849Z" fill="#FAF0B6"/>
<path d="M41.4021 122.473C41.4727 123.693 41.9454 124.455 42.2841 124.321C42.6227 124.187 42.7638 123.348 42.4463 122.127C42.1288 120.906 41.5856 120.307 41.5856 120.307C41.5856 120.307 41.3386 121.224 41.4092 122.473H41.4021Z" fill="#FAF0B6"/>
<path d="M42.5735 125.747C43.8435 125.5 44.7608 125.768 44.7184 126.128C44.6761 126.487 43.8506 126.84 42.51 126.84C41.1624 126.84 40.4004 126.473 40.4004 126.473C40.4004 126.473 41.2753 126.001 42.5735 125.747Z" fill="#FAF0B6"/>
<path d="M43.7594 124.307C43.8934 125.521 44.4085 126.255 44.7401 126.107C45.0717 125.958 45.1634 125.112 44.7824 123.905C44.4014 122.699 43.8299 122.134 43.8299 122.134C43.8299 122.134 43.6253 123.066 43.7664 124.307H43.7594Z" fill="#FAF0B6"/>
<path d="M45.1064 127.518C46.3623 127.207 47.2936 127.426 47.2725 127.786C47.2513 128.146 46.4469 128.541 45.0993 128.611C43.7588 128.682 42.9756 128.35 42.9756 128.35C42.9756 128.35 43.8223 127.828 45.1064 127.511V127.518Z" fill="#FAF0B6"/>
<path d="M46.2071 126.015C46.4047 127.221 46.955 127.927 47.2796 127.765C47.6041 127.602 47.6535 126.749 47.209 125.563C46.7645 124.378 46.1648 123.842 46.1648 123.842C46.1648 123.842 46.0096 124.78 46.2142 126.015H46.2071Z" fill="#FAF0B6"/>
<path d="M47.7174 129.154C48.9592 128.78 49.8975 128.95 49.8905 129.31C49.8834 129.669 49.1003 130.107 47.7668 130.248C46.4332 130.389 45.6289 130.1 45.6289 130.1C45.6289 130.1 46.4474 129.535 47.7174 129.147V129.154Z" fill="#FAF0B6"/>
<path d="M48.7473 127.595C49.0084 128.788 49.594 129.465 49.9045 129.289C50.2149 129.105 50.222 128.251 49.721 127.094C49.213 125.937 48.5851 125.429 48.5851 125.429C48.5851 125.429 48.4792 126.375 48.7473 127.595Z" fill="#FAF0B6"/>
<path d="M50.4121 130.643C51.6327 130.206 52.5782 130.326 52.5923 130.686C52.6064 131.045 51.8444 131.525 50.518 131.737C49.1915 131.948 48.373 131.702 48.373 131.702C48.373 131.702 49.1633 131.095 50.4051 130.643H50.4121Z" fill="#FAF0B6"/>
<path d="M51.3579 129.042C51.6754 130.22 52.3034 130.869 52.6068 130.671C52.9101 130.474 52.8749 129.62 52.3034 128.491C51.7389 127.362 51.0827 126.89 51.0827 126.89C51.0827 126.89 51.0263 127.835 51.3579 129.049V129.042Z" fill="#FAF0B6"/>
<path d="M53.1855 131.998C54.3779 131.497 55.3304 131.568 55.3657 131.928C55.401 132.287 54.6672 132.803 53.3478 133.085C52.0284 133.367 51.21 133.162 51.21 133.162C51.21 133.162 51.9649 132.513 53.1855 131.998Z" fill="#FAF0B6"/>
<path d="M54.0463 130.347C54.4273 131.504 55.0834 132.118 55.3798 131.906C55.6761 131.695 55.5914 130.841 54.9635 129.74C54.3426 128.64 53.6582 128.202 53.6582 128.202C53.6582 128.202 53.6582 129.155 54.0463 130.34V130.347Z" fill="#FAF0B6"/>
<path d="M56.0293 133.204C57.1934 132.64 58.1459 132.661 58.2024 133.014C58.2588 133.374 57.5462 133.924 56.248 134.277C54.9498 134.63 54.1172 134.467 54.1172 134.467C54.1172 134.467 54.8369 133.783 56.0293 133.204Z" fill="#FAF0B6"/>
<path d="M56.7978 131.504C57.2423 132.64 57.9267 133.218 58.2089 132.993C58.4912 132.767 58.3642 131.92 57.6798 130.855C57.0024 129.789 56.2969 129.387 56.2969 129.387C56.2969 129.387 56.3392 130.34 56.7978 131.504Z" fill="#FAF0B6"/>
<path d="M58.9218 134.256C60.0578 133.628 61.0103 133.6 61.0808 133.952C61.1514 134.305 60.474 134.898 59.197 135.314C57.9199 135.73 57.0732 135.617 57.0732 135.617C57.0732 135.617 57.7576 134.898 58.9148 134.256H58.9218Z" fill="#FAF0B6"/>
<path d="M59.6056 132.527C60.1065 133.642 60.8262 134.185 61.0943 133.938C61.3624 133.691 61.1931 132.859 60.4593 131.828C59.7255 130.798 59.0059 130.438 59.0059 130.438C59.0059 130.438 59.0976 131.384 59.6126 132.527H59.6056Z" fill="#FAF0B6"/>
<path d="M61.8706 135.159C62.9712 134.475 63.9237 134.397 64.0084 134.743C64.1001 135.095 63.451 135.716 62.2022 136.203C60.9463 136.69 60.0996 136.612 60.0996 136.612C60.0996 136.612 60.7417 135.857 61.8706 135.159Z" fill="#FAF0B6"/>
<path d="M62.4638 133.395C63.0212 134.482 63.7691 134.982 64.0231 134.728C64.2771 134.474 64.0654 133.642 63.2752 132.654C62.485 131.666 61.7441 131.342 61.7441 131.342C61.7441 131.342 61.8853 132.28 62.4638 133.395Z" fill="#FAF0B6"/>
<path d="M64.8691 135.907C65.9345 135.166 66.8729 135.039 66.9858 135.385C67.0987 135.731 66.4849 136.387 65.2572 136.937C64.0295 137.487 63.1758 137.459 63.1758 137.459C63.1758 137.459 63.7755 136.669 64.8691 135.914V135.907Z" fill="#FAF0B6"/>
<path d="M65.3636 134.108C65.9774 135.166 66.7465 135.624 66.9864 135.356C67.2263 135.088 66.9723 134.27 66.1327 133.324C65.293 132.379 64.5381 132.097 64.5381 132.097C64.5381 132.097 64.7286 133.028 65.3636 134.108Z" fill="#FAF0B6"/>
<path d="M67.8965 136.492C68.9196 135.695 69.858 135.519 69.985 135.857C70.112 136.196 69.5334 136.887 68.341 137.494C67.1416 138.108 66.2949 138.122 66.2949 138.122C66.2949 138.122 66.8594 137.304 67.9036 136.485L67.8965 136.492Z" fill="#FAF0B6"/>
<path d="M68.2917 134.679C68.962 135.702 69.7522 136.126 69.978 135.843C70.2038 135.561 69.9074 134.764 69.0184 133.861C68.1294 132.958 67.3604 132.718 67.3604 132.718C67.3604 132.718 67.6002 133.635 68.2846 134.686L68.2917 134.679Z" fill="#FAF0B6"/>
<path d="M70.9447 136.923C71.9254 136.076 72.8497 135.85 72.9979 136.182C73.146 136.514 72.6028 137.233 71.4386 137.904C70.2744 138.581 69.4277 138.637 69.4277 138.637C69.4277 138.637 69.9428 137.791 70.9447 136.923Z" fill="#FAF0B6"/>
<path d="M71.2547 135.088C71.9744 136.076 72.7929 136.45 73.0045 136.161C73.2162 135.864 72.8775 135.081 71.9391 134.235C71.0007 133.388 70.2246 133.176 70.2246 133.176C70.2246 133.176 70.5139 134.079 71.2547 135.088Z" fill="#FAF0B6"/>
<path d="M74.0209 137.191C74.9523 136.295 75.8695 136.02 76.0318 136.344C76.1941 136.669 75.6931 137.41 74.5642 138.15C73.4353 138.891 72.5957 138.99 72.5957 138.99C72.5957 138.99 73.0684 138.115 74.0209 137.198V137.191Z" fill="#FAF0B6"/>
<path d="M74.2256 135.342C74.9946 136.288 75.8343 136.627 76.0248 136.323C76.2223 136.02 75.8413 135.251 74.8606 134.453C73.8869 133.649 73.0967 133.487 73.0967 133.487C73.0967 133.487 73.4353 134.376 74.2256 135.342Z" fill="#FAF0B6"/>
<path d="M62.873 21.3661C62.2592 22.5091 61.4831 23.0524 61.222 22.7913C60.968 22.5373 61.222 21.6695 62.0616 20.6253C62.9083 19.581 63.6774 19.2212 63.6774 19.2212C63.6774 19.2212 63.501 20.1949 62.873 21.3661Z" fill="#FAF0B6"/>
<path d="M63.2468 23.1933C62.2167 22.5301 61.3206 22.4666 61.2289 22.8193C61.1372 23.1721 61.7369 23.7789 62.9152 24.2375C64.0935 24.6961 64.8978 24.6115 64.8978 24.6115C64.8978 24.6115 64.3051 23.8706 63.2538 23.1933H63.2468Z" fill="#FAF0B6"/>
<path d="M59.9098 22.2126C59.3594 23.3839 58.6045 23.9695 58.3364 23.7225C58.0682 23.4756 58.2728 22.6007 59.056 21.5141C59.8462 20.4276 60.5941 20.0254 60.5941 20.0254C60.5941 20.0254 60.4671 21.0132 59.9027 22.2126H59.9098Z" fill="#FAF0B6"/>
<path d="M60.3753 24.0189C59.3169 23.4121 58.4138 23.398 58.3433 23.7507C58.2657 24.1035 58.9007 24.6821 60.1001 25.0843C61.2996 25.4864 62.0969 25.3524 62.0969 25.3524C62.0969 25.3524 61.4619 24.6397 60.3753 24.0189Z" fill="#FAF0B6"/>
<path d="M56.9881 23.2218C56.5012 24.4213 55.7816 25.0422 55.4993 24.8164C55.2171 24.5906 55.3723 23.7016 56.1061 22.5727C56.8329 21.4438 57.5666 21.0063 57.5666 21.0063C57.5666 21.0063 57.489 21.9941 56.9881 23.2289V23.2218Z" fill="#FAF0B6"/>
<path d="M57.5524 24.9927C56.4588 24.4423 55.5627 24.4706 55.5063 24.8304C55.4498 25.1902 56.113 25.7335 57.3266 26.0651C58.5472 26.4038 59.3375 26.2274 59.3375 26.2274C59.3375 26.2274 58.6672 25.5501 57.5524 24.9856V24.9927Z" fill="#FAF0B6"/>
<path d="M54.1306 24.3716C53.7073 25.5922 53.0159 26.2555 52.7266 26.0438C52.4373 25.8321 52.5431 24.9361 53.2134 23.7719C53.8837 22.6077 54.5893 22.1279 54.5893 22.1279C54.5893 22.1279 54.5681 23.1228 54.1306 24.3716Z" fill="#FAF0B6"/>
<path d="M54.7867 26.1214C53.6719 25.6275 52.7758 25.7051 52.7406 26.0649C52.7053 26.4248 53.3897 26.9328 54.6244 27.2009C55.8591 27.469 56.6353 27.2573 56.6353 27.2573C56.6353 27.2573 55.9297 26.6153 54.7867 26.1143V26.1214Z" fill="#FAF0B6"/>
<path d="M51.3373 25.677C50.9774 26.9187 50.3283 27.6172 50.0249 27.4197C49.7215 27.2221 49.785 26.3261 50.3918 25.1266C50.9986 23.9272 51.6759 23.4121 51.6759 23.4121C51.6759 23.4121 51.7041 24.4069 51.3373 25.677Z" fill="#FAF0B6"/>
<path d="M52.0778 27.3844C50.9348 26.954 50.0458 27.0739 50.0317 27.4338C50.0105 27.7936 50.7302 28.2663 51.972 28.4709C53.2208 28.6755 53.9828 28.4215 53.9828 28.4215C53.9828 28.4215 53.2491 27.8218 52.0778 27.3773V27.3844Z" fill="#FAF0B6"/>
<path d="M48.6134 27.1234C48.317 28.3864 47.7032 29.1131 47.3927 28.9297C47.0823 28.7462 47.0964 27.8501 47.6397 26.6154C48.183 25.3877 48.8391 24.8374 48.8391 24.8374C48.8391 24.8374 48.9167 25.8252 48.6204 27.1164L48.6134 27.1234Z" fill="#FAF0B6"/>
<path d="M49.4455 28.7956C48.2814 28.4216 47.3994 28.591 47.3994 28.9579C47.3994 29.3177 48.1403 29.7552 49.3962 29.8963C50.6521 30.0374 51.407 29.741 51.407 29.741C51.407 29.741 50.6379 29.1766 49.4455 28.7956Z" fill="#FAF0B6"/>
<path d="M45.9678 28.7108C45.742 29.9879 45.1634 30.7428 44.8389 30.5806C44.5143 30.4183 44.4861 29.5152 44.9659 28.2593C45.4457 27.0034 46.0666 26.4248 46.0666 26.4248C46.0666 26.4248 46.2006 27.4126 45.9678 28.7179V28.7108Z" fill="#FAF0B6"/>
<path d="M46.8918 30.334C45.7135 30.0235 44.8386 30.2423 44.8598 30.6021C44.8809 30.9619 45.6359 31.357 46.8988 31.4347C48.1618 31.5123 48.8956 31.1807 48.8956 31.1807C48.8956 31.1807 48.0983 30.6585 46.8918 30.341V30.334Z" fill="#FAF0B6"/>
<path d="M43.413 30.4398C43.2507 31.7239 42.7145 32.5142 42.3899 32.366C42.0583 32.2178 41.9807 31.3218 42.3899 30.0447C42.7991 28.7676 43.3918 28.1538 43.3918 28.1538C43.3918 28.1538 43.5752 29.1275 43.413 30.4469V30.4398Z" fill="#FAF0B6"/>
<path d="M44.4154 32.0062C43.223 31.7592 42.3623 32.0203 42.3975 32.3801C42.4328 32.74 43.216 33.0927 44.4789 33.0998C45.7419 33.1068 46.4616 32.74 46.4616 32.74C46.4616 32.74 45.6431 32.2602 44.4154 32.0062Z" fill="#FAF0B6"/>
<path d="M40.9511 32.2953C40.8594 33.5865 40.3655 34.4049 40.0269 34.2709C39.6882 34.1368 39.5682 33.2478 39.9069 31.9496C40.2526 30.6513 40.81 30.0093 40.81 30.0093C40.81 30.0093 41.0429 30.9759 40.9511 32.2953Z" fill="#FAF0B6"/>
<path d="M42.0306 33.812C40.8241 33.6285 39.9775 33.9319 40.0339 34.2918C40.0904 34.6516 40.8876 34.9621 42.1506 34.9056C43.4135 34.8492 44.1121 34.4399 44.1121 34.4399C44.1121 34.4399 43.2654 34.0025 42.0306 33.812Z" fill="#FAF0B6"/>
<path d="M38.587 34.2777C38.5588 35.5759 38.1143 36.4156 37.7686 36.2956C37.4229 36.1827 37.2535 35.3008 37.5287 33.9814C37.8039 32.662 38.326 31.9917 38.326 31.9917C38.326 31.9917 38.6082 32.9442 38.587 34.2707V34.2777Z" fill="#FAF0B6"/>
<path d="M39.752 35.7313C38.5384 35.6113 37.7129 35.9571 37.7835 36.3098C37.8541 36.6626 38.6725 36.9307 39.9284 36.8108C41.1843 36.6909 41.8616 36.2463 41.8616 36.2463C41.8616 36.2463 40.9938 35.8583 39.752 35.7313Z" fill="#FAF0B6"/>
<path d="M36.3292 36.3804C36.3715 37.6715 35.9623 38.5394 35.6166 38.4406C35.2708 38.3418 35.0521 37.474 35.2567 36.1475C35.4613 34.8211 35.9552 34.1226 35.9552 34.1226C35.9552 34.1226 36.2869 35.061 36.3292 36.3874V36.3804Z" fill="#FAF0B6"/>
<path d="M37.5644 37.7775C36.3437 37.721 35.5394 38.1091 35.6311 38.4619C35.7229 38.8147 36.5484 39.0404 37.7972 38.8499C39.046 38.6594 39.6952 38.1867 39.6952 38.1867C39.6952 38.1867 38.8062 37.841 37.5573 37.7845L37.5644 37.7775Z" fill="#FAF0B6"/>
<path d="M34.1917 38.596C34.3046 39.8872 33.9447 40.7691 33.5849 40.6915C33.2321 40.6139 32.971 39.7531 33.1051 38.4196C33.2392 37.079 33.6907 36.3594 33.6907 36.3594C33.6907 36.3594 34.0717 37.2766 34.1846 38.596H34.1917Z" fill="#FAF0B6"/>
<path d="M35.4974 39.9224C34.2768 39.9224 33.4936 40.3598 33.6065 40.7055C33.7194 41.0513 34.5519 41.2347 35.7937 40.9807C37.0355 40.7267 37.6564 40.2187 37.6564 40.2187C37.6564 40.2187 36.7533 39.9224 35.5044 39.9294L35.4974 39.9224Z" fill="#FAF0B6"/>
<path d="M32.1665 40.9242C32.3429 42.2083 32.0325 43.1044 31.6726 43.048C31.3128 42.9915 31.0094 42.1448 31.0729 40.8043C31.1364 39.4637 31.5527 38.7158 31.5527 38.7158C31.5527 38.7158 31.9831 39.6119 32.1665 40.9242Z" fill="#FAF0B6"/>
<path d="M33.5425 42.1799C32.3219 42.2505 31.5599 42.7232 31.6939 43.0619C31.828 43.4006 32.6676 43.5417 33.8882 43.2242C35.1089 42.9067 35.7086 42.3634 35.7086 42.3634C35.7086 42.3634 34.7914 42.1164 33.5425 42.187V42.1799Z" fill="#FAF0B6"/>
<path d="M30.2684 43.3582C30.5154 44.6282 30.2473 45.5454 29.8874 45.5031C29.5276 45.4608 29.1748 44.6352 29.1748 43.2947C29.1748 41.9541 29.5417 41.1851 29.5417 41.1851C29.5417 41.1851 30.0144 42.06 30.2684 43.3582Z" fill="#FAF0B6"/>
<path d="M31.7077 44.5367C30.4942 44.6708 29.7604 45.1858 29.9086 45.5175C30.0567 45.8491 30.9034 45.9408 32.1099 45.5598C33.3164 45.1788 33.8809 44.6073 33.8809 44.6073C33.8809 44.6073 32.9495 44.4027 31.7077 44.5438V44.5367Z" fill="#FAF0B6"/>
<path d="M28.498 45.8842C28.8084 47.1401 28.5897 48.0714 28.2299 48.0503C27.8701 48.0291 27.4749 47.2248 27.4044 45.8772C27.3338 44.5366 27.6654 43.7534 27.6654 43.7534C27.6654 43.7534 28.1876 44.6001 28.5051 45.8842H28.498Z" fill="#FAF0B6"/>
<path d="M29.9936 46.9923C28.7871 47.1898 28.0815 47.7402 28.2438 48.0647C28.406 48.3893 29.2598 48.4387 30.4451 47.9942C31.6305 47.5497 32.1667 46.9499 32.1667 46.9499C32.1667 46.9499 31.2283 46.7947 29.9936 46.9993V46.9923Z" fill="#FAF0B6"/>
<path d="M26.8609 48.4947C27.2349 49.7365 27.0655 50.6749 26.7057 50.6678C26.3459 50.6678 25.9084 49.8776 25.7673 48.5441C25.6262 47.2106 25.9155 46.4062 25.9155 46.4062C25.9155 46.4062 26.4799 47.2247 26.868 48.4947H26.8609Z" fill="#FAF0B6"/>
<path d="M28.4203 49.5252C27.2279 49.7862 26.5505 50.3718 26.7269 50.6823C26.9033 50.9927 27.7641 50.9998 28.9212 50.4988C30.0784 49.9908 30.5864 49.3629 30.5864 49.3629C30.5864 49.3629 29.6409 49.257 28.4203 49.5252Z" fill="#FAF0B6"/>
<path d="M25.3649 51.1973C25.8023 52.4179 25.6824 53.3633 25.3226 53.3775C24.9627 53.3916 24.4829 52.6296 24.2713 51.3031C24.0596 49.9767 24.3066 49.1582 24.3066 49.1582C24.3066 49.1582 24.9133 49.9484 25.3649 51.1902V51.1973Z" fill="#FAF0B6"/>
<path d="M26.9735 52.1357C25.7952 52.4532 25.1461 53.0812 25.3437 53.3846C25.5412 53.688 26.395 53.6527 27.5239 53.0812C28.6528 52.5167 29.1255 51.8606 29.1255 51.8606C29.1255 51.8606 28.18 51.8041 26.9665 52.1357H26.9735Z" fill="#FAF0B6"/>
<path d="M24.0171 53.9702C24.518 55.1626 24.4475 56.1151 24.0877 56.1504C23.7278 56.1857 23.2128 55.4519 22.9305 54.1325C22.6483 52.8201 22.8529 51.9946 22.8529 51.9946C22.8529 51.9946 23.502 52.7496 24.0171 53.9702Z" fill="#FAF0B6"/>
<path d="M25.669 54.8236C24.5119 55.2046 23.898 55.8608 24.1097 56.1571C24.3213 56.4534 25.1751 56.3688 26.2758 55.7408C27.3764 55.1199 27.8139 54.4355 27.8139 54.4355C27.8139 54.4355 26.8614 54.4355 25.676 54.8236H25.669Z" fill="#FAF0B6"/>
<path d="M22.811 56.8066C23.3754 57.9708 23.3542 58.9233 23.0015 58.9797C22.6487 59.0362 22.0913 58.3236 21.7385 57.0253C21.3857 55.7271 21.548 54.8945 21.548 54.8945C21.548 54.8945 22.2324 55.6142 22.811 56.8066Z" fill="#FAF0B6"/>
<path d="M24.5047 57.5757C23.3688 58.0202 22.7902 58.7046 23.016 58.9868C23.2418 59.269 24.0885 59.142 25.1539 58.4576C26.2193 57.7803 26.6214 57.0747 26.6214 57.0747C26.6214 57.0747 25.6689 57.117 24.5047 57.5757Z" fill="#FAF0B6"/>
<path d="M21.7526 59.7065C22.3806 60.8424 22.4088 61.7949 22.056 61.8655C21.7033 61.9361 21.1106 61.2587 20.6943 59.9816C20.278 58.7046 20.3909 57.8579 20.3909 57.8579C20.3909 57.8579 21.1106 58.5423 21.7526 59.6994V59.7065Z" fill="#FAF0B6"/>
<path d="M23.4884 60.3834C22.3736 60.8844 21.8303 61.604 22.0773 61.8722C22.3172 62.1403 23.1568 61.9709 24.1869 61.2371C25.217 60.5034 25.5769 59.7837 25.5769 59.7837C25.5769 59.7837 24.6314 59.8754 23.4884 60.3905V60.3834Z" fill="#FAF0B6"/>
<path d="M20.8564 62.6557C21.5408 63.7564 21.6184 64.7089 21.2727 64.7936C20.9199 64.8853 20.299 64.2362 19.8122 62.9873C19.3254 61.7314 19.403 60.8848 19.403 60.8848C19.403 60.8848 20.1579 61.5268 20.8564 62.6557Z" fill="#FAF0B6"/>
<path d="M22.6201 63.2412C21.5336 63.7985 21.0326 64.5464 21.2866 64.8004C21.5406 65.0544 22.3732 64.8428 23.361 64.0525C24.3487 63.2623 24.6733 62.5215 24.6733 62.5215C24.6733 62.5215 23.7349 62.6626 22.6201 63.2412Z" fill="#FAF0B6"/>
<path d="M20.1091 65.647C20.85 66.7124 20.977 67.6508 20.6312 67.7636C20.2855 67.8765 19.6293 67.2627 19.079 66.035C18.5287 64.8073 18.5569 63.9536 18.5569 63.9536C18.5569 63.9536 19.3471 64.5533 20.1021 65.647H20.1091Z" fill="#FAF0B6"/>
<path d="M21.901 66.1409C20.8427 66.7548 20.384 67.5238 20.6522 67.7637C20.9203 68.0036 21.7387 67.7496 22.6842 66.91C23.6296 66.0704 23.9118 65.3154 23.9118 65.3154C23.9118 65.3154 22.9805 65.5059 21.901 66.1409Z" fill="#FAF0B6"/>
<path d="M19.5166 68.6739C20.3138 69.697 20.4902 70.6353 20.1516 70.7624C19.8129 70.8894 19.1214 70.3108 18.5147 69.1184C17.9008 67.9189 17.8867 67.0723 17.8867 67.0723C17.8867 67.0723 18.7052 67.6367 19.5236 68.6809L19.5166 68.6739Z" fill="#FAF0B6"/>
<path d="M21.3366 69.0759C20.3136 69.7462 19.8902 70.5364 20.1724 70.7622C20.4547 70.9879 21.252 70.6916 22.1551 69.8026C23.0582 68.9136 23.2981 68.1445 23.2981 68.1445C23.2981 68.1445 22.3809 68.3844 21.3296 69.0688L21.3366 69.0759Z" fill="#FAF0B6"/>
<path d="M19.0924 71.7289C19.9391 72.7096 20.1649 73.6339 19.8333 73.782C19.5017 73.9302 18.782 73.3869 18.1117 72.2228C17.4344 71.0586 17.3779 70.2119 17.3779 70.2119C17.3779 70.2119 18.2246 70.727 19.0924 71.7289Z" fill="#FAF0B6"/>
<path d="M20.9274 72.0326C19.9396 72.7522 19.5656 73.5707 19.8549 73.7824C20.1513 73.994 20.9344 73.6553 21.7811 72.717C22.6348 71.7856 22.8394 71.0024 22.8394 71.0024C22.8394 71.0024 21.9363 71.2917 20.9274 72.0326Z" fill="#FAF0B6"/>
<path d="M18.8246 74.7983C19.7206 75.7296 19.9958 76.6469 19.6712 76.8091C19.3467 76.9714 18.6058 76.4705 17.865 75.3416C17.1312 74.2127 17.0254 73.373 17.0254 73.373C17.0254 73.373 17.9003 73.8458 18.8175 74.7983H18.8246Z" fill="#FAF0B6"/>
<path d="M20.6737 75.0098C19.7282 75.7788 19.3896 76.6184 19.693 76.8089C19.9963 77.0065 20.7654 76.6255 21.5627 75.6448C22.367 74.6711 22.5293 73.8809 22.5293 73.8809C22.5293 73.8809 21.6403 74.2195 20.6737 75.0098Z" fill="#FAF0B6"/>
<path d="M136.449 77.8814C135.503 78.7633 135.179 79.6664 135.496 79.8428C135.814 80.0192 136.583 79.5606 137.373 78.474C138.163 77.3875 138.311 76.5479 138.311 76.5479C138.311 76.5479 137.415 76.9712 136.449 77.8814Z" fill="#FAF0B6"/>
<path d="M134.593 77.9945C135.496 78.813 135.793 79.6667 135.475 79.8431C135.165 80.0195 134.417 79.6032 133.669 78.5872C132.921 77.5712 132.794 76.7739 132.794 76.7739C132.794 76.7739 133.662 77.1549 134.593 77.9945Z" fill="#FAF0B6"/>
<path d="M136.399 80.965C135.411 81.7975 135.038 82.6795 135.341 82.877C135.644 83.0746 136.442 82.6513 137.288 81.607C138.135 80.5628 138.332 79.7373 138.332 79.7373C138.332 79.7373 137.415 80.1183 136.399 80.972V80.965Z" fill="#FAF0B6"/>
<path d="M134.536 80.9791C135.397 81.8469 135.644 82.7077 135.32 82.87C134.995 83.0322 134.275 82.5736 133.577 81.5153C132.878 80.464 132.801 79.6597 132.801 79.6597C132.801 79.6597 133.647 80.0901 134.529 80.9791H134.536Z" fill="#FAF0B6"/>
<path d="M136.181 84.041C135.151 84.8242 134.734 85.6779 135.031 85.8896C135.327 86.1012 136.139 85.7202 137.042 84.7254C137.945 83.7306 138.178 82.9121 138.178 82.9121C138.178 82.9121 137.239 83.2437 136.181 84.041Z" fill="#FAF0B6"/>
<path d="M134.318 83.9563C135.13 84.8665 135.334 85.7414 135.003 85.8895C134.671 86.0377 133.972 85.5368 133.337 84.4502C132.695 83.3636 132.66 82.5522 132.66 82.5522C132.66 82.5522 133.486 83.025 134.318 83.9563Z" fill="#FAF0B6"/>
<path d="M135.807 87.1034C134.734 87.8301 134.276 88.6626 134.558 88.8884C134.84 89.1142 135.673 88.7755 136.625 87.8301C137.578 86.8846 137.853 86.0732 137.853 86.0732C137.853 86.0732 136.901 86.3555 135.8 87.0963L135.807 87.1034Z" fill="#FAF0B6"/>
<path d="M133.951 86.9197C134.713 87.8722 134.875 88.7541 134.536 88.8882C134.198 89.0222 133.527 88.486 132.949 87.3642C132.37 86.2423 132.37 85.438 132.37 85.438C132.37 85.438 133.167 85.953 133.951 86.9267V86.9197Z" fill="#FAF0B6"/>
<path d="M135.27 90.137C134.162 90.8072 133.661 91.6186 133.929 91.8585C134.197 92.0984 135.051 91.8091 136.053 90.906C137.055 90.01 137.373 89.2197 137.373 89.2197C137.373 89.2197 136.406 89.4526 135.27 90.137Z" fill="#FAF0B6"/>
<path d="M133.429 89.8618C134.142 90.8495 134.254 91.7456 133.909 91.8585C133.563 91.9714 132.921 91.3999 132.399 90.2498C131.877 89.0997 131.926 88.2954 131.926 88.2954C131.926 88.2954 132.695 88.8528 133.429 89.8688V89.8618Z" fill="#FAF0B6"/>
<path d="M134.579 93.1427C133.436 93.7566 132.892 94.5327 133.153 94.7937C133.414 95.0548 134.275 94.7937 135.319 93.9541C136.364 93.1074 136.723 92.3384 136.723 92.3384C136.723 92.3384 135.75 92.5148 134.579 93.1427Z" fill="#FAF0B6"/>
<path d="M132.751 92.7687C133.415 93.7988 133.478 94.6949 133.125 94.7866C132.773 94.8783 132.166 94.2786 131.707 93.1003C131.249 91.922 131.333 91.1177 131.333 91.1177C131.333 91.1177 132.074 91.7103 132.751 92.7616V92.7687Z" fill="#FAF0B6"/>
<path d="M133.725 96.1063C132.554 96.6566 131.968 97.4116 132.215 97.6797C132.462 97.9478 133.337 97.7432 134.423 96.96C135.51 96.1698 135.912 95.4219 135.912 95.4219C135.912 95.4219 134.924 95.5489 133.725 96.1133V96.1063Z" fill="#FAF0B6"/>
<path d="M131.926 95.6405C132.533 96.6989 132.547 97.602 132.194 97.6725C131.842 97.7501 131.263 97.1151 130.861 95.9157C130.459 94.7162 130.593 93.9189 130.593 93.9189C130.593 93.9189 131.305 94.554 131.926 95.6405Z" fill="#FAF0B6"/>
<path d="M132.723 99.0273C131.524 99.5141 130.903 100.234 131.129 100.516C131.355 100.798 132.244 100.643 133.372 99.9092C134.501 99.1825 134.939 98.4487 134.939 98.4487C134.939 98.4487 133.951 98.5263 132.716 99.0273H132.723Z" fill="#FAF0B6"/>
<path d="M130.946 98.4628C131.496 99.5564 131.468 100.452 131.108 100.509C130.748 100.565 130.205 99.9022 129.873 98.6886C129.535 97.468 129.711 96.6777 129.711 96.6777C129.711 96.6777 130.388 97.348 130.953 98.4628H130.946Z" fill="#FAF0B6"/>
<path d="M131.567 101.885C130.346 102.308 129.683 103 129.894 103.289C130.106 103.578 131.002 103.472 132.166 102.802C133.331 102.132 133.81 101.426 133.81 101.426C133.81 101.426 132.815 101.447 131.567 101.885Z" fill="#FAF0B6"/>
<path d="M129.824 101.228C130.318 102.343 130.24 103.239 129.88 103.275C129.52 103.31 129.012 102.625 128.744 101.391C128.476 100.156 128.688 99.3799 128.688 99.3799C128.688 99.3799 129.33 100.085 129.831 101.228H129.824Z" fill="#FAF0B6"/>
<path d="M130.268 104.679C129.026 105.038 128.328 105.687 128.525 105.991C128.723 106.294 129.619 106.231 130.818 105.624C132.018 105.017 132.533 104.34 132.533 104.34C132.533 104.34 131.538 104.312 130.268 104.679Z" fill="#FAF0B6"/>
<path d="M128.561 103.931C128.991 105.074 128.871 105.963 128.511 105.977C128.152 105.998 127.679 105.279 127.474 104.037C127.27 102.788 127.524 102.026 127.524 102.026C127.524 102.026 128.123 102.76 128.568 103.931H128.561Z" fill="#FAF0B6"/>
<path d="M128.815 107.402C127.552 107.698 126.825 108.312 127.009 108.623C127.192 108.933 128.088 108.919 129.323 108.376C130.551 107.832 131.101 107.176 131.101 107.176C131.101 107.176 130.113 107.099 128.822 107.395L128.815 107.402Z" fill="#FAF0B6"/>
<path d="M127.15 106.569C127.523 107.734 127.354 108.615 126.987 108.615C126.627 108.615 126.19 107.875 126.049 106.619C125.908 105.363 126.204 104.608 126.204 104.608C126.204 104.608 126.769 105.377 127.15 106.569Z" fill="#FAF0B6"/>
<path d="M127.227 110.048C125.949 110.274 125.194 110.852 125.357 111.177C125.519 111.501 126.422 111.529 127.678 111.05C128.934 110.57 129.513 109.949 129.513 109.949C129.513 109.949 128.525 109.815 127.219 110.048H127.227Z" fill="#FAF0B6"/>
<path d="M125.611 109.124C125.922 110.302 125.703 111.177 125.343 111.156C124.984 111.135 124.588 110.38 124.511 109.117C124.433 107.854 124.765 107.12 124.765 107.12C124.765 107.12 125.287 107.917 125.604 109.124H125.611Z" fill="#FAF0B6"/>
<path d="M125.505 112.602C124.221 112.764 123.431 113.301 123.579 113.625C123.727 113.957 124.624 114.034 125.901 113.625C127.178 113.216 127.791 112.623 127.791 112.623C127.791 112.623 126.818 112.44 125.498 112.602H125.505Z" fill="#FAF0B6"/>
<path d="M123.932 111.6C124.179 112.793 123.917 113.654 123.558 113.618C123.198 113.576 122.845 112.8 122.838 111.537C122.831 110.274 123.198 109.554 123.198 109.554C123.198 109.554 123.678 110.373 123.932 111.6Z" fill="#FAF0B6"/>
<path d="M123.65 115.064C122.359 115.156 121.54 115.65 121.674 115.989C121.809 116.327 122.698 116.447 123.996 116.109C125.294 115.763 125.936 115.205 125.936 115.205C125.936 115.205 124.969 114.973 123.65 115.064Z" fill="#FAF0B6"/>
<path d="M122.133 113.985C122.316 115.192 122.013 116.038 121.653 115.982C121.293 115.926 120.982 115.128 121.039 113.865C121.095 112.602 121.505 111.904 121.505 111.904C121.505 111.904 121.942 112.75 122.133 113.985Z" fill="#FAF0B6"/>
<path d="M121.667 117.428C120.369 117.457 119.529 117.901 119.649 118.247C119.762 118.593 120.644 118.762 121.963 118.487C123.283 118.212 123.953 117.689 123.953 117.689C123.953 117.689 123 117.407 121.674 117.428H121.667Z" fill="#FAF0B6"/>
<path d="M120.206 116.264C120.326 117.477 119.98 118.303 119.628 118.232C119.275 118.162 119.007 117.343 119.127 116.088C119.247 114.832 119.691 114.154 119.691 114.154C119.691 114.154 120.079 115.022 120.206 116.264Z" fill="#FAF0B6"/>
<path d="M119.565 119.686C118.274 119.644 117.406 120.053 117.505 120.399C117.603 120.744 118.471 120.963 119.798 120.759C121.124 120.554 121.823 120.06 121.823 120.06C121.823 120.06 120.884 119.728 119.558 119.686H119.565Z" fill="#FAF0B6"/>
<path d="M118.167 118.444C118.224 119.665 117.836 120.469 117.483 120.378C117.137 120.286 116.904 119.46 117.095 118.211C117.285 116.963 117.758 116.313 117.758 116.313C117.758 116.313 118.104 117.202 118.16 118.451L118.167 118.444Z" fill="#FAF0B6"/>
<path d="M117.342 121.824C116.051 121.711 115.169 122.071 115.247 122.431C115.325 122.783 116.185 123.044 117.519 122.91C118.859 122.776 119.579 122.325 119.579 122.325C119.579 122.325 118.662 121.944 117.342 121.831V121.824Z" fill="#FAF0B6"/>
<path d="M116.016 120.518C116.016 121.739 115.578 122.522 115.233 122.409C114.887 122.296 114.703 121.464 114.957 120.222C115.211 118.987 115.719 118.359 115.719 118.359C115.719 118.359 116.016 119.262 116.009 120.511L116.016 120.518Z" fill="#FAF0B6"/>
<path d="M115.014 123.849C113.73 123.672 112.834 123.983 112.89 124.343C112.947 124.703 113.793 125.006 115.134 124.942C116.474 124.879 117.222 124.463 117.222 124.463C117.222 124.463 116.326 124.032 115.014 123.849Z" fill="#FAF0B6"/>
<path d="M113.758 122.473C113.688 123.693 113.215 124.455 112.876 124.321C112.537 124.187 112.396 123.348 112.714 122.127C113.031 120.906 113.575 120.307 113.575 120.307C113.575 120.307 113.822 121.224 113.751 122.473H113.758Z" fill="#FAF0B6"/>
<path d="M112.587 125.747C111.317 125.5 110.4 125.768 110.442 126.128C110.484 126.487 111.31 126.84 112.65 126.84C113.998 126.84 114.76 126.473 114.76 126.473C114.76 126.473 113.885 126.001 112.587 125.747Z" fill="#FAF0B6"/>
<path d="M111.401 124.307C111.267 125.521 110.752 126.255 110.421 126.107C110.089 125.958 109.997 125.112 110.378 123.905C110.759 122.699 111.331 122.134 111.331 122.134C111.331 122.134 111.535 123.066 111.394 124.307H111.401Z" fill="#FAF0B6"/>
<path d="M110.061 127.518C108.805 127.207 107.874 127.426 107.895 127.786C107.916 128.146 108.72 128.541 110.068 128.611C111.409 128.682 112.192 128.35 112.192 128.35C112.192 128.35 111.345 127.828 110.061 127.511V127.518Z" fill="#FAF0B6"/>
<path d="M108.953 126.015C108.755 127.221 108.205 127.927 107.88 127.765C107.556 127.602 107.506 126.749 107.951 125.563C108.395 124.378 108.995 123.842 108.995 123.842C108.995 123.842 109.15 124.78 108.946 126.015H108.953Z" fill="#FAF0B6"/>
<path d="M107.443 129.154C106.201 128.78 105.263 128.95 105.27 129.31C105.277 129.669 106.06 130.107 107.393 130.248C108.727 130.389 109.531 130.1 109.531 130.1C109.531 130.1 108.713 129.535 107.443 129.147V129.154Z" fill="#FAF0B6"/>
<path d="M106.42 127.595C106.159 128.788 105.574 129.465 105.263 129.289C104.953 129.105 104.946 128.251 105.446 127.094C105.955 125.937 106.582 125.429 106.582 125.429C106.582 125.429 106.688 126.375 106.42 127.595Z" fill="#FAF0B6"/>
<path d="M104.748 130.643C103.527 130.206 102.582 130.326 102.568 130.686C102.553 131.045 103.315 131.525 104.642 131.737C105.968 131.948 106.787 131.702 106.787 131.702C106.787 131.702 105.997 131.095 104.755 130.643H104.748Z" fill="#FAF0B6"/>
<path d="M103.802 129.042C103.484 130.22 102.857 130.869 102.553 130.671C102.25 130.474 102.285 129.62 102.857 128.491C103.421 127.362 104.077 126.89 104.077 126.89C104.077 126.89 104.134 127.835 103.802 129.049V129.042Z" fill="#FAF0B6"/>
<path d="M101.975 131.998C100.783 131.497 99.8304 131.568 99.7952 131.928C99.7599 132.287 100.494 132.803 101.813 133.085C103.132 133.367 103.951 133.162 103.951 133.162C103.951 133.162 103.196 132.513 101.975 131.998Z" fill="#FAF0B6"/>
<path d="M101.122 130.347C100.741 131.504 100.085 132.118 99.7882 131.906C99.4989 131.695 99.5765 130.841 100.204 129.74C100.825 128.64 101.51 128.202 101.51 128.202C101.51 128.202 101.51 129.155 101.122 130.34V130.347Z" fill="#FAF0B6"/>
<path d="M99.1382 133.204C97.974 132.64 97.0215 132.661 96.965 133.014C96.9086 133.374 97.6212 133.924 98.9194 134.277C100.218 134.63 101.05 134.467 101.05 134.467C101.05 134.467 100.331 133.783 99.1382 133.204Z" fill="#FAF0B6"/>
<path d="M98.3699 131.504C97.9254 132.64 97.241 133.218 96.9588 132.993C96.6765 132.767 96.8035 131.92 97.4879 130.855C98.1653 129.789 98.8708 129.387 98.8708 129.387C98.8708 129.387 98.8285 130.34 98.3699 131.504Z" fill="#FAF0B6"/>
<path d="M96.2392 134.256C95.1033 133.628 94.1508 133.6 94.0802 133.952C94.0096 134.305 94.687 134.898 95.964 135.314C97.2411 135.73 98.0878 135.617 98.0878 135.617C98.0878 135.617 97.4034 134.898 96.2463 134.256H96.2392Z" fill="#FAF0B6"/>
<path d="M95.5617 132.527C95.0607 133.642 94.3411 134.185 94.0729 133.938C93.8048 133.691 93.9742 132.859 94.7079 131.828C95.4417 130.798 96.1614 130.438 96.1614 130.438C96.1614 130.438 96.0697 131.384 95.5546 132.527H95.5617Z" fill="#FAF0B6"/>
<path d="M93.29 135.159C92.1893 134.475 91.2368 134.397 91.1521 134.743C91.0604 135.095 91.7095 135.716 92.9583 136.203C94.2142 136.69 95.0609 136.612 95.0609 136.612C95.0609 136.612 94.4189 135.857 93.29 135.159Z" fill="#FAF0B6"/>
<path d="M92.704 133.395C92.1466 134.482 91.3987 134.982 91.1447 134.728C90.8907 134.474 91.1024 133.642 91.8926 132.654C92.6828 131.666 93.4237 131.342 93.4237 131.342C93.4237 131.342 93.2825 132.28 92.704 133.395Z" fill="#FAF0B6"/>
<path d="M90.2979 135.907C89.2325 135.166 88.2941 135.039 88.1812 135.385C88.0683 135.731 88.6821 136.387 89.9098 136.937C91.1375 137.487 91.9912 137.459 91.9912 137.459C91.9912 137.459 91.3915 136.669 90.2979 135.914V135.907Z" fill="#FAF0B6"/>
<path d="M89.8036 134.108C89.1898 135.166 88.4207 135.624 88.1808 135.356C87.941 135.088 88.195 134.27 89.0346 133.324C89.8742 132.379 90.6291 132.097 90.6291 132.097C90.6291 132.097 90.4386 133.028 89.8036 134.108Z" fill="#FAF0B6"/>
<path d="M87.2707 136.492C86.2476 135.695 85.3093 135.519 85.1823 135.857C85.0553 136.196 85.6338 136.887 86.8262 137.494C88.0186 138.101 88.8723 138.122 88.8723 138.122C88.8723 138.122 88.3079 137.304 87.2637 136.485L87.2707 136.492Z" fill="#FAF0B6"/>
<path d="M86.8692 134.679C86.1989 135.702 85.4087 136.126 85.1829 135.843C84.9571 135.561 85.2534 134.764 86.1424 133.861C87.0314 132.958 87.8005 132.718 87.8005 132.718C87.8005 132.718 87.5606 133.635 86.8762 134.686L86.8692 134.679Z" fill="#FAF0B6"/>
<path d="M84.2158 136.923C83.235 136.076 82.3107 135.85 82.1626 136.182C82.0144 136.514 82.5577 137.233 83.7219 137.904C84.886 138.581 85.7327 138.637 85.7327 138.637C85.7327 138.637 85.2177 137.791 84.2158 136.923Z" fill="#FAF0B6"/>
<path d="M83.913 135.088C83.1934 136.076 82.3749 136.45 82.1633 136.161C81.9516 135.864 82.2903 135.081 83.2286 134.235C84.16 133.381 84.9432 133.176 84.9432 133.176C84.9432 133.176 84.6539 134.079 83.913 135.088Z" fill="#FAF0B6"/>
<path d="M81.1471 137.191C80.2158 136.295 79.2986 136.02 79.1363 136.344C78.974 136.669 79.475 137.41 80.6039 138.15C81.7327 138.884 82.5724 138.99 82.5724 138.99C82.5724 138.99 82.0996 138.115 81.1471 137.198V137.191Z" fill="#FAF0B6"/>
<path d="M80.9356 135.342C80.1665 136.288 79.3269 136.627 79.1364 136.323C78.9389 136.02 79.3199 135.251 80.3006 134.453C81.2743 133.649 82.0645 133.487 82.0645 133.487C82.0645 133.487 81.7258 134.376 80.9356 135.342Z" fill="#FAF0B6"/>
<path d="M92.2946 21.3661C92.9084 22.5091 93.6845 23.0524 93.9456 22.7913C94.1996 22.5373 93.9456 21.6695 93.106 20.6253C92.2593 19.581 91.4902 19.2212 91.4902 19.2212C91.4902 19.2212 91.6666 20.1949 92.2946 21.3661Z" fill="#FAF0B6"/>
<path d="M91.9205 23.1933C92.9507 22.5301 93.8467 22.4666 93.9384 22.8193C94.0302 23.1721 93.4304 23.7789 92.2522 24.2375C91.0739 24.6961 90.2695 24.6115 90.2695 24.6115C90.2695 24.6115 90.8622 23.8706 91.9135 23.1933H91.9205Z" fill="#FAF0B6"/>
<path d="M95.2576 22.2126C95.808 23.3839 96.5629 23.9695 96.831 23.7225C97.0992 23.4756 96.8945 22.6007 96.1114 21.5141C95.3211 20.4276 94.5732 20.0254 94.5732 20.0254C94.5732 20.0254 94.7003 21.0132 95.2647 22.2126H95.2576Z" fill="#FAF0B6"/>
<path d="M94.7919 24.0189C95.8502 23.4121 96.7533 23.398 96.8239 23.7507C96.8944 24.1035 96.2665 24.6821 95.0671 25.0843C93.8676 25.4864 93.0703 25.3524 93.0703 25.3524C93.0703 25.3524 93.7053 24.6397 94.7919 24.0189Z" fill="#FAF0B6"/>
<path d="M98.1723 23.2218C98.6591 24.4213 99.3788 25.0422 99.661 24.8164C99.9433 24.5906 99.788 23.7016 99.0543 22.5727C98.3275 21.4438 97.5938 21.0063 97.5938 21.0063C97.5938 21.0063 97.6714 21.9941 98.1723 23.2289V23.2218Z" fill="#FAF0B6"/>
<path d="M97.6142 24.9927C98.7078 24.4423 99.6038 24.4706 99.6603 24.8304C99.7167 25.1902 99.0535 25.7335 97.8399 26.0651C96.6193 26.4038 95.8291 26.2274 95.8291 26.2274C95.8291 26.2274 96.4994 25.5501 97.6142 24.9856V24.9927Z" fill="#FAF0B6"/>
<path d="M101.037 24.3716C101.46 25.5922 102.152 26.2555 102.441 26.0438C102.73 25.8321 102.624 24.9361 101.954 23.7719C101.284 22.6077 100.578 22.1279 100.578 22.1279C100.578 22.1279 100.599 23.1228 101.037 24.3716Z" fill="#FAF0B6"/>
<path d="M100.381 26.1214C101.496 25.6275 102.392 25.7051 102.427 26.0649C102.462 26.4248 101.778 26.9328 100.543 27.2009C99.3083 27.469 98.5322 27.2573 98.5322 27.2573C98.5322 27.2573 99.2378 26.6153 100.381 26.1143V26.1214Z" fill="#FAF0B6"/>
<path d="M103.83 25.677C104.19 26.9187 104.839 27.6172 105.143 27.4197C105.446 27.2221 105.383 26.3261 104.776 25.1266C104.169 23.9272 103.492 23.4121 103.492 23.4121C103.492 23.4121 103.463 24.4069 103.83 25.677Z" fill="#FAF0B6"/>
<path d="M103.083 27.3844C104.226 26.954 105.115 27.0739 105.129 27.4338C105.15 27.7936 104.43 28.2663 103.189 28.4709C101.94 28.6755 101.178 28.4215 101.178 28.4215C101.178 28.4215 101.912 27.8218 103.083 27.3773V27.3844Z" fill="#FAF0B6"/>
<path d="M106.554 27.1234C106.851 28.3864 107.464 29.1131 107.775 28.9297C108.085 28.7462 108.071 27.8501 107.528 26.6154C106.985 25.3877 106.329 24.8374 106.329 24.8374C106.329 24.8374 106.251 25.8252 106.547 27.1164L106.554 27.1234Z" fill="#FAF0B6"/>
<path d="M105.714 28.7956C106.879 28.4216 107.761 28.591 107.761 28.9579C107.761 29.3177 107.02 29.7552 105.764 29.8963C104.508 30.0374 103.753 29.741 103.753 29.741C103.753 29.741 104.522 29.1766 105.714 28.7956Z" fill="#FAF0B6"/>
<path d="M109.193 28.7108C109.419 29.9879 109.997 30.7428 110.322 30.5806C110.646 30.4112 110.675 29.5152 110.195 28.2593C109.715 27.0034 109.094 26.4248 109.094 26.4248C109.094 26.4248 108.96 27.4126 109.193 28.7179V28.7108Z" fill="#FAF0B6"/>
<path d="M108.275 30.334C109.454 30.0235 110.328 30.2423 110.307 30.6021C110.286 30.9619 109.531 31.357 108.268 31.4347C107.005 31.5123 106.271 31.1807 106.271 31.1807C106.271 31.1807 107.069 30.6585 108.275 30.341V30.334Z" fill="#FAF0B6"/>
<path d="M111.755 30.4398C111.917 31.7239 112.453 32.5142 112.778 32.366C113.102 32.2178 113.187 31.3218 112.778 30.0447C112.368 28.7676 111.776 28.1538 111.776 28.1538C111.776 28.1538 111.592 29.1275 111.755 30.4469V30.4398Z" fill="#FAF0B6"/>
<path d="M110.752 32.0062C111.945 31.7592 112.805 32.0203 112.77 32.3801C112.735 32.74 111.952 33.0927 110.689 33.0998C109.426 33.1068 108.706 32.74 108.706 32.74C108.706 32.74 109.525 32.2602 110.752 32.0062Z" fill="#FAF0B6"/>
<path d="M114.217 32.2953C114.308 33.5865 114.802 34.4049 115.141 34.2709C115.48 34.1368 115.6 33.2478 115.261 31.9496C114.915 30.6513 114.358 30.0093 114.358 30.0093C114.358 30.0093 114.125 30.9759 114.217 32.2953Z" fill="#FAF0B6"/>
<path d="M113.13 33.812C114.337 33.6285 115.183 33.9319 115.127 34.2918C115.071 34.6516 114.273 34.9621 113.01 34.9056C111.747 34.8492 111.049 34.4399 111.049 34.4399C111.049 34.4399 111.895 34.0025 113.13 33.812Z" fill="#FAF0B6"/>
<path d="M116.58 34.2777C116.608 35.5759 117.053 36.4156 117.399 36.2956C117.744 36.1757 117.914 35.3008 117.639 33.9814C117.363 32.662 116.841 31.9917 116.841 31.9917C116.841 31.9917 116.559 32.9442 116.58 34.2707V34.2777Z" fill="#FAF0B6"/>
<path d="M115.416 35.7313C116.63 35.6113 117.455 35.9571 117.385 36.3098C117.314 36.6626 116.496 36.9307 115.24 36.8108C113.984 36.6909 113.307 36.2463 113.307 36.2463C113.307 36.2463 114.174 35.8583 115.416 35.7313Z" fill="#FAF0B6"/>
<path d="M118.831 36.3804C118.789 37.6715 119.198 38.5394 119.544 38.4406C119.889 38.3418 120.108 37.474 119.904 36.1475C119.699 34.8211 119.205 34.1226 119.205 34.1226C119.205 34.1226 118.873 35.061 118.831 36.3874V36.3804Z" fill="#FAF0B6"/>
<path d="M117.596 37.7775C118.816 37.721 119.621 38.1091 119.529 38.4619C119.437 38.8076 118.612 39.0404 117.363 38.8499C116.114 38.6594 115.465 38.1867 115.465 38.1867C115.465 38.1867 116.354 37.841 117.603 37.7845L117.596 37.7775Z" fill="#FAF0B6"/>
<path d="M120.976 38.596C120.863 39.8872 121.223 40.7691 121.583 40.6915C121.936 40.6139 122.197 39.7531 122.063 38.4196C121.929 37.079 121.477 36.3594 121.477 36.3594C121.477 36.3594 121.096 37.2766 120.983 38.596H120.976Z" fill="#FAF0B6"/>
<path d="M119.671 39.9224C120.891 39.9224 121.675 40.3598 121.562 40.7055C121.449 41.0513 120.616 41.2347 119.374 40.9807C118.133 40.7267 117.512 40.2187 117.512 40.2187C117.512 40.2187 118.415 39.9224 119.664 39.9294L119.671 39.9224Z" fill="#FAF0B6"/>
<path d="M123.001 40.9242C122.825 42.2083 123.135 43.1044 123.495 43.048C123.855 42.9915 124.158 42.1448 124.095 40.8043C124.031 39.4637 123.615 38.7158 123.615 38.7158C123.615 38.7158 123.185 39.6119 123.001 40.9242Z" fill="#FAF0B6"/>
<path d="M121.625 42.1799C122.846 42.2505 123.608 42.7232 123.474 43.0619C123.34 43.4006 122.5 43.5417 121.279 43.2242C120.059 42.9067 119.459 42.3634 119.459 42.3634C119.459 42.3634 120.376 42.1164 121.625 42.187V42.1799Z" fill="#FAF0B6"/>
<path d="M124.898 43.3582C124.652 44.6282 124.92 45.5454 125.279 45.5031C125.639 45.4608 125.992 44.6352 125.992 43.2947C125.992 41.9541 125.625 41.1851 125.625 41.1851C125.625 41.1851 125.152 42.06 124.898 43.3582Z" fill="#FAF0B6"/>
<path d="M123.459 44.5367C124.673 44.6708 125.407 45.1858 125.258 45.5175C125.11 45.8491 124.264 45.9408 123.057 45.5598C121.851 45.1788 121.286 44.6073 121.286 44.6073C121.286 44.6073 122.217 44.4027 123.459 44.5438V44.5367Z" fill="#FAF0B6"/>
<path d="M126.67 45.8842C126.359 47.1401 126.578 48.0714 126.938 48.0503C127.298 48.0291 127.693 47.2248 127.764 45.8772C127.834 44.5366 127.502 43.7534 127.502 43.7534C127.502 43.7534 126.98 44.6001 126.663 45.8842H126.67Z" fill="#FAF0B6"/>
<path d="M125.166 46.9923C126.373 47.1898 127.078 47.7402 126.916 48.0647C126.754 48.3893 125.9 48.4387 124.715 47.9942C123.529 47.5497 122.993 46.9499 122.993 46.9499C122.993 46.9499 123.932 46.7947 125.166 46.9993V46.9923Z" fill="#FAF0B6"/>
<path d="M128.299 48.4947C127.925 49.7365 128.095 50.6749 128.455 50.6678C128.814 50.6678 129.252 49.8776 129.393 48.5441C129.534 47.2106 129.245 46.4062 129.245 46.4062C129.245 46.4062 128.68 47.2247 128.292 48.4947H128.299Z" fill="#FAF0B6"/>
<path d="M126.747 49.5252C127.94 49.7862 128.617 50.3718 128.44 50.6823C128.264 50.9927 127.403 50.9998 126.246 50.4988C125.089 49.9908 124.581 49.3629 124.581 49.3629C124.581 49.3629 125.527 49.257 126.747 49.5252Z" fill="#FAF0B6"/>
<path d="M129.796 51.1973C129.358 52.4179 129.478 53.3633 129.838 53.3775C130.198 53.3916 130.677 52.6296 130.889 51.3031C131.101 49.9767 130.854 49.1582 130.854 49.1582C130.854 49.1582 130.247 49.9484 129.796 51.1902V51.1973Z" fill="#FAF0B6"/>
<path d="M128.186 52.1357C129.364 52.4532 130.014 53.0812 129.816 53.3846C129.618 53.688 128.765 53.6527 127.636 53.0812C126.507 52.5167 126.034 51.8606 126.034 51.8606C126.034 51.8606 126.98 51.8041 128.193 52.1357H128.186Z" fill="#FAF0B6"/>
<path d="M131.15 53.9702C130.649 55.1626 130.72 56.1151 131.08 56.1504C131.439 56.1857 131.954 55.4519 132.237 54.1325C132.519 52.8201 132.314 51.9946 132.314 51.9946C132.314 51.9946 131.665 52.7496 131.15 53.9702Z" fill="#FAF0B6"/>
<path d="M129.492 54.8236C130.649 55.2046 131.263 55.8608 131.051 56.1571C130.839 56.4464 129.985 56.3688 128.885 55.7408C127.784 55.1129 127.347 54.4355 127.347 54.4355C127.347 54.4355 128.299 54.4355 129.485 54.8236H129.492Z" fill="#FAF0B6"/>
<path d="M132.356 56.8066C131.792 57.9708 131.813 58.9233 132.166 58.9797C132.526 59.0362 133.076 58.3236 133.429 57.0253C133.781 55.7271 133.619 54.8945 133.619 54.8945C133.619 54.8945 132.935 55.6142 132.356 56.8066Z" fill="#FAF0B6"/>
<path d="M130.656 57.5757C131.792 58.0202 132.37 58.7046 132.144 58.9868C131.919 59.269 131.072 59.142 130.007 58.4576C128.941 57.7803 128.539 57.0747 128.539 57.0747C128.539 57.0747 129.492 57.117 130.656 57.5757Z" fill="#FAF0B6"/>
<path d="M133.408 59.7065C132.78 60.8424 132.752 61.7949 133.105 61.8655C133.457 61.9361 134.05 61.2587 134.466 59.9816C134.883 58.7046 134.77 57.8579 134.77 57.8579C134.77 57.8579 134.05 58.5423 133.408 59.6994V59.7065Z" fill="#FAF0B6"/>
<path d="M131.672 60.3834C132.787 60.8844 133.331 61.604 133.084 61.8722C132.844 62.1403 132.004 61.9709 130.974 61.2371C129.944 60.5034 129.584 59.7837 129.584 59.7837C129.584 59.7837 130.529 59.8754 131.672 60.3905V60.3834Z" fill="#FAF0B6"/>
<path d="M134.311 62.6557C133.627 63.7564 133.549 64.7089 133.895 64.7936C134.241 64.8782 134.869 64.2362 135.356 62.9873C135.842 61.7314 135.765 60.8848 135.765 60.8848C135.765 60.8848 135.01 61.5268 134.311 62.6557Z" fill="#FAF0B6"/>
<path d="M132.54 63.2412C133.626 63.7985 134.127 64.5464 133.873 64.8004C133.619 65.0544 132.786 64.8428 131.799 64.0525C130.811 63.2623 130.486 62.5215 130.486 62.5215C130.486 62.5215 131.425 62.6626 132.54 63.2412Z" fill="#FAF0B6"/>
<path d="M135.059 65.647C134.318 66.7124 134.191 67.6508 134.537 67.7636C134.882 67.8765 135.539 67.2627 136.089 66.035C136.639 64.8073 136.611 63.9536 136.611 63.9536C136.611 63.9536 135.821 64.5533 135.066 65.647H135.059Z" fill="#FAF0B6"/>
<path d="M133.26 66.1409C134.318 66.7548 134.777 67.5238 134.509 67.7637C134.241 68.0036 133.422 67.7496 132.477 66.91C131.531 66.0704 131.249 65.3154 131.249 65.3154C131.249 65.3154 132.18 65.5059 133.26 66.1409Z" fill="#FAF0B6"/>
<path d="M135.644 68.6739C134.847 69.697 134.67 70.6353 135.009 70.7624C135.348 70.8894 136.039 70.3108 136.646 69.1184C137.26 67.9189 137.274 67.0723 137.274 67.0723C137.274 67.0723 136.456 67.6367 135.637 68.6809L135.644 68.6739Z" fill="#FAF0B6"/>
<path d="M133.824 69.0759C134.847 69.7462 135.27 70.5364 134.988 70.7622C134.706 70.9879 133.908 70.6916 133.005 69.8026C132.102 68.9136 131.862 68.1445 131.862 68.1445C131.862 68.1445 132.78 68.3844 133.831 69.0688L133.824 69.0759Z" fill="#FAF0B6"/>
<path d="M136.075 71.7289C135.228 72.7096 135.002 73.6339 135.334 73.782C135.665 73.9302 136.385 73.3869 137.055 72.2228C137.733 71.0586 137.789 70.2119 137.789 70.2119C137.789 70.2119 136.943 70.727 136.075 71.7289Z" fill="#FAF0B6"/>
<path d="M134.233 72.0326C135.221 72.7522 135.595 73.5707 135.306 73.7824C135.017 73.994 134.226 73.6553 133.38 72.717C132.526 71.7856 132.321 71.0024 132.321 71.0024C132.321 71.0024 133.224 71.2917 134.233 72.0326Z" fill="#FAF0B6"/>
<path d="M136.343 74.7983C135.447 75.7296 135.172 76.6469 135.497 76.8091C135.821 76.9714 136.562 76.4705 137.303 75.3416C138.044 74.2127 138.142 73.373 138.142 73.373C138.142 73.373 137.268 73.8458 136.35 74.7983H136.343Z" fill="#FAF0B6"/>
<path d="M134.494 75.0098C135.44 75.7788 135.778 76.6184 135.475 76.8089C135.172 77.0065 134.403 76.6255 133.605 75.6448C132.801 74.6711 132.639 73.8809 132.639 73.8809C132.639 73.8809 133.528 74.2195 134.494 75.0098Z" fill="#FAF0B6"/>
<path d="M84.0954 159.267L82.7548 157.927C83.3192 157.01 83.6015 155.951 83.6015 154.752C83.6015 151.365 80.9203 148.684 77.5336 148.684C74.1469 148.684 71.4658 151.436 71.4658 154.752C71.4658 158.068 74.1469 160.82 77.5336 160.82C78.8742 160.82 80.0737 160.396 81.0614 159.62L82.3315 160.82L84.0954 159.267ZM77.6042 158.421C75.5581 158.421 73.8647 156.798 73.8647 154.681C73.8647 152.565 75.4875 150.942 77.6042 150.942C79.7209 150.942 81.3437 152.565 81.3437 154.681C81.3437 155.175 81.2731 155.599 81.0614 156.092L80.9909 156.022H77.5336L79.4387 157.927C78.8036 158.209 78.3098 158.421 77.6042 158.421Z" fill="#FAF0B6"/>
<path d="M0.331801 86.0091L0.134244 82.9117C0.0777995 82.0932 0.282412 81.4653 0.677526 81.0278C1.05853 80.6045 1.59476 80.3364 2.24387 80.2941C3.57738 80.2094 4.52989 81.0278 4.62161 82.5095L4.7345 84.2452L7.28863 84.0829L7.38035 85.5646L0.331801 86.0162V86.0091ZM3.57032 84.3158L3.4786 82.8341C3.42921 82.0862 2.99177 81.7193 2.3497 81.7616C1.68648 81.804 1.34075 82.2414 1.38309 82.954L1.48187 84.4498L3.57032 84.3158Z" fill="#FAF0B6"/>
<path d="M0 76.0753L0.204613 72.8438C0.28928 71.4821 1.13595 70.6283 2.30718 70.6989C3.13269 70.7553 3.73947 71.1787 3.92997 72.0959H3.9582C4.18397 71.4609 4.58614 71.1504 5.44693 71.1152C6.44882 71.0799 7.20377 71.1646 7.33078 70.9247H7.40133L7.31666 72.3005C7.22494 72.4698 6.43471 72.4416 5.67271 72.4557C4.89659 72.4628 4.43798 72.872 4.38153 73.761L4.31098 74.9111L7.14027 75.0875L7.04855 76.5198L0 76.0753ZM3.20325 74.8405L3.30202 73.3236C3.35141 72.5475 2.97041 72.1312 2.41302 72.0959C1.84151 72.0606 1.39701 72.3993 1.34762 73.1542L1.24884 74.7135L3.2103 74.8405H3.20325Z" fill="#FAF0B6"/>
<path d="M4.35348 66.9876C2.27913 66.5643 1.00207 64.9556 1.41835 62.9166C1.83463 60.8775 3.63381 59.8968 5.70816 60.3201C7.7825 60.7434 9.04546 62.338 8.63623 64.3841C8.21995 66.4302 6.42783 67.411 4.35348 66.9947V66.9876ZM5.41888 61.7524C4.03598 61.4702 2.83652 61.8723 2.57547 63.1423C2.32146 64.4123 3.25986 65.2802 4.64276 65.5554C6.0186 65.8376 7.22511 65.4072 7.47911 64.1372C7.73311 62.8672 6.78766 62.0275 5.41182 61.7524H5.41888Z" fill="#FAF0B6"/>
<path d="M3.4502 55.24L4.13459 53.3491L7.81056 53.6172C8.72779 53.6878 9.75085 53.8501 9.75085 53.8501V53.8289C9.75085 53.8289 8.86185 53.3068 8.11395 52.7706L5.12237 50.6257L5.82088 48.7065L12.4602 51.1125L12.0086 52.3684L8.20567 50.9926C7.66945 50.795 6.851 50.4352 6.851 50.4352V50.4563C6.851 50.4563 7.57067 50.8867 8.00106 51.2042L11.5077 53.7654L11.042 55.0566L6.71694 54.7532C6.18072 54.7179 5.34815 54.5839 5.34815 54.5839V54.605C5.34815 54.605 6.19483 54.852 6.73811 55.0495L10.5411 56.4324L10.0966 57.6672L3.45725 55.2612L3.4502 55.24Z" fill="#FAF0B6"/>
<path d="M10.809 46.2439C8.94627 45.2349 8.19838 43.3228 9.18616 41.4954C10.181 39.661 12.1848 39.2517 14.0475 40.2607C15.9102 41.2696 16.6581 43.1676 15.6632 45.0021C14.6684 46.8365 12.6646 47.2599 10.809 46.2509V46.2439ZM13.349 41.5448C12.1072 40.8745 10.8442 40.9098 10.2233 42.0458C9.6095 43.1817 10.2586 44.2894 11.5004 44.9597C12.7351 45.63 14.0122 45.5665 14.6331 44.4306C15.2469 43.2946 14.5837 42.2151 13.349 41.5448Z" fill="#FAF0B6"/>
<path d="M12.9404 35.4276L16.2566 30.8203L17.2373 31.5259L15.9955 33.2474L20.751 36.6694L19.9114 37.8336L15.1559 34.4116L13.9141 36.1332L12.9404 35.4276Z" fill="#FAF0B6"/>
<path d="M18.9863 27.5749L19.9388 26.5024L25.2305 31.1803L24.2851 32.2528L18.9934 27.5749H18.9863Z" fill="#FAF0B6"/>
<path d="M25.2666 25.931C23.8414 24.3646 23.7638 22.3114 25.3089 20.9074C26.8541 19.5033 28.8791 19.7855 30.3043 21.3448C31.7295 22.9112 31.8072 24.9502 30.262 26.3543C28.7168 27.7584 26.6918 27.4902 25.2666 25.931ZM29.2248 22.3326C28.2723 21.2884 27.0658 20.9003 26.1133 21.7752C25.1537 22.643 25.4007 23.906 26.3532 24.9502C27.2986 25.9874 28.5263 26.3543 29.4859 25.4865C30.4454 24.6116 30.1703 23.3768 29.2319 22.3397L29.2248 22.3326Z" fill="#FAF0B6"/>
<path d="M31.4473 15.9823L32.6467 15.1638L36.8166 17.09C37.2188 17.2805 37.7832 17.6262 37.7832 17.6262L37.7973 17.6121C37.7973 17.6121 37.3528 17.0336 37.0706 16.6243L34.9821 13.5693L36.1463 12.772L40.1398 18.5999L38.9968 19.3831L34.7987 17.5275C34.3965 17.344 33.8321 17.0053 33.8321 17.0053L33.8179 17.0194C33.8179 17.0194 34.2695 17.6121 34.5447 18.0143L36.6049 21.02L35.4407 21.8173L31.4473 15.9893V15.9823Z" fill="#FAF0B6"/>
<path d="M41.9953 9.47741L43.3147 8.80713L48.7123 13.993L47.3788 14.6633L46.2781 13.5344L44.0062 14.6774L44.2672 16.2296L42.969 16.8858L41.9883 9.47741H41.9953ZM43.8157 13.5556L45.4808 12.7159L43.9991 11.1849C43.724 10.9026 43.2512 10.3453 43.2512 10.3453H43.2371C43.2371 10.3453 43.3994 11.072 43.4629 11.46L43.8157 13.5626V13.5556Z" fill="#FAF0B6"/>
<path d="M49.46 6.06914L50.8076 5.58936L52.7761 11.1139L55.9017 9.99911L56.3039 11.121L51.8306 12.7155L49.46 6.06208V6.06914Z" fill="#FAF0B6"/>
<path d="M63 2.18862L68.1294 1.38428L68.3129 2.57667L64.5946 3.15523L64.8415 4.71452L68.1012 4.20652L68.2846 5.36364L65.025 5.87164L65.3213 7.75549L69.0678 7.16988L69.2513 8.34816L64.0936 9.1525L63 2.18156V2.18862Z" fill="#FAF0B6"/>
<path d="M72.0869 1.0175L73.5898 0.961058L74.9938 4.99687C75.149 5.45548 75.3466 6.11165 75.3466 6.11165H75.3678C75.3678 6.11165 75.5089 5.43431 75.6288 4.9757L76.7013 0.841113L78.1547 0.784668L76.0522 7.932L74.7469 7.98139L72.094 1.0175H72.0869Z" fill="#FAF0B6"/>
<path d="M82.4093 0.968262L87.5811 1.4551L87.4682 2.65455L83.7217 2.30177L83.5735 3.87517L86.8544 4.18562L86.7415 5.35685L83.4606 5.0464L83.2842 6.94436L87.059 7.3042L86.9461 8.49659L81.7461 8.0027L82.4093 0.975317V0.968262Z" fill="#FAF0B6"/>
<path d="M92.1254 2.16038L93.5436 2.48493L94.9547 6.85235C95.0887 7.27569 95.2157 7.92481 95.2157 7.92481H95.2369C95.2369 7.92481 95.3639 7.20514 95.4697 6.72535L96.2952 3.11288L97.6711 3.43039L96.0977 10.3167L94.7501 10.0062L93.2684 5.65996C93.1273 5.24368 92.9932 4.59456 92.9932 4.59456H92.9721C92.9721 4.59456 92.845 5.32129 92.7322 5.80107L91.9208 9.35709L90.5449 9.03959L92.1183 2.15332L92.1254 2.16038Z" fill="#FAF0B6"/>
<path d="M101.876 4.68625L107.203 6.66182L106.786 7.79072L104.797 7.04988L102.758 12.5462L101.417 12.0453L103.456 6.54894L101.466 5.8081L101.883 4.6792L101.876 4.68625Z" fill="#FAF0B6"/>
<path d="M112.784 14.7618L113.983 15.4885C113.63 16.2646 113.863 16.8079 114.724 17.33C115.345 17.711 116.029 17.8239 116.368 17.2665C116.728 16.6739 116.227 16.2082 115.437 15.4391C114.505 14.536 113.694 13.647 114.456 12.3911C115.183 11.1987 116.523 11.1776 117.871 11.9889C119.233 12.8145 119.705 14.021 119.056 15.291L117.885 14.5784C118.188 13.9292 117.899 13.3366 117.278 12.9556C116.622 12.5534 116.022 12.5746 115.754 13.005C115.458 13.4918 115.789 13.894 116.566 14.6348C117.645 15.6579 118.478 16.5751 117.687 17.8733C116.939 19.101 115.535 19.1786 114.181 18.3531C112.544 17.3583 112.057 16.0671 112.791 14.7618H112.784Z" fill="#FAF0B6"/>
<path d="M123.96 16.208L126.38 18.1483C127.022 18.6634 127.346 19.2278 127.41 19.8205C127.466 20.3849 127.304 20.9635 126.895 21.4715C126.062 22.5157 124.814 22.6639 123.656 21.7396L122.302 20.653L120.7 22.6498L119.543 21.7255L123.96 16.208ZM123.028 19.7429L124.186 20.6672C124.771 21.1399 125.336 21.0623 125.745 20.5613C126.161 20.0463 126.069 19.4889 125.512 19.0444L124.341 18.106L123.028 19.7429Z" fill="#FAF0B6"/>
<path d="M131.523 22.6572L135.136 26.3896L134.268 27.2293L131.65 24.527L130.514 25.6276L132.808 27.9983L131.961 28.8168L129.668 26.4461L128.299 27.7725L130.938 30.496L130.077 31.3286L126.443 27.575L131.516 22.6643L131.523 22.6572Z" fill="#FAF0B6"/>
<path d="M134.974 31.6178C136.653 30.3619 138.714 30.4466 139.962 32.1188C141.007 33.5087 140.788 34.9551 139.8 35.8794L138.946 34.7435C139.44 34.2143 139.49 33.5087 138.996 32.8455C138.213 31.8013 136.971 31.9565 135.849 32.7961C134.692 33.6569 134.311 34.8846 135.023 35.83C135.524 36.5003 136.286 36.6767 136.928 36.3028L137.768 37.4246C137.246 37.7633 136.604 37.9114 135.962 37.7986C135.306 37.6857 134.664 37.3117 134.078 36.5356C132.886 34.9481 133.267 32.8949 134.967 31.6249L134.974 31.6178Z" fill="#FAF0B6"/>
<path d="M143.878 38.1865L144.612 39.4213L138.544 43.0337L137.811 41.799L143.878 38.1865Z" fill="#FAF0B6"/>
<path d="M147.673 45.2349L148.294 46.5825L142.918 51.8036L142.29 50.449L143.454 49.3906L142.389 47.0764L140.829 47.281L140.223 45.9616L147.666 45.2419L147.673 45.2349ZM143.532 46.9141L144.315 48.6074L145.902 47.1822C146.192 46.9141 146.77 46.4696 146.77 46.4696V46.4484C146.77 46.4484 146.044 46.5825 145.655 46.6319L143.539 46.907L143.532 46.9141Z" fill="#FAF0B6"/>
<path d="M150.813 52.7988L151.244 54.1676L145.649 55.9386L146.65 59.1065L145.507 59.4664L144.075 54.9367L150.813 52.8059V52.7988Z" fill="#FAF0B6"/>
<path d="M153.255 61.4697L153.552 62.8738L146.637 64.3484L146.341 62.9444L153.255 61.4697Z" fill="#FAF0B6"/>
<path d="M149.487 67.6366L149.635 69.0336C148.803 69.2241 148.52 69.7391 148.626 70.741C148.704 71.4677 149.028 72.0816 149.677 72.011C150.362 71.9405 150.432 71.2561 150.559 70.1554C150.708 68.8713 150.919 67.6859 152.38 67.5237C153.763 67.3755 154.602 68.4268 154.772 69.9861C154.941 71.5665 154.278 72.6743 152.874 72.9283L152.725 71.5665C153.424 71.4113 153.72 70.8257 153.643 70.099C153.558 69.337 153.184 68.8642 152.683 68.9207C152.112 68.9842 151.999 69.4922 151.886 70.5576C151.724 72.0322 151.512 73.2528 149.995 73.4151C148.57 73.5703 147.653 72.5049 147.483 70.9245C147.279 69.0194 148.005 67.8482 149.487 67.6436V67.6366Z" fill="#FAF0B6"/>
<path d="M155.138 76.6957L155.061 82.3755L153.854 82.3614L153.883 80.2377L148.026 80.153L148.048 78.7207L153.904 78.8054L153.932 76.6816L155.138 76.6957Z" fill="#FAF0B6"/>
<path d="M50.3069 64.8357V64.5605H58.1245C59.4298 64.5605 60.5798 64.7369 61.5817 65.0968C62.5836 65.4566 63.4091 65.9364 64.0723 66.5573C64.7356 67.1711 65.2295 67.8696 65.5611 68.6387C65.8927 69.4077 66.055 70.2262 66.055 71.0729C66.055 71.9195 65.8998 72.7027 65.5964 73.4788C65.2859 74.2479 64.8061 74.9393 64.15 75.5391C63.4938 76.1388 62.6259 76.6186 61.5606 76.9714C60.4952 77.3241 59.2604 77.5076 57.8705 77.5076C57.426 77.5076 56.5722 77.4441 55.3093 77.31V85.5369C55.3093 87.2302 56.1701 88.1051 57.8987 88.1615V88.4226H50.3069V88.1615C51.0548 88.1404 51.6615 87.9287 52.1413 87.5195C52.6211 87.1173 52.861 86.4541 52.861 85.5369V67.4957C52.861 66.9453 52.7763 66.4867 52.5999 66.1198C52.4235 65.7529 52.226 65.4919 51.9932 65.3367C51.7603 65.1814 51.4993 65.0615 51.217 64.9909C50.9348 64.9204 50.7302 64.8639 50.6244 64.8428H50.2998L50.3069 64.8357ZM55.3093 65.4002V76.6397C56.1418 76.7879 56.9603 76.8655 57.7717 76.8655C59.3169 76.8655 60.6222 76.4704 61.7017 75.6731C62.7741 74.8829 63.3103 73.4083 63.3103 71.2634C63.3103 69.4924 62.8376 68.039 61.8922 66.903C60.9467 65.7671 59.5144 65.1956 57.5953 65.1956C56.8474 65.1956 56.0925 65.2661 55.3093 65.4072V65.4002Z" fill="#FAF0B6"/>
<path d="M71.502 64.8357V64.5605H85.719V68.3141H85.4932C85.4932 66.3033 84.1527 65.3014 81.4786 65.3014H76.5114V76.1317H80.8859C81.7467 76.1317 82.5228 75.9906 83.2002 75.7084C83.8775 75.4262 84.2726 74.7841 84.3643 73.7822H84.6042V79.1939H84.3643C84.2655 78.58 84.0821 78.1073 83.814 77.7757C83.5459 77.4441 83.2778 77.2254 83.0097 77.1195C82.7415 77.0137 82.5087 76.9572 82.3041 76.9572C81.916 76.8937 81.5139 76.8585 81.0905 76.8585H76.5114V85.3252C76.5114 85.9602 76.6314 86.5105 76.8783 86.9762C77.1182 87.4419 77.6827 87.6747 78.5717 87.6747H82.1206C82.9744 87.6747 83.6729 87.5548 84.2232 87.3008C84.7736 87.0538 85.211 86.7081 85.5285 86.2636C85.846 85.8191 86.1141 85.2899 86.3328 84.662H86.5586L85.7331 88.4014H71.5161V88.1404H71.8406C72.3486 88.1404 72.8425 87.9358 73.3294 87.5265C73.8162 87.1173 74.0561 86.447 74.0561 85.5157V67.5451C74.0561 66.8113 73.8938 66.1763 73.5622 65.633C73.2306 65.0968 72.6591 64.8216 71.8406 64.8216H71.5161L71.502 64.8357Z" fill="#FAF0B6"/>
<path d="M104.014 69.1466H103.753C103.605 67.9895 103.097 66.9805 102.236 66.1127C101.376 65.2449 100.247 64.8074 98.8427 64.8074C97.9255 64.8074 97.107 65.0261 96.4015 65.4565C95.6889 65.8869 95.1385 66.4796 94.7505 67.2204C94.3624 67.9613 94.1648 68.815 94.1648 69.7816C94.1648 70.5295 94.2777 71.1857 94.5106 71.7642C94.7434 72.3428 95.0821 72.8508 95.5407 73.2953C95.9922 73.7398 96.5285 74.149 97.1423 74.53C97.7561 74.911 98.5887 75.3979 99.6329 75.9764C101.383 76.936 102.744 77.8956 103.711 78.8481C104.678 79.8006 105.172 81.1129 105.172 82.778C105.172 83.7941 104.911 84.7748 104.388 85.7202C103.866 86.6657 103.076 87.4418 102.018 88.0415C100.959 88.6483 99.647 88.9517 98.0807 88.9517C97.1 88.9517 96.2321 88.8459 95.4701 88.6342C94.7152 88.4225 93.9461 88.1333 93.17 87.7522C92.8454 87.6464 92.6267 87.59 92.5068 87.59C92.281 87.59 92.1328 87.6746 92.0623 87.8299C91.9917 87.9851 91.9 88.3449 91.7801 88.8811H91.5049V82.905H91.7801C92.1681 84.6548 92.9231 85.9742 94.0449 86.8703C95.1667 87.7664 96.5355 88.2179 98.1442 88.2179C99.3507 88.2179 100.324 87.9921 101.051 87.5406C101.778 87.089 102.286 86.5387 102.568 85.8896C102.85 85.2405 102.991 84.5913 102.991 83.9493C102.991 82.6087 102.582 81.5151 101.771 80.6684C100.959 79.8218 99.7176 78.9539 98.0525 78.072C96.9095 77.444 96.0628 76.9572 95.5125 76.6114C94.9621 76.2657 94.4047 75.8212 93.8332 75.2709C93.2688 74.7205 92.8172 74.0714 92.4786 73.3165C92.1469 72.5686 91.9776 71.7078 91.9776 70.7341C91.9776 69.6123 92.2739 68.5398 92.8666 67.5097C93.4593 66.4867 94.2989 65.6611 95.3925 65.0403C96.4791 64.4194 97.7209 64.1089 99.0967 64.1089C100.141 64.1089 101.22 64.2853 102.321 64.6451C102.49 64.7298 102.723 64.7721 103.02 64.7721C103.372 64.7721 103.619 64.5322 103.746 64.0454H104.007V69.1466H104.014Z" fill="#FAF0B6"/>
<path d="M3.85962 91.7671H3.81728C3.71145 91.7812 3.61267 91.7883 3.50684 91.7953C8.86204 122.346 32.9005 146.787 63.4089 152.713C63.4301 152.593 63.4442 152.481 63.4654 152.368C33.1263 146.469 9.20071 122.149 3.85962 91.7671Z" fill="#FAF0B6"/>
<path d="M91.5107 152.509C91.5319 152.614 91.546 152.72 91.5672 152.826V152.854C122.435 147.168 146.749 122.67 152.168 91.8093C152.048 91.8093 151.935 91.7951 151.815 91.7881C146.41 122.48 122.21 146.85 91.5178 152.509H91.5107Z" fill="#FAF0B6"/>
</g>
<defs>
<clipPath id="clip0_6665_24042">
<rect width="160" height="160.042" fill="white" transform="translate(0 0.777832)"/>
</clipPath>
</defs>
</svg>
