<svg width="20" height="21" viewBox="0 0 20 21" fill="currentColor" xmlns="http://www.w3.org/2000/svg">
<path d="M0.0599783 13.3574C0.128886 13.6099 0.294036 13.8253 0.519978 13.9574L2.42998 15.0674V17.2674C2.42998 17.5326 2.53534 17.787 2.72287 17.9745C2.91041 18.162 3.16476 18.2674 3.42998 18.2674H5.62998L6.73998 20.1774C6.82723 20.3285 6.95252 20.4542 7.10339 20.5419C7.25427 20.6296 7.42547 20.6763 7.59998 20.6774C7.77946 20.6773 7.95562 20.629 8.10998 20.5374L10.01 19.4374L11.92 20.5374C12.0335 20.6039 12.1591 20.6474 12.2894 20.6653C12.4198 20.6832 12.5524 20.6752 12.6797 20.6418C12.807 20.6083 12.9264 20.5501 13.0311 20.4704C13.1358 20.3907 13.2238 20.2911 13.29 20.1774L14.39 18.2674H16.59C16.8552 18.2674 17.1096 18.162 17.2971 17.9745C17.4846 17.787 17.59 17.5326 17.59 17.2674V15.0674L19.5 13.9574C19.7287 13.8255 19.896 13.6084 19.9653 13.3536C20.0346 13.0989 20.0004 12.827 19.87 12.5974L18.76 10.6774L19.87 8.76738C20.0004 8.53777 20.0346 8.26591 19.9653 8.01112C19.896 7.75633 19.7287 7.5393 19.5 7.40738L17.59 6.30738V4.10738C17.59 3.84217 17.4846 3.58781 17.2971 3.40028C17.1096 3.21274 16.8552 3.10738 16.59 3.10738H14.39L13.29 1.19738C13.1555 0.969359 12.9362 0.803939 12.68 0.737384C12.5529 0.703249 12.4204 0.694511 12.29 0.711671C12.1596 0.72883 12.0339 0.771551 11.92 0.837384L9.99998 1.93738L8.09998 0.837384C7.87157 0.706172 7.60061 0.670382 7.34597 0.737788C7.09132 0.805194 6.87356 0.970351 6.73998 1.19738L5.62998 3.10738H3.42998C3.16476 3.10738 2.91041 3.21274 2.72287 3.40028C2.53534 3.58781 2.42998 3.84217 2.42998 4.10738V6.30738L0.529978 7.40738C0.415391 7.47271 0.31486 7.56007 0.234176 7.66441C0.153492 7.76876 0.0942478 7.88804 0.0598567 8.01538C0.0254655 8.14272 0.0166066 8.27561 0.0337899 8.40638C0.0509732 8.53716 0.0938594 8.66325 0.159978 8.77738L1.25998 10.6774L0.159978 12.5874C0.0928136 12.7026 0.0493662 12.83 0.0321927 12.9623C0.0150192 13.0945 0.0244663 13.2289 0.0599783 13.3574ZM3.27998 10.1874L2.38998 8.67738L3.93998 7.77738C4.08926 7.68888 4.21293 7.56305 4.29884 7.41226C4.38476 7.26147 4.42995 7.09093 4.42998 6.91738V5.10738H6.20998C6.38619 5.10808 6.55945 5.06221 6.71223 4.97441C6.86501 4.8866 6.99187 4.75999 7.07998 4.60738L7.99998 3.06738L9.53998 3.95738C9.692 4.04515 9.86444 4.09136 10.04 4.09136C10.2155 4.09136 10.388 4.04515 10.54 3.95738L12.09 3.06738L13 4.60738C13.0881 4.75999 13.2149 4.8866 13.3677 4.97441C13.5205 5.06221 13.6938 5.10808 13.87 5.10738H15.64V6.88738C15.641 7.0619 15.6877 7.2331 15.7755 7.38397C15.8632 7.53484 15.9888 7.66013 16.14 7.74738L17.68 8.64738L16.79 10.1874C16.7022 10.3394 16.656 10.5118 16.656 10.6874C16.656 10.8629 16.7022 11.0354 16.79 11.1874L17.68 12.7274L16.14 13.6274C15.9888 13.7146 15.8632 13.8399 15.7755 13.9908C15.6877 14.1417 15.641 14.3129 15.64 14.4874V16.2674H13.81C13.6355 16.2684 13.4643 16.3151 13.3134 16.4029C13.1625 16.4906 13.0372 16.6162 12.95 16.7674L12.06 18.3074L10.51 17.4174C10.358 17.3296 10.1855 17.2834 10.01 17.2834C9.83444 17.2834 9.662 17.3296 9.50998 17.4174L7.99998 18.3074L7.10998 16.7674C7.02187 16.6148 6.89501 16.4882 6.74223 16.4004C6.58946 16.3126 6.41619 16.2667 6.23998 16.2674H4.42998V14.4874C4.42156 14.3224 4.37241 14.1621 4.2869 14.0207C4.20139 13.8794 4.0822 13.7614 3.93998 13.6774L2.38998 12.7774L3.27998 11.2374C3.37732 11.0796 3.42888 10.8978 3.42888 10.7124C3.42888 10.527 3.37732 10.3452 3.27998 10.1874Z" fill="currentColor"/>
</svg>
