<svg width="20" height="21" viewBox="0 0 20 21" fill="currentColor" xmlns="http://www.w3.org/2000/svg">
<path d="M10 0.677734C4.486 0.677734 0 5.16373 0 10.6777C0 16.1917 4.486 20.6777 10 20.6777C15.514 20.6777 20 16.1917 20 10.6777C20 5.16373 15.514 0.677734 10 0.677734ZM10 18.6777C5.589 18.6777 2 15.0887 2 10.6777C2 6.26673 5.589 2.67773 10 2.67773C14.411 2.67773 18 6.26673 18 10.6777C18 15.0887 14.411 18.6777 10 18.6777Z" fill="currentColor"/>
<path d="M11 5.67773H9V11.6777H15V9.67773H11V5.67773Z" fill="currentColor"/>
</svg>
