<svg width="20" height="21" viewBox="0 0 20 21" fill="currentColor" xmlns="http://www.w3.org/2000/svg">
<path d="M10 0.677734C8.02219 0.677734 6.08879 1.26422 4.4443 2.36304C2.79981 3.46185 1.51809 5.02364 0.761209 6.8509C0.00433284 8.67816 -0.193701 10.6888 0.192152 12.6286C0.578004 14.5684 1.53041 16.3503 2.92894 17.7488C4.32746 19.1473 6.10929 20.0997 8.0491 20.4856C9.98891 20.8714 11.9996 20.6734 13.8268 19.9165C15.6541 19.1597 17.2159 17.8779 18.3147 16.2334C19.4135 14.5889 20 12.6555 20 10.6777C20 9.36452 19.7413 8.06416 19.2388 6.8509C18.7363 5.63764 17.9997 4.53525 17.0711 3.60667C16.1425 2.67808 15.0401 1.94149 13.8268 1.43894C12.6136 0.936392 11.3132 0.677734 10 0.677734ZM10 18.6777C8.41775 18.6777 6.87104 18.2085 5.55544 17.3295C4.23985 16.4504 3.21447 15.201 2.60897 13.7392C2.00347 12.2774 1.84504 10.6689 2.15372 9.11701C2.4624 7.56516 3.22433 6.1397 4.34315 5.02088C5.46197 3.90206 6.88743 3.14013 8.43928 2.83145C9.99113 2.52277 11.5997 2.6812 13.0615 3.2867C14.5233 3.8922 15.7727 4.91758 16.6518 6.23317C17.5308 7.54877 18 9.09548 18 10.6777C18 12.7995 17.1572 14.8343 15.6569 16.3346C14.1566 17.8349 12.1217 18.6777 10 18.6777Z" fill="currentColor"/>
<path d="M10 9.67773C8 9.67773 8 9.04773 8 8.67773C8 8.30773 8.7 7.67773 10 7.67773C11.3 7.67773 11.39 8.31773 11.4 8.67773H13.4C13.3865 7.99649 13.1415 7.34014 12.7053 6.81669C12.269 6.29324 11.6676 5.93388 11 5.79773V4.67773H9V5.76773C7 6.09773 6 7.38773 6 8.67773C6 9.79773 6.52 11.6777 10 11.6777C12 11.6777 12 12.3577 12 12.6777C12 12.9977 11.38 13.6777 10 13.6777C8.16 13.6777 8 12.8177 8 12.6777H6C6 13.5977 6.66 15.2277 9 15.5977V16.6777H11V15.5977C13 15.2577 14 13.9677 14 12.6777C14 11.5577 13.48 9.67773 10 9.67773Z" fill="currentColor"/>
</svg>
