<svg width="20" height="21" viewBox="0 0 20 21" fill="currentColor" xmlns="http://www.w3.org/2000/svg">
<path d="M18.995 5.57747C18.9784 5.40942 18.9194 5.24833 18.8235 5.10929C18.7277 4.97025 18.5981 4.8578 18.447 4.78247L10.447 0.782474C10.3081 0.712953 10.1549 0.676758 9.9995 0.676758C9.84415 0.676758 9.69093 0.712953 9.552 0.782474L1.552 4.78247C1.40128 4.85823 1.27212 4.97081 1.17649 5.10979C1.08087 5.24876 1.02189 5.40963 1.005 5.57747C0.994004 5.68447 0.0440035 16.3445 9.594 20.5915C9.72161 20.6491 9.86001 20.6788 10 20.6788C10.14 20.6788 10.2784 20.6491 10.406 20.5915C19.956 16.3445 19.006 5.68547 18.995 5.57747ZM10 18.5745C3.231 15.3025 2.911 8.31947 2.966 6.31247L10 2.79547L17.029 6.31047C17.066 8.29947 16.701 15.3285 10 18.5745Z" fill="currentColor"/>
<path d="M9.00003 11.2635L6.70703 8.97052L5.29303 10.3845L9.00003 14.0915L14.707 8.38452L13.293 6.97052L9.00003 11.2635Z" fill="currentColor"/>
</svg>
