<svg width="36" height="36" viewBox="0 0 36 36" fill="currentColor" xmlns="http://www.w3.org/2000/svg">
<path d="M31.1176 10.7445C31.0941 10.4991 31.0086 10.2636 30.869 10.0603C30.7295 9.85693 30.5405 9.69244 30.3199 9.58226L18.6926 3.74892C18.4903 3.64675 18.267 3.59328 18.0403 3.59278C17.8137 3.59227 17.5901 3.64474 17.3874 3.74601L5.68134 9.57934C5.24822 9.79809 4.94926 10.2166 4.88801 10.6979C4.86905 10.8393 3.21822 24.9035 17.3436 32.5845C17.5608 32.703 17.8046 32.7639 18.0519 32.7616C18.2992 32.7593 18.5419 32.6939 18.7568 32.5714C32.3295 24.9021 31.173 11.3191 31.1176 10.7445ZM18.0261 29.6212C8.02197 23.7733 7.61364 14.5245 7.72593 11.8223L18.0378 6.68455L28.2432 11.8048C28.2505 14.5318 27.5418 23.8258 18.0261 29.6212Z" fill="currentColor"/>
</svg>
