<svg viewBox="0 0 30 40" fill="none" xmlns="http://www.w3.org/2000/svg">
<path d="M10.77 39.576C11.0091 39.7632 11.2878 39.8933 11.5849 39.9563C11.8819 40.0194 12.1894 40.0138 12.484 39.94L28.484 35.94C28.917 35.8323 29.3016 35.5828 29.5763 35.2312C29.8511 34.8796 30.0002 34.4462 30 34V5.99998C29.9999 5.55386 29.8506 5.12058 29.5759 4.76906C29.3012 4.41753 28.9169 4.16795 28.484 4.05998L12.484 0.0599837C12.1893 -0.0123178 11.8821 -0.0168327 11.5854 0.0467786C11.2887 0.11039 11.0104 0.24047 10.7712 0.427227C10.5321 0.613985 10.3385 0.852553 10.2049 1.12497C10.0713 1.3974 10.0012 1.69657 10 1.99998V3.99998H2C1.46957 3.99998 0.96086 4.2107 0.585787 4.58577C0.210714 4.96084 0 5.46955 0 5.99998V34C0 34.5304 0.210714 35.0391 0.585787 35.4142C0.96086 35.7893 1.46957 36 2 36H10V38C10 38.616 10.284 39.198 10.77 39.576ZM14 4.56198L26 7.56198V32.438L14 35.438V4.56198ZM4 32V7.99998H10V32H4Z" fill="currentColor"/>
<path d="M18.484 22.318C19.376 22.094 20 21.294 20 20.376V19.622C19.9997 19.0916 19.7888 18.583 19.4135 18.2081C19.0382 17.8332 18.5294 17.6228 17.999 17.623C17.4686 17.6233 16.96 17.8343 16.5851 18.2095C16.2102 18.5848 15.9997 19.0936 16 19.624V20.378C16.0001 20.6818 16.0694 20.9816 16.2026 21.2546C16.3358 21.5277 16.5295 21.7667 16.769 21.9537C17.0084 22.1407 17.2873 22.2707 17.5844 22.3338C17.8816 22.397 18.1892 22.3916 18.484 22.318Z" fill="currentColor"/>
</svg>
