<svg viewBox="0 0 28 40" fill="none" xmlns="http://www.w3.org/2000/svg">
<path d="M8 36H20V40H8V36ZM23.812 23.424C25.872 21.012 28 18.518 28 14C28 6.282 21.718 0 14 0C6.282 0 0 6.282 0 14C0 18.57 2.134 21.056 4.202 23.46C4.918 24.296 5.66 25.162 6.37 26.158C6.658 26.57 7.13 28.15 7.552 30H6V34H22V30H20.452C20.878 28.146 21.352 26.562 21.638 26.15C22.342 25.144 23.09 24.27 23.812 23.424ZM18.364 23.85C17.496 25.084 16.772 28 16.352 30H11.65C11.232 27.996 10.506 25.074 9.628 23.84C8.87751 22.8087 8.07931 21.8129 7.236 20.856C5.288 18.588 4 17.088 4 14C4 8.486 8.486 4 14 4C19.514 4 24 8.486 24 14C24 17.042 22.714 18.548 20.77 20.826C20.024 21.702 19.178 22.692 18.364 23.85Z" fill="currentColor"/>
</svg>
