<svg width="18" height="21" viewBox="0 0 18 21" fill="none" xmlns="http://www.w3.org/2000/svg">
<path d="M8.024 10.3138L7 8.77783L5 11.7778H14L10.5 6.77783L8.024 10.3138Z" fill="black"/>
<path d="M6.503 7.77785C7.33308 7.77785 8.006 7.10493 8.006 6.27485C8.006 5.44477 7.33308 4.77185 6.503 4.77185C5.67292 4.77185 5 5.44477 5 6.27485C5 7.10493 5.67292 7.77785 6.503 7.77785Z" fill="black"/>
<path d="M16 0.777832H3C1.794 0.777832 0 1.57683 0 3.77783V17.7778C0 19.9788 1.794 20.7778 3 20.7778H18V18.7778H3.012C2.55 18.7658 2 18.5838 2 17.7778C2 16.9718 2.55 16.7898 3.012 16.7778H18V2.77783C18 1.67483 17.103 0.777832 16 0.777832ZM16 14.7778H2V3.77783C2 2.97183 2.55 2.78983 3 2.77783H16V14.7778Z" fill="black"/>
</svg>
