<svg viewBox="0 0 19 20" fill="currentColor" xmlns="http://www.w3.org/2000/svg">
<path d="M10.707 0.970735C10.6143 0.877693 10.5041 0.803905 10.3828 0.75362C10.2614 0.703335 10.1313 0.677545 10 0.677735H1C0.734784 0.677735 0.48043 0.783092 0.292893 0.970629C0.105357 1.15816 0 1.41252 0 1.67774V10.6777C0 10.9437 0.105 11.1977 0.293 11.3847L8.293 19.3847C8.38565 19.4779 8.49581 19.5519 8.61715 19.6023C8.73848 19.6528 8.86859 19.6788 9 19.6788C9.13141 19.6788 9.26152 19.6528 9.38285 19.6023C9.50419 19.5519 9.61435 19.4779 9.707 19.3847L18.707 10.3847C18.7999 10.2919 18.8737 10.1817 18.924 10.0604C18.9743 9.93911 19.0002 9.80907 19.0002 9.67774C19.0002 9.5464 18.9743 9.41636 18.924 9.29504C18.8737 9.17373 18.7999 9.06352 18.707 8.97074L10.707 0.970735ZM9 17.2637L2 10.2637V2.67774H9.586L16.586 9.67774L9 17.2637Z" fill="currentColor"/>
<path d="M5.49603 7.67772C6.32722 7.67772 7.00103 7.00391 7.00103 6.17272C7.00103 5.34154 6.32722 4.66772 5.49603 4.66772C4.66484 4.66772 3.99103 5.34154 3.99103 6.17272C3.99103 7.00391 4.66484 7.67772 5.49603 7.67772Z" fill="currentColor"/>
</svg>
