<svg width="33" height="40" viewBox="0 0 33 40" fill="none" xmlns="http://www.w3.org/2000/svg">
<path d="M16.3322 24C20.7442 24 24.3322 20.412 24.3322 16C24.3322 11.588 20.7442 8 16.3322 8C11.9202 8 8.33215 11.588 8.33215 16C8.33215 20.412 11.9202 24 16.3322 24ZM16.3322 12C18.5382 12 20.3322 13.794 20.3322 16C20.3322 18.206 18.5382 20 16.3322 20C14.1262 20 12.3322 18.206 12.3322 16C12.3322 13.794 14.1262 12 16.3322 12Z" fill="#BCBCCB"/>
<path d="M15.1722 39.628C15.5107 39.8697 15.9163 39.9997 16.3322 39.9997C16.7482 39.9997 17.1537 39.8697 17.4922 39.628C18.1002 39.198 32.3902 28.88 32.3322 16C32.3322 7.178 25.1542 0 16.3322 0C7.51021 0 0.332207 7.178 0.332207 15.99C0.274207 28.88 14.5642 39.198 15.1722 39.628ZM16.3322 4C22.9502 4 28.3322 9.382 28.3322 16.01C28.3742 24.886 19.5562 32.856 16.3322 35.47C13.1102 32.854 4.29021 24.882 4.33221 16C4.33221 9.382 9.71421 4 16.3322 4Z" fill="#BCBCCB"/>
</svg>
