<svg width="41" height="32" viewBox="0 0 41 32" fill="none" xmlns="http://www.w3.org/2000/svg">
<path d="M36.666 0H4.66602C2.46002 0 0.666016 1.794 0.666016 4V28C0.666016 30.206 2.46002 32 4.66602 32H36.666C38.872 32 40.666 30.206 40.666 28V4C40.666 1.794 38.872 0 36.666 0ZM36.666 4V5.022L20.666 17.468L4.66602 5.024V4H36.666ZM4.66602 28V10.088L19.438 21.578C19.7882 21.8531 20.2207 22.0026 20.666 22.0026C21.1114 22.0026 21.5438 21.8531 21.894 21.578L36.666 10.088L36.67 28H4.66602Z" fill="#BCBCCB"/>
</svg>
