<svg width="38" height="39" viewBox="0 0 38 39" fill="none" xmlns="http://www.w3.org/2000/svg">
<path d="M29.4147 20.5859C29.2291 20.4 29.0087 20.2525 28.7661 20.1519C28.5234 20.0513 28.2633 19.9995 28.0007 19.9995C27.738 19.9995 27.4779 20.0513 27.2353 20.1519C26.9927 20.2525 26.7722 20.4 26.5867 20.5859L23.3987 23.7739C21.9207 23.3339 19.1627 22.3339 17.4147 20.5859C15.6667 18.8379 14.6667 16.0799 14.2267 14.6019L17.4147 11.4139C17.6006 11.2283 17.748 11.0079 17.8487 10.7653C17.9493 10.5227 18.0011 10.2626 18.0011 9.99991C18.0011 9.73725 17.9493 9.47716 17.8487 9.23453C17.748 8.9919 17.6006 8.77149 17.4147 8.58591L9.41467 0.585914C9.22909 0.400022 9.00868 0.252547 8.76605 0.151925C8.52342 0.0513039 8.26333 -0.000488281 8.00067 -0.000488281C7.738 -0.000488281 7.47791 0.0513039 7.23528 0.151925C6.99265 0.252547 6.77224 0.400022 6.58667 0.585914L1.16267 6.00991C0.402668 6.76991 -0.0253325 7.81391 -0.00933254 8.87991C0.0366675 11.7279 0.790668 21.6199 8.58667 29.4159C16.3827 37.2119 26.2747 37.9639 29.1247 38.0119H29.1807C30.2367 38.0119 31.2347 37.5959 31.9907 36.8399L37.4147 31.4159C37.6006 31.2303 37.748 31.0099 37.8487 30.7673C37.9493 30.5247 38.0011 30.2646 38.0011 30.0019C38.0011 29.7392 37.9493 29.4792 37.8487 29.2365C37.748 28.9939 37.6006 28.7735 37.4147 28.5879L29.4147 20.5859ZM29.1607 34.0099C26.6647 33.9679 18.1247 33.2979 11.4147 26.5859C4.68267 19.8539 4.03067 11.2839 3.99067 8.83791L8.00067 4.82791L13.1727 9.99991L10.5867 12.5859C10.3516 12.8208 10.1788 13.1106 10.0838 13.4291C9.98879 13.7475 9.97466 14.0846 10.0427 14.4099C10.0907 14.6399 11.2647 20.0939 14.5847 23.4139C17.9047 26.7339 23.3587 27.9079 23.5887 27.9559C23.9138 28.0258 24.2512 28.0128 24.57 27.9181C24.8887 27.8234 25.1785 27.65 25.4127 27.4139L28.0007 24.8279L33.1727 29.9999L29.1607 34.0099Z" fill="#BCBCCB"/>
</svg>
